<?xml version="1.0" encoding="UTF-8"?>
<svg id="Layer_2" data-name="Layer 2" xmlns="http://www.w3.org/2000/svg" viewBox="0 0 644.67 1083.53">
  <defs>
    <style>
      .cls-1 {
        stroke: #fff;
      }

      .cls-1, .cls-2 {
        fill: none;
        stroke-linejoin: round;
        stroke-width: 2px;
      }

      .cls-2 {
        stroke: #dbe120;
      }
    </style>
  </defs>
  <polyline class="cls-1" points="67.17 385.17 19 385.17 19 896.17 139.89 896.17"/>
  <polyline class="cls-1" points="149 888.39 149 385.17 100.89 385.17"/>
  <path class="cls-1" d="M59.22,298.17h49.56c11.59,0,21,9.41,21,21v577H38.22V319.17c0-11.59,9.41-21,21-21Z"/>
  <polyline class="cls-1" points="369.58 1066.17 631 1066.17 631 896.5 505.67 896.5"/>
  <line class="cls-1" x1="284.58" y1="1066.17" x2="360.17" y2="1066.17"/>
  <polyline class="cls-1" points="138.71 896.5 13.67 896.5 13.67 1066 273.92 1066"/>
  <line class="cls-1" x1="360.17" y1="1066.14" x2="284.58" y2="1066.14"/>
  <polyline class="cls-1" points="273.92 1066.14 1 1066.14 1 1082.17 643.67 1082.17 643.67 1066.14 369.69 1066.14"/>
  <polygon class="cls-1" points="84 31.17 38.22 317.39 129.78 317.39 84 31.17"/>
  <polygon class="cls-1" points="27.94 343.5 18.95 385.01 36.94 385.01 27.94 343.5"/>
  <polygon class="cls-1" points="139.94 343.5 130.95 385.01 148.94 385.01 139.94 343.5"/>
  <polygon class="cls-1" points="209.53 712.83 198.28 754.34 220.78 754.34 209.53 712.83"/>
  <polygon class="cls-1" points="209.8 622.83 192.02 687.46 227.58 687.46 209.8 622.83"/>
  <polygon class="cls-1" points="434.48 622.78 416.75 687.4 452.21 687.4 434.48 622.78"/>
  <polyline class="cls-1" points="220.78 969.39 209.53 957.06 198.28 969.39"/>
  <polyline class="cls-1" points="446.11 969.39 434.86 957.06 423.62 969.39"/>
  <polygon class="cls-1" points="434.42 712.83 423.17 754.34 445.67 754.34 434.42 712.83"/>
  <circle class="cls-1" cx="84" cy="550.39" r="28.67"/>
  <circle class="cls-2" cx="322.33" cy="835.28" r="28.67"/>
  <circle class="cls-1" cx="322.33" cy="835.28" r="8.44"/>
  <circle class="cls-1" cx="322.33" cy="962.39" r="10"/>
  <path class="cls-1" d="M309.11,876.32c-17.34-5.58-29.89-21.85-29.89-41.05,0-23.81,19.3-43.11,43.11-43.11s43.11,19.3,43.11,43.11c0,19.38-12.79,35.78-30.39,41.2"/>
  <circle class="cls-1" cx="84" cy="988.39" r="18.22"/>
  <g>
    <path class="cls-1" d="M84,596.83h0c4.84,0,8.78,3.93,8.78,8.78v290.56h-17.56v-290.56c0-4.84,3.93-8.78,8.78-8.78Z"/>
    <path class="cls-1" d="M111.78,596.83h0c4.84,0,8.78,3.93,8.78,8.78v290.56h-17.56v-290.56c0-4.84,3.93-8.78,8.78-8.78Z"/>
    <path class="cls-1" d="M56.22,596.83h0c4.84,0,8.78,3.93,8.78,8.78v290.56h-17.56v-290.56c0-4.84,3.93-8.78,8.78-8.78Z"/>
  </g>
  <path class="cls-1" d="M84,367.61h0c4.84,0,8.78,3.93,8.78,8.78v34.56h-17.56v-34.56c0-4.84,3.93-8.78,8.78-8.78Z"/>
  <g>
    <path class="cls-1" d="M84,442.61h0c4.84,0,8.78,3.93,8.78,8.78v34.56h-17.56v-34.56c0-4.84,3.93-8.78,8.78-8.78Z"/>
    <path class="cls-1" d="M58.89,442.61h0c4.84,0,8.78,3.93,8.78,8.78v34.56h-17.56v-34.56c0-4.84,3.93-8.78,8.78-8.78Z"/>
    <path class="cls-1" d="M109.11,442.61h0c4.84,0,8.78,3.93,8.78,8.78v34.56h-17.56v-34.56c0-4.84,3.93-8.78,8.78-8.78Z"/>
  </g>
  <line class="cls-1" x1="49" y1="247" x2="119.17" y2="247"/>
  <line class="cls-1" x1="38.06" y1="799.67" x2="130.11" y2="799.67"/>
  <polyline class="cls-1" points="13.22 911.67 121.44 911.67 198.11 845.72"/>
  <polyline class="cls-1" points="631.11 911.67 522.89 911.67 446.22 845.72"/>
  <line class="cls-1" x1="38.06" y1="506.78" x2="130.11" y2="506.78"/>
  <line class="cls-1" x1="38.06" y1="425.78" x2="130.11" y2="425.78"/>
  <line class="cls-1" x1="18.67" y1="411.11" x2="149.5" y2="411.11"/>
  <line class="cls-1" x1="38.06" y1="486.11" x2="130.11" y2="486.11"/>
  <line class="cls-1" x1="61" y1="171.5" x2="106.33" y2="171.5"/>
  <line class="cls-1" x1="70.33" y1="114.83" x2="97.83" y2="114.83"/>
  <g>
    <line class="cls-1" x1="84" y1="31.17" x2="84"/>
    <line class="cls-1" x1="71.17" y1="11.17" x2="96.83" y2="11.17"/>
  </g>
  <g>
    <line class="cls-2" x1="322.22" y1="478.72" x2="322.22" y2="447.56"/>
    <line class="cls-2" x1="309.39" y1="458.72" x2="335.06" y2="458.72"/>
  </g>
  <polyline class="cls-1" points="543.44 385.17 495.44 385.17 495.44 888.31"/>
  <line class="cls-1" x1="606" y1="385.17" x2="577.44" y2="385.17"/>
  <polyline class="cls-1" points="514.67 385.17 514.67 896.17 606.22 896.17 606.22 384.33"/>
  <polygon class="cls-1" points="504.39 343.5 495.4 385.01 513.38 385.01 504.39 343.5"/>
  <circle class="cls-1" cx="560.44" cy="550.39" r="28.67"/>
  <circle class="cls-1" cx="560.44" cy="988.39" r="18.22"/>
  <g>
    <path class="cls-1" d="M560.44,596.83h0c4.84,0,8.78,3.93,8.78,8.78v290.56h-17.56v-290.56c0-4.84,3.93-8.78,8.78-8.78Z"/>
    <path class="cls-1" d="M588.22,596.83h0c4.84,0,8.78,3.93,8.78,8.78v290.56h-17.56v-290.56c0-4.84,3.93-8.78,8.78-8.78Z"/>
    <path class="cls-1" d="M532.67,596.83h0c4.84,0,8.78,3.93,8.78,8.78v290.56h-17.56v-290.56c0-4.84,3.93-8.78,8.78-8.78Z"/>
  </g>
  <path class="cls-1" d="M560.44,367.61h0c4.84,0,8.78,3.93,8.78,8.78v34.56h-17.56v-34.56c0-4.84,3.93-8.78,8.78-8.78Z"/>
  <g>
    <path class="cls-1" d="M560.44,442.61h0c4.84,0,8.78,3.93,8.78,8.78v34.56h-17.56v-34.56c0-4.84,3.93-8.78,8.78-8.78Z"/>
    <path class="cls-1" d="M535.33,442.61h0c4.84,0,8.78,3.93,8.78,8.78v34.56h-17.56v-34.56c0-4.84,3.93-8.78,8.78-8.78Z"/>
    <path class="cls-1" d="M585.56,442.61h0c4.84,0,8.78,3.93,8.78,8.78v34.56h-17.56v-34.56c0-4.84,3.93-8.78,8.78-8.78Z"/>
  </g>
  <line class="cls-1" x1="47.17" y1="260.83" x2="121" y2="260.83"/>
  <line class="cls-1" x1="514.5" y1="799.67" x2="606.56" y2="799.67"/>
  <line class="cls-1" x1="514.5" y1="506.78" x2="606.56" y2="506.78"/>
  <line class="cls-1" x1="514.5" y1="425.78" x2="606.56" y2="425.78"/>
  <line class="cls-1" x1="495.11" y1="411.11" x2="606.17" y2="411.11"/>
  <line class="cls-1" x1="514.5" y1="486.11" x2="606.56" y2="486.11"/>
  <line class="cls-1" x1="59.22" y1="182.17" x2="108.11" y2="182.17"/>
  <polyline class="cls-1" points="305.33 911.5 121.67 911.5 121.67 1082.17 523 1082.17 523 911.5 338 911.5"/>
  <rect class="cls-1" x="198.11" y="754.61" width="22.67" height="311.11"/>
  <rect class="cls-1" x="423.44" y="754.61" width="22.67" height="311.11"/>
  <path class="cls-1" d="M227.75,794.08h0c3.54,0,6.41,2.87,6.41,6.41v33.08h-12.82v-33.08c0-3.54,2.87-6.41,6.41-6.41Z"/>
  <path class="cls-1" d="M241.17,780.67h0c3.54,0,6.41,2.87,6.41,6.41v33.08h-12.82v-33.08c0-3.54,2.87-6.41,6.41-6.41Z"/>
  <path class="cls-1" d="M254.59,767.25h0c3.54,0,6.41,2.87,6.41,6.41v33.08h-12.82v-33.08c0-3.54,2.87-6.41,6.41-6.41Z"/>
  <path class="cls-1" d="M267.56,753.83h0c3.54,0,6.41,2.87,6.41,6.41v33.08h-12.82v-33.08c0-3.54,2.87-6.41,6.41-6.41Z"/>
  <g>
    <path class="cls-1" d="M410.26,794.08h12.82v33.08c0,3.54-2.87,6.41-6.41,6.41h0c-3.54,0-6.41-2.87-6.41-6.41v-33.08h0Z" transform="translate(833.34 1627.65) rotate(-180)"/>
    <path class="cls-1" d="M396.84,780.67h12.82v33.08c0,3.54-2.87,6.41-6.41,6.41h0c-3.54,0-6.41-2.87-6.41-6.41v-33.08h0Z" transform="translate(806.51 1600.82) rotate(-180)"/>
    <path class="cls-1" d="M383.43,767.25h12.82v33.08c0,3.54-2.87,6.41-6.41,6.41h0c-3.54,0-6.41-2.87-6.41-6.41v-33.08h0Z" transform="translate(779.68 1573.99) rotate(180)"/>
    <path class="cls-1" d="M370.01,753.83h12.82v33.08c0,3.54-2.87,6.41-6.41,6.41h0c-3.54,0-6.41-2.87-6.41-6.41v-33.08h0Z" transform="translate(752.84 1547.15) rotate(180)"/>
  </g>
  <path class="cls-1" d="M294.84,735.83h0c3.54,0,6.41,2.87,6.41,6.41v33.08h-12.82v-33.08c0-3.54,2.87-6.41,6.41-6.41Z"/>
  <path class="cls-1" d="M308.25,722.42h0c3.54,0,6.41,2.87,6.41,6.41v33.08h-12.82v-33.08c0-3.54,2.87-6.41,6.41-6.41Z"/>
  <path class="cls-1" d="M342.06,735.83h12.82v33.08c0,3.54-2.87,6.41-6.41,6.41h0c-3.54,0-6.41-2.87-6.41-6.41v-33.08h0Z" transform="translate(696.95 1511.15) rotate(-180)"/>
  <path class="cls-1" d="M328.65,722.42h12.82v33.08c0,3.54-2.87,6.41-6.41,6.41h0c-3.54,0-6.41-2.87-6.41-6.41v-33.08h0Z" transform="translate(670.12 1484.32) rotate(180)"/>
  <path class="cls-1" d="M321.67,709h0c3.54,0,6.41,2.87,6.41,6.41v33.08h-12.82v-33.08c0-3.54,2.87-6.41,6.41-6.41Z"/>
  <path class="cls-1" d="M337.99,949.5v-48.79c0-9.01-7.31-16.32-16.32-16.32h0c-9.01,0-16.32,7.31-16.32,16.32v48.79"/>
  <path class="cls-1" d="M337.99,702v-32.85c0-9.01-7.31-16.32-16.32-16.32h0c-9.01,0-16.32,7.31-16.32,16.32v32.52"/>
  <g>
    <circle class="cls-1" cx="171.56" cy="1013.06" r="13.11"/>
    <g>
      <path class="cls-1" d="M170.85,920.61h1.51c3.31,0,6,2.69,6,6v20.3h-13.51v-20.3c0-3.31,2.69-6,6-6Z"/>
      <path class="cls-1" d="M157.34,920.61h1.51c3.31,0,6,2.69,6,6v20.3h-13.51v-20.3c0-3.31,2.69-6,6-6Z"/>
      <path class="cls-1" d="M184.28,920.61h1.51c3.31,0,6,2.69,6,6v20.3h-13.51v-20.3c0-3.31,2.69-6,6-6Z"/>
      <path class="cls-1" d="M171.11,989.06h.9c10.9,0,19.76,8.85,19.76,19.76v57.02h-40.42v-57.02c0-10.9,8.85-19.76,19.76-19.76Z"/>
      <path class="cls-1" d="M171.56,976.17h0c7.79,0,14.88,2.97,20.21,7.83v-29.92h-40.42v29.92c5.33-4.87,12.42-7.83,20.21-7.83Z"/>
    </g>
  </g>
  <g>
    <circle class="cls-1" cx="472.74" cy="1013.06" r="13.11"/>
    <g>
      <g>
        <path class="cls-1" d="M472.17,920.61h1.51c3.31,0,6,2.69,6,6v20.3h-13.51v-20.3c0-3.31,2.69-6,6-6Z"/>
        <path class="cls-1" d="M458.66,920.61h1.51c3.31,0,6,2.69,6,6v20.3h-13.51v-20.3c0-3.31,2.69-6,6-6Z"/>
        <path class="cls-1" d="M485.6,920.61h1.51c3.31,0,6,2.69,6,6v20.3h-13.51v-20.3c0-3.31,2.69-6,6-6Z"/>
      </g>
      <g>
        <path class="cls-1" d="M472.12,989.06h.9c10.9,0,19.76,8.85,19.76,19.76v57.02h-40.42v-57.02c0-10.9,8.85-19.76,19.76-19.76Z"/>
        <path class="cls-1" d="M472.57,976.17h0c7.79,0,14.88,2.97,20.21,7.83v-29.92h-40.42v29.92c5.33-4.87,12.42-7.83,20.21-7.83Z"/>
      </g>
    </g>
  </g>
  <line class="cls-1" x1="288.5" y1="755" x2="271.5" y2="755"/>
  <line class="cls-1" x1="372.33" y1="755" x2="354.33" y2="755"/>
  <line class="cls-1" x1="288.33" y1="861.92" x2="288.33" y2="967.94"/>
  <line class="cls-1" x1="354.67" y1="863.25" x2="354.67" y2="966.67"/>
  <path class="cls-2" d="M334.87,819.92l-.29,2.77,2.76-.37c6.2-.82,9.58,7.02,4.71,10.96l-2.17,1.75,2.21,1.69c4.97,3.8,1.81,11.74-4.42,11.08l-2.77-.29.37,2.76c.82,6.2-7.02,9.58-10.96,4.71l-1.75-2.17-1.69,2.21c-3.8,4.97-11.74,1.81-11.08-4.42l.29-2.77-2.76.37c-6.2.82-9.58-7.02-4.71-10.96l2.17-1.75-2.21-1.69c-4.97-3.8-1.81-11.74,4.42-11.08l2.77.29-.37-2.76c-.82-6.2,7.02-9.58,10.96-4.71l1.75,2.17,1.69-2.21c3.8-4.97,11.74-1.81,11.08,4.42Z"/>
  <g>
    <g>
      <g>
        <path class="cls-1" d="M246.4,920.61h1.51c3.31,0,6,2.69,6,6v20.3h-13.51v-20.3c0-3.31,2.69-6,6-6Z"/>
        <path class="cls-1" d="M232.89,920.61h1.51c3.31,0,6,2.69,6,6v20.3h-13.51v-20.3c0-3.31,2.69-6,6-6Z"/>
        <path class="cls-1" d="M259.82,920.61h1.51c3.31,0,6,2.69,6,6v20.3h-13.51v-20.3c0-3.31,2.69-6,6-6Z"/>
      </g>
      <g>
        <path class="cls-1" d="M246.34,989.06h.9c10.9,0,19.76,8.85,19.76,19.76v57.02h-40.42v-57.02c0-10.9,8.85-19.76,19.76-19.76Z"/>
        <path class="cls-1" d="M246.79,976.17h0c7.79,0,14.88,2.97,20.21,7.83v-29.92h-40.42v29.92c5.33-4.87,12.42-7.83,20.21-7.83Z"/>
      </g>
    </g>
    <rect class="cls-1" x="233.07" y="1017.28" width="27.78" height="48.44"/>
  </g>
  <g>
    <g>
      <g>
        <path class="cls-1" d="M396.62,920.61h1.51c3.31,0,6,2.69,6,6v20.3h-13.51v-20.3c0-3.31,2.69-6,6-6Z"/>
        <path class="cls-1" d="M383.11,920.61h1.51c3.31,0,6,2.69,6,6v20.3h-13.51v-20.3c0-3.31,2.69-6,6-6Z"/>
        <path class="cls-1" d="M410.04,920.61h1.51c3.31,0,6,2.69,6,6v20.3h-13.51v-20.3c0-3.31,2.69-6,6-6Z"/>
      </g>
      <g>
        <path class="cls-1" d="M396.56,989.06h.9c10.9,0,19.76,8.85,19.76,19.76v57.02h-40.42v-57.02c0-10.9,8.85-19.76,19.76-19.76Z"/>
        <path class="cls-1" d="M397.01,976.17h0c7.79,0,14.88,2.97,20.21,7.83v-29.92h-40.42v29.92c5.33-4.87,12.42-7.83,20.21-7.83Z"/>
      </g>
    </g>
    <rect class="cls-1" x="383.29" y="1017.28" width="27.78" height="48.44"/>
  </g>
  <path class="cls-1" d="M354.67,807.06v-31.61h15v298.72l-.06.33h-9.5v-55.46c0-20.83-16.88-37.71-37.71-37.71h-.13c-20.83,0-37.71,16.88-37.71,37.71v55.46s-10.11,0-10.11,0h-.44s0-298.94,0-298.94h14.33v33.28"/>
  <line class="cls-1" x1="274" y1="1017.33" x2="360.17" y2="1017.33"/>
  <line class="cls-1" x1="304.33" y1="1066" x2="304.33" y2="1017.61"/>
  <line class="cls-1" x1="339.67" y1="1066" x2="339.67" y2="1017.61"/>
  <path class="cls-1" d="M298.69,1016.94c1.14-12.06,11.29-21.49,23.64-21.49s22.27,9.21,23.6,21.06"/>
  <path class="cls-1" d="M197.97,706.86c.58-6.18,5.78-11.01,12.11-11.01s11.4,4.72,12.09,10.79"/>
  <path class="cls-1" d="M422.47,706.86c.58-6.18,5.78-11.01,12.11-11.01s11.4,4.72,12.09,10.79"/>
  <polygon class="cls-1" points="253.49 843.35 240.42 843.35 233.89 854.67 240.42 865.98 253.49 865.98 260.03 854.67 253.49 843.35"/>
  <polygon class="cls-1" points="403.71 843.35 390.65 843.35 384.11 854.67 390.65 865.98 403.71 865.98 410.25 854.67 403.71 843.35"/>
  <polyline class="cls-1" points="305.33 911.58 305.33 879.67 322.33 864.5 338 879.25 338 910.92"/>
  <rect class="cls-1" x="75.22" y="261.06" width="17.56" height="36.89"/>
  <polyline class="cls-1" points="67.11 410.61 67.11 368.39 83.89 351.61 100.89 368.61 100.89 411.28"/>
  <polyline class="cls-1" points="543.56 410.61 543.56 368.39 560.33 351.61 577.33 368.61 577.33 411.28"/>
  <polyline class="cls-1" points="82.33 532.5 82.33 551.5 96.33 565.5"/>
  <polyline class="cls-1" points="560.33 532.5 560.33 551.5 574.33 565.5"/>
  <line class="cls-1" x1="191.77" y1="1065.83" x2="175.05" y2="1082.55"/>
  <line class="cls-1" x1="452.36" y1="1065.83" x2="469.35" y2="1082.82"/>
  <rect class="cls-1" x="192" y="687.5" width="35.67" height="19.67"/>
  <rect class="cls-1" x="416.67" y="687.5" width="35.67" height="19.67"/>
  <line class="cls-1" x1="440.56" y1="734.83" x2="464.11" y2="734.83"/>
  <line class="cls-1" x1="405" y1="734.83" x2="428.56" y2="734.83"/>
  <line class="cls-1" x1="215.67" y1="734.83" x2="239.89" y2="734.83"/>
  <line class="cls-1" x1="180.56" y1="734.83" x2="203.22" y2="734.83"/>
  <polyline class="cls-1" points="192.33 696.83 180.61 709.06 180.61 709.75 180.61 712.61 180.61 837.72 181.11 837.72"/>
  <polyline class="cls-1" points="417 696.83 404.86 709.06 404.86 709.92 404.94 769"/>
  <polyline class="cls-1" points="452.03 696.83 464.06 709.06 464.06 709.33 464.06 837.72 462.83 837.72"/>
  <polyline class="cls-1" points="227.69 696.83 239.72 708.94 239.72 710.12 239.72 766.5"/>
  <line class="cls-1" x1="192" y1="707.17" x2="192" y2="734.33"/>
  <line class="cls-1" x1="227.67" y1="707.17" x2="227.67" y2="735"/>
  <line class="cls-1" x1="416.67" y1="707.17" x2="416.67" y2="734.83"/>
  <line class="cls-1" x1="452.33" y1="707.17" x2="452.33" y2="735"/>
  <line class="cls-1" x1="446.33" y1="768.83" x2="464.11" y2="768.83"/>
  <line class="cls-1" x1="405" y1="768.83" x2="423.22" y2="768.83"/>
  <line class="cls-1" x1="220.78" y1="768.83" x2="237.17" y2="768.83"/>
  <line class="cls-1" x1="180.67" y1="768.83" x2="197.44" y2="768.83"/>
  <line class="cls-1" x1="349.22" y1="713.06" x2="405" y2="713.06"/>
  <line class="cls-1" x1="239.67" y1="713.06" x2="293.67" y2="713.06"/>
  <line class="cls-1" x1="239.67" y1="723.94" x2="282.56" y2="723.94"/>
  <circle class="cls-1" cx="321.67" cy="669.72" r="10.33"/>
  <circle class="cls-2" cx="322.34" cy="485.38" r="6.33"/>
  <g>
    <path class="cls-1" d="M253.58,686.89h0c2.07,0,3.75,1.68,3.75,3.75v22.42h-7.5v-22.42c0-2.07,1.68-3.75,3.75-3.75Z"/>
    <path class="cls-1" d="M261.42,686.89h0c2.07,0,3.75,1.68,3.75,3.75v22.42h-7.5v-22.42c0-2.07,1.68-3.75,3.75-3.75Z"/>
  </g>
  <g>
    <path class="cls-1" d="M286.42,686.89h0c2.07,0,3.75,1.68,3.75,3.75v22.42h-7.5v-22.42c0-2.07,1.68-3.75,3.75-3.75Z"/>
    <path class="cls-1" d="M298,708.61v-17.97c0-2.07-1.68-3.75-3.75-3.75h0c-2.07,0-3.75,1.68-3.75,3.75v22.42h2.72"/>
  </g>
  <g>
    <path class="cls-1" d="M349.67,713.06h3.83v-22.42c0-2.07-1.68-3.75-3.75-3.75h0c-2.07,0-3.75,1.68-3.75,3.75v19.03"/>
    <path class="cls-1" d="M357.58,686.89h0c2.07,0,3.75,1.68,3.75,3.75v22.42h-7.5v-22.42c0-2.07,1.68-3.75,3.75-3.75Z"/>
  </g>
  <g>
    <path class="cls-1" d="M321.61,652.83v-6.75c0-2.07-1.68-3.75-3.75-3.75h0c-2.07,0-3.75,1.68-3.75,3.75v8.33"/>
    <path class="cls-1" d="M329.44,655.25v-9.17c0-2.07-1.68-3.75-3.75-3.75h0c-2.07,0-3.75,1.68-3.75,3.75v7"/>
  </g>
  <g>
    <path class="cls-1" d="M381.92,686.89h0c2.07,0,3.75,1.68,3.75,3.75v22.42h-7.5v-22.42c0-2.07,1.68-3.75,3.75-3.75Z"/>
    <path class="cls-1" d="M389.75,686.89h0c2.07,0,3.75,1.68,3.75,3.75v22.42h-7.5v-22.42c0-2.07,1.68-3.75,3.75-3.75Z"/>
  </g>
  <line class="cls-1" x1="338.78" y1="679.5" x2="418.78" y2="679.5"/>
  <line class="cls-1" x1="225.22" y1="679.5" x2="305" y2="679.5"/>
  <line class="cls-1" x1="335.44" y1="659.5" x2="424.33" y2="659.5"/>
  <line class="cls-1" x1="219.44" y1="659.5" x2="308.33" y2="659.5"/>
  <polyline class="cls-1" points="235.67 659.5 235.67 627.06 408.78 627.06 408.78 659.5"/>
  <path class="cls-1" d="M334.56,659.5h11.44v-12.53c0-2.07,1.68-3.75,3.75-3.75s3.75,1.68,3.75,3.75v12.53h.33v-12.53c0-2.07,1.68-3.75,3.75-3.75s3.75,1.68,3.75,3.75v12.53h16.83v-12.53c0-2.07,1.68-3.75,3.75-3.75s3.75,1.68,3.75,3.75v12.53h.33v-12.53c0-2.07,1.68-3.75,3.75-3.75s3.75,1.68,3.75,3.75v12.53h3.06"/>
  <path class="cls-1" d="M245.56,659.5h4.28v-12.53c0-2.07,1.68-3.75,3.75-3.75s3.75,1.68,3.75,3.75v12.53h.33v-12.53c0-2.07,1.68-3.75,3.75-3.75s3.75,1.68,3.75,3.75v12.53h17.5v-12.53c0-2.07,1.68-3.75,3.75-3.75s3.75,1.68,3.75,3.75v12.53h.33v-12.53c0-2.07,1.68-3.75,3.75-3.75s3.75,1.68,3.75,3.75v12.53h10.33"/>
  <polyline class="cls-2" points="273.76 981.93 321.97 933.72 369.75 981.5"/>
  <polygon class="cls-2" points="322.33 491.83 242.5 626.83 402.17 626.83 322.33 491.83"/>
  <polyline class="cls-2" points="221.22 785.28 321.44 685.06 423.22 786.83"/>
  <polyline class="cls-2" points="495.67 850.83 474.67 850.83 474.67 837.83 456.67 837.83 446.17 827.33"/>
  <polyline class="cls-2" points="148.67 850.83 169.67 850.83 169.67 837.83 187.67 837.83 198.17 827.33"/>
</svg>