<svg width="253" height="252" viewBox="0 0 253 252" fill="none" xmlns="http://www.w3.org/2000/svg">
<path d="M115.14 47.7288C116.802 47.3004 118.488 46.914 120.2 46.5864C158.783 39.1272 197.399 61.446 210.015 98.5152C220.447 129.158 211.314 162.574 186.764 183.658C175.683 193.166 164.863 203.776 154.583 215.191C146.512 224.154 135.431 230.118 123.346 231.991C99.0156 235.746 74.9806 221.844 66.21 198.929C62.9041 190.294 61.9174 180.961 63.3511 171.948C64.4727 164.942 63.9836 158.81 61.9005 153.72C60.5849 150.503 59.4717 147.168 58.6031 143.816C53.1214 122.842 56.6297 100.296 68.234 81.9588C79.0708 64.8228 95.6001 52.8108 115.14 47.7456V47.7288ZM125.699 184.918C129.207 184.01 132.294 182.146 134.714 179.458C142.523 170.78 150.763 162.708 159.213 155.459C170.724 145.572 175 129.898 170.109 115.517C164.197 98.1624 146.116 87.7128 128.052 91.2072C117.839 93.198 109.178 99.0696 103.662 107.78C98.147 116.508 96.5447 126.806 99.1506 136.777C99.5638 138.356 100.087 139.919 100.702 141.439C103.485 148.26 104.227 155.98 102.887 164.371C102.381 167.555 102.718 170.722 103.899 173.804C106.951 181.784 115.317 186.623 123.784 185.312C124.442 185.212 125.083 185.077 125.707 184.918H125.699Z" fill="white"/>
<path d="M82.6294 50.1648L109.785 97.0116C116.43 94.3488 124.197 96.8688 127.883 103.228C131.922 110.191 129.527 119.095 122.536 123.119C115.545 127.142 106.605 124.757 102.566 117.793C98.8805 111.434 100.567 103.471 106.209 99.0696L79.0537 52.2228V129.377L142.734 157.97L148.654 87.6456L82.621 50.1648H82.6294Z" fill="white" stroke="#172640" stroke-width="1.5" stroke-miterlimit="10"/>
<path d="M143.071 125.988L114.186 142.599C112.347 143.657 111.716 146 112.778 147.832L142.05 198.332C143.112 200.164 145.464 200.792 147.304 199.734L176.189 183.123C178.028 182.066 178.658 179.723 177.596 177.891L148.324 127.39C147.262 125.558 144.91 124.931 143.071 125.988Z" fill="#DBE120"/>
<path d="M150.045 196.392L121.827 147.706" stroke="#172640" stroke-width="1.5" stroke-linecap="round" stroke-linejoin="round"/>
<path d="M172.925 183.296L144.707 134.61" stroke="#172640" stroke-width="1.5" stroke-linecap="round" stroke-linejoin="round"/>
<path d="M160.183 188.698L131.965 140.011" stroke="#172640" stroke-width="1.5" stroke-linecap="round" stroke-linejoin="round"/>
<path d="M169.08 142.086C166.904 147.118 163.573 151.704 159.205 155.459C150.754 162.708 142.515 170.789 134.706 179.458C132.285 182.146 129.199 184.01 125.691 184.918C125.066 185.077 124.426 185.212 123.768 185.312C115.301 186.623 106.935 181.776 103.882 173.804C103.325 172.36 102.971 170.89 102.786 169.411L63.0225 185.808C63.5116 190.268 64.5742 194.67 66.2018 198.912C74.9809 221.836 99.0075 235.738 123.338 231.983C135.423 230.11 146.504 224.146 154.575 215.183C164.855 203.767 175.675 193.158 186.756 183.649C204.728 168.218 214.418 146.185 214.241 123.463L169.072 142.086H169.08Z" fill="white"/>
<path d="M79.2729 53.0208C82.0162 53.0208 84.2401 50.8057 84.2401 48.0732C84.2401 45.3407 82.0162 43.1256 79.2729 43.1256C76.5296 43.1256 74.3057 45.3407 74.3057 48.0732C74.3057 50.8057 76.5296 53.0208 79.2729 53.0208Z" fill="#172640"/>
<path d="M36.5245 133.644C35.6474 113.207 40.9942 92.7024 52.0756 75.18C65.9147 53.298 87.3522 37.674 112.425 31.164C114.575 30.6096 116.751 30.114 118.893 29.7024C125.218 28.476 131.686 27.8544 138.121 27.8544C153.09 27.8544 167.477 31.1052 180.49 37.0272" stroke="#172640" stroke-width="1.5" stroke-linecap="round" stroke-linejoin="round"/>
<path d="M117.527 26.6784C120.27 26.6784 122.494 24.4633 122.494 21.7308C122.494 18.9983 120.27 16.7832 117.527 16.7832C114.783 16.7832 112.56 18.9983 112.56 21.7308C112.56 24.4633 114.783 26.6784 117.527 26.6784Z" fill="#172640"/>
<path d="M42.1411 74.1721C44.8844 74.1721 47.1083 71.9569 47.1083 69.2245C47.1083 66.492 44.8844 64.2769 42.1411 64.2769C39.3977 64.2769 37.1738 66.492 37.1738 69.2245C37.1738 71.9569 39.3977 74.1721 42.1411 74.1721Z" fill="#172640"/>
<path d="M43.0186 68.964L116.498 22.0836" stroke="#172640" stroke-width="1.5" stroke-linecap="round" stroke-linejoin="round"/>
</svg>
