<?xml version="1.0" encoding="UTF-8"?>
<svg id="Layer_2" data-name="Layer 2" xmlns="http://www.w3.org/2000/svg" viewBox="0 0 300 300">
  <defs>
    <style>
      .cls-1 {
        fill: #fff;
      }

      .cls-2 {
        opacity: .2;
      }
    </style>
  </defs>
  <g class="cls-2">
    <path class="cls-1" d="M256.38,211.77c-.71,2.07-1.49,4.13-2.34,6.17-19.17,46.18-70.08,71.38-118.41,58.61-39.96-10.56-69.12-43.82-74.31-84.73-2.34-18.46-6.02-37.43-10.96-56.38-3.87-14.89-2.44-30.85,4.07-44.98,13.1-28.45,44.8-44.13,75.37-37.26h0c11.51,2.59,22.14,8.12,30.73,16.01,6.67,6.13,13.55,9.94,20.43,11.33,4.35.88,8.68,2.05,12.86,3.49,26.18,8.99,47.72,28.62,59.09,53.86,10.63,23.59,11.8,49.59,3.46,73.89ZM102.89,126.16c-1.5,4.36-1.68,8.95-.52,13.41,3.75,14.4,6.55,28.84,8.34,42.92,2.43,19.18,16.12,34.78,34.87,39.74,22.63,5.98,46.46-5.82,55.45-27.45,5.06-12.23,4.89-25.56-.51-37.56-5.41-12.01-15.25-20.98-27.7-25.25-1.97-.68-4.01-1.23-6.05-1.64-9.22-1.86-17.96-6.53-25.95-13.87-3.03-2.78-6.65-4.66-10.75-5.58h0c-10.64-2.39-21.67,3.06-26.23,12.97-.35.76-.66,1.54-.93,2.32Z"/>
  </g>
</svg>