<svg width="676" height="516" viewBox="0 0 676 516" fill="none" xmlns="http://www.w3.org/2000/svg">
<path d="M11.0971 516L0 468.839C122.068 449.419 233.039 357.871 260.781 238.581C235.813 255.226 208.07 266.323 174.779 266.323C127.616 266.323 88.7766 224.71 91.5508 158.129C94.3251 74.9032 160.908 0 244.136 0C319.041 0 363.429 66.5806 357.881 163.677C346.783 352.323 177.553 499.355 11.0971 516ZM328.751 516L314.879 468.839C436.947 449.419 550.692 357.871 578.435 238.581C553.466 255.226 525.724 266.323 492.433 266.323C442.496 266.323 403.656 224.71 406.43 158.129C409.205 74.9032 478.561 0 561.789 0C636.695 0 681.083 66.5806 675.534 163.677C664.437 352.323 492.433 499.355 328.751 516Z" fill="white" fill-opacity="0.2"/>
</svg>
