<svg width="253" height="253" viewBox="0 0 253 253" fill="none" xmlns="http://www.w3.org/2000/svg">
<path d="M213.642 176.527C213.043 178.272 212.385 180.01 211.668 181.73C195.501 220.675 152.567 241.927 111.809 231.158C78.1095 222.252 53.5179 194.203 49.141 159.702C47.1676 144.134 44.0641 128.136 39.898 112.155C36.6343 99.5977 37.8403 86.1381 43.3304 74.2218C54.3781 50.229 81.1117 37.0055 106.892 42.7992C116.599 44.9835 125.564 49.6471 132.808 56.301C138.433 61.4706 144.235 64.6837 150.037 65.8559C153.706 66.5981 157.358 67.5848 160.883 68.7992C182.961 76.3807 201.126 92.9354 210.715 114.221C219.68 134.115 220.667 156.042 213.633 176.535L213.642 176.527ZM84.1983 104.329C82.9333 108.006 82.7815 111.877 83.7598 115.638C86.9223 127.782 89.2836 139.96 90.7932 151.834C92.8425 168.009 104.388 181.165 120.2 185.348C139.285 190.391 159.381 180.44 166.963 162.198C171.23 151.884 171.087 140.643 166.533 130.523C161.971 120.394 153.672 112.83 143.173 109.229C141.511 108.655 139.791 108.191 138.07 107.846C130.295 106.277 122.924 102.339 116.186 96.1485C113.631 93.804 110.578 92.2185 107.12 91.4427C98.1471 89.4271 88.8451 94.0233 84.9995 102.381C84.7043 103.022 84.4429 103.679 84.2152 104.337L84.1983 104.329Z" fill="white"/>
<path d="M88.0352 196.471C88.0352 196.471 89.6375 197.517 92.3783 199.06" stroke="#172640" stroke-width="2" stroke-miterlimit="10" stroke-linecap="round"/>
<path d="M101.588 203.741C121.322 212.764 156.48 222.37 164.214 181.384C174.334 127.782 82.5032 132.656 51.3927 125.159C20.2821 117.662 14.6908 92.1931 25.9071 73.8085C29.2383 68.3521 32.6622 65.1137 35.6898 63.2078" stroke="#172640" stroke-width="2" stroke-miterlimit="10" stroke-linecap="round" stroke-dasharray="12.25 12.25"/>
<path d="M40.3955 61.091C43.4146 60.2477 45.3965 60.6862 45.3965 60.6862" stroke="#172640" stroke-width="2" stroke-miterlimit="10" stroke-linecap="round"/>
<path d="M91.2803 188.369L172.24 48.1423L188.308 57.4189L116.62 181.585C111.501 190.452 100.143 193.495 91.2761 188.376L91.2803 188.369Z" fill="white" stroke="#172640" stroke-width="1.5" stroke-miterlimit="10"/>
<path d="M181.925 55.7106H200.478V217.631C190.24 217.631 181.925 209.315 181.925 199.077V55.7106Z" fill="white" stroke="#172640" stroke-width="1.5" stroke-miterlimit="10"/>
<path d="M159.458 77.3348L196.572 87.2793C198.821 87.882 201.133 86.5471 201.736 84.2976L211.68 47.1846C212.283 44.9351 210.948 42.623 208.699 42.0202L171.586 32.0758C169.336 31.4731 167.024 32.808 166.421 35.0574L156.477 72.1705C155.874 74.4199 157.209 76.7321 159.458 77.3348Z" fill="#9DB6DF"/>
<path d="M193.385 54.3107L174.789 65.0463" stroke="#172640" stroke-width="1.5" stroke-miterlimit="10"/>
<path d="M189.454 68.9762L178.719 50.3807" stroke="#172640" stroke-width="1.5" stroke-miterlimit="10"/>
<path d="M198.611 39.5121L181.594 34.9524L185.814 19.2062C187.071 14.5142 191.905 11.7234 196.597 12.9806C201.289 14.2378 204.08 19.0717 202.822 23.7637L198.603 39.5099L198.611 39.5121Z" fill="#172640"/>
<path d="M91.4765 189.261L87.4707 196.201" stroke="#172640" stroke-width="3" stroke-miterlimit="10" stroke-linecap="round"/>
<path d="M199.87 218.263V226.266" stroke="#172640" stroke-width="3" stroke-miterlimit="10" stroke-linecap="round"/>
<path d="M191.015 198.622V99.3953" stroke="#172640" stroke-width="1.5" stroke-miterlimit="10"/>
<path d="M107.964 176.636L157.501 90.6499" stroke="#172640" stroke-width="1.5" stroke-miterlimit="10"/>
</svg>
