<?xml version="1.0" encoding="UTF-8"?>
<svg id="Layer_2" data-name="Layer 2" xmlns="http://www.w3.org/2000/svg" viewBox="0 0 300 300">
  <defs>
    <style>
      .cls-1 {
        fill: #fff;
        opacity: .2;
      }
    </style>
  </defs>
  <path class="cls-1" d="M41.73,116.73c.69-2.08,1.45-4.14,2.28-6.19,18.78-46.34,69.47-71.97,117.91-59.61,40.04,10.22,69.49,43.23,75.03,84.1,2.49,18.44,6.34,37.37,11.44,56.28,4,14.85,2.7,30.82-3.68,45.01-12.86,28.56-44.42,44.51-75.05,37.9h0c-11.54-2.49-22.21-7.93-30.87-15.75-6.72-6.07-13.63-9.82-20.52-11.15-4.36-.84-8.7-1.98-12.89-3.38-26.26-8.76-47.96-28.21-59.55-53.36-10.83-23.5-12.22-49.49-4.09-73.86ZM195.94,201.03c1.46-4.37,1.61-8.96.41-13.41-3.87-14.37-6.8-28.78-8.7-42.84-2.59-19.16-16.42-34.64-35.21-39.44-22.68-5.79-46.41,6.22-55.21,27.92-4.95,12.28-4.68,25.6.83,37.55,5.51,11.96,15.43,20.85,27.91,25.01,1.98.66,4.02,1.19,6.07,1.59,9.24,1.78,18.01,6.37,26.07,13.65,3.05,2.76,6.69,4.6,10.8,5.49h0c10.66,2.3,21.64-3.25,26.12-13.19.35-.77.65-1.54.91-2.32Z"/>
</svg>