<svg width="253" height="253" viewBox="0 0 253 253" fill="none" xmlns="http://www.w3.org/2000/svg">
<path d="M40.5982 99.0917C41.1801 97.3375 41.821 95.6003 42.521 93.8714C58.3588 54.7914 101.107 33.1767 141.958 43.6003C175.726 52.2192 200.562 80.0576 205.234 114.525C207.334 130.076 210.58 146.04 214.881 161.987C218.255 174.511 217.158 187.979 211.778 199.946C200.933 224.031 174.317 237.483 148.486 231.908C138.754 229.808 129.755 225.221 122.452 218.626C116.785 213.507 110.958 210.344 105.147 209.223C101.47 208.514 97.8099 207.553 94.2764 206.372C72.1304 198.984 53.8301 182.582 44.0559 161.372C34.9226 141.554 33.7503 119.635 40.6066 99.0832L40.5982 99.0917ZM170.649 170.185C171.88 166.499 172.006 162.628 170.994 158.876C167.731 146.757 165.26 134.604 163.657 122.747C161.473 106.589 149.81 93.5341 133.964 89.4861C114.837 84.6032 94.8245 94.7316 87.4032 113.032C83.2287 123.388 83.4564 134.621 88.1032 144.699C92.7499 154.785 101.116 162.283 111.641 165.791C113.31 166.347 115.031 166.794 116.76 167.132C124.552 168.633 131.948 172.504 138.745 178.643C141.318 180.971 144.387 182.523 147.853 183.273C156.843 185.213 166.103 180.532 169.881 172.15C170.176 171.5 170.429 170.851 170.649 170.193V170.185Z" fill="white"/>
<path d="M177.48 112.863L59.7169 131.138C57.7688 131.442 56.0146 129.932 56.0146 127.967V50.8109C56.0146 49.2254 57.17 47.8761 58.7302 47.6399L176.493 29.3649C178.441 29.0613 180.195 30.5709 180.195 32.5358V109.684C180.195 111.269 179.04 112.619 177.48 112.855V112.863Z" fill="#DBE120"/>
<path d="M67.4668 105.695L69.8703 101.242" stroke="white" stroke-width="1.5" stroke-miterlimit="10"/>
<path d="M72.3838 96.5953L76.1535 89.6294" stroke="white" stroke-width="1.5" stroke-miterlimit="10" stroke-dasharray="6.26 6.26"/>
<path d="M77.4102 87.3102L79.8137 82.8574L83.1954 86.6187" stroke="white" stroke-width="1.5" stroke-miterlimit="10"/>
<path d="M87.1836 91.0715L93.1713 97.7423" stroke="white" stroke-width="1.5" stroke-miterlimit="10" stroke-dasharray="7.09 7.09"/>
<path d="M95.1699 99.9688L98.5517 103.73L101.436 99.5724" stroke="white" stroke-width="1.5" stroke-miterlimit="10"/>
<path d="M104.683 94.8834L109.557 87.8584" stroke="white" stroke-width="1.5" stroke-miterlimit="10" stroke-dasharray="6.76 6.76"/>
<path d="M111.186 85.514L114.07 81.3563L118.413 83.9622" stroke="white" stroke-width="1.5" stroke-miterlimit="10"/>
<path d="M124.805 87.791L134.393 93.5425" stroke="white" stroke-width="1.5" stroke-miterlimit="10" stroke-dasharray="8.84 8.84"/>
<path d="M137.599 95.4569L141.933 98.0628L146.024 95.0858" stroke="white" stroke-width="1.5" stroke-miterlimit="10"/>
<path d="M155.316 88.3223L169.248 78.1854" stroke="white" stroke-width="1.5" stroke-miterlimit="10" stroke-dasharray="13.62 13.62"/>
<path d="M173.896 74.8036L177.986 71.8267" stroke="white" stroke-width="1.5" stroke-miterlimit="10"/>
<path d="M82.3938 212.073L197.551 193.199C199.069 192.946 200.005 191.395 199.516 189.927L180.499 132.673C180.111 131.501 178.922 130.784 177.699 130.987L62.5418 149.86C61.0238 150.113 60.0877 151.665 60.5768 153.133L62.1791 157.965L78.1181 205.942L79.594 210.386C79.9819 211.559 81.171 212.275 82.3938 212.073Z" fill="white" stroke="#172640" stroke-width="1.5" stroke-miterlimit="10"/>
<path d="M76.9795 154.895L93.5173 204.761" stroke="#172640" stroke-width="1.5" stroke-miterlimit="10" stroke-linecap="round"/>
<path d="M90.1865 152.702L106.766 202.535" stroke="#172640" stroke-width="1.5" stroke-miterlimit="10" stroke-linecap="round"/>
<path d="M103.393 150.51L120.023 200.3" stroke="#172640" stroke-width="1.5" stroke-miterlimit="10" stroke-linecap="round"/>
<path d="M116.6 148.317L133.272 198.065" stroke="#172640" stroke-width="1.5" stroke-miterlimit="10" stroke-linecap="round"/>
<path d="M129.798 146.124L146.521 195.83" stroke="#172640" stroke-width="1.5" stroke-miterlimit="10" stroke-linecap="round"/>
<path d="M143.004 143.932L159.769 193.596" stroke="#172640" stroke-width="1.5" stroke-miterlimit="10" stroke-linecap="round"/>
<path d="M156.211 141.739L173.019 191.361" stroke="#172640" stroke-width="1.5" stroke-miterlimit="10" stroke-linecap="round"/>
<path d="M169.417 139.546L186.267 189.126" stroke="#172640" stroke-width="1.5" stroke-miterlimit="10" stroke-linecap="round"/>
<path d="M70.4434 119.829L95.7012 75.9337L119.753 99.4121L144.024 54.0998L179.537 78.9191L209.273 37.8319" stroke="#172640" stroke-width="2" stroke-miterlimit="10" stroke-linecap="square"/>
<path d="M209.07 51.924C208.607 51.8987 208.252 51.4939 208.278 51.0301L209.045 38.1524L197.053 42.9088C196.623 43.0774 196.125 42.8666 195.957 42.4365C195.788 42.0064 195.999 41.5088 196.429 41.3402L209.652 36.1031C209.922 36.0019 210.226 36.0356 210.453 36.2043C210.69 36.3729 210.816 36.6512 210.799 36.938L209.956 51.1397C209.947 51.3084 209.888 51.4602 209.796 51.5867C209.635 51.8144 209.357 51.9493 209.062 51.9324L209.07 51.924Z" fill="#172640"/>
<path d="M73.4541 159.188L174.258 142.279" stroke="#172640" stroke-width="1.5" stroke-miterlimit="10" stroke-linecap="round"/>
<path d="M77.1729 169.653L178.002 152.761" stroke="#172640" stroke-width="1.5" stroke-miterlimit="10" stroke-linecap="round"/>
<path d="M80.8838 180.128L181.755 163.236" stroke="#172640" stroke-width="1.5" stroke-miterlimit="10" stroke-linecap="round"/>
<path d="M84.5947 190.602L185.5 173.718" stroke="#172640" stroke-width="1.5" stroke-miterlimit="10" stroke-linecap="round"/>
<path d="M88.3135 201.068L189.252 184.201" stroke="#172640" stroke-width="1.5" stroke-miterlimit="10" stroke-linecap="round"/>
<path d="M183.526 116.911L53.7712 137.455C51.6291 137.792 49.6895 136.106 49.6895 133.888V47.1592C49.6895 45.3798 50.9629 43.8618 52.6833 43.5919L182.439 23.0483C184.581 22.711 186.52 24.3977 186.52 26.6156V113.344C186.52 115.123 185.247 116.641 183.526 116.911Z" stroke="#172640" stroke-width="1.5" stroke-miterlimit="10"/>
<path d="M128.052 133.829C128.684 133.727 135.313 132.564 138.501 137.202" stroke="#172640" stroke-width="1.5" stroke-miterlimit="10"/>
<path d="M98.333 144.235C97.6414 137.91 107.677 136.586 108.183 136.502" stroke="#172640" stroke-width="1.5" stroke-miterlimit="10"/>
<path d="M108.191 129.384L108.326 138.796" stroke="#172640" stroke-width="1.5" stroke-miterlimit="10"/>
<path d="M128.474 125.724L128.566 139.175" stroke="#172640" stroke-width="1.5" stroke-miterlimit="10"/>
</svg>
