<svg width="19" height="20" viewBox="0 0 19 20" fill="none" xmlns="http://www.w3.org/2000/svg">
<g clip-path="url(#clip0_321_647)">
<path d="M15.0417 0H3.95833C1.77254 0 0 1.86583 0 4.16667V15.8333C0 18.1342 1.77254 20 3.95833 20H15.0417C17.2283 20 19 18.1342 19 15.8333V4.16667C19 1.86583 17.2283 0 15.0417 0ZM12.6667 5.83333H11.1435C10.6566 5.83333 10.2917 6.04333 10.2917 6.57417V7.5H12.6667L12.4783 10H10.2917V16.6667H7.91667V10H6.33333V7.5H7.91667V5.8975C7.91667 4.2125 8.759 3.33333 10.6566 3.33333H12.6667V5.83333Z" fill="white"/>
</g>
<defs>
<clipPath id="clip0_321_647">
<rect width="19" height="20" fill="white"/>
</clipPath>
</defs>
</svg>
