<svg width="19" height="19" viewBox="0 0 19 19" fill="none" xmlns="http://www.w3.org/2000/svg">
<g clip-path="url(#clip0_321_649)">
<path d="M12.0595 4.34467C11.3921 4.31458 11.191 4.30825 9.5 4.30825C7.809 4.30825 7.60871 4.31458 6.94133 4.34467C5.22342 4.42304 4.42304 5.23688 4.34546 6.94054C4.31458 7.60871 4.30746 7.809 4.30746 9.5C4.30746 11.191 4.31458 11.3913 4.34467 12.0595C4.42304 13.76 5.22025 14.577 6.94054 14.6553C7.60792 14.6854 7.809 14.6925 9.5 14.6925C11.1918 14.6925 11.3921 14.6862 12.0595 14.6561C13.7774 14.5778 14.577 13.7623 14.6553 12.0603C14.6854 11.3921 14.6918 11.1918 14.6918 9.50079C14.6918 7.80979 14.6854 7.6095 14.6553 6.94213C14.577 5.23767 13.7758 4.42304 12.0595 4.34467ZM9.5 12.7522C7.70371 12.7522 6.24783 11.2963 6.24783 9.5C6.24783 7.70371 7.7045 6.24783 9.5 6.24783C11.2955 6.24783 12.7522 7.70371 12.7522 9.5C12.7522 11.2963 11.2963 12.7522 9.5 12.7522ZM12.8812 6.87958C12.4616 6.87958 12.1212 6.53917 12.1212 6.11958C12.1212 5.7 12.4616 5.35958 12.8812 5.35958C13.3008 5.35958 13.6412 5.7 13.6412 6.11958C13.6412 6.53917 13.3008 6.87958 12.8812 6.87958ZM11.6114 9.5C11.6114 10.6661 10.6661 11.6114 9.5 11.6114C8.33387 11.6114 7.38863 10.6661 7.38863 9.5C7.38863 8.33387 8.33387 7.38863 9.5 7.38863C10.6661 7.38863 11.6114 8.33387 11.6114 9.5ZM15.0417 0H3.95833C1.77254 0 0 1.77254 0 3.95833V15.0417C0 17.2275 1.77254 19 3.95833 19H15.0417C17.2283 19 19 17.2275 19 15.0417V3.95833C19 1.77254 17.2283 0 15.0417 0ZM15.7953 12.1109C15.6908 14.4139 14.4091 15.69 12.1117 15.7953C11.4356 15.8262 11.2203 15.8333 9.5 15.8333C7.77971 15.8333 7.56517 15.8262 6.88908 15.7953C4.58692 15.69 3.31075 14.4115 3.20467 12.1109C3.17379 11.4356 3.16667 11.2203 3.16667 9.5C3.16667 7.7805 3.17379 7.56437 3.20467 6.88908C3.31075 4.58692 4.5885 3.30996 6.88908 3.20546C7.56517 3.17379 7.77971 3.16667 9.5 3.16667C11.2203 3.16667 11.4356 3.17379 12.1117 3.20467C14.4139 3.30996 15.6924 4.59088 15.7953 6.88829C15.8262 7.56438 15.8333 7.7805 15.8333 9.5C15.8333 11.2203 15.8262 11.4356 15.7953 12.1109Z" fill="white"/>
</g>
<defs>
<clipPath id="clip0_321_649">
<rect width="19" height="19" fill="white"/>
</clipPath>
</defs>
</svg>
