<svg width="25" height="25" viewBox="0 0 25 25" fill="none" xmlns="http://www.w3.org/2000/svg">
<path d="M12.3424 22.3029C6.84237 22.3029 2.38184 17.8292 2.38184 12.3424C2.38184 6.85553 6.85553 2.38184 12.3424 2.38184C17.8292 2.38184 22.3029 6.85553 22.3029 12.3424C22.3029 17.8292 17.8292 22.3029 12.3424 22.3029ZM12.3424 3.06607C7.22395 3.06607 3.06605 7.22395 3.06605 12.3424C3.06605 17.4608 7.22395 21.6187 12.3424 21.6187C17.4608 21.6187 21.6187 17.4608 21.6187 12.3424C21.6187 7.22395 17.4608 3.06607 12.3424 3.06607Z" fill="white"/>
<path d="M12.3421 22.4343C6.77631 22.4343 2.25 17.9079 2.25 12.3421C2.25 6.77633 6.77631 2.25 12.3421 2.25C17.9079 2.25 22.4342 6.77633 22.4342 12.3421C22.4342 17.9079 17.9079 22.4343 12.3421 22.4343ZM12.3421 2.5C6.92105 2.5 2.51315 6.9079 2.51315 12.329C2.51315 17.75 6.92105 22.1579 12.3421 22.1579C17.7632 22.1579 22.1711 17.75 22.1711 12.329C22.1711 6.9079 17.7632 2.5 12.3421 2.5ZM12.3421 21.7368C7.15789 21.7368 2.9342 17.5132 2.9342 12.329C2.9342 7.14474 7.15789 2.92107 12.3421 2.92107C17.5263 2.92107 21.75 7.14474 21.75 12.329C21.75 17.5132 17.5263 21.7368 12.3421 21.7368ZM12.3421 3.19737C7.30263 3.19737 3.19735 7.30265 3.19735 12.3421C3.19735 17.3816 7.30263 21.4869 12.3421 21.4869C17.3816 21.4869 21.4868 17.3816 21.4868 12.3421C21.4868 7.30265 17.3816 3.19737 12.3421 3.19737Z" fill="white"/>
<path d="M12.3421 19.1838C8.56581 19.1838 5.5 16.118 5.5 12.3416C5.5 8.56532 8.56581 5.49951 12.3421 5.49951C16.1184 5.49951 19.1842 8.56532 19.1842 12.3416C19.1842 16.118 16.1184 19.1838 12.3421 19.1838ZM12.3421 6.18375C8.94739 6.18375 6.18422 8.9469 6.18422 12.3416C6.18422 15.7364 8.94739 18.4995 12.3421 18.4995C15.7369 18.4995 18.5 15.7364 18.5 12.3416C18.5 8.9469 15.7369 6.18375 12.3421 6.18375Z" fill="white"/>
<path d="M12.3419 19.3024C8.49975 19.3024 5.36816 16.1708 5.36816 12.3287C5.36816 8.48654 8.49975 5.35498 12.3419 5.35498C16.184 5.35498 19.3155 8.48654 19.3155 12.3287C19.3155 16.1708 16.184 19.3024 12.3419 19.3024ZM12.3419 5.61811C8.64448 5.61811 5.63132 8.63128 5.63132 12.3287C5.63132 16.026 8.64448 19.0392 12.3419 19.0392C16.0392 19.0392 19.0524 16.026 19.0524 12.3287C19.0524 8.63128 16.0392 5.61811 12.3419 5.61811ZM12.3419 18.6181C8.88133 18.6181 6.06553 15.8023 6.06553 12.3418C6.06553 8.88129 8.88133 6.06552 12.3419 6.06552C15.8024 6.06552 18.6182 8.88129 18.6182 12.3418C18.6182 15.8023 15.8024 18.6181 12.3419 18.6181ZM12.3419 6.31552C9.02606 6.31552 6.31553 9.01287 6.31553 12.3418C6.31553 15.6708 9.01291 18.3681 12.3419 18.3681C15.6708 18.3681 18.3682 15.6708 18.3682 12.3418C18.3682 9.01287 15.6708 6.31552 12.3419 6.31552Z" fill="white"/>
<path d="M12.3421 3.06606C12.1579 3.06606 12 2.90815 12 2.72394V0.473954C12 0.289744 12.1579 0.131836 12.3421 0.131836C12.5263 0.131836 12.6842 0.289744 12.6842 0.473954V2.72394C12.6842 2.90815 12.5263 3.06606 12.3421 3.06606Z" fill="white"/>
<path d="M12.3418 3.19736C12.0787 3.19736 11.8682 2.98685 11.8682 2.72369V0.473705C11.8682 0.210547 12.0787 0 12.3418 0C12.605 0 12.8155 0.210547 12.8155 0.473705V2.72369C12.8155 2.98685 12.605 3.19736 12.3418 3.19736ZM12.3418 0.250003C12.2234 0.250003 12.1313 0.342113 12.1313 0.460534V2.71052C12.1313 2.82894 12.2234 2.92106 12.3418 2.92106C12.4603 2.92106 12.5524 2.82894 12.5524 2.71052V0.460534C12.5524 0.342113 12.4603 0.250003 12.3418 0.250003Z" fill="white"/>
<path d="M12.3421 24.5529C12.1579 24.5529 12 24.395 12 24.2108V21.9608C12 21.7766 12.1579 21.6187 12.3421 21.6187C12.5263 21.6187 12.6842 21.7766 12.6842 21.9608V24.2108C12.6842 24.395 12.5263 24.5529 12.3421 24.5529Z" fill="white"/>
<path d="M12.3418 24.6842C12.0787 24.6842 11.8682 24.4736 11.8682 24.2105V21.9605C11.8682 21.6973 12.0787 21.4868 12.3418 21.4868C12.605 21.4868 12.8155 21.6973 12.8155 21.9605V24.2105C12.8155 24.4736 12.605 24.6842 12.3418 24.6842ZM12.3418 21.7368C12.2234 21.7368 12.1313 21.8289 12.1313 21.9473V24.1973C12.1313 24.3158 12.2234 24.4079 12.3418 24.4079C12.4603 24.4079 12.5524 24.3158 12.5524 24.1973V21.9473C12.5524 21.8289 12.4603 21.7368 12.3418 21.7368Z" fill="white"/>
<path d="M24.2103 12.6842H21.9603C21.7761 12.6842 21.6182 12.5263 21.6182 12.3421C21.6182 12.1579 21.7761 12 21.9603 12H24.2103C24.3945 12 24.5524 12.1579 24.5524 12.3421C24.5524 12.5263 24.3945 12.6842 24.2103 12.6842Z" fill="white"/>
<path d="M24.21 12.816H21.96C21.6969 12.816 21.4863 12.6055 21.4863 12.3424C21.4863 12.0792 21.6969 11.8687 21.96 11.8687H24.21C24.4732 11.8687 24.6837 12.0792 24.6837 12.3424C24.6837 12.6055 24.4732 12.816 24.21 12.816ZM21.96 12.1187C21.8416 12.1187 21.7495 12.2108 21.7495 12.3292C21.7495 12.4476 21.8416 12.5397 21.96 12.5397H24.21C24.3284 12.5397 24.4205 12.4476 24.4205 12.3292C24.4205 12.2108 24.3284 12.1187 24.21 12.1187H21.96Z" fill="white"/>
<path d="M2.72392 12.6842H0.473934C0.289723 12.6842 0.131836 12.5263 0.131836 12.3421C0.131836 12.1579 0.289723 12 0.473934 12H2.72392C2.90813 12 3.06604 12.1579 3.06604 12.3421C3.06604 12.5263 2.90813 12.6842 2.72392 12.6842Z" fill="white"/>
<path d="M2.72367 12.816H0.473685C0.210527 12.816 0 12.6055 0 12.3424C0 12.0792 0.210527 11.8687 0.473685 11.8687H2.72367C2.98683 11.8687 3.19736 12.0792 3.19736 12.3424C3.19736 12.6055 2.98683 12.816 2.72367 12.816ZM0.460534 12.1187C0.342113 12.1187 0.250003 12.2108 0.250003 12.3292C0.250003 12.4476 0.342113 12.5397 0.460534 12.5397H2.71052C2.82894 12.5397 2.92106 12.4476 2.92106 12.3292C2.92106 12.2108 2.82894 12.1187 2.71052 12.1187H0.460534Z" fill="white"/>
</svg>
