<svg width="21" height="26" viewBox="0 0 21 26" fill="none" xmlns="http://www.w3.org/2000/svg">
<path d="M7.81622 12.3424C4.4478 12.3424 1.71094 9.6055 1.71094 6.23708C1.71094 2.86866 4.4478 0.131836 7.81622 0.131836C11.1846 0.131836 13.9215 2.86866 13.9215 6.23708C13.9215 9.6055 11.1846 12.3424 7.81622 12.3424ZM7.81622 0.816032C4.82938 0.816032 2.40834 3.25026 2.40834 6.22395C2.40834 9.19763 4.84254 11.6318 7.81622 11.6318C10.7899 11.6318 13.2241 9.19763 13.2241 6.22395C13.2241 3.25026 10.7899 0.816032 7.81622 0.816032Z" fill="white"/>
<path d="M7.81593 12.4737C4.38172 12.4737 1.5791 9.67104 1.5791 6.23683C1.5791 2.80262 4.38172 0 7.81593 0C11.2501 0 14.0528 2.78946 14.0528 6.23683C14.0528 9.6842 11.2501 12.4737 7.81593 12.4737ZM7.81593 0.263174C4.52646 0.263174 1.84228 2.94736 1.84228 6.23683C1.84228 9.52631 4.52646 12.2105 7.81593 12.2105C11.1054 12.2105 13.7896 9.52631 13.7896 6.23683C13.7896 2.94736 11.1054 0.263174 7.81593 0.263174ZM7.81593 11.7763C4.7633 11.7763 2.27643 9.28946 2.27643 6.23683C2.27643 3.1842 4.7633 0.697367 7.81593 0.697367C10.8686 0.697367 13.3554 3.1842 13.3554 6.23683C13.3554 9.28946 10.8686 11.7763 7.81593 11.7763ZM7.81593 0.94737C4.90804 0.94737 2.52643 3.31578 2.52643 6.23683C2.52643 9.15788 4.89488 11.5263 7.81593 11.5263C10.737 11.5263 13.1054 9.15788 13.1054 6.23683C13.1054 3.31578 10.737 0.94737 7.81593 0.94737Z" fill="white"/>
<path d="M15.4608 25.013H0.473954C0.289744 25.013 0.131836 24.8551 0.131836 24.6709V19.4998C0.131836 15.184 3.64502 11.6577 7.97397 11.6577C12.3029 11.6577 15.8161 15.1709 15.8161 19.4998V24.6709C15.8161 24.8551 15.6582 25.013 15.474 25.013H15.4608ZM0.816072 24.3156H15.1055V19.4866C15.1055 15.5393 11.895 12.3419 7.9608 12.3419C4.02659 12.3419 0.816072 15.5524 0.816072 19.4866V24.3156Z" fill="white"/>
<path d="M15.4605 25.1316H0.473665C0.210507 25.1316 0 24.9211 0 24.6579V19.4869C0 15.0921 3.57893 11.5264 7.96051 11.5264C12.3421 11.5264 15.921 15.1053 15.921 19.4869V24.6579C15.921 24.9211 15.7105 25.1316 15.4474 25.1316H15.4605ZM7.96051 11.7764C3.71051 11.7764 0.250003 15.2369 0.250003 19.4869V24.6579C0.250003 24.7763 0.342073 24.8685 0.460494 24.8685H15.4474C15.5658 24.8685 15.6579 24.7763 15.6579 24.6579V19.4869C15.6579 15.2369 12.1973 11.7764 7.94734 11.7764H7.96051ZM15.1184 24.4474H0.828954C0.763165 24.4474 0.697407 24.3948 0.697407 24.3158V19.4869C0.697407 15.4737 3.96052 12.2106 7.97368 12.2106C11.9868 12.2106 15.25 15.4737 15.25 19.4869V24.3158C15.25 24.3816 15.1974 24.4474 15.1184 24.4474ZM0.94733 24.1843H14.9869V19.4869C14.9869 15.6185 11.8421 12.4737 7.97368 12.4737C4.10526 12.4737 0.960501 15.6185 0.960501 19.4869V24.1843H0.94733Z" fill="white"/>
<path d="M13.3167 13.6313C11.843 13.6313 10.4614 13.0523 9.42193 12.0129C9.29035 11.8813 9.29035 11.6576 9.42193 11.526C9.55351 11.3944 9.77726 11.3944 9.90884 11.526C10.8167 12.4339 12.0272 12.9339 13.3167 12.9339C15.9746 12.9339 18.1456 10.7629 18.1456 8.10496C18.1456 5.44706 15.9746 3.27599 13.3167 3.27599C13.0799 3.27599 12.843 3.28916 12.6062 3.32864C12.422 3.35495 12.2378 3.22337 12.2115 3.03916C12.1852 2.85495 12.3167 2.67076 12.5009 2.64444C12.7641 2.60497 13.0404 2.5918 13.3035 2.5918C16.343 2.5918 18.8167 5.06549 18.8167 8.10496C18.8167 11.1444 16.343 13.6181 13.3035 13.6181L13.3167 13.6313Z" fill="white"/>
<path d="M13.3164 13.7631C11.8032 13.7631 10.3954 13.171 9.32956 12.1052C9.14535 11.921 9.14535 11.6184 9.32956 11.4342C9.51377 11.2499 9.81634 11.2499 10.0005 11.4342C10.8821 12.3157 12.0664 12.8157 13.3164 12.8157C15.9085 12.8157 18.0137 10.7105 18.0137 8.11838C18.0137 5.52628 15.9085 3.421 13.3164 3.421C13.0795 3.421 12.8558 3.43417 12.6321 3.47365C12.5137 3.49996 12.3822 3.47365 12.2901 3.3947C12.1848 3.31575 12.119 3.21046 12.1059 3.07888C12.0927 2.94731 12.1059 2.8289 12.198 2.72364C12.2769 2.61837 12.3822 2.55256 12.5138 2.53941C12.7901 2.49993 13.0664 2.47363 13.3427 2.47363C16.4611 2.47363 18.9874 4.99996 18.9874 8.11838C18.9874 11.2368 16.4611 13.7631 13.3427 13.7631H13.3164ZM9.65851 11.5657C9.65851 11.5657 9.55317 11.592 9.50054 11.6315C9.4216 11.7105 9.4216 11.8552 9.50054 11.9342C10.5137 12.9473 11.869 13.5131 13.3032 13.5131C16.2769 13.5131 18.6848 11.092 18.6848 8.13151C18.6848 5.17099 16.2637 2.74994 13.3032 2.74994C13.04 2.74994 12.7769 2.76311 12.5138 2.80258C12.4611 2.80258 12.4085 2.84205 12.369 2.88152C12.3296 2.93416 12.3164 2.98678 12.3295 3.03941C12.3295 3.09204 12.369 3.1447 12.4216 3.18417C12.4611 3.22364 12.5269 3.2368 12.5795 3.22364C12.8164 3.18417 13.0664 3.171 13.3032 3.171C16.04 3.171 18.2637 5.39467 18.2637 8.13151C18.2637 10.8684 16.04 13.0921 13.3032 13.0921C11.9742 13.0921 10.7374 12.5789 9.80323 11.6447C9.76376 11.6052 9.71113 11.5789 9.64534 11.5789L9.65851 11.5657Z" fill="white"/>
<path d="M20.1705 25.0136H15.46C15.2758 25.0136 15.1179 24.8557 15.1179 24.6715C15.1179 24.4872 15.2758 24.3293 15.46 24.3293H19.8284V20.0267C19.8284 16.5136 17.0258 13.6451 13.5652 13.6451C13.21 13.6451 12.8547 13.6715 12.5126 13.7372C12.3284 13.7636 12.1442 13.6452 12.1179 13.4609C12.0916 13.2767 12.21 13.0925 12.3942 13.0662C12.7758 13.0004 13.1705 12.9609 13.5652 12.9609C17.3942 12.9609 20.5127 16.132 20.5127 20.0267V24.6715C20.5127 24.8557 20.3547 25.0136 20.1705 25.0136Z" fill="white"/>
<path d="M20.1707 25.1322H15.4601C15.197 25.1322 14.9865 24.9217 14.9865 24.6585C14.9865 24.3954 15.197 24.1848 15.4601 24.1848H19.6969V20.0138C19.6969 16.5664 16.947 13.7638 13.5654 13.7638C13.2233 13.7638 12.8681 13.7901 12.5391 13.8559C12.276 13.8954 12.0391 13.7243 11.9864 13.4743C11.9601 13.3559 11.9864 13.2243 12.0654 13.1191C12.1443 13.0138 12.2496 12.948 12.3681 12.9217C12.7628 12.8559 13.1575 12.8164 13.5654 12.8164C17.4733 12.8164 20.6444 16.0401 20.6444 20.0138V24.6585C20.6444 24.9217 20.4338 25.1322 20.1707 25.1322ZM15.4601 24.448C15.3417 24.448 15.2496 24.5401 15.2496 24.6585C15.2496 24.7769 15.3417 24.869 15.4601 24.869H20.1707C20.2891 24.869 20.3812 24.7769 20.3812 24.6585V20.0138C20.3812 16.1848 17.3154 13.0664 13.5654 13.0664C13.1838 13.0664 12.7891 13.1059 12.4207 13.1585C12.368 13.1585 12.3154 13.198 12.2759 13.2506C12.2496 13.3033 12.2364 13.3559 12.2364 13.4085C12.2628 13.5269 12.368 13.6059 12.4864 13.5796C12.8417 13.5138 13.197 13.4875 13.5654 13.4875C17.0917 13.4875 19.9601 16.4085 19.9601 20.0006V24.3033C19.9601 24.3691 19.9075 24.4349 19.8286 24.4349H15.4601V24.448Z" fill="white"/>
</svg>
