<svg width="25" height="18" viewBox="0 0 25 18" fill="none" xmlns="http://www.w3.org/2000/svg">
<path d="M16.1187 4.59244H0.473954C0.289744 4.59244 0.131836 4.43453 0.131836 4.25032C0.131836 4.06611 0.289744 3.9082 0.473954 3.9082H16.1187C16.3029 3.9082 16.4608 4.06611 16.4608 4.25032C16.4608 4.43453 16.3029 4.59244 16.1187 4.59244Z" fill="white"/>
<path d="M16.1184 4.7237H0.473665C0.210507 4.7237 0 4.51319 0 4.25003C0 3.98687 0.210507 3.77637 0.473665 3.77637H16.1184C16.3816 3.77637 16.5921 3.98687 16.5921 4.25003C16.5921 4.51319 16.3816 4.7237 16.1184 4.7237ZM0.473665 4.02637C0.355244 4.02637 0.263174 4.11844 0.263174 4.23686C0.263174 4.35528 0.355244 4.44743 0.473665 4.44743H16.1184C16.2368 4.44743 16.3289 4.35528 16.3289 4.23686C16.3289 4.11844 16.2368 4.02637 16.1184 4.02637H0.473665Z" fill="white"/>
<path d="M16.1187 10.8288H0.473954C0.289744 10.8288 0.131836 10.6709 0.131836 10.4866C0.131836 10.3024 0.289744 10.1445 0.473954 10.1445H16.1187C16.3029 10.1445 16.4608 10.3024 16.4608 10.4866C16.4608 10.6709 16.3029 10.8288 16.1187 10.8288Z" fill="white"/>
<path d="M16.1184 10.9474H0.473665C0.210507 10.9474 0 10.7368 0 10.4737C0 10.2105 0.210507 10 0.473665 10H16.1184C16.3816 10 16.5921 10.2105 16.5921 10.4737C16.5921 10.7368 16.3816 10.9474 16.1184 10.9474ZM0.473665 10.2632C0.355244 10.2632 0.263174 10.3552 0.263174 10.4737C0.263174 10.5921 0.355244 10.6842 0.473665 10.6842H16.1184C16.2368 10.6842 16.3289 10.5921 16.3289 10.4737C16.3289 10.3552 16.2368 10.2632 16.1184 10.2632H0.473665Z" fill="white"/>
<path d="M16.1187 17.0523H0.473954C0.289744 17.0523 0.131836 16.8945 0.131836 16.7103C0.131836 16.5261 0.289744 16.3682 0.473954 16.3682H16.1187C16.3029 16.3682 16.4608 16.5261 16.4608 16.7103C16.4608 16.8945 16.3029 17.0523 16.1187 17.0523Z" fill="white"/>
<path d="M16.1184 17.1842H0.473665C0.210507 17.1842 0 16.9737 0 16.7106C0 16.4474 0.210507 16.2368 0.473665 16.2368H16.1184C16.3816 16.2368 16.5921 16.4474 16.5921 16.7106C16.5921 16.9737 16.3816 17.1842 16.1184 17.1842ZM0.473665 16.5C0.355244 16.5 0.263174 16.5921 0.263174 16.7106C0.263174 16.829 0.355244 16.9211 0.473665 16.9211H16.1184C16.2368 16.9211 16.3289 16.829 16.3289 16.7106C16.3289 16.5921 16.2368 16.5 16.1184 16.5H0.473665Z" fill="white"/>
<path d="M20.3291 10.8288H19.4212C19.237 10.8288 19.0791 10.6709 19.0791 10.4866C19.0791 10.3024 19.237 10.1445 19.4212 10.1445H20.3291C20.5133 10.1445 20.6712 10.3024 20.6712 10.4866C20.6712 10.6709 20.5133 10.8288 20.3291 10.8288Z" fill="white"/>
<path d="M20.3289 10.9474H19.421C19.1579 10.9474 18.9473 10.7368 18.9473 10.4737C18.9473 10.2105 19.1579 10 19.421 10H20.3289C20.5921 10 20.8026 10.2105 20.8026 10.4737C20.8026 10.7368 20.5921 10.9474 20.3289 10.9474ZM19.421 10.2632C19.3026 10.2632 19.2104 10.3552 19.2104 10.4737C19.2104 10.5921 19.3026 10.6842 19.421 10.6842H20.3289C20.4473 10.6842 20.5394 10.5921 20.5394 10.4737C20.5394 10.3552 20.4473 10.2632 20.3289 10.2632H19.421Z" fill="white"/>
<path d="M20.3291 17.0523H19.4212C19.237 17.0523 19.0791 16.8945 19.0791 16.7103C19.0791 16.5261 19.237 16.3682 19.4212 16.3682H20.3291C20.5133 16.3682 20.6712 16.5261 20.6712 16.7103C20.6712 16.8945 20.5133 17.0523 20.3291 17.0523Z" fill="white"/>
<path d="M20.3289 17.1842H19.421C19.1579 17.1842 18.9473 16.9737 18.9473 16.7106C18.9473 16.4474 19.1579 16.2368 19.421 16.2368H20.3289C20.5921 16.2368 20.8026 16.4474 20.8026 16.7106C20.8026 16.9737 20.5921 17.1842 20.3289 17.1842ZM19.421 16.5C19.3026 16.5 19.2104 16.5921 19.2104 16.7106C19.2104 16.829 19.3026 16.9211 19.421 16.9211H20.3289C20.4473 16.9211 20.5394 16.829 20.5394 16.7106C20.5394 16.5921 20.4473 16.5 20.3289 16.5H19.421Z" fill="white"/>
<path d="M20.0128 4.81529C19.9338 4.81529 19.8417 4.78896 19.7759 4.72318L18.868 3.86796C18.7233 3.73638 18.7234 3.52586 18.8549 3.38112C18.9865 3.23639 19.197 3.23637 19.3418 3.36795L20.0128 3.99951L23.8154 0.223196C23.947 0.091617 24.1707 0.091617 24.3023 0.223196C24.4338 0.354775 24.4338 0.578453 24.3023 0.710032L20.2628 4.72318C20.197 4.78896 20.1049 4.82846 20.0259 4.82846L20.0128 4.81529Z" fill="white"/>
<path d="M20.0133 4.94738C19.8949 4.94738 19.7764 4.90786 19.6843 4.81576L18.7765 3.96054C18.5791 3.77633 18.5791 3.48684 18.7502 3.28947C18.8423 3.19737 18.9475 3.14468 19.0791 3.14468C19.2107 3.14468 19.3291 3.1842 19.4212 3.2763L20.0002 3.81574L23.7107 0.131547C23.8028 0.0394416 23.9212 0 24.0397 0C24.1712 0 24.2896 0.0526123 24.3817 0.144718C24.4738 0.236823 24.5265 0.355257 24.5133 0.486836C24.5133 0.618415 24.4607 0.736836 24.3686 0.815783L20.3291 4.82893C20.237 4.92103 20.1186 4.96047 20.0002 4.96047L20.0133 4.94738ZM19.1055 3.40785C19.1055 3.40785 19.0001 3.43415 18.9607 3.47362C18.8817 3.56573 18.8817 3.69736 18.9607 3.77631L19.8686 4.63153C19.9475 4.71047 20.0923 4.71047 20.1712 4.63153L24.2106 0.618383C24.2106 0.618383 24.2765 0.526284 24.2765 0.460494C24.2765 0.407863 24.2501 0.355238 24.2106 0.302606C24.1712 0.263132 24.1185 0.236833 24.0528 0.236833C24.0528 0.236833 23.9475 0.263132 23.8949 0.302606L20.0923 4.07892C20.0923 4.07892 19.9607 4.13155 19.9081 4.07892L19.237 3.44736C19.237 3.44736 19.1449 3.39468 19.0923 3.39468L19.1055 3.40785Z" fill="white"/>
</svg>
