<svg width="26" height="26" viewBox="0 0 26 26" fill="none" xmlns="http://www.w3.org/2000/svg">
<path d="M12.8292 25.5266C5.8292 25.5266 0.131836 19.8292 0.131836 12.8292C0.131836 5.82922 5.8292 0.131836 12.8292 0.131836C19.8292 0.131836 25.5266 5.82922 25.5266 12.8292C25.5266 19.8292 19.8292 25.5266 12.8292 25.5266ZM12.8292 0.816052C6.21078 0.816052 0.816032 6.2108 0.816032 12.8292C0.816032 19.4476 6.21078 24.8424 12.8292 24.8424C19.4476 24.8424 24.8424 19.4476 24.8424 12.8292C24.8424 6.2108 19.4476 0.816052 12.8292 0.816052Z" fill="white"/>
<path d="M12.829 25.6579C5.75 25.6579 0 19.9079 0 12.829C0 5.75 5.75 0 12.829 0C19.9079 0 25.6579 5.75 25.6579 12.829C25.6579 19.9079 19.9079 25.6579 12.829 25.6579ZM12.829 0.249983C5.89474 0.249983 0.263174 5.89473 0.263174 12.8158C0.263174 19.7368 5.9079 25.3816 12.829 25.3816C19.75 25.3816 25.3948 19.7368 25.3948 12.8158C25.3948 5.89473 19.75 0.249983 12.829 0.249983ZM12.829 24.9605C6.13158 24.9605 0.684196 19.5132 0.684196 12.8158C0.684196 6.11841 6.13158 0.671046 12.829 0.671046C19.5263 0.671046 24.9737 6.11841 24.9737 12.8158C24.9737 19.5132 19.5263 24.9605 12.829 24.9605ZM12.829 0.94737C6.27632 0.94737 0.94737 6.27632 0.94737 12.829C0.94737 19.3816 6.27632 24.7105 12.829 24.7105C19.3816 24.7105 24.7105 19.3816 24.7105 12.829C24.7105 6.27632 19.3816 0.94737 12.829 0.94737Z" fill="white"/>
<path d="M21.9605 21.1452L12.4736 12.9873V0.460938H13.171V12.6715L22.4078 20.6188L21.9605 21.1452Z" fill="white"/>
<path d="M21.9607 21.2765C21.9607 21.2765 21.8949 21.2765 21.8818 21.2502L12.3949 13.0923C12.3949 13.0923 12.3555 13.0265 12.3555 13.0002V0.487056C12.3555 0.421266 12.4081 0.355469 12.487 0.355469H13.1713C13.237 0.355469 13.3028 0.408108 13.3028 0.487056V12.6318L22.5002 20.5529C22.5002 20.5529 22.5397 20.6055 22.5397 20.6449C22.5397 20.6844 22.5397 20.7107 22.5134 20.7371L22.066 21.2634C22.066 21.2634 22.0002 21.3028 21.9739 21.3028L21.9607 21.2765ZM12.6055 12.9213L21.9475 20.9607L22.2239 20.6318L13.0791 12.7634C13.0791 12.7634 13.0397 12.6976 13.0397 12.6713V0.605472H12.6055V12.9344V12.9213Z" fill="white"/>
<path d="M25.1844 12.4736H12.8291V13.1578H25.1844V12.4736Z" fill="white"/>
<path d="M25.1841 13.3028H12.8289C12.7631 13.3028 12.6973 13.2502 12.6973 13.1713V12.487C12.6973 12.4212 12.7499 12.3555 12.8289 12.3555H25.1841C25.2499 12.3555 25.3157 12.4081 25.3157 12.487V13.1713C25.3157 13.237 25.2631 13.3028 25.1841 13.3028ZM12.9473 13.0397H25.0394V12.6055H12.9473V13.0397Z" fill="white"/>
</svg>
