<svg width="30" height="29" viewBox="0 0 30 29" fill="none" xmlns="http://www.w3.org/2000/svg">
<path d="M29.2249 13.6782C29.0766 13.5299 28.8246 13.5299 28.6763 13.6782L25.0733 17.2812L15.302 7.4655L21.9891 0.778341C22.1374 0.630067 22.1374 0.378009 21.9891 0.229736C21.8409 0.0814618 21.5888 0.0814618 21.4405 0.229736L14.7534 6.91689L11.6248 3.7735C11.4765 3.62523 11.2245 3.62523 11.0762 3.7735C10.9279 3.92177 10.9279 4.17383 11.0762 4.3221L14.2048 7.4655L3.95917 17.7113C3.8109 17.8595 3.81087 18.0819 3.92949 18.2302C4.06294 18.3933 7.07288 22.1594 3.91465 27.9569H0.533964C0.32638 27.9569 0.148438 28.1349 0.148438 28.3425C0.148438 28.5501 0.32638 28.728 0.533964 28.728H4.15194C4.15194 28.728 4.25571 28.728 4.31502 28.6983C4.37433 28.6687 10.2756 25.8515 14.4569 28.5649C14.6052 28.6687 14.8127 28.639 14.9461 28.5204L25.0733 18.3933L28.2316 21.5663C28.3057 21.6405 28.4094 21.685 28.5132 21.685C28.617 21.685 28.706 21.6405 28.7802 21.5663C28.9285 21.4181 28.9285 21.166 28.7802 21.0177L25.6219 17.8447L29.2249 14.2416C29.3732 14.0933 29.3732 13.8413 29.2249 13.693V13.6782ZM14.6051 27.7493C11.5359 25.9404 7.85869 26.6373 5.72354 27.3194L13.8638 19.2384C14.1455 19.4164 14.4717 19.5202 14.8127 19.5202C15.2724 19.5202 15.6876 19.3423 16.0138 19.0161C16.34 18.6899 16.5179 18.2747 16.5179 17.8151C16.5179 17.3554 16.34 16.9402 16.0138 16.614C15.6876 16.2878 15.2724 16.1099 14.8127 16.1099C14.3531 16.1099 13.938 16.2878 13.6118 16.614C13.2856 16.9402 13.1075 17.3554 13.1075 17.8151C13.1075 18.1116 13.1966 18.4081 13.3448 18.6601L5.41223 26.5335C6.30187 24.1018 6.198 22.1001 5.88662 20.736C5.57525 19.4016 5.04143 18.4674 4.74489 18.0226L14.7534 8.01411L24.5247 17.8298L14.62 27.7345L14.6051 27.7493ZM13.8934 17.8151C13.8934 17.563 13.9825 17.3406 14.1604 17.1627C14.3383 16.9847 14.5607 16.8957 14.8127 16.8957C15.0648 16.8957 15.2873 16.9847 15.4652 17.1627C15.6432 17.3406 15.732 17.563 15.732 17.8151C15.732 18.0671 15.6432 18.2895 15.4652 18.4674C15.1983 18.7343 14.7831 18.7936 14.442 18.6601L14.709 18.3933C14.8573 18.245 14.8573 17.9929 14.709 17.8447C14.5607 17.6964 14.3087 17.6964 14.1604 17.8447L13.9231 18.082C13.8935 17.993 13.8786 17.9188 13.8786 17.8298L13.8934 17.8151Z" fill="#DBE120"/>
<path d="M0.533764 28.8911C0.237216 28.8911 0 28.6539 0 28.3574C0 28.0608 0.237216 27.8236 0.533764 27.8236H3.8254C6.86501 22.1596 3.94402 18.4972 3.8254 18.3341C3.64747 18.1265 3.66232 17.8151 3.85508 17.6224L13.9971 7.48041L10.9723 4.44082C10.8685 4.33703 10.8092 4.20358 10.8241 4.07014C10.8241 3.92186 10.8833 3.78842 10.9871 3.69945C11.1947 3.49187 11.5358 3.49187 11.7433 3.69945L14.768 6.73904L21.3515 0.155687C21.559 -0.0518958 21.9001 -0.0518958 22.1077 0.155687C22.2115 0.259479 22.2707 0.392925 22.2707 0.526372C22.2707 0.659818 22.2115 0.808106 22.1077 0.911898L15.5094 7.5101L25.0731 17.1182L28.5724 13.619C28.78 13.4114 29.121 13.4114 29.3286 13.619C29.4324 13.7228 29.4917 13.8562 29.4917 13.9897C29.4917 14.1231 29.4324 14.2714 29.3286 14.3752L25.8293 17.8744L28.8837 20.9437C29.0913 21.1513 29.0913 21.4923 28.8837 21.6999C28.6761 21.9075 28.3351 21.9075 28.1275 21.6999L25.0731 18.6306L15.0498 28.6539C14.8719 28.8319 14.5901 28.8615 14.3825 28.7281C10.2605 26.0591 4.43331 28.8466 4.374 28.8763C4.374 28.8763 4.35933 28.8763 4.3445 28.8763C4.27036 28.906 4.21103 28.9208 4.1369 28.9208H0.518922L0.533764 28.8911ZM0.533764 28.1052C0.400317 28.1052 0.296475 28.2091 0.296475 28.3425C0.296475 28.476 0.400317 28.5797 0.533764 28.5797H4.15174C4.15174 28.5797 4.21097 28.5798 4.25545 28.5501C4.25545 28.5501 4.27031 28.5501 4.28513 28.5501C4.58168 28.4167 10.3939 25.7329 14.5604 28.4315C14.6494 28.4908 14.7829 28.476 14.8571 28.4018L24.9841 18.2748C24.9841 18.2748 25.0435 18.2303 25.088 18.2303C25.088 18.2303 25.162 18.2451 25.1917 18.2748L28.3499 21.4478C28.4389 21.5367 28.602 21.5367 28.6909 21.4478C28.7799 21.3588 28.7799 21.1957 28.6909 21.1068L25.5327 17.9337C25.5327 17.9337 25.4734 17.7854 25.5327 17.7261L29.1358 14.123C29.1358 14.123 29.2099 14.0193 29.2099 13.9451C29.2099 13.871 29.1803 13.8265 29.1358 13.7672C29.0469 13.6782 28.8838 13.6782 28.7948 13.7672L25.1917 17.3702C25.1917 17.3702 25.1325 17.4148 25.088 17.4148C25.088 17.4148 25.0137 17.3999 24.9841 17.3702L15.2129 7.55453C15.2129 7.55453 15.1536 7.40624 15.2129 7.34693L21.9001 0.659858C21.989 0.570894 21.989 0.407731 21.9001 0.318767C21.8111 0.229803 21.648 0.229803 21.5591 0.318767L14.8719 7.00593C14.8719 7.00593 14.8125 7.05045 14.768 7.05045C14.768 7.05045 14.6939 7.03558 14.6643 7.00593L11.5357 3.86253C11.4468 3.77357 11.2837 3.77357 11.1947 3.86253C11.1503 3.90701 11.1205 3.96632 11.1205 4.04045C11.1205 4.09976 11.1503 4.15906 11.1947 4.21837L14.3233 7.36177C14.3233 7.36177 14.3826 7.51006 14.3233 7.56937L4.07753 17.8151C3.98856 17.9041 3.98855 18.0375 4.06269 18.1413C4.19613 18.3044 7.2654 22.1447 4.06269 28.0311C4.03303 28.0756 3.9886 28.1052 3.92929 28.1052H0.548606H0.533764ZM14.6049 27.8977C14.6049 27.8977 14.5606 27.8977 14.5309 27.8829C11.4616 26.074 7.72508 26.8449 5.76787 27.4677C5.70856 27.4825 5.63445 27.4677 5.60479 27.4084C5.57514 27.3491 5.57515 27.275 5.61963 27.2305L13.7598 19.1495C13.7598 19.1495 13.8785 19.0902 13.9378 19.1347C14.1898 19.2978 14.4863 19.4016 14.7977 19.4016C15.2129 19.4016 15.5984 19.2385 15.8949 18.9419C16.1914 18.6454 16.3546 18.2599 16.3546 17.8447C16.3546 17.4296 16.1914 17.0441 15.8949 16.7475C15.5984 16.451 15.2129 16.2879 14.7977 16.2879C14.3825 16.2879 13.997 16.451 13.7005 16.7475C13.4039 17.0441 13.2409 17.4296 13.2409 17.8447C13.2409 18.1116 13.3149 18.3637 13.4483 18.6158C13.478 18.6751 13.4782 18.7492 13.4188 18.7937L5.48606 26.667C5.48606 26.667 5.36744 26.7264 5.30813 26.6819C5.24883 26.6522 5.21929 26.5781 5.24895 26.504C6.15342 24.0574 6.00505 22.0409 5.7085 20.7954C5.39713 19.4757 4.87816 18.5564 4.58161 18.1265C4.53713 18.0671 4.55197 17.993 4.59645 17.9485L14.6049 7.94006C14.6049 7.94006 14.6643 7.89562 14.7088 7.89562C14.7088 7.89562 14.7829 7.9104 14.8125 7.94006L24.5837 17.7558C24.5837 17.7558 24.643 17.9041 24.5837 17.9634L14.6791 27.868C14.6791 27.868 14.6197 27.9126 14.5752 27.9126L14.6049 27.8977ZM10.0827 26.4594C11.5654 26.4594 13.137 26.7412 14.5901 27.5715L24.3169 17.8447L14.7532 8.23662L4.93745 18.0523C5.24883 18.5268 5.73811 19.4461 6.03466 20.7212C6.30155 21.9074 6.46476 23.746 5.76787 25.9998L13.1816 18.6306C13.0481 18.3786 12.9888 18.0969 12.9888 17.8151C12.9888 17.3258 13.1815 16.8514 13.5226 16.5103C13.8784 16.1693 14.3381 15.9765 14.8274 15.9765C15.3167 15.9765 15.7763 16.1693 16.1322 16.5103C16.488 16.8662 16.666 17.3258 16.666 17.8151C16.666 18.3044 16.4732 18.7788 16.1322 19.1199C15.7763 19.4757 15.3167 19.6537 14.8274 19.6537C14.5012 19.6537 14.1898 19.5647 13.9081 19.4016L6.25711 26.9932C7.2802 26.7115 8.64443 26.4298 10.0827 26.4298V26.4594ZM14.8125 18.8827C14.6643 18.8827 14.5308 18.853 14.3973 18.7937C14.3528 18.7789 14.3233 18.7344 14.3085 18.6899C14.3085 18.6454 14.3085 18.5862 14.353 18.5565L14.6198 18.2895C14.7087 18.2006 14.7087 18.0375 14.6198 17.9485C14.5308 17.8596 14.3677 17.8596 14.2788 17.9485L14.0415 18.1858C14.0415 18.1858 13.9526 18.2303 13.9081 18.2303C13.8636 18.2303 13.8192 18.1858 13.8044 18.1265C13.7747 18.0227 13.7598 17.9189 13.7598 17.8299C13.7598 17.5482 13.8636 17.2814 14.0712 17.0738C14.4715 16.6734 15.1832 16.6734 15.5836 17.0738C15.7912 17.2814 15.8949 17.5482 15.8949 17.8299C15.8949 18.1116 15.7763 18.3785 15.5836 18.5861C15.3908 18.7789 15.1091 18.8827 14.8274 18.8827H14.8125ZM14.7385 18.5861C14.9757 18.6158 15.2129 18.5268 15.3611 18.3785C15.5094 18.2302 15.5836 18.0375 15.5836 17.8299C15.5836 17.6223 15.5094 17.4296 15.3611 17.2813C15.0646 16.9847 14.5605 16.9847 14.2639 17.2813C14.1305 17.4147 14.0563 17.5927 14.0415 17.7855L14.0712 17.7558C14.2787 17.5482 14.6198 17.5482 14.8274 17.7558C15.035 17.9634 15.035 18.3044 14.8274 18.512L14.7385 18.6009V18.5861Z" fill="#DBE120"/>
</svg>
