<svg width="29" height="29" viewBox="0 0 29 29" fill="none" xmlns="http://www.w3.org/2000/svg">
<path d="M28.276 0.133484H0.533964C0.32638 0.133484 0.148438 0.311427 0.148438 0.51901V27.9051C0.148438 28.1127 0.32638 28.2906 0.533964 28.2906H28.276C28.4836 28.2906 28.6614 28.1127 28.6614 27.9051V0.51901C28.6614 0.311427 28.4836 0.133484 28.276 0.133484ZM27.8756 0.919378V5.81239H0.91949V0.919378H27.8756ZM0.91949 27.5344V6.58335H27.8756V27.5344H0.91949Z" fill="#DBE120"/>
<path d="M28.2758 28.4537H0.533764C0.237216 28.4537 0 28.2165 0 27.92V0.533854C0 0.237307 0.237216 0 0.533764 0H28.2758C28.5724 0 28.8096 0.237307 28.8096 0.533854V27.92C28.8096 28.2165 28.5724 28.4537 28.2758 28.4537ZM0.533764 0.281724C0.400317 0.281724 0.296475 0.385566 0.296475 0.519012V27.9051C0.296475 28.0386 0.400317 28.1424 0.533764 28.1424H28.2758C28.4093 28.1424 28.513 28.0386 28.513 27.9051V0.519012C28.513 0.385566 28.4093 0.281724 28.2758 0.281724H0.533764ZM27.8754 27.6828H0.91929C0.845153 27.6828 0.770962 27.6234 0.770962 27.5344V6.58336C0.770962 6.50922 0.830326 6.43512 0.91929 6.43512H27.8754C27.9496 6.43512 28.0237 6.49439 28.0237 6.58336V27.5344C28.0237 27.6086 27.9644 27.6828 27.8754 27.6828ZM1.06753 27.3862H27.742V6.73169H1.06753V27.3862ZM27.8754 5.94579H0.91929C0.845153 5.94579 0.770962 5.88652 0.770962 5.79755V0.904539C0.770962 0.830402 0.830326 0.756211 0.91929 0.756211H27.8754C27.9496 0.756211 28.0237 0.815574 28.0237 0.904539V5.79755C28.0237 5.87169 27.9644 5.94579 27.8754 5.94579ZM1.06753 5.66407H27.742V1.06762H1.06753V5.66407Z" fill="#DBE120"/>
<path d="M3.24739 4.67063C3.9591 4.67063 4.52252 4.09238 4.52252 3.39549C4.52252 2.69861 3.94428 2.12036 3.24739 2.12036C2.5505 2.12036 1.97217 2.69861 1.97217 3.39549C1.97217 4.09238 2.5505 4.67063 3.24739 4.67063ZM3.24739 2.89132C3.52911 2.89132 3.75147 3.11377 3.75147 3.39549C3.75147 3.67721 3.52911 3.89957 3.24739 3.89957C2.96567 3.89957 2.74322 3.67721 2.74322 3.39549C2.74322 3.11377 2.96567 2.89132 3.24739 2.89132Z" fill="#DBE120"/>
<path d="M3.24719 4.81888C2.46134 4.81888 1.82373 4.18136 1.82373 3.39551C1.82373 2.60966 2.46134 1.97205 3.24719 1.97205C4.03304 1.97205 4.67056 2.60966 4.67056 3.39551C4.67056 4.18136 4.03304 4.81888 3.24719 4.81888ZM3.24719 2.26861C2.62444 2.26861 2.1203 2.77276 2.1203 3.39551C2.1203 4.01826 2.62444 4.5224 3.24719 4.5224C3.86994 4.5224 4.374 4.01826 4.374 3.39551C4.374 2.77276 3.86994 2.26861 3.24719 2.26861ZM3.24719 4.04791C2.89133 4.04791 2.59478 3.75136 2.59478 3.39551C2.59478 3.03965 2.89133 2.7431 3.24719 2.7431C3.60305 2.7431 3.8996 3.03965 3.8996 3.39551C3.8996 3.75136 3.60305 4.04791 3.24719 4.04791ZM3.24719 3.03966C3.05443 3.03966 2.89126 3.20275 2.89126 3.39551C2.89126 3.58826 3.05443 3.75135 3.24719 3.75135C3.43995 3.75135 3.60303 3.58826 3.60303 3.39551C3.60303 3.20275 3.43995 3.03966 3.24719 3.03966Z" fill="#DBE120"/>
<path d="M6.47972 4.67063C7.19144 4.67063 7.75485 4.09238 7.75485 3.39549C7.75485 2.69861 7.17661 2.12036 6.47972 2.12036C5.78284 2.12036 5.20459 2.69861 5.20459 3.39549C5.20459 4.09238 5.78284 4.67063 6.47972 4.67063ZM6.47972 2.89132C6.76144 2.89132 6.9838 3.11377 6.9838 3.39549C6.9838 3.67721 6.76144 3.89957 6.47972 3.89957C6.198 3.89957 5.97555 3.67721 5.97555 3.39549C5.97555 3.11377 6.198 2.89132 6.47972 2.89132Z" fill="#DBE120"/>
<path d="M6.47961 4.81888C5.69376 4.81888 5.05615 4.18136 5.05615 3.39551C5.05615 2.60966 5.69376 1.97205 6.47961 1.97205C7.26546 1.97205 7.90298 2.60966 7.90298 3.39551C7.90298 4.18136 7.26546 4.81888 6.47961 4.81888ZM6.47961 2.26861C5.85686 2.26861 5.35272 2.77276 5.35272 3.39551C5.35272 4.01826 5.85686 4.5224 6.47961 4.5224C7.10236 4.5224 7.60651 4.01826 7.60651 3.39551C7.60651 2.77276 7.10236 2.26861 6.47961 2.26861ZM6.47961 4.04791C6.12376 4.04791 5.8272 3.75136 5.8272 3.39551C5.8272 3.03965 6.12376 2.7431 6.47961 2.7431C6.83547 2.7431 7.13202 3.03965 7.13202 3.39551C7.13202 3.75136 6.83547 4.04791 6.47961 4.04791ZM6.47961 3.03966C6.28686 3.03966 6.12377 3.20275 6.12377 3.39551C6.12377 3.58826 6.28686 3.75135 6.47961 3.75135C6.67237 3.75135 6.83546 3.58826 6.83546 3.39551C6.83546 3.20275 6.67237 3.03966 6.47961 3.03966Z" fill="#DBE120"/>
<path d="M9.71166 4.67063C10.4234 4.67063 10.9868 4.09238 10.9868 3.39549C10.9868 2.69861 10.4085 2.12036 9.71166 2.12036C9.01477 2.12036 8.43652 2.69861 8.43652 3.39549C8.43652 4.09238 9.01477 4.67063 9.71166 4.67063ZM9.71166 2.89132C9.99338 2.89132 10.2157 3.11377 10.2157 3.39549C10.2157 3.67721 9.99338 3.89957 9.71166 3.89957C9.42994 3.89957 9.20749 3.67721 9.20749 3.39549C9.20749 3.11377 9.42994 2.89132 9.71166 2.89132Z" fill="#DBE120"/>
<path d="M9.71155 4.81888C8.9257 4.81888 8.28809 4.18136 8.28809 3.39551C8.28809 2.60966 8.9257 1.97205 9.71155 1.97205C10.4974 1.97205 11.135 2.60966 11.135 3.39551C11.135 4.18136 10.4974 4.81888 9.71155 4.81888ZM9.71155 2.26861C9.0888 2.26861 8.58465 2.77276 8.58465 3.39551C8.58465 4.01826 9.0888 4.5224 9.71155 4.5224C10.3343 4.5224 10.8384 4.01826 10.8384 3.39551C10.8384 2.77276 10.3343 2.26861 9.71155 2.26861ZM9.71155 4.04791C9.35569 4.04791 9.05914 3.75136 9.05914 3.39551C9.05914 3.03965 9.35569 2.7431 9.71155 2.7431C10.0674 2.7431 10.364 3.03965 10.364 3.39551C10.364 3.75136 10.0674 4.04791 9.71155 4.04791ZM9.71155 3.03966C9.51879 3.03966 9.3557 3.20275 9.3557 3.39551C9.3557 3.58826 9.51879 3.75135 9.71155 3.75135C9.9043 3.75135 10.0674 3.58826 10.0674 3.39551C10.0674 3.20275 9.9043 3.03966 9.71155 3.03966Z" fill="#DBE120"/>
<path d="M10.023 12.2623C9.84508 12.1436 9.60778 12.1882 9.48916 12.3809L7.01301 16.147C6.92405 16.2805 6.92405 16.4436 7.01301 16.5771L9.48916 20.3432C9.56329 20.4618 9.68196 20.5211 9.81541 20.5211C9.88954 20.5211 9.9637 20.5063 10.023 20.4618C10.2009 20.3432 10.2454 20.1059 10.1416 19.928L7.81366 16.3695L10.1416 12.8109C10.2602 12.6329 10.2158 12.3957 10.023 12.2771V12.2623Z" fill="#DBE120"/>
<path d="M9.81518 20.6693C9.63725 20.6693 9.45934 20.5804 9.37038 20.4321L6.89414 16.666C6.77552 16.4881 6.77552 16.2656 6.89414 16.0877L9.37038 12.3216C9.44451 12.203 9.5631 12.114 9.71138 12.0843C9.84482 12.0546 9.99313 12.0843 10.1117 12.1584C10.2304 12.2326 10.3193 12.3512 10.3489 12.4995C10.3786 12.6478 10.349 12.7812 10.2748 12.8998L7.99135 16.3843L10.2748 19.8687C10.349 19.9873 10.3786 20.1356 10.3489 20.269C10.3193 20.4025 10.2304 20.5211 10.1117 20.61C10.0228 20.6694 9.91897 20.699 9.81518 20.699V20.6693ZM9.81518 12.3512C9.81518 12.3512 9.78548 12.3512 9.77065 12.3512C9.71134 12.3512 9.65207 12.3957 9.62242 12.455L7.14627 16.2211C7.08696 16.2952 7.08696 16.3991 7.14627 16.4881L9.62242 20.2542C9.69655 20.358 9.8448 20.4025 9.96342 20.3283C10.0227 20.2987 10.0524 20.2394 10.0672 20.1801C10.0672 20.1208 10.0672 20.0466 10.0375 20.0022L7.70963 16.4436C7.70963 16.4436 7.67997 16.325 7.70963 16.2805L10.0375 12.7219C10.0375 12.7219 10.082 12.6033 10.0672 12.5439C10.0672 12.4846 10.0227 12.4254 9.96342 12.3957C9.96342 12.3957 9.8745 12.3512 9.83002 12.3512H9.81518Z" fill="#DBE120"/>
<path d="M19.3795 12.3809C19.2609 12.2029 19.0236 12.1436 18.8456 12.2622C18.6677 12.3808 18.6233 12.618 18.7271 12.796L21.0549 16.3546L18.7271 19.9132C18.6085 20.0911 18.6529 20.3283 18.8456 20.4469C18.9049 20.4914 18.9791 20.5062 19.0532 20.5062C19.1867 20.5062 19.3053 20.4469 19.3795 20.3283L21.8556 16.5622C21.9446 16.4287 21.9446 16.2656 21.8556 16.1321L19.3795 12.366V12.3809Z" fill="#DBE120"/>
<path d="M19.0529 20.6694C18.9492 20.6694 18.8453 20.6397 18.7564 20.5804C18.6378 20.5063 18.5488 20.3877 18.5192 20.2394C18.4895 20.106 18.5192 19.9577 18.5933 19.8391L20.8767 16.3547L18.5933 12.8703C18.5192 12.7516 18.4895 12.6033 18.5192 12.4699C18.5488 12.3365 18.6378 12.203 18.7564 12.1289C18.875 12.0548 19.0233 12.025 19.1567 12.0547C19.2902 12.0843 19.4236 12.1585 19.4977 12.292L21.974 16.0581C22.0926 16.236 22.0926 16.4585 21.974 16.6364L19.4977 20.4025C19.394 20.5508 19.2309 20.6398 19.0529 20.6398V20.6694ZM19.0529 12.3513C19.0529 12.3513 18.964 12.3513 18.9195 12.3958C18.8602 12.4254 18.8306 12.4847 18.8157 12.544C18.8157 12.6033 18.8157 12.6775 18.8453 12.7219L21.1732 16.2805C21.1732 16.2805 21.2029 16.3991 21.1732 16.4436L18.8453 20.0022C18.8453 20.0022 18.8009 20.1208 18.8157 20.1801C18.8157 20.2395 18.8602 20.2987 18.9195 20.3284C19.0233 20.4025 19.1864 20.3729 19.2605 20.2543L21.7367 16.4881C21.796 16.414 21.796 16.3101 21.7367 16.2212L19.2605 12.4551C19.2605 12.4551 19.1715 12.3661 19.1122 12.3513C19.0974 12.3513 19.0826 12.3513 19.0678 12.3513H19.0529Z" fill="#DBE120"/>
<path d="M17.0223 9.08919C16.8147 9.01505 16.5923 9.11889 16.5182 9.32648L11.6103 22.6563C11.5362 22.8639 11.64 23.0863 11.8476 23.1604C11.8921 23.1753 11.9365 23.19 11.981 23.19C12.1441 23.19 12.2924 23.0863 12.3517 22.938L17.2595 9.6082C17.3337 9.40062 17.2299 9.17817 17.0223 9.10403V9.08919Z" fill="#DBE120"/>
<path d="M11.9808 23.3236C11.9808 23.3236 11.8622 23.3235 11.8029 23.2939C11.5212 23.1901 11.3878 22.8787 11.4916 22.6118L16.3995 9.28198C16.5032 9.00026 16.8146 8.86687 17.0815 8.97067C17.3632 9.07446 17.4967 9.38577 17.3929 9.65267L12.485 22.9825C12.4109 23.19 12.2032 23.3384 11.9808 23.3384V23.3236ZM16.8887 9.22271C16.7849 9.22271 16.696 9.28199 16.6663 9.38579L11.7585 22.7156C11.714 22.8342 11.7733 22.9825 11.9067 23.027C12.0253 23.0715 12.1736 23.0122 12.2181 22.8787L17.126 9.54886C17.1705 9.43025 17.1111 9.28203 16.9777 9.23755C16.948 9.23755 16.9184 9.23755 16.8887 9.23755V9.22271Z" fill="#DBE120"/>
</svg>
