<svg width="29" height="29" viewBox="0 0 29 29" fill="none" xmlns="http://www.w3.org/2000/svg">
<path d="M6.98442 28.2758H0.608625C0.401042 28.2758 0.223145 28.0978 0.223145 27.8902V13.8042C0.223145 13.5966 0.401042 13.4187 0.608625 13.4187H6.98442C7.19201 13.4187 7.36995 13.5966 7.36995 13.8042V27.8902C7.36995 28.0978 7.19201 28.2758 6.98442 28.2758ZM0.994152 27.5047H6.5989V14.1898H0.994152V27.5047Z" fill="#DBE120"/>
<path d="M6.98427 28.4241H0.608471C0.311923 28.4241 0.074707 28.1868 0.074707 27.8903V13.8043C0.074707 13.5077 0.311923 13.2705 0.608471 13.2705H6.98427C7.28082 13.2705 7.51803 13.5077 7.51803 13.8043V27.8903C7.51803 28.1868 7.28082 28.4241 6.98427 28.4241ZM0.608471 13.5522C0.475024 13.5522 0.371273 13.656 0.371273 13.7894V27.8754C0.371273 28.0089 0.475024 28.1127 0.608471 28.1127H6.98427C7.11771 28.1127 7.22151 28.0089 7.22151 27.8754V13.7894C7.22151 13.656 7.11771 13.5522 6.98427 13.5522H0.608471ZM6.59874 27.6382H0.993997C0.91986 27.6382 0.845714 27.5789 0.845714 27.49V14.175C0.845714 14.1008 0.905033 14.0267 0.993997 14.0267H6.59874C6.67288 14.0267 6.74703 14.086 6.74703 14.175V27.49C6.74703 27.5641 6.68771 27.6382 6.59874 27.6382ZM1.14228 27.3565H6.45046V14.3381H1.14228V27.3565Z" fill="#DBE120"/>
<path d="M17.4375 28.2758H11.0618C10.8542 28.2758 10.6763 28.0979 10.6763 27.8903V7.19131C10.6763 6.98373 10.8542 6.80579 11.0618 6.80579H17.4375C17.6451 6.80579 17.8231 6.98373 17.8231 7.19131V27.8903C17.8231 28.0979 17.6451 28.2758 17.4375 28.2758ZM11.4473 27.5048H17.0521V7.57679H11.4473V27.5048Z" fill="#DBE120"/>
<path d="M17.4374 28.4241H11.0616C10.7651 28.4241 10.5278 28.1868 10.5278 27.8903V7.19128C10.5278 6.89473 10.7651 6.65747 11.0616 6.65747H17.4374C17.7339 6.65747 17.9712 6.89473 17.9712 7.19128V27.8903C17.9712 28.1868 17.7339 28.4241 17.4374 28.4241ZM11.0616 6.93919C10.9282 6.93919 10.8244 7.04299 10.8244 7.17644V27.8754C10.8244 28.0089 10.9282 28.1127 11.0616 28.1127H17.4374C17.5708 28.1127 17.6746 28.0089 17.6746 27.8754V7.17644C17.6746 7.04299 17.5708 6.93919 17.4374 6.93919H11.0616ZM17.0371 27.6382H11.4323C11.3582 27.6382 11.284 27.5789 11.284 27.49V7.56196C11.284 7.48783 11.3434 7.41368 11.4323 7.41368H17.0371C17.1112 7.41368 17.1854 7.473 17.1854 7.56196V27.49C17.1854 27.5641 17.126 27.6382 17.0371 27.6382ZM11.5954 27.3565H16.9036V7.72504H11.5954V27.3565Z" fill="#DBE120"/>
<path d="M27.6392 28.2758H21.2635C21.0559 28.2758 20.8779 28.0979 20.8779 27.8903V0.533796C20.8779 0.326213 21.0559 0.148315 21.2635 0.148315H27.6392C27.8468 0.148315 28.0247 0.326213 28.0247 0.533796V27.8903C28.0247 28.0979 27.8468 28.2758 27.6392 28.2758ZM21.6489 27.5048H27.2537V0.919322H21.6489V27.5048Z" fill="#DBE120"/>
<path d="M27.6391 28.4241H21.2633C20.9668 28.4241 20.7295 28.1868 20.7295 27.8903V0.533764C20.7295 0.237216 20.9668 0 21.2633 0H27.6391C27.9356 0 28.1729 0.237216 28.1729 0.533764V27.8903C28.1729 28.1868 27.9356 28.4241 27.6391 28.4241ZM21.2633 0.281724C21.1299 0.281724 21.0261 0.385521 21.0261 0.518967V27.8754C21.0261 28.0089 21.1299 28.1127 21.2633 28.1127H27.6391C27.7725 28.1127 27.8763 28.0089 27.8763 27.8754V0.518967C27.8763 0.385521 27.7725 0.281724 27.6391 0.281724H21.2633ZM27.2387 27.6382H21.634C21.5598 27.6382 21.4857 27.5789 21.4857 27.49V0.904448C21.4857 0.830311 21.545 0.756211 21.634 0.756211H27.2387C27.3129 0.756211 27.387 0.815484 27.387 0.904448V27.49C27.387 27.5641 27.3277 27.6382 27.2387 27.6382ZM21.7971 27.3565H27.1053V1.06757H21.7971V27.3565Z" fill="#DBE120"/>
<path d="M10.3354 0.726545C10.3354 0.934129 10.5133 1.11207 10.7208 1.11207H13.0191L0.297194 10.5275C0.119266 10.6609 0.0896293 10.8981 0.223076 11.0761C0.356522 11.254 0.593753 11.2836 0.771681 11.1502L13.7605 1.52724V4.12203C13.7605 4.32961 13.9384 4.50755 14.146 4.50755C14.3535 4.50755 14.5315 4.32961 14.5315 4.12203V0.726545C14.5315 0.518962 14.3535 0.341064 14.146 0.341064H10.7208C10.5133 0.341064 10.3354 0.518962 10.3354 0.726545Z" fill="#DBE120"/>
<path d="M0.534387 11.3726C0.371286 11.3726 0.208172 11.2984 0.104381 11.1502C-0.0735476 10.9129 -0.0142272 10.5719 0.208183 10.4088L12.5742 1.26032H10.7208C10.4242 1.26032 10.187 1.02306 10.187 0.726513C10.187 0.429965 10.4242 0.192749 10.7208 0.192749H14.1459C14.4425 0.192749 14.6797 0.429965 14.6797 0.726513V4.12199C14.6797 4.41854 14.4425 4.65576 14.1459 4.65576C13.8494 4.65576 13.6121 4.41854 13.6121 4.12199V1.82377L0.860591 11.2688C0.771627 11.3429 0.653021 11.3726 0.549229 11.3726H0.534387ZM10.7208 0.489269C10.5873 0.489269 10.4835 0.593066 10.4835 0.726513C10.4835 0.859959 10.5873 0.963756 10.7208 0.963756H13.0191C13.0191 0.963756 13.1377 1.00825 13.1525 1.06756C13.1673 1.12687 13.1525 1.18616 13.108 1.23064L0.386105 10.646C0.282313 10.7202 0.25266 10.8833 0.341624 10.9871C0.415761 11.0909 0.578879 11.1205 0.68267 11.0316L13.6715 1.4086C13.6715 1.4086 13.7752 1.36412 13.8197 1.4086C13.8642 1.43826 13.8939 1.48274 13.8939 1.54205V4.13684C13.8939 4.27028 13.9977 4.37408 14.1311 4.37408C14.2646 4.37408 14.3684 4.27028 14.3684 4.13684V0.741355C14.3684 0.607908 14.2646 0.504111 14.1311 0.504111H10.706L10.7208 0.489269Z" fill="#DBE120"/>
</svg>
