<svg width="29" height="29" viewBox="0 0 29 29" fill="none" xmlns="http://www.w3.org/2000/svg">
<path d="M14.4569 28.7799C6.56869 28.7799 0.148438 22.3597 0.148438 14.4715C0.148438 6.58333 6.56869 0.163086 14.4569 0.163086C22.345 0.163086 28.7653 6.58333 28.7653 14.4715C28.7653 22.3597 22.345 28.7799 14.4569 28.7799ZM14.4569 0.919296C6.99869 0.919296 0.919456 6.99853 0.919456 14.4567C0.919456 21.9149 6.99869 27.994 14.4569 27.994C21.915 27.994 27.9942 21.9149 27.9942 14.4567C27.9942 6.99853 21.915 0.919296 14.4569 0.919296Z" fill="#DBE120"/>
<path d="M14.4567 28.9134C6.47956 28.9134 0 22.4338 0 14.4567C0 6.47956 6.47956 0 14.4567 0C22.4338 0 28.9134 6.47956 28.9134 14.4567C28.9134 22.4338 22.4338 28.9134 14.4567 28.9134ZM14.4567 0.29652C6.64266 0.29652 0.281712 6.65749 0.281712 14.4567C0.281712 22.2559 6.64266 28.6168 14.4567 28.6168C22.2707 28.6168 28.6168 22.2559 28.6168 14.4567C28.6168 6.65749 22.2559 0.29652 14.4567 0.29652ZM14.4567 28.1423C6.90955 28.1423 0.771018 22.0038 0.771018 14.4567C0.771018 6.90955 6.90955 0.771007 14.4567 0.771007C22.0038 0.771007 28.1423 6.90955 28.1423 14.4567C28.1423 22.0038 22.0038 28.1423 14.4567 28.1423ZM14.4567 1.06757C7.07266 1.06757 1.06756 7.07266 1.06756 14.4567C1.06756 21.8407 7.07266 27.8458 14.4567 27.8458C21.8407 27.8458 27.8458 21.8407 27.8458 14.4567C27.8458 7.07266 21.8407 1.06757 14.4567 1.06757Z" fill="#DBE120"/>
<path d="M10.3792 20.9807C10.3792 20.9807 10.2457 20.9659 10.1864 20.9363C10.0678 20.8621 9.99365 20.7435 9.99365 20.5952V8.31816C9.99365 8.18471 10.0678 8.05125 10.1864 7.97711C10.305 7.90297 10.4533 7.90297 10.5719 7.97711L21.0697 14.1157C21.1883 14.1898 21.2625 14.3084 21.2625 14.4567C21.2625 14.605 21.1883 14.7236 21.0697 14.7977L10.5719 20.9363C10.5719 20.9363 10.4385 20.9955 10.3792 20.9955V20.9807ZM10.7647 9.0002V19.9132L20.1059 14.4567L10.7647 9.0002Z" fill="#DBE120"/>
<path d="M10.379 21.129C10.29 21.129 10.1862 21.0993 10.1121 21.0548C9.94901 20.9659 9.84521 20.7879 9.84521 20.5952V8.31812C9.84521 8.12536 9.94901 7.94744 10.1121 7.85847C10.2752 7.76951 10.4828 7.76951 10.6459 7.85847L21.1437 13.997C21.3068 14.0859 21.4106 14.2639 21.4106 14.4567C21.4106 14.6494 21.3068 14.8274 21.1437 14.9163L10.6459 21.0548C10.5569 21.0993 10.468 21.129 10.379 21.129ZM10.379 8.08087C10.379 8.08087 10.29 8.0809 10.2604 8.11056C10.1862 8.15504 10.1418 8.22915 10.1418 8.31812V20.5952C10.1418 20.6841 10.1862 20.7583 10.2604 20.8028C10.3345 20.8473 10.4235 20.8473 10.4976 20.8028L20.9954 14.6642C20.9954 14.6642 21.114 14.5456 21.114 14.4567C21.114 14.3677 21.0695 14.2935 20.9954 14.2491L10.4976 8.11056C10.4976 8.11056 10.4235 8.08087 10.379 8.08087ZM10.7645 20.0614C10.7645 20.0614 10.72 20.0614 10.6904 20.0466C10.6459 20.0169 10.6162 19.9724 10.6162 19.9131V8.98537C10.6162 8.98537 10.6459 8.88158 10.6904 8.85193C10.7349 8.82227 10.7942 8.82227 10.8386 8.85193L20.1799 14.3084C20.1799 14.3084 20.254 14.3825 20.254 14.427C20.254 14.4715 20.2244 14.5308 20.1799 14.5456L10.8386 20.0021C10.8386 20.0021 10.7942 20.0169 10.7645 20.0169V20.0614ZM10.9128 9.25225V19.661L19.8092 14.4567L10.9128 9.25225Z" fill="#DBE120"/>
</svg>
