<?xml version="1.0" encoding="UTF-8"?>
<svg id="Layer_2" data-name="Layer 2" xmlns="http://www.w3.org/2000/svg" viewBox="0 0 300 300">
  <defs>
    <style>
      .cls-1 {
        fill: #fff;
      }

      .cls-2 {
        opacity: .2;
      }
    </style>
  </defs>
  <g class="cls-2">
    <path class="cls-1" d="M141.14,55.63c1.97-.51,3.97-.97,6-1.36,45.75-8.88,91.54,17.69,106.5,61.82,12.37,36.48,1.54,76.26-27.57,101.36-13.14,11.32-25.97,23.95-38.16,37.54-9.57,10.67-22.71,17.77-37.04,20-28.85,4.47-57.35-12.08-67.75-39.36h0c-3.92-10.28-5.09-21.39-3.39-32.12,1.33-8.34.75-15.64-1.72-21.7-1.56-3.83-2.88-7.8-3.91-11.79-6.5-24.97-2.34-51.81,11.42-73.64,12.85-20.4,32.45-34.7,55.62-40.73ZM153.66,218.95c4.16-1.08,7.82-3.3,10.69-6.5,9.26-10.33,19.03-19.94,29.05-28.57,13.65-11.77,18.72-30.43,12.92-47.55-7.01-20.66-28.45-33.1-49.87-28.94-12.11,2.37-22.38,9.36-28.92,19.73-6.54,10.39-8.44,22.65-5.35,34.52.49,1.88,1.11,3.74,1.84,5.55,3.3,8.12,4.18,17.31,2.59,27.3-.6,3.79-.2,7.56,1.2,11.23h0c3.62,9.5,13.54,15.26,23.58,13.7.78-.12,1.54-.28,2.28-.47Z"/>
  </g>
</svg>