<svg width="22" height="22" viewBox="0 0 22 22" fill="none" xmlns="http://www.w3.org/2000/svg">
<path d="M18.8901 9.5199C18.9701 9.3999 18.9301 9.23991 18.8101 9.15991L16.5201 7.67981C16.4001 7.59981 16.2401 7.63988 16.1601 7.74988L14.4901 10.2399V6.55981C14.4901 6.48981 14.4601 6.41987 14.4101 6.36987L11.1001 3.17981C11.1001 3.17981 10.9901 3.10986 10.9201 3.10986H2.36011C2.22011 3.10986 2.1001 3.22987 2.1001 3.36987V18.0898C2.1001 18.2298 2.22011 18.3499 2.36011 18.3499H14.2301C14.3701 18.3499 14.4901 18.2298 14.4901 18.0898V16.5099C14.4901 16.5099 14.4901 16.4399 14.4701 16.4099V16.3198L18.8901 9.53992V9.5199ZM11.1801 3.97986L13.5801 6.28992H11.4401C11.3001 6.28992 11.1801 6.16991 11.1801 6.02991V3.97986ZM13.9601 16.8799V17.8098H2.61011V3.61987H10.6501V6.54993C10.6501 6.68993 10.7701 6.80981 10.9101 6.80981H13.7201C13.7201 6.80981 13.7701 6.80993 13.7901 6.79993H13.9601V10.0798V11.0099L11.5601 14.5798C11.5601 14.5798 11.5201 14.6598 11.5201 14.6998L11.3201 16.8599C11.3101 17.0299 11.4501 17.1599 11.6101 17.1399L13.9601 16.8799ZM14.0901 15.9199H14.0701V15.9398L13.8501 16.2699C13.8101 16.3399 13.7401 16.3799 13.6601 16.3899L12.1901 16.5499C12.0301 16.5699 11.8801 16.4299 11.9001 16.2699L12.0301 14.8799C12.0301 14.8799 12.0501 14.7899 12.0701 14.7599L16.3101 8.46985C16.3901 8.34985 16.5501 8.3199 16.6701 8.3999L18.0901 9.31982C18.2101 9.39982 18.2501 9.55981 18.1701 9.67981L14.1001 15.9298L14.0901 15.9199Z" fill="white"/>
<path d="M14.23 18.4399H2.35999C2.15999 18.4399 2 18.28 2 18.08V3.35999C2 3.15999 2.15999 3 2.35999 3H10.92C11.01 3 11.1 3.03998 11.17 3.09998L14.48 6.29004C14.55 6.36004 14.59 6.45005 14.59 6.55005V9.91003L16.08 7.68994C16.19 7.52994 16.41 7.47997 16.57 7.58997L18.86 9.06995C18.94 9.11995 19 9.20005 19.02 9.30005C19.04 9.39005 19.02 9.48995 18.97 9.56995L14.56 16.33V16.37C14.56 16.37 14.58 16.45 14.58 16.49V18.0699C14.58 18.2699 14.42 18.4299 14.22 18.4299L14.23 18.4399ZM2.35999 3.19995C2.26999 3.19995 2.20001 3.26999 2.20001 3.35999V18.08C2.20001 18.17 2.26999 18.24 2.35999 18.24H14.23C14.32 18.24 14.39 18.17 14.39 18.08V16.5C14.39 16.5 14.39 16.4599 14.38 16.4399C14.38 16.4299 14.38 16.41 14.38 16.4V16.3099C14.38 16.3099 14.38 16.27 14.4 16.26L18.82 9.47998C18.82 9.47998 18.85 9.39999 18.84 9.35999C18.84 9.31999 18.81 9.28001 18.77 9.26001L16.48 7.78003C16.41 7.73003 16.3 7.74996 16.26 7.82996L14.59 10.3199C14.59 10.3199 14.52 10.37 14.48 10.36C14.44 10.35 14.41 10.31 14.41 10.27V6.58997C14.41 6.58997 14.39 6.49997 14.36 6.46997L11.05 3.28003C11.05 3.28003 10.98 3.22998 10.94 3.22998H2.38L2.35999 3.19995ZM13.96 17.91H2.60999C2.55999 17.91 2.51001 17.8699 2.51001 17.8099V3.62C2.51001 3.57 2.54999 3.52002 2.60999 3.52002H10.65C10.7 3.52002 10.75 3.56 10.75 3.62V6.55005C10.75 6.64005 10.82 6.70996 10.91 6.70996H13.72C13.72 6.70996 13.75 6.70996 13.76 6.70996C13.76 6.70996 13.78 6.70996 13.79 6.70996H13.96C14.01 6.70996 14.06 6.74994 14.06 6.80994V11.02C14.06 11.02 14.06 11.0599 14.04 11.0699L11.64 14.64C11.64 14.64 11.62 14.69 11.61 14.72L11.41 16.88C11.41 16.88 11.42 16.98 11.46 17.01C11.49 17.04 11.54 17.0599 11.59 17.0599L13.94 16.8C13.94 16.8 14 16.7999 14.02 16.8199C14.04 16.8399 14.05 16.87 14.05 16.89V17.8199C14.05 17.8699 14.01 17.92 13.95 17.92L13.96 17.91ZM2.71997 17.72H13.87V17L11.63 17.25C11.52 17.25 11.42 17.23 11.34 17.15C11.26 17.07 11.22 16.97 11.23 16.86L11.43 14.7C11.43 14.64 11.46 14.58 11.49 14.53L13.87 10.99V6.91003H13.82C13.82 6.91003 13.76 6.92004 13.74 6.92004H10.93C10.73 6.92004 10.57 6.75994 10.57 6.55994V3.72998H2.72998V17.73L2.71997 17.72ZM12.16 16.65C12.07 16.65 11.98 16.61 11.91 16.55C11.83 16.47 11.79 16.37 11.8 16.26L11.93 14.87C11.93 14.81 11.96 14.75 11.99 14.7L16.23 8.41003C16.34 8.25003 16.56 8.19994 16.72 8.30994L18.14 9.22998C18.22 9.27998 18.28 9.35996 18.3 9.45996C18.32 9.54996 18.3 9.64998 18.25 9.72998L14.18 15.98C14.18 15.98 14.18 15.98 14.17 15.99C14.17 15.99 14.17 15.99 14.17 16L13.96 16.33C13.9 16.42 13.8 16.48 13.7 16.49L12.22 16.65C12.22 16.65 12.19 16.65 12.18 16.65H12.16ZM16.53 8.44995C16.48 8.44995 16.43 8.48002 16.39 8.52002L12.15 14.8099C12.15 14.8099 12.12 14.86 12.12 14.89L11.99 16.28C11.99 16.28 12 16.38 12.04 16.41C12.08 16.44 12.12 16.46 12.17 16.46L13.64 16.3C13.64 16.3 13.73 16.27 13.76 16.23L13.97 15.91C13.97 15.91 13.99 15.86 14.01 15.85L18.07 9.63C18.07 9.63 18.1 9.55001 18.09 9.51001C18.09 9.47001 18.06 9.43003 18.02 9.41003L16.6 8.48999C16.6 8.48999 16.54 8.45996 16.51 8.45996L16.53 8.44995ZM13.58 6.39001H11.44C11.24 6.39001 11.08 6.23003 11.08 6.03003V3.97998C11.08 3.97998 11.1 3.90001 11.14 3.89001C11.18 3.87001 11.22 3.89003 11.25 3.91003L13.65 6.21997C13.65 6.21997 13.69 6.28996 13.67 6.32996C13.65 6.36996 13.62 6.39001 13.58 6.39001ZM11.28 4.20996V6.03003C11.28 6.12003 11.35 6.18994 11.44 6.18994H13.33L11.27 4.20996H11.28Z" fill="white"/>
</svg>
