<svg width="22" height="22" viewBox="0 0 22 22" fill="none" xmlns="http://www.w3.org/2000/svg">
<path d="M3.63012 13.1501C2.24012 13.1501 1.1001 12.0201 1.1001 10.6201C1.1001 9.22009 2.23012 8.09009 3.63012 8.09009C5.03012 8.09009 6.16015 9.22009 6.16015 10.6201C6.16015 12.0201 5.03012 13.1501 3.63012 13.1501ZM3.63012 8.62009C2.53012 8.62009 1.63012 9.52009 1.63012 10.6201C1.63012 11.7201 2.53012 12.6201 3.63012 12.6201C4.73012 12.6201 5.63012 11.7201 5.63012 10.6201C5.63012 9.52009 4.73012 8.62009 3.63012 8.62009Z" fill="white"/>
<path d="M3.63 13.25C2.18 13.25 1 12.07 1 10.62C1 9.16998 2.18 7.98999 3.63 7.98999C5.08 7.98999 6.26001 9.16998 6.26001 10.62C6.26001 12.07 5.08 13.25 3.63 13.25ZM3.63 8.18999C2.29 8.18999 1.20001 9.27998 1.20001 10.62C1.20001 11.96 2.29 13.05 3.63 13.05C4.97001 13.05 6.06 11.96 6.06 10.62C6.06 9.27998 4.97001 8.18999 3.63 8.18999ZM3.63 12.73C2.47 12.73 1.53003 11.79 1.53003 10.63C1.53003 9.46999 2.47 8.52998 3.63 8.52998C4.79 8.52998 5.72998 9.46999 5.72998 10.63C5.72998 11.79 4.79 12.73 3.63 12.73ZM3.63 8.71999C2.58 8.71999 1.72003 9.56999 1.72003 10.63C1.72003 11.69 2.57 12.54 3.63 12.54C4.69 12.54 5.53998 11.69 5.53998 10.63C5.53998 9.56999 4.68 8.71999 3.63 8.71999Z" fill="white"/>
<path d="M17.5901 6.1601C16.2001 6.1601 15.0601 5.0301 15.0601 3.6301C15.0601 2.2301 16.1901 1.1001 17.5901 1.1001C18.9901 1.1001 20.1201 2.2301 20.1201 3.6301C20.1201 5.0301 18.9901 6.1601 17.5901 6.1601ZM17.5901 1.6301C16.4901 1.6301 15.5901 2.5301 15.5901 3.6301C15.5901 4.7301 16.4901 5.6301 17.5901 5.6301C18.6901 5.6301 19.5901 4.7301 19.5901 3.6301C19.5901 2.5301 18.6901 1.6301 17.5901 1.6301Z" fill="white"/>
<path d="M17.59 6.26001C16.14 6.26001 14.96 5.08 14.96 3.63C14.96 2.18 16.14 1 17.59 1C19.04 1 20.22 2.18 20.22 3.63C20.22 5.08 19.04 6.26001 17.59 6.26001ZM17.59 1.2C16.25 1.2 15.16 2.29 15.16 3.63C15.16 4.97001 16.25 6.06 17.59 6.06C18.93 6.06 20.02 4.97001 20.02 3.63C20.02 2.29 18.93 1.2 17.59 1.2ZM17.59 5.74001C16.43 5.74001 15.49 4.8 15.49 3.64C15.49 2.48 16.43 1.54001 17.59 1.54001C18.75 1.54001 19.69 2.48 19.69 3.64C19.69 4.8 18.75 5.74001 17.59 5.74001ZM17.59 1.73C16.54 1.73 15.68 2.59 15.68 3.64C15.68 4.69 16.53 5.55 17.59 5.55C18.65 5.55 19.5 4.7 19.5 3.64C19.5 2.58 18.64 1.73 17.59 1.73Z" fill="white"/>
<path d="M17.5901 19.9702C16.2001 19.9702 15.0601 18.8402 15.0601 17.4402C15.0601 16.0402 16.1901 14.9102 17.5901 14.9102C18.9901 14.9102 20.1201 16.0402 20.1201 17.4402C20.1201 18.8402 18.9901 19.9702 17.5901 19.9702ZM17.5901 15.4302C16.4901 15.4302 15.5901 16.3302 15.5901 17.4302C15.5901 18.5302 16.4901 19.4302 17.5901 19.4302C18.6901 19.4302 19.5901 18.5302 19.5901 17.4302C19.5901 16.3302 18.6901 15.4302 17.5901 15.4302Z" fill="white"/>
<path d="M17.59 20.06C16.14 20.06 14.96 18.8801 14.96 17.4301C14.96 15.9801 16.14 14.8 17.59 14.8C19.04 14.8 20.22 15.9801 20.22 17.4301C20.22 18.8801 19.04 20.06 17.59 20.06ZM17.59 15.0101C16.25 15.0101 15.16 16.1 15.16 17.44C15.16 18.78 16.25 19.87 17.59 19.87C18.93 19.87 20.02 18.78 20.02 17.44C20.02 16.1 18.93 15.0101 17.59 15.0101ZM17.59 19.5401C16.43 19.5401 15.49 18.6 15.49 17.44C15.49 16.28 16.43 15.34 17.59 15.34C18.75 15.34 19.69 16.28 19.69 17.44C19.69 18.6 18.75 19.5401 17.59 19.5401ZM17.59 15.53C16.54 15.53 15.68 16.38 15.68 17.44C15.68 18.5 16.53 19.3501 17.59 19.3501C18.65 19.3501 19.5 18.49 19.5 17.44C19.5 16.39 18.64 15.53 17.59 15.53Z" fill="white"/>
<path d="M5.65025 9.86994C5.55025 9.86994 5.46021 9.81994 5.42021 9.72994C5.36021 9.59994 5.4102 9.43995 5.5402 9.37995L15.4602 4.41994C15.5902 4.34994 15.7502 4.40995 15.8102 4.53995C15.8702 4.66995 15.8202 4.82995 15.6902 4.88995L5.77024 9.84995C5.77024 9.84995 5.69025 9.87995 5.65025 9.87995V9.86994Z" fill="white"/>
<path d="M5.65019 9.96993C5.51019 9.96993 5.39018 9.88993 5.33018 9.76993C5.24018 9.58993 5.31015 9.37993 5.49015 9.28993L15.4102 4.32993C15.5002 4.28993 15.5902 4.27992 15.6802 4.30992C15.7702 4.33992 15.8502 4.39993 15.8902 4.48993C15.9802 4.66993 15.9102 4.87993 15.7302 4.96993L5.81016 9.92993C5.76016 9.95993 5.71019 9.96993 5.65019 9.96993ZM15.5702 4.47992C15.5702 4.47992 15.5202 4.47992 15.5002 4.49992L5.58018 9.45993C5.58018 9.45993 5.51016 9.50993 5.50016 9.54993C5.49016 9.58993 5.49016 9.63992 5.50016 9.66992C5.54016 9.74992 5.64019 9.77993 5.72019 9.73993L15.6402 4.77992C15.6402 4.77992 15.7102 4.72993 15.7202 4.68993C15.7302 4.64993 15.7302 4.59993 15.7202 4.56993C15.7002 4.52993 15.6702 4.49993 15.6202 4.48993C15.6002 4.48993 15.5902 4.48993 15.5702 4.48993V4.47992Z" fill="white"/>
<path d="M15.5598 16.71C15.5598 16.71 15.4798 16.71 15.4498 16.68L5.63982 11.89C5.50982 11.83 5.45982 11.67 5.51982 11.54C5.57982 11.41 5.7398 11.36 5.8698 11.42L15.6798 16.21C15.8098 16.27 15.8598 16.43 15.7998 16.56C15.7498 16.65 15.6598 16.71 15.5598 16.71Z" fill="white"/>
<path d="M15.5601 16.8099C15.5001 16.8099 15.4501 16.7999 15.4001 16.7699L5.59013 11.9799C5.50013 11.9399 5.44014 11.8599 5.41014 11.7699C5.38014 11.6799 5.3801 11.5799 5.4301 11.4899C5.5201 11.3099 5.73014 11.2399 5.91014 11.3199L15.7301 16.1099C15.8201 16.1499 15.8801 16.2299 15.9101 16.3199C15.9401 16.4099 15.9401 16.5099 15.8901 16.5999C15.8301 16.7199 15.7001 16.7999 15.5701 16.7999L15.5601 16.8099ZM5.7501 11.4899C5.6901 11.4899 5.63008 11.5199 5.60008 11.5799C5.58008 11.6199 5.58008 11.6599 5.60008 11.7099C5.61008 11.7499 5.6401 11.7799 5.6801 11.7999L15.4901 16.5899C15.5701 16.6299 15.6701 16.5899 15.7101 16.5099C15.7301 16.4699 15.7301 16.4299 15.7101 16.3799C15.6901 16.3299 15.6701 16.3099 15.6301 16.2899L5.82011 11.4999C5.82011 11.4999 5.7701 11.4799 5.7501 11.4799V11.4899Z" fill="white"/>
</svg>
