<svg width="22" height="22" viewBox="0 0 22 22" fill="none" xmlns="http://www.w3.org/2000/svg">
<path d="M15.2301 20.0999H3.36011C3.22011 20.0999 3.1001 19.9798 3.1001 19.8398V5.11987C3.1001 4.97987 3.22011 4.85986 3.36011 4.85986H11.9201C11.9901 4.85986 12.0501 4.88987 12.1001 4.92987L15.4101 8.11987C15.4601 8.16987 15.4901 8.23988 15.4901 8.30988V19.8398C15.4901 19.9798 15.3701 20.0999 15.2301 20.0999ZM3.62012 19.5699H14.9701V8.41986L11.82 5.37988H3.63012V19.5699H3.62012Z" fill="white"/>
<path d="M15.23 20.2H3.35999C3.15999 20.2 3 20.04 3 19.84V5.12C3 4.92 3.15999 4.76001 3.35999 4.76001H11.92C12.01 4.76001 12.1 4.79999 12.17 4.85999L15.48 8.04999C15.55 8.11999 15.59 8.21 15.59 8.31V19.84C15.59 20.04 15.43 20.2 15.23 20.2ZM3.35999 4.95001C3.26999 4.95001 3.19995 5.01999 3.19995 5.10999V19.83C3.19995 19.92 3.26999 19.99 3.35999 19.99H15.23C15.32 19.99 15.39 19.92 15.39 19.83V8.29999C15.39 8.29999 15.37 8.20999 15.34 8.17999L12.03 4.98999C12.03 4.98999 11.96 4.94 11.92 4.94H3.35999V4.95001ZM14.97 19.67H3.62C3.57 19.67 3.52002 19.63 3.52002 19.57V5.38C3.52002 5.33 3.56 5.27997 3.62 5.27997H11.8099C11.8099 5.27997 11.86 5.29 11.88 5.31L15.03 8.34998C15.03 8.34998 15.0599 8.38998 15.0599 8.41998V19.57C15.0599 19.62 15.02 19.67 14.96 19.67H14.97ZM3.71997 19.47H14.87V8.45996L11.78 5.47998H3.71997V19.48V19.47Z" fill="white"/>
<path d="M18.5 16.34H15.24C15.1 16.34 14.98 16.2201 14.98 16.0801C14.98 15.9401 15.1 15.8201 15.24 15.8201H18.24V4.55005C18.24 4.41005 18.36 4.29004 18.5 4.29004C18.64 4.29004 18.76 4.41005 18.76 4.55005V16.0801C18.76 16.2201 18.64 16.34 18.5 16.34Z" fill="white"/>
<path d="M18.4999 16.4399H15.2399C15.0399 16.4399 14.8799 16.28 14.8799 16.08C14.8799 15.88 15.0399 15.7199 15.2399 15.7199H18.1399V4.54993C18.1399 4.34993 18.2999 4.18994 18.4999 4.18994C18.6999 4.18994 18.8599 4.34993 18.8599 4.54993V16.08C18.8599 16.28 18.6999 16.4399 18.4999 16.4399ZM15.2299 15.9099C15.1399 15.9099 15.0698 15.9799 15.0698 16.0699C15.0698 16.1599 15.1399 16.2299 15.2299 16.2299H18.4899C18.5799 16.2299 18.6499 16.1599 18.6499 16.0699V4.53992C18.6499 4.44992 18.5799 4.37994 18.4899 4.37994C18.3999 4.37994 18.3299 4.44992 18.3299 4.53992V15.8099C18.3299 15.8599 18.2899 15.9099 18.2299 15.9099H15.2299Z" fill="white"/>
<path d="M6.63012 5.38013C6.49012 5.38013 6.37012 5.26012 6.37012 5.12012V1.36011C6.37012 1.22011 6.49012 1.1001 6.63012 1.1001H15.4302C15.5702 1.1001 15.69 1.22011 15.69 1.36011C15.69 1.50011 15.5702 1.62012 15.4302 1.62012H6.89013V5.12012C6.89013 5.26012 6.77012 5.38013 6.63012 5.38013Z" fill="white"/>
<path d="M6.63 5.47998C6.43 5.47998 6.27002 5.31999 6.27002 5.12V1.35999C6.27002 1.15999 6.43 1 6.63 1H15.4301C15.6301 1 15.79 1.15999 15.79 1.35999C15.79 1.55999 15.6301 1.71997 15.4301 1.71997H6.98999V5.12C6.98999 5.31999 6.83 5.47998 6.63 5.47998ZM6.63 1.20001C6.54 1.20001 6.46997 1.26999 6.46997 1.35999V5.12C6.46997 5.21 6.54 5.27997 6.63 5.27997C6.72 5.27997 6.79004 5.21 6.79004 5.12V1.63C6.79004 1.58 6.83001 1.52997 6.89001 1.52997H15.4301C15.5201 1.52997 15.59 1.46 15.59 1.37C15.59 1.28 15.5201 1.20996 15.4301 1.20996H6.63V1.20001Z" fill="white"/>
<path d="M14.9999 8.56989H11.93C11.79 8.56989 11.6699 8.44988 11.6699 8.30988V5.11987C11.6699 4.97987 11.79 4.85986 11.93 4.85986C12.07 4.85986 12.1898 4.97987 12.1898 5.11987V8.04987H14.9999C15.1399 8.04987 15.2599 8.16988 15.2599 8.30988C15.2599 8.44988 15.1399 8.56989 14.9999 8.56989Z" fill="white"/>
<path d="M14.9999 8.66998H11.93C11.73 8.66998 11.5698 8.51 11.5698 8.31V5.12C11.5698 4.92 11.73 4.76001 11.93 4.76001C12.13 4.76001 12.2899 4.92 12.2899 5.12V7.95001H14.9999C15.1999 7.95001 15.3599 8.11 15.3599 8.31C15.3599 8.51 15.1999 8.66998 14.9999 8.66998ZM11.9199 4.95001C11.8299 4.95001 11.7599 5.01999 11.7599 5.10999V8.29999C11.7599 8.38999 11.8299 8.45996 11.9199 8.45996H14.9899C15.0799 8.45996 15.1499 8.38999 15.1499 8.29999C15.1499 8.20999 15.0799 8.14001 14.9899 8.14001H12.18C12.13 8.14001 12.0799 8.09998 12.0799 8.03998V5.10999C12.0799 5.01999 12.0099 4.95001 11.9199 4.95001Z" fill="white"/>
<path d="M18.4999 4.80986H15.43C15.29 4.80986 15.1699 4.68985 15.1699 4.54985V1.35984C15.1699 1.24984 15.2399 1.15985 15.3299 1.11985C15.4299 1.07985 15.5399 1.09985 15.6199 1.17985L18.6898 4.36985C18.7598 4.44985 18.7799 4.55982 18.7399 4.64982C18.6999 4.74982 18.5999 4.80986 18.4999 4.80986ZM15.6898 4.28984H17.8799L15.6898 2.00987V4.28984Z" fill="white"/>
<path d="M18.4999 4.9099H15.43C15.23 4.9099 15.0698 4.74992 15.0698 4.54992V1.35991C15.0698 1.20991 15.1599 1.0799 15.2999 1.0299C15.4399 0.969895 15.5898 1.00991 15.6898 1.10991L18.7599 4.29992C18.8599 4.39991 18.8899 4.55993 18.8299 4.68993C18.7699 4.81993 18.6399 4.9099 18.4999 4.9099ZM15.4199 1.19994C15.4199 1.19994 15.3799 1.19989 15.3599 1.20989C15.2999 1.22989 15.2599 1.28991 15.2599 1.35991V4.54992C15.2599 4.63991 15.3299 4.70989 15.4199 4.70989H18.4899C18.5599 4.70989 18.6099 4.66991 18.6399 4.60991C18.6699 4.54991 18.6499 4.47992 18.6099 4.42992L15.5399 1.23992C15.5399 1.23992 15.4699 1.18993 15.4199 1.18993V1.19994ZM17.8799 4.38994H15.6898C15.6398 4.38994 15.5899 4.34991 15.5899 4.28991V2.00994C15.5899 2.00994 15.6099 1.92991 15.6499 1.91991C15.6899 1.89991 15.7299 1.91993 15.7599 1.93993L17.9499 4.2199C17.9499 4.2199 17.9899 4.28994 17.9699 4.32994C17.9499 4.36994 17.9199 4.38994 17.8799 4.38994ZM15.7799 4.18993H17.6399L15.7799 2.24993V4.18993Z" fill="white"/>
</svg>
