<svg width="22" height="22" viewBox="0 0 22 22" fill="none" xmlns="http://www.w3.org/2000/svg">
<path d="M20.1601 19.8401H11.0201L10.9101 19.9901C10.8601 20.0601 10.7801 20.1001 10.7001 20.1001C10.6101 20.1001 10.5301 20.0601 10.4901 19.9901L10.3901 19.8401H1.36011C1.22011 19.8401 1.1001 19.9601 1.1001 20.1001C1.1001 20.2401 1.22011 20.36 1.36011 20.36H20.1601C20.3001 20.36 20.4201 20.2401 20.4201 20.1001C20.4201 19.9601 20.3001 19.8401 20.1601 19.8401Z" fill="white"/>
<path d="M20.16 20.46H1.35999C1.15999 20.46 1 20.3 1 20.1C1 19.9 1.15999 19.74 1.35999 19.74H10.39C10.39 19.74 10.45 19.76 10.47 19.78L10.57 19.93C10.63 20.02 10.78 20.02 10.84 19.93L10.95 19.78C10.95 19.78 11 19.74 11.03 19.74H20.17C20.37 19.74 20.53 19.9 20.53 20.1C20.53 20.3 20.37 20.46 20.17 20.46H20.16ZM1.35999 19.93C1.26999 19.93 1.20001 20 1.20001 20.09C1.20001 20.18 1.26999 20.25 1.35999 20.25H20.16C20.25 20.25 20.32 20.18 20.32 20.09C20.32 20 20.25 19.93 20.16 19.93H11.08L11 20.04C10.93 20.14 10.82 20.19 10.71 20.19C10.59 20.19 10.48 20.13 10.41 20.03L10.34 19.92H1.35999V19.93Z" fill="white"/>
<path d="M5.94995 12.5901H6.20996V1.36005C6.20996 1.22005 6.08995 1.1001 5.94995 1.1001C5.80995 1.1001 5.68994 1.22005 5.68994 1.36005V12.8501C5.68994 12.7101 5.80995 12.5901 5.94995 12.5901Z" fill="white"/>
<path d="M5.68005 12.95C5.63005 12.95 5.58008 12.91 5.58008 12.85V1.35999C5.58008 1.15999 5.74006 1 5.94006 1C6.14006 1 6.30005 1.15999 6.30005 1.35999V12.59C6.30005 12.64 6.26007 12.69 6.20007 12.69H5.94006C5.85006 12.69 5.78003 12.76 5.78003 12.85C5.78003 12.9 5.74005 12.95 5.68005 12.95ZM5.95007 1.20001C5.86007 1.20001 5.79004 1.26999 5.79004 1.35999V12.53C5.79004 12.53 5.89007 12.49 5.95007 12.49H6.11005V1.35999C6.11005 1.26999 6.04007 1.20001 5.95007 1.20001Z" fill="white"/>
<path d="M15.7699 13.11C15.7699 13.11 15.8199 13.0101 15.8199 12.9601V12.8501C15.8199 12.9901 15.6999 13.11 15.5599 13.11H15.1299L11.4499 18.3201H11.5699C11.7099 18.3201 11.8299 18.4401 11.8299 18.5801C11.8299 18.7201 11.7099 18.8401 11.5699 18.8401H11.0799L10.6999 19.3701L10.3299 18.8401H9.83991C9.69991 18.8401 9.57996 18.7201 9.57996 18.5801C9.57996 18.4401 9.69991 18.3201 9.83991 18.3201H9.95996L6.34992 13.11H5.92993C5.78993 13.11 5.66992 12.9901 5.66992 12.8501V12.9601C5.66992 13.0101 5.68991 13.07 5.71991 13.11L10.3799 19.8401H11.0199L15.7599 13.1201L15.7699 13.11Z" fill="white"/>
<path d="M11.0299 19.93H10.3899C10.3899 19.93 10.3299 19.91 10.3099 19.89L5.64983 13.16C5.60983 13.1 5.58984 13.03 5.58984 12.95V12.84C5.58984 12.79 5.62987 12.74 5.68987 12.74C5.74987 12.74 5.78985 12.78 5.78985 12.84C5.78985 12.93 5.85988 13 5.94988 13H6.36987C6.36987 13 6.42988 13.02 6.44988 13.04L10.0599 18.25C10.0599 18.25 10.0799 18.32 10.0599 18.35C10.0399 18.38 10.0099 18.4 9.96984 18.4H9.84985C9.75985 18.4 9.68987 18.47 9.68987 18.56C9.68987 18.65 9.75985 18.72 9.84985 18.72H10.3399C10.3399 18.72 10.3999 18.74 10.4199 18.76L10.7099 19.18L10.9999 18.76C10.9999 18.76 11.0499 18.72 11.0799 18.72H11.5699C11.6599 18.72 11.7299 18.65 11.7299 18.56C11.7299 18.47 11.6599 18.4 11.5699 18.4H11.4499C11.4499 18.4 11.3799 18.38 11.3599 18.35C11.3399 18.32 11.3499 18.28 11.3599 18.25L15.0399 13.04C15.0399 13.04 15.0899 13 15.1199 13H15.5499C15.6399 13 15.7099 12.93 15.7099 12.84C15.7099 12.79 15.7499 12.74 15.8099 12.74C15.8699 12.74 15.9099 12.78 15.9099 12.84V12.95C15.9099 13.02 15.8899 13.1 15.8399 13.16L11.0999 19.88C11.0999 19.88 11.0499 19.92 11.0199 19.92L11.0299 19.93ZM10.4399 19.74H10.9799L11.5399 18.95H11.1399L10.7899 19.44C10.7899 19.44 10.7399 19.48 10.7099 19.48C10.7099 19.48 10.6499 19.46 10.6299 19.44L10.2899 18.95H9.88988L10.4399 19.74ZM11.6399 18.23C11.7599 18.25 11.8499 18.33 11.8999 18.43L15.5799 13.21C15.5799 13.21 15.5599 13.21 15.5499 13.21H15.1799L11.6399 18.23ZM5.91985 13.21L9.52984 18.43C9.57984 18.33 9.67985 18.25 9.78985 18.23L6.30987 13.21H5.93987C5.93987 13.21 5.91984 13.21 5.90984 13.21H5.91985Z" fill="white"/>
<path d="M15.8198 12.8501V1.36005C15.8198 1.22005 15.6998 1.1001 15.5598 1.1001C15.4198 1.1001 15.2998 1.22005 15.2998 1.36005V12.5901H15.5598C15.6998 12.5901 15.8198 12.7101 15.8198 12.8501Z" fill="white"/>
<path d="M15.8202 12.95C15.7702 12.95 15.7202 12.91 15.7202 12.85C15.7202 12.76 15.6502 12.69 15.5602 12.69H15.3002C15.2502 12.69 15.2002 12.65 15.2002 12.59V1.35999C15.2002 1.15999 15.3602 1 15.5602 1C15.7602 1 15.9202 1.15999 15.9202 1.35999V12.85C15.9202 12.9 15.8802 12.95 15.8202 12.95ZM15.3902 12.49H15.5502C15.6102 12.49 15.6602 12.5 15.7102 12.53V1.35999C15.7102 1.26999 15.6402 1.20001 15.5502 1.20001C15.4602 1.20001 15.3902 1.26999 15.3902 1.35999V12.49Z" fill="white"/>
<path d="M10.7101 20.1001C10.8001 20.1001 10.8801 20.0601 10.9201 19.9901L11.0301 19.8401H10.3901L10.4901 19.9901C10.5401 20.0601 10.6201 20.1001 10.7001 20.1001H10.7101Z" fill="white"/>
<path d="M10.7099 20.2C10.5899 20.2 10.4799 20.14 10.4199 20.04L10.3199 19.89C10.3199 19.89 10.2999 19.82 10.3199 19.79C10.3399 19.76 10.3699 19.74 10.4099 19.74H11.0499C11.0499 19.74 11.1199 19.76 11.1399 19.79C11.1599 19.82 11.1499 19.86 11.1399 19.89L11.0298 20.04C10.9598 20.14 10.8499 20.19 10.7399 20.19L10.7099 20.2ZM10.7099 20C10.7599 20 10.8098 19.98 10.8398 19.93H10.5799C10.5799 19.93 10.6599 20 10.7099 20Z" fill="white"/>
<path d="M6.36994 13.11H15.1299L15.2899 12.8801V12.5901H6.20996V12.8801L6.36994 13.11Z" fill="white"/>
<path d="M15.1299 13.21H6.36987C6.36987 13.21 6.30985 13.19 6.28985 13.17L6.12987 12.94C6.12987 12.94 6.10986 12.9 6.10986 12.88V12.59C6.10986 12.54 6.14989 12.49 6.20989 12.49H15.2999C15.3499 12.49 15.3999 12.53 15.3999 12.59V12.88C15.3999 12.88 15.3999 12.92 15.3799 12.94L15.2199 13.17C15.2199 13.17 15.1699 13.21 15.1399 13.21H15.1299ZM6.41985 13.01H15.0799L15.1999 12.85V12.69H6.30987V12.86L6.41985 13.02V13.01Z" fill="white"/>
<path d="M5.94995 13.11H6.36994L6.20996 12.8801V12.5901H5.94995C5.80995 12.5901 5.68994 12.7101 5.68994 12.8501C5.68994 12.9901 5.80995 13.11 5.94995 13.11Z" fill="white"/>
<path d="M6.36987 13.21H5.94988C5.74988 13.21 5.58984 13.05 5.58984 12.85C5.58984 12.65 5.74988 12.49 5.94988 12.49H6.20989C6.25989 12.49 6.30987 12.53 6.30987 12.59V12.85L6.44988 13.05C6.44988 13.05 6.46988 13.12 6.44988 13.15C6.42988 13.18 6.39986 13.2 6.35986 13.2L6.36987 13.21ZM5.94988 12.68C5.85988 12.68 5.78985 12.75 5.78985 12.84C5.78985 12.93 5.85988 13 5.94988 13H6.17986L6.12987 12.92C6.12987 12.92 6.10986 12.88 6.10986 12.86V12.66H5.94988V12.68Z" fill="white"/>
<path d="M15.1299 13.11H15.5599C15.6999 13.11 15.8199 12.9901 15.8199 12.8501C15.8199 12.7101 15.6999 12.5901 15.5599 12.5901H15.2999V12.8801L15.1399 13.11H15.1299Z" fill="white"/>
<path d="M15.5599 13.21H15.1299C15.1299 13.21 15.0599 13.19 15.0399 13.16C15.0199 13.13 15.0299 13.09 15.0399 13.06L15.1899 12.85V12.59C15.1899 12.54 15.2299 12.49 15.2899 12.49H15.5499C15.7499 12.49 15.9099 12.65 15.9099 12.85C15.9099 13.05 15.7499 13.21 15.5499 13.21H15.5599ZM15.3199 13.01H15.5599C15.6499 13.01 15.7199 12.94 15.7199 12.85C15.7199 12.76 15.6499 12.69 15.5599 12.69H15.3999V12.88C15.3999 12.88 15.3999 12.92 15.3799 12.94L15.3299 13.02L15.3199 13.01Z" fill="white"/>
<path d="M10.34 18.8501H11.08L11.45 18.3201H9.97998L10.34 18.8501Z" fill="white"/>
<path d="M11.0801 18.95H10.34C10.34 18.95 10.2801 18.93 10.2601 18.91L9.9 18.39C9.9 18.39 9.88 18.32 9.9 18.29C9.92 18.26 9.95003 18.24 9.99003 18.24H11.47C11.47 18.24 11.5401 18.26 11.5601 18.29C11.5801 18.32 11.5701 18.36 11.5601 18.39L11.1901 18.91C11.1901 18.91 11.1401 18.95 11.1101 18.95H11.0801ZM10.3901 18.75H11.03L11.2601 18.42H10.1601L10.3901 18.75Z" fill="white"/>
<path d="M9.84985 18.3198C9.70985 18.3198 9.58984 18.4398 9.58984 18.5798C9.58984 18.7198 9.70985 18.8398 9.84985 18.8398H10.3399L9.97985 18.3198H9.85986H9.84985Z" fill="white"/>
<path d="M10.3402 18.95H9.85022C9.65022 18.95 9.49023 18.79 9.49023 18.59C9.49023 18.39 9.65022 18.23 9.85022 18.23H9.97021C9.97021 18.23 10.0302 18.25 10.0502 18.27L10.4102 18.79C10.4102 18.79 10.4302 18.86 10.4102 18.89C10.3902 18.92 10.3602 18.9399 10.3202 18.9399L10.3402 18.95ZM9.85022 18.4199C9.76022 18.4199 9.69024 18.49 9.69024 18.58C9.69024 18.67 9.76022 18.7399 9.85022 18.7399H10.1502L9.92022 18.41H9.85022V18.4199Z" fill="white"/>
<path d="M11.5798 18.8501C11.7198 18.8501 11.8398 18.7301 11.8398 18.5901C11.8398 18.4501 11.7198 18.3301 11.5798 18.3301H11.4598L11.0898 18.8501H11.5798Z" fill="white"/>
<path d="M11.5798 18.95H11.0898C11.0898 18.95 11.0198 18.93 10.9998 18.9C10.9798 18.87 10.9898 18.83 10.9998 18.8L11.3698 18.28C11.3698 18.28 11.4198 18.24 11.4498 18.24H11.5698C11.7698 18.24 11.9298 18.4 11.9298 18.6C11.9298 18.8 11.7698 18.96 11.5698 18.96L11.5798 18.95ZM11.2698 18.75H11.5698C11.6598 18.75 11.7298 18.68 11.7298 18.59C11.7298 18.5 11.6598 18.43 11.5698 18.43H11.4998L11.2698 18.76V18.75Z" fill="white"/>
<path d="M8.34985 10.7101C8.48985 10.7101 8.60986 10.5901 8.60986 10.4501V3.37012C8.60986 3.23012 8.48985 3.11011 8.34985 3.11011C8.20985 3.11011 8.08984 3.23012 8.08984 3.37012V10.4501C8.08984 10.5901 8.20985 10.7101 8.34985 10.7101Z" fill="white"/>
<path d="M8.35022 10.81C8.15022 10.81 7.99023 10.65 7.99023 10.45V3.37C7.99023 3.17 8.15022 3.01001 8.35022 3.01001C8.55022 3.01001 8.71026 3.17 8.71026 3.37V10.45C8.71026 10.65 8.55022 10.81 8.35022 10.81ZM8.35022 3.21002C8.26022 3.21002 8.19024 3.28 8.19024 3.37V10.45C8.19024 10.54 8.26022 10.61 8.35022 10.61C8.44022 10.61 8.51025 10.54 8.51025 10.45V3.37C8.51025 3.28 8.44022 3.21002 8.35022 3.21002Z" fill="white"/>
<path d="M13.24 10.7101C13.38 10.7101 13.5 10.5901 13.5 10.4501V3.37012C13.5 3.23012 13.38 3.11011 13.24 3.11011C13.1 3.11011 12.98 3.23012 12.98 3.37012V10.4501C12.98 10.5901 13.1 10.7101 13.24 10.7101Z" fill="white"/>
<path d="M13.2399 10.81C13.0399 10.81 12.8799 10.65 12.8799 10.45V3.37C12.8799 3.17 13.0399 3.01001 13.2399 3.01001C13.4399 3.01001 13.5999 3.17 13.5999 3.37V10.45C13.5999 10.65 13.4399 10.81 13.2399 10.81ZM13.2399 3.21002C13.1499 3.21002 13.0799 3.28 13.0799 3.37V10.45C13.0799 10.54 13.1499 10.61 13.2399 10.61C13.3299 10.61 13.3999 10.54 13.3999 10.45V3.37C13.3999 3.28 13.3299 3.21002 13.2399 3.21002Z" fill="white"/>
<path d="M10.7502 9.70007C10.8902 9.70007 11.0102 9.58006 11.0102 9.44006V2.1001C11.0102 1.9601 10.8902 1.84009 10.7502 1.84009C10.6102 1.84009 10.4902 1.9601 10.4902 2.1001V9.44006C10.4902 9.58006 10.6102 9.70007 10.7502 9.70007Z" fill="white"/>
<path d="M10.7501 9.79999C10.5501 9.79999 10.3901 9.64 10.3901 9.44V2.10004C10.3901 1.90004 10.5501 1.73999 10.7501 1.73999C10.9501 1.73999 11.1101 1.90004 11.1101 2.10004V9.44C11.1101 9.64 10.9501 9.79999 10.7501 9.79999ZM10.7501 1.94C10.6601 1.94 10.5901 2.01004 10.5901 2.10004V9.44C10.5901 9.53 10.6601 9.60004 10.7501 9.60004C10.8401 9.60004 10.9101 9.53 10.9101 9.44V2.10004C10.9101 2.01004 10.8401 1.94 10.7501 1.94Z" fill="white"/>
</svg>
