<svg width="22" height="22" viewBox="0 0 22 22" fill="none" xmlns="http://www.w3.org/2000/svg">
<path d="M10.7501 20.4001C5.43006 20.4001 1.1001 16.0701 1.1001 10.7501C1.1001 5.43012 5.43006 1.1001 10.7501 1.1001C16.0701 1.1001 20.4001 5.43012 20.4001 10.7501C20.4001 16.0701 16.0701 20.4001 10.7501 20.4001ZM10.7501 1.62012C5.72006 1.62012 1.62006 5.72012 1.62006 10.7501C1.62006 15.7801 5.72006 19.8801 10.7501 19.8801C15.7801 19.8801 19.8801 15.7801 19.8801 10.7501C19.8801 5.72012 15.7801 1.62012 10.7501 1.62012Z" fill="white"/>
<path d="M10.75 20.5C5.37 20.5 1 16.13 1 10.75C1 5.37 5.37 1 10.75 1C16.13 1 20.5 5.37 20.5 10.75C20.5 16.13 16.13 20.5 10.75 20.5ZM10.75 1.19C5.48 1.19 1.19 5.47999 1.19 10.74C1.19 16 5.48 20.29 10.75 20.29C16.02 20.29 20.3 16 20.3 10.74C20.3 5.47999 16.01 1.19 10.75 1.19ZM10.75 19.98C5.66 19.98 1.52002 15.84 1.52002 10.75C1.52002 5.66 5.66 1.51999 10.75 1.51999C15.84 1.51999 19.98 5.66 19.98 10.75C19.98 15.84 15.84 19.98 10.75 19.98ZM10.75 1.72C5.77 1.72 1.72003 5.77 1.72003 10.75C1.72003 15.73 5.77 19.78 10.75 19.78C15.73 19.78 19.78 15.73 19.78 10.75C19.78 5.77 15.73 1.72 10.75 1.72Z" fill="white"/>
<path d="M10.7203 20.3099C10.5903 20.3099 10.4803 20.2199 10.4603 20.0899C10.4403 19.9499 10.5302 19.8099 10.6702 19.7899C14.3902 19.1499 17.1902 15.2699 17.1902 10.7499C17.1902 6.22991 14.5503 2.51989 10.9103 1.75989C10.7703 1.72989 10.6803 1.58989 10.7103 1.44989C10.7403 1.30989 10.8802 1.21991 11.0202 1.24991C14.9002 2.06991 17.7203 6.05991 17.7203 10.7499C17.7203 15.4399 14.7302 19.6199 10.7702 20.2999C10.7502 20.2999 10.7403 20.2999 10.7303 20.2999L10.7203 20.3099Z" fill="white"/>
<path d="M10.72 20.4C10.54 20.4 10.39 20.27 10.36 20.1C10.34 20.01 10.36 19.91 10.42 19.83C10.48 19.75 10.56 19.7 10.65 19.68C14.32 19.05 17.09 15.21 17.09 10.74C17.09 6.26997 14.48 2.59997 10.89 1.83997C10.7 1.79997 10.57 1.60998 10.61 1.40998C10.63 1.31998 10.69 1.22997 10.77 1.17997C10.85 1.12997 10.95 1.10998 11.04 1.12998C14.97 1.95998 17.82 5.98996 17.82 10.73C17.82 15.47 14.8 19.69 10.78 20.38C10.76 20.38 10.74 20.38 10.72 20.38V20.4ZM10.96 1.33997C10.96 1.33997 10.9 1.33997 10.87 1.36997C10.83 1.38997 10.81 1.42998 10.8 1.46998C10.78 1.55998 10.84 1.64998 10.93 1.65998C14.62 2.42998 17.29 6.25998 17.29 10.75C17.29 15.24 14.45 19.24 10.69 19.88C10.65 19.88 10.61 19.91 10.58 19.95C10.55 19.99 10.54 20.03 10.55 20.07C10.57 20.16 10.65 20.22 10.74 20.2C14.66 19.53 17.61 15.46 17.61 10.74C17.61 6.01997 14.83 2.13996 10.99 1.32996C10.98 1.32996 10.97 1.32996 10.96 1.32996V1.33997Z" fill="white"/>
<path d="M10.75 20.3099C10.75 20.3099 10.72 20.3099 10.71 20.3099C6.76002 19.6299 3.79004 15.5199 3.79004 10.7599C3.79004 5.99992 6.59002 2.06992 10.46 1.25992C10.6 1.22992 10.74 1.31993 10.77 1.45993C10.8 1.59993 10.71 1.73993 10.57 1.76993C6.95001 2.53993 4.32001 6.31992 4.32001 10.7599C4.32001 15.1999 7.11 19.1599 10.81 19.7999C10.95 19.8199 11.05 19.9599 11.02 20.0999C11 20.2299 10.89 20.3199 10.76 20.3199L10.75 20.3099Z" fill="white"/>
<path d="M10.7499 20.4C10.7499 20.4 10.7099 20.4 10.6899 20.4C6.69994 19.71 3.68994 15.56 3.68994 10.75C3.68994 5.94 6.52994 1.98 10.4399 1.15C10.6299 1.11 10.8299 1.23 10.8699 1.43C10.9099 1.62 10.7899 1.81999 10.5899 1.85999C7.00997 2.61999 4.40997 6.35998 4.40997 10.76C4.40997 15.16 7.15995 19.07 10.8199 19.7C11.0199 19.73 11.1499 19.92 11.1099 20.12C11.0799 20.29 10.9299 20.42 10.7599 20.42L10.7499 20.4ZM10.5099 1.34C10.5099 1.34 10.4899 1.34 10.4699 1.34C6.64997 2.15 3.87994 6.1 3.87994 10.75C3.87994 15.4 6.81997 19.54 10.7199 20.21C10.8299 20.23 10.8899 20.16 10.9099 20.08C10.9099 20.04 10.9099 19.99 10.8799 19.96C10.8499 19.92 10.8199 19.9 10.7699 19.89C7.01996 19.25 4.19995 15.32 4.19995 10.76C4.19995 6.19998 6.85997 2.44999 10.5299 1.66999C10.5699 1.66999 10.6099 1.63998 10.6299 1.59998C10.6499 1.55998 10.6599 1.51998 10.6499 1.47998C10.6299 1.39998 10.5699 1.34998 10.4899 1.34998L10.5099 1.34Z" fill="white"/>
<path d="M10.7499 7.25C8.16994 7.25 5.74992 6.24998 3.91992 4.41998L4.28998 4.04999C6.00998 5.76999 8.30994 6.72 10.7499 6.72C13.1899 6.72 15.5399 5.74998 17.2699 3.97998L17.6399 4.34998C15.8099 6.21998 13.3599 7.23999 10.7499 7.23999V7.25Z" fill="white"/>
<path d="M10.7498 7.34989C8.14978 7.34989 5.69982 6.3399 3.84982 4.4899C3.80982 4.4499 3.80982 4.38989 3.84982 4.34989L4.21981 3.97989C4.21981 3.97989 4.31977 3.93989 4.35977 3.97989C6.06977 5.68989 8.32978 6.62991 10.7498 6.62991C13.1698 6.62991 15.4798 5.66989 17.1998 3.91989C17.2398 3.87989 17.2998 3.87989 17.3398 3.91989L17.7098 4.28989C17.7098 4.28989 17.7398 4.3299 17.7398 4.3599C17.7398 4.3899 17.7298 4.4099 17.7098 4.4299C15.8598 6.3099 13.3898 7.34989 10.7498 7.34989ZM4.05978 4.41989C5.85978 6.17989 8.22978 7.1499 10.7498 7.1499C13.2698 7.1499 15.6998 6.15989 17.4998 4.3599L17.2698 4.12991C15.5298 5.86991 13.2198 6.8299 10.7498 6.8299C8.27978 6.8299 6.02977 5.89989 4.29977 4.19989L4.06979 4.4299L4.05978 4.41989Z" fill="white"/>
<path d="M4.22991 17.51L3.85986 17.14C5.68986 15.27 8.13987 14.24 10.7499 14.24C13.3599 14.24 15.7499 15.24 17.5799 17.07L17.2099 17.44C15.4899 15.72 13.1899 14.77 10.7499 14.77C8.30987 14.77 5.95991 15.74 4.22991 17.51Z" fill="white"/>
<path d="M4.23024 17.6099C4.23024 17.6099 4.18023 17.5999 4.16023 17.5799L3.79024 17.2099C3.79024 17.2099 3.75024 17.1099 3.79024 17.0699C5.64024 15.1799 8.1102 14.1499 10.7502 14.1499C13.3902 14.1499 15.8002 15.1599 17.6502 17.0099C17.6902 17.0499 17.6902 17.1099 17.6502 17.1499L17.2802 17.5199C17.2802 17.5199 17.1802 17.5599 17.1402 17.5199C15.4302 15.8099 13.1702 14.8699 10.7502 14.8699C8.3302 14.8699 6.01018 15.8299 4.30018 17.5799C4.28018 17.5999 4.26024 17.6099 4.23024 17.6099ZM4.0002 17.1399L4.23024 17.3699C5.97024 15.6299 8.2802 14.6699 10.7502 14.6699C13.2202 14.6699 15.4702 15.5999 17.2002 17.2999L17.4302 17.0699C15.6302 15.3099 13.2602 14.3399 10.7402 14.3399C8.22019 14.3399 5.79019 15.3299 3.99019 17.1399H4.0002Z" fill="white"/>
<path d="M20.1399 10.49H1.35986V11.01H20.1399V10.49Z" fill="white"/>
<path d="M20.1402 11.1099H1.36023C1.31023 11.1099 1.26025 11.0699 1.26025 11.0099V10.4899C1.26025 10.4399 1.30023 10.3899 1.36023 10.3899H20.1402C20.1902 10.3899 20.2402 10.4299 20.2402 10.4899V11.0099C20.2402 11.0599 20.2002 11.1099 20.1402 11.1099ZM1.46026 10.9099H20.0502V10.5799H1.46026V10.9099Z" fill="white"/>
<path d="M10.7502 20.4001C10.6102 20.4001 10.4902 20.2801 10.4902 20.1401V1.36011C10.4902 1.22011 10.6102 1.1001 10.7502 1.1001C10.8902 1.1001 11.0102 1.22011 11.0102 1.36011V20.1401C11.0102 20.2801 10.8902 20.4001 10.7502 20.4001Z" fill="white"/>
<path d="M10.7501 20.5C10.5501 20.5 10.3901 20.34 10.3901 20.14V1.35999C10.3901 1.15999 10.5501 1 10.7501 1C10.9501 1 11.1101 1.15999 11.1101 1.35999V20.14C11.1101 20.34 10.9501 20.5 10.7501 20.5ZM10.7501 1.19C10.6601 1.19 10.5901 1.25998 10.5901 1.34998V20.13C10.5901 20.22 10.6601 20.29 10.7501 20.29C10.8401 20.29 10.9101 20.22 10.9101 20.13V1.34998C10.9101 1.25998 10.8401 1.19 10.7501 1.19Z" fill="white"/>
</svg>
