<svg width="22" height="22" viewBox="0 0 22 22" fill="none" xmlns="http://www.w3.org/2000/svg">
<path d="M20.0701 1.09009H1.36011C1.22011 1.09009 1.1001 1.2101 1.1001 1.3501V19.8201C1.1001 19.9601 1.22011 20.0801 1.36011 20.0801H20.0701C20.2101 20.0801 20.3301 19.9601 20.3301 19.8201V1.3501C20.3301 1.2101 20.2101 1.09009 20.0701 1.09009ZM19.8001 1.62012V4.9201H1.62012V1.62012H19.8001ZM1.62012 19.5701V5.44006H19.8001V19.5701H1.62012Z" fill="white"/>
<path d="M20.07 20.19H1.35999C1.15999 20.19 1 20.03 1 19.83V1.36005C1 1.16005 1.15999 1 1.35999 1H20.07C20.27 1 20.43 1.16005 20.43 1.36005V19.83C20.43 20.03 20.27 20.19 20.07 20.19ZM1.35999 1.19C1.26999 1.19 1.19995 1.26004 1.19995 1.35004V19.82C1.19995 19.91 1.26999 19.98 1.35999 19.98H20.07C20.16 19.98 20.23 19.91 20.23 19.82V1.35004C20.23 1.26004 20.16 1.19 20.07 1.19H1.35999ZM19.8 19.67H1.62C1.57 19.67 1.51996 19.63 1.51996 19.57V5.44C1.51996 5.39 1.56 5.34003 1.62 5.34003H19.8C19.85 5.34003 19.9 5.38 19.9 5.44V19.57C19.9 19.62 19.86 19.67 19.8 19.67ZM1.71997 19.47H19.71V5.54004H1.71997V19.47ZM19.8 5.01001H1.62C1.57 5.01001 1.51996 4.97003 1.51996 4.91003V1.61005C1.51996 1.56005 1.56 1.51001 1.62 1.51001H19.8C19.85 1.51001 19.9 1.55005 19.9 1.61005V4.91003C19.9 4.96003 19.86 5.01001 19.8 5.01001ZM1.71997 4.82001H19.71V1.72003H1.71997V4.82001Z" fill="white"/>
<path d="M3.19012 4.15015C3.67012 4.15015 4.05011 3.76016 4.05011 3.29016C4.05011 2.82016 3.66012 2.43018 3.19012 2.43018C2.72012 2.43018 2.33008 2.82016 2.33008 3.29016C2.33008 3.76016 2.72012 4.15015 3.19012 4.15015ZM3.19012 2.95013C3.38012 2.95013 3.53009 3.10016 3.53009 3.29016C3.53009 3.48016 3.38012 3.63013 3.19012 3.63013C3.00012 3.63013 2.8501 3.48016 2.8501 3.29016C2.8501 3.10016 3.00012 2.95013 3.19012 2.95013Z" fill="white"/>
<path d="M3.19 4.25006C2.66 4.25006 2.22998 3.8201 2.22998 3.2901C2.22998 2.7601 2.66 2.33008 3.19 2.33008C3.72 2.33008 4.14996 2.7601 4.14996 3.2901C4.14996 3.8201 3.72 4.25006 3.19 4.25006ZM3.19 2.53009C2.77 2.53009 2.42999 2.8701 2.42999 3.2901C2.42999 3.7101 2.77 4.05011 3.19 4.05011C3.61 4.05011 3.94995 3.7101 3.94995 3.2901C3.94995 2.8701 3.61 2.53009 3.19 2.53009ZM3.19 3.7301C2.95 3.7301 2.75 3.5301 2.75 3.2901C2.75 3.0501 2.95 2.8501 3.19 2.8501C3.43 2.8501 3.63 3.0501 3.63 3.2901C3.63 3.5301 3.43 3.7301 3.19 3.7301ZM3.19 3.05011C3.06 3.05011 2.94995 3.1601 2.94995 3.2901C2.94995 3.4201 3.06 3.53009 3.19 3.53009C3.32 3.53009 3.42999 3.4201 3.42999 3.2901C3.42999 3.1601 3.32 3.05011 3.19 3.05011Z" fill="white"/>
<path d="M5.36976 4.15015C5.84976 4.15015 6.22974 3.76016 6.22974 3.29016C6.22974 2.82016 5.83976 2.43018 5.36976 2.43018C4.89976 2.43018 4.50977 2.82016 4.50977 3.29016C4.50977 3.76016 4.89976 4.15015 5.36976 4.15015ZM5.36976 2.95013C5.55976 2.95013 5.70972 3.10016 5.70972 3.29016C5.70972 3.48016 5.55976 3.63013 5.36976 3.63013C5.17976 3.63013 5.02973 3.48016 5.02973 3.29016C5.02973 3.10016 5.17976 2.95013 5.36976 2.95013Z" fill="white"/>
<path d="M5.37019 4.25006C4.84019 4.25006 4.41016 3.8201 4.41016 3.2901C4.41016 2.7601 4.84019 2.33008 5.37019 2.33008C5.90019 2.33008 6.33015 2.7601 6.33015 3.2901C6.33015 3.8201 5.90019 4.25006 5.37019 4.25006ZM5.37019 2.53009C4.95019 2.53009 4.61018 2.8701 4.61018 3.2901C4.61018 3.7101 4.95019 4.05011 5.37019 4.05011C5.79019 4.05011 6.13019 3.7101 6.13019 3.2901C6.13019 2.8701 5.79019 2.53009 5.37019 2.53009ZM5.37019 3.7301C5.13019 3.7301 4.93018 3.5301 4.93018 3.2901C4.93018 3.0501 5.13019 2.8501 5.37019 2.8501C5.61019 2.8501 5.81019 3.0501 5.81019 3.2901C5.81019 3.5301 5.61019 3.7301 5.37019 3.7301ZM5.37019 3.05011C5.24019 3.05011 5.13019 3.1601 5.13019 3.2901C5.13019 3.4201 5.24019 3.53009 5.37019 3.53009C5.50019 3.53009 5.61018 3.4201 5.61018 3.2901C5.61018 3.1601 5.50019 3.05011 5.37019 3.05011Z" fill="white"/>
<path d="M7.54993 4.15015C8.02993 4.15015 8.40991 3.76016 8.40991 3.29016C8.40991 2.82016 8.01993 2.43018 7.54993 2.43018C7.07993 2.43018 6.68994 2.82016 6.68994 3.29016C6.68994 3.76016 7.07993 4.15015 7.54993 4.15015ZM7.54993 2.95013C7.73993 2.95013 7.88989 3.10016 7.88989 3.29016C7.88989 3.48016 7.73993 3.63013 7.54993 3.63013C7.35993 3.63013 7.2099 3.48016 7.2099 3.29016C7.2099 3.10016 7.35993 2.95013 7.54993 2.95013Z" fill="white"/>
<path d="M7.54986 4.25006C7.01986 4.25006 6.58984 3.8201 6.58984 3.2901C6.58984 2.7601 7.01986 2.33008 7.54986 2.33008C8.07986 2.33008 8.50988 2.7601 8.50988 3.2901C8.50988 3.8201 8.07986 4.25006 7.54986 4.25006ZM7.54986 2.53009C7.12986 2.53009 6.78985 2.8701 6.78985 3.2901C6.78985 3.7101 7.12986 4.05011 7.54986 4.05011C7.96986 4.05011 8.30987 3.7101 8.30987 3.2901C8.30987 2.8701 7.96986 2.53009 7.54986 2.53009ZM7.54986 3.7301C7.30986 3.7301 7.10986 3.5301 7.10986 3.2901C7.10986 3.0501 7.30986 2.8501 7.54986 2.8501C7.78986 2.8501 7.98986 3.0501 7.98986 3.2901C7.98986 3.5301 7.78986 3.7301 7.54986 3.7301ZM7.54986 3.05011C7.41986 3.05011 7.30987 3.1601 7.30987 3.2901C7.30987 3.4201 7.41986 3.53009 7.54986 3.53009C7.67986 3.53009 7.78985 3.4201 7.78985 3.2901C7.78985 3.1601 7.67986 3.05011 7.54986 3.05011Z" fill="white"/>
<path d="M7.76009 9.26995C7.64009 9.18995 7.48004 9.21997 7.40004 9.34997L5.73006 11.8899C5.67006 11.9799 5.67006 12.09 5.73006 12.18L7.40004 14.72C7.45004 14.8 7.53007 14.84 7.62007 14.84C7.67007 14.84 7.72009 14.83 7.76009 14.8C7.88009 14.72 7.91004 14.5599 7.84004 14.4399L6.27004 12.04L7.84004 9.63995C7.92004 9.51995 7.89009 9.35996 7.76009 9.27996V9.26995Z" fill="white"/>
<path d="M7.61987 14.94C7.49987 14.94 7.37988 14.88 7.31988 14.78L5.64984 12.24C5.56984 12.12 5.56984 11.97 5.64984 11.85L7.31988 9.31003C7.36988 9.23003 7.44986 9.17 7.54986 9.15C7.63986 9.13 7.73988 9.14999 7.81988 9.19999C7.89988 9.24999 7.95985 9.33003 7.97985 9.43003C7.99985 9.53003 7.97987 9.61999 7.92987 9.69999L6.38983 12.05L7.92987 14.4C7.97987 14.48 7.99985 14.58 7.97985 14.67C7.95985 14.76 7.89988 14.84 7.81988 14.9C7.75988 14.94 7.68987 14.96 7.61987 14.96V14.94ZM7.61987 9.32999C7.61987 9.32999 7.59984 9.32999 7.58984 9.32999C7.54984 9.32999 7.50986 9.36 7.48986 9.4L5.81988 11.94C5.77988 11.99 5.77988 12.06 5.81988 12.12L7.48986 14.66C7.53986 14.73 7.63984 14.76 7.71984 14.71C7.75984 14.69 7.77985 14.65 7.78985 14.61C7.78985 14.57 7.78983 14.52 7.76983 14.49L6.19982 12.09C6.19982 12.09 6.17982 12.01 6.19982 11.98L7.76983 9.57999C7.76983 9.57999 7.79985 9.5 7.78985 9.46C7.78985 9.42 7.75984 9.38002 7.71984 9.36002C7.71984 9.36002 7.65988 9.32999 7.62988 9.32999H7.61987Z" fill="white"/>
<path d="M14.0701 9.3499C13.9901 9.2299 13.8301 9.18989 13.7101 9.26989C13.5901 9.34989 13.5601 9.50987 13.6301 9.62987L15.2001 12.0299L13.6301 14.4299C13.5501 14.5499 13.5801 14.7099 13.7101 14.7899C13.7501 14.8199 13.8001 14.8299 13.8501 14.8299C13.9401 14.8299 14.0201 14.7899 14.0701 14.7099L15.7401 12.1699C15.8001 12.0799 15.8001 11.9699 15.7401 11.8799L14.0701 9.33989V9.3499Z" fill="white"/>
<path d="M13.8501 14.94C13.7801 14.94 13.71 14.92 13.65 14.88C13.57 14.83 13.5101 14.75 13.4901 14.65C13.4701 14.56 13.4901 14.46 13.5401 14.38L15.08 12.03L13.5401 9.68002C13.4901 9.60002 13.4701 9.5 13.4901 9.41C13.5101 9.32 13.57 9.23002 13.65 9.18002C13.73 9.13002 13.8301 9.10997 13.9201 9.12997C14.0101 9.14997 14.1 9.2 14.15 9.29L15.8201 11.83C15.9001 11.95 15.9001 12.1 15.8201 12.22L14.15 14.76C14.08 14.86 13.9701 14.92 13.8501 14.92V14.94ZM13.8501 9.32998C13.8501 9.32998 13.7901 9.33001 13.7601 9.36001C13.7201 9.38001 13.7001 9.41999 13.6901 9.45999C13.6901 9.49999 13.69 9.54998 13.71 9.57998L15.28 11.98C15.28 11.98 15.3 12.06 15.28 12.09L13.71 14.49C13.71 14.49 13.6801 14.57 13.6901 14.61C13.6901 14.65 13.7201 14.69 13.7601 14.71C13.8301 14.76 13.9401 14.74 13.9901 14.66L15.66 12.12C15.7 12.07 15.7 12 15.66 11.94L13.9901 9.39999C13.9901 9.39999 13.93 9.33998 13.89 9.32998C13.88 9.32998 13.8701 9.32998 13.8601 9.32998H13.8501Z" fill="white"/>
<path d="M12.4801 7.12987C12.3401 7.07987 12.19 7.14991 12.14 7.28991L8.83007 16.2799C8.78007 16.4199 8.8501 16.5699 8.9901 16.6199C9.0201 16.6299 9.05007 16.6399 9.08007 16.6399C9.19007 16.6399 9.29007 16.5699 9.33007 16.4699L12.64 7.47991C12.69 7.33991 12.6201 7.18988 12.4801 7.13988V7.12987Z" fill="white"/>
<path d="M9.08017 16.73C9.08017 16.73 9.00017 16.73 8.96017 16.71C8.77017 16.64 8.68021 16.43 8.75021 16.25L12.0602 7.25997C12.1302 7.06997 12.3402 6.98001 12.5202 7.05001C12.7102 7.12001 12.8002 7.32997 12.7302 7.50997L9.4202 16.5C9.3702 16.64 9.23017 16.74 9.08017 16.74V16.73ZM12.3902 7.21999C12.3202 7.21999 12.2602 7.25998 12.2402 7.32998L8.93021 16.32C8.90021 16.4 8.94018 16.5 9.03018 16.53C9.11018 16.56 9.2102 16.52 9.2402 16.43L12.5502 7.43996C12.5802 7.35996 12.5402 7.26 12.4502 7.23C12.4302 7.23 12.4102 7.23 12.3902 7.23V7.21999Z" fill="white"/>
</svg>
