<svg width="22" height="22" viewBox="0 0 22 22" fill="none" xmlns="http://www.w3.org/2000/svg">
<path d="M8.93981 10.3801C6.37981 10.3801 4.2998 8.30008 4.2998 5.74008C4.2998 3.18008 6.37981 1.1001 8.93981 1.1001C11.4998 1.1001 13.5798 3.18008 13.5798 5.74008C13.5798 8.30008 11.4998 10.3801 8.93981 10.3801ZM8.93981 1.62009C6.66981 1.62009 4.82983 3.4701 4.82983 5.7301C4.82983 7.9901 6.67981 9.84009 8.93981 9.84009C11.1998 9.84009 13.0498 7.9901 13.0498 5.7301C13.0498 3.4701 11.1998 1.62009 8.93981 1.62009Z" fill="white"/>
<path d="M8.94019 10.48C6.33019 10.48 4.2002 8.34999 4.2002 5.73999C4.2002 3.12999 6.33019 1 8.94019 1C11.5502 1 13.6802 3.11999 13.6802 5.73999C13.6802 8.35999 11.5502 10.48 8.94019 10.48ZM8.94019 1.20001C6.44019 1.20001 4.40021 3.23999 4.40021 5.73999C4.40021 8.23999 6.44019 10.28 8.94019 10.28C11.4402 10.28 13.4802 8.23999 13.4802 5.73999C13.4802 3.23999 11.4402 1.20001 8.94019 1.20001ZM8.94019 9.95001C6.62019 9.95001 4.73017 8.05999 4.73017 5.73999C4.73017 3.41999 6.62019 1.53 8.94019 1.53C11.2602 1.53 13.1502 3.41999 13.1502 5.73999C13.1502 8.05999 11.2602 9.95001 8.94019 9.95001ZM8.94019 1.72C6.73019 1.72 4.92017 3.51999 4.92017 5.73999C4.92017 7.95999 6.72019 9.76001 8.94019 9.76001C11.1602 9.76001 12.9602 7.95999 12.9602 5.73999C12.9602 3.51999 11.1602 1.72 8.94019 1.72Z" fill="white"/>
<path d="M14.7501 20.0101H3.36011C3.22011 20.0101 3.1001 19.8901 3.1001 19.7501V15.8201C3.1001 12.5401 5.77012 9.86011 9.06012 9.86011C12.3501 9.86011 15.0201 12.5301 15.0201 15.8201V19.7501C15.0201 19.8901 14.9001 20.0101 14.7601 20.0101H14.7501ZM3.62012 19.4801H14.4801V15.8101C14.4801 12.8101 12.0401 10.3801 9.05011 10.3801C6.06011 10.3801 3.62012 12.8201 3.62012 15.8101V19.4801Z" fill="white"/>
<path d="M14.75 20.1H3.35999C3.15999 20.1 3 19.94 3 19.74V15.81C3 12.47 5.71999 9.76001 9.04999 9.76001C12.38 9.76001 15.1 12.48 15.1 15.81V19.74C15.1 19.94 14.94 20.1 14.74 20.1H14.75ZM9.04999 9.95001C5.81999 9.95001 3.19 12.58 3.19 15.81V19.74C3.19 19.83 3.25998 19.9 3.34998 19.9H14.74C14.83 19.9 14.9 19.83 14.9 19.74V15.81C14.9 12.58 12.27 9.95001 9.03998 9.95001H9.04999ZM14.49 19.58H3.63C3.58 19.58 3.53003 19.54 3.53003 19.48V15.81C3.53003 12.76 6.01 10.28 9.06 10.28C12.11 10.28 14.59 12.76 14.59 15.81V19.48C14.59 19.53 14.55 19.58 14.49 19.58ZM3.71997 19.38H14.39V15.81C14.39 12.87 12 10.48 9.06 10.48C6.12 10.48 3.72998 12.87 3.72998 15.81V19.38H3.71997Z" fill="white"/>
<path d="M13.12 11.36C12 11.36 10.95 10.92 10.16 10.13C10.06 10.03 10.06 9.85998 10.16 9.75998C10.26 9.65998 10.43 9.65998 10.53 9.75998C11.22 10.45 12.14 10.83 13.12 10.83C15.14 10.83 16.79 9.17997 16.79 7.15997C16.79 5.13997 15.14 3.48996 13.12 3.48996C12.94 3.48996 12.76 3.49997 12.58 3.52997C12.44 3.54997 12.3 3.44997 12.28 3.30997C12.26 3.16997 12.36 3.02998 12.5 3.00998C12.7 2.97998 12.91 2.96997 13.11 2.96997C15.42 2.96997 17.3 4.84997 17.3 7.15997C17.3 9.46997 15.42 11.35 13.11 11.35L13.12 11.36Z" fill="white"/>
<path d="M13.1198 11.4599C11.9698 11.4599 10.8998 11.0099 10.0898 10.1999C9.94988 10.0599 9.94988 9.82988 10.0898 9.68988C10.2298 9.54988 10.4598 9.54988 10.5998 9.68988C11.2698 10.3599 12.1698 10.7399 13.1198 10.7399C15.0898 10.7399 16.6898 9.13989 16.6898 7.16989C16.6898 5.19989 15.0898 3.59988 13.1198 3.59988C12.9398 3.59988 12.7698 3.60989 12.5998 3.63989C12.5098 3.65989 12.4098 3.6399 12.3398 3.5799C12.2598 3.5199 12.2098 3.43987 12.1998 3.33987C12.1898 3.23987 12.1998 3.14989 12.2698 3.06989C12.3298 2.98989 12.4098 2.93987 12.5098 2.92987C12.7198 2.89987 12.9298 2.87988 13.1398 2.87988C15.5098 2.87988 17.4298 4.79989 17.4298 7.16989C17.4298 9.53989 15.5098 11.4599 13.1398 11.4599H13.1198ZM10.3398 9.78989C10.3398 9.78989 10.2598 9.80987 10.2198 9.83987C10.1598 9.89987 10.1598 10.0099 10.2198 10.0699C10.9898 10.8399 12.0198 11.2699 13.1098 11.2699C15.3698 11.2699 17.1998 9.42987 17.1998 7.17987C17.1998 4.92987 15.3598 3.08987 13.1098 3.08987C12.9098 3.08987 12.7098 3.09988 12.5098 3.12988C12.4698 3.12988 12.4298 3.15988 12.3998 3.18988C12.3698 3.22988 12.3598 3.26988 12.3698 3.30988C12.3698 3.34988 12.3998 3.38989 12.4398 3.41989C12.4698 3.44989 12.5198 3.45989 12.5598 3.44989C12.7398 3.41989 12.9298 3.40988 13.1098 3.40988C15.1898 3.40988 16.8798 5.09987 16.8798 7.17987C16.8798 9.25987 15.1898 10.9499 13.1098 10.9499C12.0998 10.9499 11.1598 10.5599 10.4498 9.84988C10.4198 9.81988 10.3798 9.7999 10.3298 9.7999L10.3398 9.78989Z" fill="white"/>
<path d="M18.3302 20.0101H14.7502C14.6102 20.0101 14.4902 19.8901 14.4902 19.7501C14.4902 19.6101 14.6102 19.4901 14.7502 19.4901H18.0702V16.2201C18.0702 13.5501 15.9402 11.3701 13.3102 11.3701C13.0402 11.3701 12.7702 11.3901 12.5102 11.4401C12.3702 11.4601 12.2303 11.3701 12.2103 11.2301C12.1903 11.0901 12.2802 10.9501 12.4202 10.9301C12.7102 10.8801 13.0102 10.8501 13.3102 10.8501C16.2202 10.8501 18.5903 13.2601 18.5903 16.2201V19.7501C18.5903 19.8901 18.4702 20.0101 18.3302 20.0101Z" fill="white"/>
<path d="M18.33 20.1H14.75C14.55 20.1 14.39 19.94 14.39 19.74C14.39 19.54 14.55 19.38 14.75 19.38H17.97V16.21C17.97 13.59 15.88 11.46 13.31 11.46C13.05 11.46 12.78 11.48 12.53 11.53C12.33 11.56 12.15 11.43 12.11 11.24C12.09 11.15 12.11 11.05 12.17 10.97C12.23 10.89 12.31 10.84 12.4 10.82C12.7 10.77 13 10.74 13.31 10.74C16.28 10.74 18.69 13.19 18.69 16.21V19.74C18.69 19.94 18.53 20.1 18.33 20.1ZM14.75 19.58C14.66 19.58 14.59 19.65 14.59 19.74C14.59 19.83 14.66 19.9 14.75 19.9H18.33C18.42 19.9 18.49 19.83 18.49 19.74V16.21C18.49 13.3 16.16 10.93 13.31 10.93C13.02 10.93 12.72 10.96 12.44 11C12.4 11 12.36 11.03 12.33 11.07C12.31 11.11 12.3 11.15 12.3 11.19C12.32 11.28 12.4 11.34 12.49 11.32C12.76 11.27 13.03 11.25 13.31 11.25C15.99 11.25 18.17 13.47 18.17 16.2V19.47C18.17 19.52 18.13 19.57 18.07 19.57H14.75V19.58Z" fill="white"/>
</svg>
