<svg width="22" height="22" viewBox="0 0 22 22" fill="none" xmlns="http://www.w3.org/2000/svg">
<path d="M19.9701 16.4001H1.36011C1.22011 16.4001 1.1001 16.2801 1.1001 16.1401V2.36009C1.1001 2.22009 1.22011 2.1001 1.36011 2.1001H19.9701C20.1101 2.1001 20.2301 2.22009 20.2301 2.36009V16.1401C20.2301 16.2801 20.1101 16.4001 19.9701 16.4001ZM1.62012 15.8801H19.7001V2.6201H1.62012V15.8801Z" fill="white"/>
<path d="M19.97 16.5H1.35999C1.15999 16.5 1 16.34 1 16.14V2.36C1 2.16 1.15999 2 1.35999 2H19.97C20.17 2 20.33 2.16 20.33 2.36V16.14C20.33 16.34 20.17 16.5 19.97 16.5ZM1.35999 2.19C1.26999 2.19 1.20001 2.26001 1.20001 2.35001V16.13C1.20001 16.22 1.26999 16.29 1.35999 16.29H19.97C20.06 16.29 20.13 16.22 20.13 16.13V2.35001C20.13 2.26001 20.06 2.19 19.97 2.19H1.35999ZM19.71 15.98H1.63C1.58 15.98 1.53003 15.94 1.53003 15.88V2.62001C1.53003 2.57001 1.57 2.52 1.63 2.52H19.71C19.76 2.52 19.81 2.56001 19.81 2.62001V15.88C19.81 15.93 19.77 15.98 19.71 15.98ZM1.71997 15.78H19.61V2.72H1.71997V15.78Z" fill="white"/>
<path d="M8.26978 19.4001C8.12978 19.4001 8.00977 19.2801 8.00977 19.1401V16.1501C8.00977 16.0101 8.12978 15.8901 8.26978 15.8901C8.40978 15.8901 8.52979 16.0101 8.52979 16.1501V19.1401C8.52979 19.2801 8.40978 19.4001 8.26978 19.4001Z" fill="white"/>
<path d="M8.27021 19.49C8.07021 19.49 7.91016 19.33 7.91016 19.13V16.14C7.91016 15.94 8.07021 15.78 8.27021 15.78C8.47021 15.78 8.63019 15.94 8.63019 16.14V19.13C8.63019 19.33 8.47021 19.49 8.27021 19.49ZM8.27021 15.98C8.18021 15.98 8.11018 16.05 8.11018 16.14V19.13C8.11018 19.22 8.18021 19.29 8.27021 19.29C8.36021 19.29 8.43018 19.22 8.43018 19.13V16.14C8.43018 16.05 8.36021 15.98 8.27021 15.98Z" fill="white"/>
<path d="M13.0701 19.4001C12.9301 19.4001 12.8101 19.2801 12.8101 19.1401V16.1501C12.8101 16.0101 12.9301 15.8901 13.0701 15.8901C13.2101 15.8901 13.3301 16.0101 13.3301 16.1501V19.1401C13.3301 19.2801 13.2101 19.4001 13.0701 19.4001Z" fill="white"/>
<path d="M13.07 19.49C12.87 19.49 12.71 19.33 12.71 19.13V16.14C12.71 15.94 12.87 15.78 13.07 15.78C13.27 15.78 13.43 15.94 13.43 16.14V19.13C13.43 19.33 13.27 19.49 13.07 19.49ZM13.07 15.98C12.98 15.98 12.91 16.05 12.91 16.14V19.13C12.91 19.22 12.98 19.29 13.07 19.29C13.16 19.29 13.23 19.22 13.23 19.13V16.14C13.23 16.05 13.16 15.98 13.07 15.98Z" fill="white"/>
<path d="M19.6901 14H1.36011C1.22011 14 1.1001 13.88 1.1001 13.74C1.1001 13.6 1.22011 13.48 1.36011 13.48H19.6901C19.8301 13.48 19.9501 13.6 19.9501 13.74C19.9501 13.88 19.8301 14 19.6901 14Z" fill="white"/>
<path d="M19.69 14.0999H1.35999C1.15999 14.0999 1 13.9399 1 13.7399C1 13.5399 1.15999 13.3799 1.35999 13.3799H19.69C19.89 13.3799 20.05 13.5399 20.05 13.7399C20.05 13.9399 19.89 14.0999 19.69 14.0999ZM1.35999 13.5799C1.26999 13.5799 1.20001 13.6499 1.20001 13.7399C1.20001 13.8299 1.26999 13.8999 1.35999 13.8999H19.69C19.78 13.8999 19.85 13.8299 19.85 13.7399C19.85 13.6499 19.78 13.5799 19.69 13.5799H1.35999Z" fill="white"/>
<path d="M15.3399 19.6401H5.94995C5.80995 19.6401 5.68994 19.5201 5.68994 19.3801C5.68994 19.2401 5.80995 19.1201 5.94995 19.1201H15.3399C15.4799 19.1201 15.5999 19.2401 15.5999 19.3801C15.5999 19.5201 15.4799 19.6401 15.3399 19.6401Z" fill="white"/>
<path d="M15.3398 19.73H5.94982C5.74982 19.73 5.58984 19.57 5.58984 19.37C5.58984 19.17 5.74982 19.01 5.94982 19.01H15.3398C15.5398 19.01 15.6998 19.17 15.6998 19.37C15.6998 19.57 15.5398 19.73 15.3398 19.73ZM5.94982 19.21C5.85982 19.21 5.78979 19.28 5.78979 19.37C5.78979 19.46 5.85982 19.53 5.94982 19.53H15.3398C15.4298 19.53 15.4998 19.46 15.4998 19.37C15.4998 19.28 15.4298 19.21 15.3398 19.21H5.94982Z" fill="white"/>
</svg>
