<svg width="22" height="22" viewBox="0 0 22 22" fill="none" xmlns="http://www.w3.org/2000/svg">
<path d="M10.6601 13.45C12.0601 13.54 13.2401 12.5 13.4001 11.16H13.9301V10.98C13.9301 10.24 13.7002 9.51003 13.2302 8.94003C12.6302 8.21003 11.7601 7.80005 10.8301 7.80005H10.5701V8.28003C9.21008 8.42003 8.16012 9.61005 8.24012 11.02C8.31012 12.31 9.38013 13.38 10.6702 13.46L10.6601 13.45ZM11.0801 8.33005C11.6701 8.39005 12.2201 8.65004 12.6401 9.07004C13.0701 9.49004 13.3201 10.04 13.3801 10.63H11.0801V8.33005ZM10.5601 8.80005V10.66C10.5601 10.93 10.7801 11.16 11.0601 11.16H12.8701C12.7201 12.2 11.7901 12.99 10.7001 12.93C9.66008 12.87 8.80007 12.01 8.75007 10.97C8.69007 9.87003 9.50008 8.94003 10.5601 8.81003V8.80005Z" fill="white"/>
<path d="M10.8199 13.55C10.7599 13.55 10.7099 13.55 10.6499 13.55C9.30991 13.47 8.19989 12.36 8.12989 11.02C8.04989 9.59996 9.06991 8.37994 10.4599 8.18994V7.79996C10.4599 7.74996 10.4999 7.69995 10.5599 7.69995H10.8199C11.7799 7.69995 12.68 8.12993 13.3 8.86993C13.77 9.43993 14.0199 10.1799 14.0199 10.9799V11.1599C14.0199 11.2099 13.9799 11.2599 13.9199 11.2599H13.4799C13.2799 12.5799 12.1399 13.55 10.8099 13.55H10.8199ZM10.6599 13.3499C11.9899 13.4299 13.14 12.4599 13.3 11.1499C13.3 11.0999 13.3499 11.0599 13.3999 11.0599H13.8299V10.9699C13.8299 10.2199 13.5899 9.51996 13.1499 8.98996C12.5699 8.28996 11.7199 7.88995 10.8199 7.88995H10.6599V8.26996C10.6599 8.31996 10.6199 8.35993 10.5699 8.36993C9.22989 8.49993 8.2499 9.65994 8.3299 10.9999C8.3999 12.2399 9.42993 13.2699 10.6699 13.3499H10.6599ZM10.8199 13.02C10.8199 13.02 10.7399 13.02 10.6899 13.02C9.59989 12.96 8.69991 12.0599 8.64991 10.9699C8.58991 9.83994 9.41992 8.84995 10.5399 8.69995C10.5699 8.69995 10.5999 8.69994 10.6199 8.71994C10.6399 8.73994 10.6499 8.76995 10.6499 8.78995V10.6499C10.6499 10.8699 10.83 11.05 11.05 11.05H12.86C12.86 11.05 12.9199 11.06 12.9299 11.08C12.9499 11.1 12.9599 11.1299 12.9499 11.1599C12.7899 12.2399 11.8799 13.0099 10.8099 13.0099L10.8199 13.02ZM10.4599 8.90994C9.49991 9.08994 8.79992 9.96995 8.84992 10.95C8.89992 11.94 9.71991 12.7599 10.7099 12.8199C11.7099 12.8799 12.5599 12.2099 12.7599 11.2499H11.0599C10.7299 11.2499 10.4699 10.9799 10.4699 10.6599V8.90994H10.4599ZM13.3899 10.7299H11.0899C11.0399 10.7299 10.99 10.6899 10.99 10.6299V8.32996C10.99 8.32996 10.9999 8.27995 11.0199 8.25995C11.0399 8.23995 11.0699 8.22996 11.0999 8.23996C11.7199 8.29996 12.2799 8.56995 12.7199 9.00995C13.1599 9.44995 13.43 10.0099 13.49 10.6299C13.49 10.6599 13.4899 10.69 13.4699 10.71C13.4499 10.73 13.4199 10.74 13.3999 10.74L13.3899 10.7299ZM11.1799 10.5299H13.2799C13.1999 9.99994 12.9599 9.51995 12.5799 9.13995C12.1999 8.75995 11.7199 8.51994 11.1899 8.43994V10.5399L11.1799 10.5299Z" fill="white"/>
<path d="M1.35993 3.62006H10.5799V5.53006H3.72992C3.58992 5.53006 3.46991 5.65007 3.46991 5.79007V15.2001C3.46991 15.3401 3.58992 15.4601 3.72992 15.4601H10.1899L5.81989 19.6001C5.71989 19.7001 5.70989 19.8701 5.81989 19.9701C5.91989 20.0801 6.08988 20.0801 6.18988 19.9701L10.5999 15.7901V19.7801C10.5999 19.9201 10.7199 20.0401 10.8599 20.0401C10.9999 20.0401 11.1199 19.9201 11.1199 19.7801V15.8001L15.4299 19.9701C15.4799 20.0201 15.5499 20.0401 15.6099 20.0401C15.6699 20.0401 15.7499 20.0101 15.7999 19.9601C15.8999 19.8601 15.8999 19.6901 15.7999 19.5901L11.5199 15.4401H17.8999C18.0399 15.4401 18.1599 15.3201 18.1599 15.1801V5.77008C18.1599 5.63008 18.0399 5.51007 17.8999 5.51007H11.1299V3.60007H20.3499C20.4899 3.60007 20.6099 3.48006 20.6099 3.34006C20.6099 3.20006 20.4899 3.08008 20.3499 3.08008H1.38989C1.24989 3.08008 1.12988 3.20006 1.12988 3.34006C1.12988 3.48006 1.24989 3.60007 1.38989 3.60007L1.35993 3.62006ZM17.6099 6.05008V14.9401H3.98993V6.05008H17.6099Z" fill="white"/>
<path d="M5.99005 20.16C5.89005 20.16 5.80005 20.12 5.74005 20.05C5.67005 19.98 5.64001 19.89 5.64001 19.79C5.64001 19.69 5.68 19.6 5.75 19.54L9.94 15.56H3.73004C3.53004 15.56 3.37 15.4 3.37 15.2V5.79001C3.37 5.59001 3.53004 5.42999 3.73004 5.42999H10.48V3.72H1.36005C1.16005 3.72 1 3.56002 1 3.36002C1 3.16002 1.16005 3 1.36005 3H20.32C20.52 3 20.68 3.16002 20.68 3.36002C20.68 3.56002 20.52 3.72 20.32 3.72H11.2V5.42999H17.87C18.07 5.42999 18.23 5.59001 18.23 5.79001V15.2C18.23 15.4 18.07 15.56 17.87 15.56H11.73L15.84 19.54C15.91 19.61 15.95 19.7 15.95 19.79C15.95 19.89 15.92 19.98 15.85 20.05C15.72 20.19 15.48 20.19 15.34 20.05L11.2 16.04V19.79C11.2 19.99 11.04 20.15 10.84 20.15C10.64 20.15 10.48 19.99 10.48 19.79V16.03L6.24005 20.05C6.17005 20.11 6.09005 20.15 5.99005 20.15V20.16ZM3.73004 5.63C3.64004 5.63 3.57001 5.70001 3.57001 5.79001V15.2C3.57001 15.29 3.64004 15.36 3.73004 15.36H10.19C10.19 15.36 10.27 15.38 10.28 15.42C10.29 15.46 10.28 15.5 10.26 15.53L5.89001 19.67C5.89001 19.67 5.84003 19.74 5.84003 19.78C5.84003 19.82 5.85001 19.87 5.89001 19.9C5.92001 19.93 5.96 19.95 6 19.95C6.04 19.95 6.08 19.94 6.12 19.91L10.53 15.73C10.53 15.73 10.6 15.7 10.64 15.71C10.68 15.73 10.7 15.76 10.7 15.8V19.79C10.7 19.88 10.77 19.95 10.86 19.95C10.95 19.95 11.02 19.88 11.02 19.79V15.81C11.02 15.81 11.04 15.74 11.08 15.72C11.12 15.7 11.16 15.72 11.19 15.74L15.5 19.91C15.56 19.97 15.67 19.97 15.73 19.91C15.79 19.85 15.79 19.74 15.73 19.68L11.45 15.53C11.45 15.53 11.41 15.46 11.43 15.42C11.45 15.38 11.48 15.36 11.52 15.36H17.9C17.99 15.36 18.06 15.29 18.06 15.2V5.79001C18.06 5.70001 17.99 5.63 17.9 5.63H11.13C11.08 5.63 11.03 5.59 11.03 5.53V3.62C11.03 3.57 11.07 3.52002 11.13 3.52002H20.35C20.44 3.52002 20.51 3.45002 20.51 3.36002C20.51 3.27002 20.44 3.20001 20.35 3.20001H1.39001C1.30001 3.20001 1.23004 3.27002 1.23004 3.36002C1.23004 3.45002 1.30001 3.52002 1.39001 3.52002H10.61C10.66 3.52002 10.71 3.56 10.71 3.62V5.53C10.71 5.58 10.67 5.63 10.61 5.63H3.76001H3.73004ZM17.61 15.04H3.99005C3.94005 15.04 3.89001 15 3.89001 14.94V6.05002C3.89001 6.00002 3.93005 5.95001 3.99005 5.95001H17.61C17.66 5.95001 17.71 5.99002 17.71 6.05002V14.94C17.71 14.99 17.67 15.04 17.61 15.04ZM4.09003 14.84H17.51V6.14999H4.09003V14.84Z" fill="white"/>
</svg>
