<svg width="22" height="22" viewBox="0 0 22 22" fill="none" xmlns="http://www.w3.org/2000/svg">
<path d="M9.41979 15.7401C5.37979 15.7401 2.08984 12.4501 2.08984 8.41015C2.08984 4.37015 5.37979 1.08008 9.41979 1.08008C13.4598 1.08008 16.7499 4.37015 16.7499 8.41015C16.7499 12.4501 13.4598 15.7401 9.41979 15.7401ZM9.41979 1.61011C5.66979 1.61011 2.61987 4.66015 2.61987 8.41015C2.61987 12.1601 5.66979 15.2101 9.41979 15.2101C13.1698 15.2101 16.2199 12.1601 16.2199 8.41015C16.2199 4.66015 13.1698 1.61011 9.41979 1.61011Z" fill="white"/>
<path d="M9.41992 15.84C5.32992 15.84 2 12.51 2 8.42004C2 4.33004 5.32992 1 9.41992 1C13.5099 1 16.84 4.33004 16.84 8.42004C16.84 12.51 13.5099 15.84 9.41992 15.84ZM9.41992 1.18005C5.42992 1.18005 2.18994 4.42003 2.18994 8.41003C2.18994 12.4 5.42992 15.64 9.41992 15.64C13.4099 15.64 16.6499 12.4 16.6499 8.41003C16.6499 4.42003 13.4099 1.18005 9.41992 1.18005ZM9.41992 15.3101C5.60992 15.3101 2.5199 12.21 2.5199 8.41003C2.5199 4.61003 5.61992 1.51001 9.41992 1.51001C13.2199 1.51001 16.3199 4.61003 16.3199 8.41003C16.3199 12.21 13.2199 15.3101 9.41992 15.3101ZM9.41992 1.70996C5.71992 1.70996 2.71997 4.72003 2.71997 8.41003C2.71997 12.1 5.72992 15.11 9.41992 15.11C13.1099 15.11 16.12 12.1 16.12 8.41003C16.12 4.72003 13.1099 1.70996 9.41992 1.70996Z" fill="white"/>
<path d="M18.6398 20.3901C18.5698 20.3901 18.4898 20.3601 18.4398 20.3001L13.3499 14.3102C13.2599 14.2002 13.2698 14.0302 13.3798 13.9402C13.4898 13.8502 13.6599 13.8601 13.7499 13.9701L18.8399 19.9601C18.9299 20.0701 18.9198 20.2401 18.8098 20.3301C18.7598 20.3701 18.6998 20.3901 18.6398 20.3901Z" fill="white"/>
<path d="M18.64 20.4899C18.53 20.4899 18.4301 20.4399 18.3701 20.3599L13.28 14.3699C13.15 14.2199 13.1701 13.9899 13.3201 13.8599C13.4701 13.7299 13.7001 13.7499 13.8301 13.8999L18.92 19.8899C19.05 20.0399 19.03 20.2699 18.88 20.3999C18.81 20.4599 18.73 20.4899 18.65 20.4899H18.64ZM13.55 13.9799C13.55 13.9799 13.47 13.9899 13.44 14.0199C13.37 14.0799 13.36 14.1799 13.42 14.2499L18.51 20.2399C18.57 20.3099 18.6701 20.3199 18.7401 20.2599C18.8101 20.1999 18.82 20.0999 18.76 20.0299L13.67 14.0399C13.67 14.0399 13.59 13.9799 13.54 13.9799H13.55Z" fill="white"/>
</svg>
