<svg width="22" height="22" viewBox="0 0 22 22" fill="none" xmlns="http://www.w3.org/2000/svg">
<path d="M1.36011 3.1001C1.34011 3.1001 1.32011 3.10011 1.30011 3.11011C1.29011 3.11011 1.27013 3.11011 1.26013 3.11011C1.25013 3.11011 1.24016 3.13012 1.23016 3.13012C1.21016 3.14012 1.19011 3.1501 1.18011 3.1701C1.18011 3.1701 1.17015 3.19013 1.16015 3.20013C1.15015 3.22013 1.14012 3.23012 1.13012 3.25012C1.13012 3.27012 1.13012 3.29012 1.12012 3.31012C1.12012 3.32012 1.12012 3.3301 1.12012 3.3501V17.0301C1.12012 17.1701 1.24012 17.2901 1.38012 17.2901H11.5601C11.7001 17.2901 11.8201 17.1701 11.8201 17.0301C11.8201 16.8901 11.7001 16.7701 11.5601 16.7701H1.64013V3.95013L10.5501 12.1901C10.6001 12.2401 10.6601 12.2601 10.7301 12.2601C10.8001 12.2601 10.8601 12.2401 10.9101 12.1901L19.8201 3.95013V16.7701H18.9701C18.8301 16.7701 18.7101 16.8901 18.7101 17.0301C18.7101 17.1701 18.8301 17.2901 18.9701 17.2901H20.0801C20.2201 17.2901 20.3401 17.1701 20.3401 17.0301V3.3501C20.3401 3.3501 20.3401 3.33012 20.3401 3.31012C20.3401 3.29012 20.3401 3.27012 20.3301 3.25012C20.3301 3.23012 20.3101 3.22013 20.3001 3.20013C20.3001 3.19013 20.2901 3.1801 20.2801 3.1701C20.2701 3.1601 20.2501 3.15012 20.2301 3.13012C20.2201 3.13012 20.2101 3.11011 20.2001 3.11011C20.1901 3.11011 20.1701 3.11011 20.1601 3.11011C20.1401 3.11011 20.1201 3.1001 20.1001 3.1001H1.39013H1.36011ZM10.7101 11.6401L2.03015 3.62012H19.4001L10.7201 11.6401H10.7101Z" fill="white"/>
<path d="M20.07 17.39H18.96C18.76 17.39 18.6 17.23 18.6 17.03C18.6 16.83 18.76 16.67 18.96 16.67H19.71V4.17999L10.96 12.26C10.83 12.38 10.6 12.38 10.47 12.26L1.72003 4.17999V16.67H11.54C11.74 16.67 11.9 16.83 11.9 17.03C11.9 17.23 11.74 17.39 11.54 17.39H1.35999C1.15999 17.39 1 17.23 1 17.03V3.34998C1 3.34998 1 3.30999 1 3.29999C1 3.26999 1.00002 3.23997 1.02002 3.21997C1.03002 3.18997 1.04 3.16997 1.06 3.15997C1.07 3.13997 1.08003 3.12999 1.09003 3.10999C1.09003 3.10999 1.09999 3.09998 1.10999 3.09998C1.12999 3.07998 1.14003 3.07001 1.16003 3.07001C1.16003 3.07001 1.21003 3.03997 1.22003 3.02997C1.24003 3.02997 1.26002 3.02002 1.27002 3.02002C1.30002 3.02002 1.32999 3 1.35999 3H20.07C20.07 3 20.08 3 20.09 3C20.12 3 20.14 3.00001 20.16 3.01001C20.16 3.01001 20.22 3.01997 20.22 3.02997C20.24 3.02997 20.25 3.05 20.26 3.06C20.29 3.08 20.31 3.08999 20.33 3.10999C20.35 3.12999 20.36 3.14997 20.36 3.15997C20.38 3.18997 20.39 3.20998 20.4 3.22998C20.41 3.25998 20.41 3.27999 20.42 3.29999C20.42 3.29999 20.42 3.34999 20.42 3.35999V17.04C20.42 17.24 20.26 17.4 20.06 17.4L20.07 17.39ZM18.96 16.87C18.87 16.87 18.8 16.94 18.8 17.03C18.8 17.12 18.87 17.19 18.96 17.19H20.07C20.16 17.19 20.23 17.12 20.23 17.03V3.34998C20.23 3.34998 20.23 3.34002 20.23 3.33002C20.23 3.31002 20.23 3.29998 20.23 3.28998C20.23 3.28998 20.23 3.28002 20.22 3.27002L20.2 3.23999C20.2 3.23999 20.19 3.23998 20.18 3.22998L20.15 3.21002C20.15 3.21002 20.13 3.21002 20.12 3.21002C20.07 3.20002 20.07 3.21001 20.06 3.20001H1.38C1.38 3.20001 1.37003 3.20002 1.34003 3.21002L1.28003 3.22998L1.25 3.25L1.23999 3.27002C1.22999 3.29002 1.22003 3.29999 1.22003 3.29999V3.33997C1.22003 3.33997 1.22003 3.36 1.22003 3.37V17.04C1.22003 17.13 1.29 17.2 1.38 17.2H11.56C11.65 17.2 11.72 17.13 11.72 17.04C11.72 16.95 11.65 16.88 11.56 16.88H1.64001C1.59001 16.88 1.54004 16.84 1.54004 16.78V3.96002C1.54004 3.96002 1.56004 3.89 1.60004 3.87C1.64004 3.85 1.68002 3.87001 1.71002 3.89001L10.62 12.13C10.68 12.19 10.78 12.19 10.84 12.13L19.75 3.89001C19.75 3.89001 19.82 3.86 19.86 3.87C19.9 3.89 19.92 3.92002 19.92 3.96002V16.78C19.92 16.83 19.88 16.88 19.82 16.88H18.97L18.96 16.87ZM10.71 11.74C10.71 11.74 10.66 11.74 10.64 11.71L1.96002 3.69C1.96002 3.69 1.92 3.62002 1.94 3.58002C1.95 3.54002 1.99003 3.52002 2.03003 3.52002H19.4C19.4 3.52002 19.48 3.54002 19.49 3.58002C19.5 3.62002 19.49 3.66 19.47 3.69L10.79 11.71C10.79 11.71 10.75 11.74 10.72 11.74H10.71ZM2.28003 3.71997L10.71 11.51L19.14 3.71997H2.27002H2.28003Z" fill="white"/>
<path d="M15.2102 20.4698C13.2502 20.4698 11.6602 18.8799 11.6602 16.9199C11.6602 14.9599 13.2502 13.3699 15.2102 13.3699C17.1702 13.3699 18.7602 14.9599 18.7602 16.9199C18.7602 18.8799 17.1702 20.4698 15.2102 20.4698ZM15.2102 13.5699C13.3602 13.5699 11.8602 15.0699 11.8602 16.9199C11.8602 18.7699 13.3602 20.2699 15.2102 20.2699C17.0602 20.2699 18.5602 18.7699 18.5602 16.9199C18.5602 15.0699 17.0602 13.5699 15.2102 13.5699Z" fill="white"/>
<path d="M15.2098 20.5698C13.1998 20.5698 11.5698 18.9298 11.5698 16.9198C11.5698 14.9098 13.1998 13.2798 15.2098 13.2798C17.2198 13.2798 18.8498 14.9098 18.8498 16.9198C18.8498 18.9298 17.2098 20.5698 15.2098 20.5698ZM15.2098 13.6698C13.4098 13.6698 11.9498 15.1298 11.9498 16.9298C11.9498 18.7298 13.4098 20.1898 15.2098 20.1898C17.0098 20.1898 18.4698 18.7298 18.4698 16.9298C18.4698 15.1298 17.0098 13.6698 15.2098 13.6698Z" fill="white"/>
<path d="M15.2101 20.5698C13.2001 20.5698 11.5601 18.9398 11.5601 16.9298C11.5601 14.9198 13.2001 13.2798 15.2101 13.2798C17.2201 13.2798 18.8501 14.9198 18.8501 16.9298C18.8501 18.9398 17.2101 20.5698 15.2101 20.5698ZM15.2101 13.6698C13.4101 13.6698 11.9501 15.1298 11.9501 16.9298C11.9501 18.7298 13.4101 20.1898 15.2101 20.1898C17.0101 20.1898 18.4701 18.7298 18.4701 16.9298C18.4701 15.1298 17.0101 13.6698 15.2101 13.6698Z" fill="white"/>
<path d="M15.2102 20.6699C13.1502 20.6699 11.4702 18.9899 11.4702 16.9299C11.4702 14.8699 13.1502 13.1899 15.2102 13.1899C17.2702 13.1899 18.9502 14.8699 18.9502 16.9299C18.9502 18.9899 17.2702 20.6699 15.2102 20.6699ZM15.2102 13.3799C13.2502 13.3799 11.6602 14.9699 11.6602 16.9299C11.6602 18.8899 13.2502 20.4799 15.2102 20.4799C17.1702 20.4799 18.7602 18.8899 18.7602 16.9299C18.7602 14.9699 17.1702 13.3799 15.2102 13.3799ZM15.2102 20.2799C13.3602 20.2799 11.8602 18.7799 11.8602 16.9299C11.8602 15.0799 13.3602 13.58 15.2102 13.58C17.0602 13.58 18.5602 15.0799 18.5602 16.9299C18.5602 18.7799 17.0602 20.2799 15.2102 20.2799ZM15.2102 13.7599C13.4702 13.7599 12.0502 15.1799 12.0502 16.9199C12.0502 18.6599 13.4702 20.08 15.2102 20.08C16.9502 20.08 18.3702 18.6599 18.3702 16.9199C18.3702 15.1799 16.9502 13.7599 15.2102 13.7599Z" fill="white"/>
<path d="M15.2099 19.0698C15.1599 19.0698 15.1099 19.0298 15.1099 18.9698V14.9098C15.1099 14.8598 15.1499 14.8098 15.2099 14.8098C15.2699 14.8098 15.3099 14.8498 15.3099 14.9098V18.9698C15.3099 19.0198 15.2699 19.0698 15.2099 19.0698Z" fill="white"/>
<path d="M15.21 19.17C15.1 19.17 15.02 19.08 15.02 18.98V14.92C15.02 14.81 15.11 14.73 15.21 14.73C15.31 14.73 15.4 14.82 15.4 14.92V18.98C15.4 19.09 15.31 19.17 15.21 19.17Z" fill="white"/>
<path d="M15.21 19.17C15.1 19.17 15.02 19.08 15.02 18.98V14.92C15.02 14.81 15.11 14.73 15.21 14.73C15.31 14.73 15.4 14.82 15.4 14.92V18.98C15.4 19.09 15.31 19.17 15.21 19.17Z" fill="white"/>
<path d="M15.2099 19.2699C15.0499 19.2699 14.9199 19.1399 14.9199 18.9799V14.9199C14.9199 14.7599 15.0499 14.6299 15.2099 14.6299C15.3699 14.6299 15.4999 14.7599 15.4999 14.9199V18.9799C15.4999 19.1399 15.3699 19.2699 15.2099 19.2699ZM15.2099 14.8199C15.1599 14.8199 15.1099 14.8599 15.1099 14.9199V18.9799C15.1099 19.0299 15.1499 19.0799 15.2099 19.0799C15.2699 19.0799 15.3099 19.0399 15.3099 18.9799V14.9199C15.3099 14.8699 15.2699 14.8199 15.2099 14.8199Z" fill="white"/>
<path d="M17.2401 17.0401H13.1801C13.1301 17.0401 13.0801 17.0001 13.0801 16.9401C13.0801 16.8801 13.1201 16.8401 13.1801 16.8401H17.2401C17.2901 16.8401 17.3401 16.8801 17.3401 16.9401C17.3401 17.0001 17.3001 17.0401 17.2401 17.0401Z" fill="white"/>
<path d="M17.2402 17.14H13.1802C13.0702 17.14 12.9902 17.05 12.9902 16.95C12.9902 16.85 13.0802 16.76 13.1802 16.76H17.2402C17.3502 16.76 17.4302 16.85 17.4302 16.95C17.4302 17.05 17.3402 17.14 17.2402 17.14Z" fill="white"/>
<path d="M17.2402 17.14H13.1802C13.0702 17.14 12.9902 17.05 12.9902 16.95C12.9902 16.85 13.0802 16.76 13.1802 16.76H17.2402C17.3502 16.76 17.4302 16.85 17.4302 16.95C17.4302 17.05 17.3402 17.14 17.2402 17.14Z" fill="white"/>
<path d="M17.2401 17.2399H13.1801C13.0201 17.2399 12.8901 17.11 12.8901 16.95C12.8901 16.79 13.0201 16.6599 13.1801 16.6599H17.2401C17.4001 16.6599 17.5301 16.79 17.5301 16.95C17.5301 17.11 17.4001 17.2399 17.2401 17.2399ZM13.1801 16.8499C13.1301 16.8499 13.0801 16.89 13.0801 16.95C13.0801 17.01 13.1201 17.0499 13.1801 17.0499H17.2401C17.2901 17.0499 17.3401 17.01 17.3401 16.95C17.3401 16.89 17.3001 16.8499 17.2401 16.8499H13.1801Z" fill="white"/>
</svg>
