<svg width="22" height="22" viewBox="0 0 22 22" fill="none" xmlns="http://www.w3.org/2000/svg">
<path d="M5.44006 20.8999C5.44006 20.8999 5.37008 20.8999 5.33008 20.8799C5.23008 20.8399 5.1701 20.7399 5.1701 20.6399V17.0999H1.36005C1.22005 17.0999 1.1001 16.9799 1.1001 16.8399V4.15988C1.1001 4.01988 1.22005 3.8999 1.36005 3.8999H17.8001C17.9401 3.8999 18.0601 4.01988 18.0601 4.15988V16.8399C18.0601 16.9799 17.9401 17.0999 17.8001 17.0999H9.68005L5.61005 20.8299C5.61005 20.8299 5.50005 20.8999 5.43005 20.8999H5.44006ZM1.62006 16.5799H5.43005C5.57005 16.5799 5.69006 16.6999 5.69006 16.8399V20.0399L9.40008 16.6399C9.40008 16.6399 9.51008 16.5699 9.58008 16.5699H17.5401V4.41989H1.62006V16.5699V16.5799Z" fill="white"/>
<path d="M5.44 21C5.39 21 5.33999 20.99 5.29999 20.97C5.16999 20.91 5.08002 20.78 5.08002 20.64V17.2H1.35999C1.15999 17.2 1 17.0401 1 16.8401V4.16003C1 3.96003 1.15999 3.80005 1.35999 3.80005H17.8C18 3.80005 18.16 3.96003 18.16 4.16003V16.8401C18.16 17.0401 18 17.2 17.8 17.2H9.72003L5.67999 20.9001C5.60999 20.9601 5.53 20.9901 5.44 20.9901V21ZM1.35999 4.00003C1.26999 4.00003 1.20001 4.07003 1.20001 4.16003V16.8401C1.20001 16.9301 1.26999 17 1.35999 17H5.17004C5.22004 17 5.27002 17.04 5.27002 17.1V20.64C5.27002 20.7 5.31 20.76 5.37 20.79C5.43 20.82 5.49999 20.8 5.54999 20.76L9.62 17.03C9.62 17.03 9.66 17 9.69 17H17.81C17.9 17 17.97 16.9301 17.97 16.8401V4.16003C17.97 4.07003 17.9 4.00003 17.81 4.00003H1.37H1.35999ZM5.70001 20.14C5.70001 20.14 5.67003 20.14 5.66003 20.14C5.62003 20.12 5.60004 20.09 5.60004 20.05V16.85C5.60004 16.76 5.53 16.69 5.44 16.69H1.63C1.58 16.69 1.53003 16.6501 1.53003 16.5901V4.44003C1.53003 4.39003 1.57 4.34006 1.63 4.34006H17.55C17.6 4.34006 17.65 4.38003 17.65 4.44003V16.5901C17.65 16.6401 17.61 16.69 17.55 16.69H9.59003C9.59003 16.69 9.51004 16.71 9.48004 16.73L5.77002 20.13C5.77002 20.13 5.73001 20.16 5.70001 20.16V20.14ZM1.72003 16.48H5.44C5.64 16.48 5.79999 16.6401 5.79999 16.8401V19.82L9.34003 16.57C9.41003 16.51 9.49002 16.48 9.58002 16.48H17.44V4.52005H1.72003V16.48Z" fill="white"/>
<path d="M20.1099 15.7501H17.7999C17.6599 15.7501 17.5399 15.6301 17.5399 15.4901C17.5399 15.3501 17.6599 15.2301 17.7999 15.2301H19.8399V2.6401H3.91992V4.1701C3.91992 4.3101 3.79991 4.43011 3.65991 4.43011C3.51991 4.43011 3.3999 4.3101 3.3999 4.1701V2.38009C3.3999 2.24009 3.51991 2.12012 3.65991 2.12012H20.0999C20.2399 2.12012 20.3599 2.24009 20.3599 2.38009V15.5001C20.3599 15.6401 20.2399 15.7601 20.0999 15.7601L20.1099 15.7501Z" fill="white"/>
<path d="M20.1101 15.84H17.8001C17.6001 15.84 17.4401 15.68 17.4401 15.48C17.4401 15.28 17.6001 15.12 17.8001 15.12H19.7501V2.72H4.03009V4.15002C4.03009 4.35002 3.8701 4.51001 3.6701 4.51001C3.4701 4.51001 3.31006 4.35002 3.31006 4.15002V2.36002C3.31006 2.16002 3.4701 2 3.6701 2H20.1101C20.3101 2 20.4701 2.16002 20.4701 2.36002V15.48C20.4701 15.68 20.3101 15.84 20.1101 15.84ZM17.8001 15.32C17.7101 15.32 17.6401 15.39 17.6401 15.48C17.6401 15.57 17.7101 15.64 17.8001 15.64H20.1101C20.2001 15.64 20.2701 15.57 20.2701 15.48V2.36002C20.2701 2.27002 20.2001 2.20001 20.1101 2.20001H3.6701C3.5801 2.20001 3.51007 2.27002 3.51007 2.36002V4.15002C3.51007 4.24002 3.5801 4.31 3.6701 4.31C3.7601 4.31 3.83008 4.24002 3.83008 4.15002V2.62003C3.83008 2.57003 3.87005 2.52002 3.93005 2.52002H19.8501C19.9001 2.52002 19.9501 2.56003 19.9501 2.62003V15.21C19.9501 15.26 19.9101 15.31 19.8501 15.31H17.8101L17.8001 15.32Z" fill="white"/>
<path d="M16.0402 19.5499C15.9802 19.5499 15.9101 19.5298 15.8601 19.4798L13.1901 17.0298C13.0801 16.9298 13.0802 16.7698 13.1702 16.6598C13.2702 16.5498 13.4302 16.5499 13.5402 16.6399L15.7701 18.6799V16.8299C15.7701 16.6899 15.8902 16.5698 16.0302 16.5698C16.1702 16.5698 16.2902 16.6899 16.2902 16.8299V19.2798C16.2902 19.3798 16.2301 19.4799 16.1301 19.5199C16.1001 19.5299 16.0601 19.5398 16.0201 19.5398L16.0402 19.5499Z" fill="white"/>
<path d="M16.0398 19.64C15.9498 19.64 15.8598 19.61 15.7998 19.55L13.1298 17.1C12.9798 16.97 12.9698 16.74 13.1098 16.59C13.2398 16.44 13.4698 16.43 13.6198 16.57L15.6898 18.46V16.83C15.6898 16.63 15.8498 16.47 16.0498 16.47C16.2498 16.47 16.4098 16.63 16.4098 16.83V19.28C16.4098 19.42 16.3298 19.55 16.1898 19.61C16.1398 19.63 16.0998 19.64 16.0398 19.64ZM13.3698 16.67C13.3698 16.67 13.2798 16.69 13.2498 16.72C13.2198 16.75 13.2098 16.79 13.2098 16.84C13.2098 16.88 13.2298 16.92 13.2598 16.95L15.9298 19.4C15.9298 19.4 16.0498 19.46 16.1098 19.43C16.1698 19.4 16.2098 19.35 16.2098 19.28V16.83C16.2098 16.74 16.1398 16.67 16.0498 16.67C15.9598 16.67 15.8898 16.74 15.8898 16.83V18.68C15.8898 18.68 15.8698 18.75 15.8298 18.77C15.7898 18.79 15.7498 18.77 15.7198 18.75L13.4898 16.71C13.4898 16.71 13.4198 16.67 13.3798 16.67H13.3698Z" fill="white"/>
<path d="M15.3801 7.96994H3.67017C3.53017 7.96994 3.41016 7.84996 3.41016 7.70996C3.41016 7.56996 3.53017 7.44995 3.67017 7.44995H15.3801C15.5201 7.44995 15.6401 7.56996 15.6401 7.70996C15.6401 7.84996 15.5201 7.96994 15.3801 7.96994Z" fill="white"/>
<path d="M15.3801 8.0701H3.6701C3.4701 8.0701 3.31006 7.91011 3.31006 7.71011C3.31006 7.51011 3.4701 7.3501 3.6701 7.3501H15.3801C15.5801 7.3501 15.7401 7.51011 15.7401 7.71011C15.7401 7.91011 15.5801 8.0701 15.3801 8.0701ZM3.6701 7.55011C3.5801 7.55011 3.51007 7.62011 3.51007 7.71011C3.51007 7.80011 3.5801 7.87012 3.6701 7.87012H15.3801C15.4701 7.87012 15.5401 7.80011 15.5401 7.71011C15.5401 7.62011 15.4701 7.55011 15.3801 7.55011H3.6701Z" fill="white"/>
<path d="M15.3801 10.32H3.67017C3.53017 10.32 3.41016 10.2 3.41016 10.06C3.41016 9.92003 3.53017 9.80005 3.67017 9.80005H15.3801C15.5201 9.80005 15.6401 9.92003 15.6401 10.06C15.6401 10.2 15.5201 10.32 15.3801 10.32Z" fill="white"/>
<path d="M15.3801 10.4099H3.6701C3.4701 10.4099 3.31006 10.25 3.31006 10.05C3.31006 9.84996 3.4701 9.68994 3.6701 9.68994H15.3801C15.5801 9.68994 15.7401 9.84996 15.7401 10.05C15.7401 10.25 15.5801 10.4099 15.3801 10.4099ZM3.6701 9.88995C3.5801 9.88995 3.51007 9.95996 3.51007 10.05C3.51007 10.14 3.5801 10.21 3.6701 10.21H15.3801C15.4701 10.21 15.5401 10.14 15.5401 10.05C15.5401 9.95996 15.4701 9.88995 15.3801 9.88995H3.6701Z" fill="white"/>
<path d="M8.35017 12.6599H3.67017C3.53017 12.6599 3.41016 12.5399 3.41016 12.3999C3.41016 12.2599 3.53017 12.1399 3.67017 12.1399H8.35017C8.49017 12.1399 8.61012 12.2599 8.61012 12.3999C8.61012 12.5399 8.49017 12.6599 8.35017 12.6599Z" fill="white"/>
<path d="M8.3501 12.76H3.6701C3.4701 12.76 3.31006 12.6001 3.31006 12.4001C3.31006 12.2001 3.4701 12.04 3.6701 12.04H8.3501C8.5501 12.04 8.71008 12.2001 8.71008 12.4001C8.71008 12.6001 8.5501 12.76 8.3501 12.76ZM3.6701 12.23C3.5801 12.23 3.51007 12.3 3.51007 12.39C3.51007 12.48 3.5801 12.55 3.6701 12.55H8.3501C8.4401 12.55 8.51007 12.48 8.51007 12.39C8.51007 12.3 8.4401 12.23 8.3501 12.23H3.6701Z" fill="white"/>
</svg>
