<svg width="22" height="22" viewBox="0 0 22 22" fill="none" xmlns="http://www.w3.org/2000/svg">
<path d="M12.2302 16.4081C12.1202 16.4081 12.0302 16.3381 11.9902 16.2381L10.1402 11.4781L5.38021 9.49815C5.28021 9.45815 5.22021 9.3581 5.22021 9.2581C5.22021 9.1481 5.28021 9.05811 5.38021 9.01811L17.3302 4.11815C17.4302 4.07815 17.5402 4.09814 17.6202 4.17814C17.6902 4.25814 17.7202 4.36812 17.6702 4.46812L12.4602 16.2582C12.4202 16.3582 12.3202 16.4181 12.2202 16.4181L12.2302 16.4081ZM6.16021 9.2581L10.4302 11.0381C10.5002 11.0681 10.5502 11.1181 10.5702 11.1881L12.2302 15.4681L16.9202 4.84813L6.16021 9.2581Z" fill="white"/>
<path d="M12.2299 16.5082C12.0799 16.5082 11.9499 16.4182 11.8999 16.2782L10.0699 11.5582L5.34989 9.58818C5.20989 9.52818 5.12988 9.39817 5.12988 9.25817C5.12988 9.10817 5.21989 8.97821 5.34989 8.92821L17.2999 4.02819C17.4399 3.96819 17.5899 4.0082 17.6999 4.1082C17.7999 4.2182 17.8299 4.36817 17.7699 4.50817L12.5599 16.2981C12.4999 16.4281 12.3699 16.5082 12.2299 16.5082ZM17.4299 4.19817C17.4299 4.19817 17.3899 4.19818 17.3699 4.20818L5.41989 9.1082C5.35989 9.1382 5.31989 9.18817 5.31989 9.25817C5.31989 9.32817 5.35989 9.38819 5.41989 9.40819L10.1799 11.3882C10.1799 11.3882 10.2199 11.4182 10.2299 11.4482L12.0799 16.2082C12.0999 16.2682 12.1599 16.3082 12.2299 16.3082C12.2899 16.3082 12.3499 16.2682 12.3799 16.2082L17.5899 4.4182C17.6199 4.3582 17.5999 4.28821 17.5599 4.23821C17.5299 4.20821 17.4899 4.18816 17.4399 4.18816L17.4299 4.19817ZM12.2399 15.5682C12.2399 15.5682 12.1699 15.5382 12.1499 15.5082L10.4899 11.2282C10.4899 11.2282 10.4399 11.1582 10.3999 11.1382L6.12988 9.3582C6.12988 9.3582 6.06989 9.30818 6.06989 9.26818C6.06989 9.22818 6.08988 9.18821 6.12988 9.17821L16.8899 4.76818C16.8899 4.76818 16.9699 4.7682 16.9999 4.7882C17.0299 4.8182 17.0399 4.85818 17.0199 4.89818L12.3299 15.5182C12.3299 15.5182 12.2799 15.5782 12.2399 15.5782V15.5682ZM6.41989 9.25817L10.4699 10.9482C10.5599 10.9882 10.6299 11.0582 10.6699 11.1482L12.2399 15.2082L16.7299 5.02819L6.4099 9.25817H6.41989Z" fill="white"/>
<path d="M4.35973 17.3782C4.28973 17.3782 4.21973 17.3481 4.16973 17.2981C4.06973 17.1981 4.06973 17.0281 4.16973 16.9281L10.1498 11.0982C10.2498 10.9982 10.4198 10.9982 10.5198 11.0982C10.6198 11.1982 10.6198 11.3682 10.5198 11.4682L4.53973 17.2981C4.48973 17.3481 4.41973 17.3682 4.35973 17.3682V17.3782Z" fill="white"/>
<path d="M4.36 17.4781C4.26 17.4781 4.16999 17.4381 4.09999 17.3681C4.02999 17.2981 4 17.2081 4 17.1081C4 17.0081 4.04 16.9181 4.11 16.8581L10.09 11.0281C10.23 10.8881 10.46 10.8881 10.6 11.0281C10.74 11.1681 10.74 11.3981 10.6 11.5381L4.62 17.3681C4.55 17.4381 4.46 17.4681 4.37 17.4681L4.36 17.4781ZM10.34 11.1181C10.34 11.1181 10.26 11.1381 10.23 11.1681L4.25 16.9981C4.25 16.9981 4.2 17.0681 4.2 17.1081C4.2 17.1481 4.22 17.1981 4.25 17.2281C4.31 17.2881 4.42 17.2881 4.48 17.2281L10.46 11.3981C10.52 11.3381 10.53 11.2281 10.46 11.1681C10.43 11.1381 10.39 11.1181 10.34 11.1181Z" fill="white"/>
</svg>
