<svg width="22" height="22" viewBox="0 0 22 22" fill="none" xmlns="http://www.w3.org/2000/svg">
<path d="M5.71039 20.0698H1.41037C1.27037 20.0698 1.15039 19.9498 1.15039 19.8098V10.3098C1.15039 10.1698 1.27037 10.0498 1.41037 10.0498H5.71039C5.85039 10.0498 5.9704 10.1698 5.9704 10.3098V19.8098C5.9704 19.9498 5.85039 20.0698 5.71039 20.0698ZM1.67038 19.5498H5.45038V10.5698H1.67038V19.5498Z" fill="white"/>
<path d="M5.71029 20.17H1.41027C1.21027 20.17 1.05029 20.0099 1.05029 19.8099V10.3099C1.05029 10.1099 1.21027 9.94995 1.41027 9.94995H5.71029C5.91029 9.94995 6.07027 10.1099 6.07027 10.3099V19.8099C6.07027 20.0099 5.91029 20.17 5.71029 20.17ZM1.41027 10.1399C1.32027 10.1399 1.2503 10.2099 1.2503 10.2999V19.7999C1.2503 19.8899 1.32027 19.9599 1.41027 19.9599H5.71029C5.80029 19.9599 5.87029 19.8899 5.87029 19.7999V10.2999C5.87029 10.2099 5.80029 10.1399 5.71029 10.1399H1.41027ZM5.45028 19.6399H1.67028C1.62028 19.6399 1.57027 19.5999 1.57027 19.5399V10.5599C1.57027 10.5099 1.61028 10.4599 1.67028 10.4599H5.45028C5.50028 10.4599 5.55029 10.4999 5.55029 10.5599V19.5399C5.55029 19.5899 5.51028 19.6399 5.45028 19.6399ZM1.77029 19.45H5.35027V10.67H1.77029V19.45Z" fill="white"/>
<path d="M12.7606 20.0701H8.46069C8.32069 20.0701 8.20068 19.9501 8.20068 19.8101V5.8501C8.20068 5.7101 8.32069 5.59009 8.46069 5.59009H12.7606C12.9006 5.59009 13.0206 5.7101 13.0206 5.8501V19.8101C13.0206 19.9501 12.9006 20.0701 12.7606 20.0701ZM8.7207 19.5501H12.5007V6.11007H8.7207V19.5501Z" fill="white"/>
<path d="M12.7606 20.17H8.46061C8.26061 20.17 8.10059 20.01 8.10059 19.81V5.85001C8.10059 5.65001 8.26061 5.48999 8.46061 5.48999H12.7606C12.9606 5.48999 13.1206 5.65001 13.1206 5.85001V19.81C13.1206 20.01 12.9606 20.17 12.7606 20.17ZM8.46061 5.67999C8.37061 5.67999 8.30061 5.75 8.30061 5.84V19.8C8.30061 19.89 8.37061 19.96 8.46061 19.96H12.7606C12.8506 19.96 12.9206 19.89 12.9206 19.8V5.84C12.9206 5.75 12.8506 5.67999 12.7606 5.67999H8.46061ZM12.4906 19.64H8.71061C8.66061 19.64 8.6106 19.6 8.6106 19.54V6.10001C8.6106 6.05001 8.65061 6 8.71061 6H12.4906C12.5406 6 12.5906 6.04001 12.5906 6.10001V19.54C12.5906 19.59 12.5506 19.64 12.4906 19.64ZM8.82059 19.45H12.4006V6.20999H8.82059V19.45Z" fill="white"/>
<path d="M19.6406 20.0701H15.3407C15.2007 20.0701 15.0806 19.9501 15.0806 19.8101V1.36007C15.0806 1.22007 15.2007 1.1001 15.3407 1.1001H19.6406C19.7806 1.1001 19.9007 1.22007 19.9007 1.36007V19.8101C19.9007 19.9501 19.7806 20.0701 19.6406 20.0701ZM15.6006 19.5501H19.3806V1.62008H15.6006V19.5501Z" fill="white"/>
<path d="M19.6405 20.17H15.3405C15.1405 20.17 14.9805 20.01 14.9805 19.81V1.35999C14.9805 1.15999 15.1405 1 15.3405 1H19.6405C19.8405 1 20.0005 1.15999 20.0005 1.35999V19.81C20.0005 20.01 19.8405 20.17 19.6405 20.17ZM15.3405 1.19C15.2505 1.19 15.1805 1.26001 15.1805 1.35001V19.8C15.1805 19.89 15.2505 19.96 15.3405 19.96H19.6405C19.7305 19.96 19.8005 19.89 19.8005 19.8V1.35001C19.8005 1.26001 19.7305 1.19 19.6405 1.19H15.3405ZM19.3705 19.64H15.5905C15.5405 19.64 15.4905 19.6 15.4905 19.54V1.60999C15.4905 1.55999 15.5305 1.51001 15.5905 1.51001H19.3705C19.4205 1.51001 19.4705 1.54999 19.4705 1.60999V19.54C19.4705 19.59 19.4305 19.64 19.3705 19.64ZM15.7005 19.45H19.2805V1.72H15.7005V19.45Z" fill="white"/>
<path d="M7.97067 1.48996C7.97067 1.62996 8.09065 1.74997 8.23065 1.74997H9.78066L1.20065 8.09998C1.08065 8.18998 1.06066 8.34997 1.15066 8.46997C1.24066 8.58997 1.40065 8.60996 1.52065 8.51996L10.2806 2.02997V3.77997C10.2806 3.91997 10.4006 4.03998 10.5406 4.03998C10.6806 4.03998 10.8006 3.91997 10.8006 3.77997V1.48996C10.8006 1.34996 10.6806 1.22998 10.5406 1.22998H8.23065C8.09065 1.22998 7.97067 1.34996 7.97067 1.48996Z" fill="white"/>
<path d="M1.36041 8.66989C1.25041 8.66989 1.1404 8.61987 1.0704 8.51987C0.950397 8.35987 0.990405 8.12987 1.1404 8.01987L9.4804 1.84989H8.2304C8.0304 1.84989 7.87042 1.68987 7.87042 1.48987C7.87042 1.28987 8.0304 1.12988 8.2304 1.12988H10.5404C10.7404 1.12988 10.9004 1.28987 10.9004 1.48987V3.77988C10.9004 3.97988 10.7404 4.13986 10.5404 4.13986C10.3404 4.13986 10.1804 3.97988 10.1804 3.77988V2.22989L1.58041 8.59989C1.52041 8.64989 1.44042 8.66989 1.37042 8.66989H1.36041ZM8.2304 1.32987C8.1404 1.32987 8.0704 1.39987 8.0704 1.48987C8.0704 1.57987 8.1404 1.64987 8.2304 1.64987H9.78042C9.78042 1.64987 9.86042 1.67988 9.87042 1.71988C9.88042 1.75988 9.87042 1.79987 9.84042 1.82987L1.2604 8.17987C1.1904 8.22987 1.1704 8.33988 1.2304 8.40988C1.2804 8.47988 1.39041 8.49988 1.46041 8.43988L10.2204 1.94989C10.2204 1.94989 10.2904 1.91989 10.3204 1.94989C10.3504 1.96989 10.3704 1.99989 10.3704 2.03989V3.78989C10.3704 3.87989 10.4404 3.94989 10.5304 3.94989C10.6204 3.94989 10.6904 3.87989 10.6904 3.78989V1.49988C10.6904 1.40988 10.6204 1.33988 10.5304 1.33988H8.22042L8.2304 1.32987Z" fill="white"/>
</svg>
