<svg width="22" height="22" viewBox="0 0 22 22" fill="none" xmlns="http://www.w3.org/2000/svg">
<path d="M11.3801 18.9501C7.20007 18.9501 3.81006 15.55 3.81006 11.38C3.81006 7.21006 7.21006 3.81006 11.3801 3.81006C15.5501 3.81006 18.9501 7.21006 18.9501 11.38C18.9501 15.55 15.5501 18.9501 11.3801 18.9501ZM11.3801 4.33008C7.49006 4.33008 4.33006 7.49006 4.33006 11.38C4.33006 15.27 7.49006 18.43 11.3801 18.43C15.2701 18.43 18.4301 15.27 18.4301 11.38C18.4301 7.49006 15.2701 4.33008 11.3801 4.33008Z" fill="white"/>
<path d="M11.3799 19.05C7.14996 19.05 3.70996 15.61 3.70996 11.38C3.70996 7.14997 7.14996 3.70996 11.3799 3.70996C15.6099 3.70996 19.0499 7.14997 19.0499 11.38C19.0499 15.61 15.6099 19.05 11.3799 19.05ZM11.3799 3.89996C7.25996 3.89996 3.90996 7.24996 3.90996 11.37C3.90996 15.49 7.25996 18.84 11.3799 18.84C15.4999 18.84 18.8499 15.49 18.8499 11.37C18.8499 7.24996 15.4999 3.89996 11.3799 3.89996ZM11.3799 18.52C7.43996 18.52 4.22995 15.31 4.22995 11.37C4.22995 7.42996 7.43996 4.21997 11.3799 4.21997C15.3199 4.21997 18.5299 7.42996 18.5299 11.37C18.5299 15.31 15.3199 18.52 11.3799 18.52ZM11.3799 4.42996C7.54996 4.42996 4.42995 7.54997 4.42995 11.38C4.42995 15.21 7.54996 18.33 11.3799 18.33C15.2099 18.33 18.3299 15.21 18.3299 11.38C18.3299 7.54997 15.2099 4.42996 11.3799 4.42996Z" fill="white"/>
<path d="M11.3802 16.58C8.51019 16.58 6.18018 14.25 6.18018 11.38C6.18018 8.50995 8.51019 6.17993 11.3802 6.17993C14.2502 6.17993 16.5802 8.50995 16.5802 11.38C16.5802 14.25 14.2502 16.58 11.3802 16.58ZM11.3802 6.69995C8.80019 6.69995 6.70019 8.79995 6.70019 11.38C6.70019 13.96 8.80019 16.06 11.3802 16.06C13.9602 16.06 16.0602 13.96 16.0602 11.38C16.0602 8.79995 13.9602 6.69995 11.3802 6.69995Z" fill="white"/>
<path d="M11.3801 16.6701C8.46008 16.6701 6.08008 14.2901 6.08008 11.3701C6.08008 8.45006 8.46008 6.07007 11.3801 6.07007C14.3001 6.07007 16.6801 8.45006 16.6801 11.3701C16.6801 14.2901 14.3001 16.6701 11.3801 16.6701ZM11.3801 6.27005C8.57008 6.27005 6.28007 8.56006 6.28007 11.3701C6.28007 14.1801 8.57008 16.4701 11.3801 16.4701C14.1901 16.4701 16.4801 14.1801 16.4801 11.3701C16.4801 8.56006 14.1901 6.27005 11.3801 6.27005ZM11.3801 16.1501C8.75008 16.1501 6.61008 14.0101 6.61008 11.3801C6.61008 8.75007 8.75008 6.61008 11.3801 6.61008C14.0101 6.61008 16.1501 8.75007 16.1501 11.3801C16.1501 14.0101 14.0101 16.1501 11.3801 16.1501ZM11.3801 6.80008C8.86008 6.80008 6.80008 8.85007 6.80008 11.3801C6.80008 13.9101 8.85008 15.9601 11.3801 15.9601C13.9101 15.9601 15.9601 13.9101 15.9601 11.3801C15.9601 8.85007 13.9101 6.80008 11.3801 6.80008Z" fill="white"/>
<path d="M11.3801 4.33011C11.2401 4.33011 11.1201 4.2101 11.1201 4.0701V2.36011C11.1201 2.22011 11.2401 2.1001 11.3801 2.1001C11.5201 2.1001 11.6401 2.22011 11.6401 2.36011V4.0701C11.6401 4.2101 11.5201 4.33011 11.3801 4.33011Z" fill="white"/>
<path d="M11.38 4.42999C11.18 4.42999 11.02 4.27001 11.02 4.07001V2.36002C11.02 2.16002 11.18 2 11.38 2C11.58 2 11.74 2.16002 11.74 2.36002V4.07001C11.74 4.27001 11.58 4.42999 11.38 4.42999ZM11.38 2.19C11.29 2.19 11.22 2.26001 11.22 2.35001V4.06C11.22 4.15 11.29 4.22 11.38 4.22C11.47 4.22 11.54 4.15 11.54 4.06V2.35001C11.54 2.26001 11.47 2.19 11.38 2.19Z" fill="white"/>
<path d="M11.3801 20.6602C11.2401 20.6602 11.1201 20.5402 11.1201 20.4002V18.6902C11.1201 18.5502 11.2401 18.4302 11.3801 18.4302C11.5201 18.4302 11.6401 18.5502 11.6401 18.6902V20.4002C11.6401 20.5402 11.5201 20.6602 11.3801 20.6602Z" fill="white"/>
<path d="M11.38 20.7601C11.18 20.7601 11.02 20.6001 11.02 20.4001V18.6901C11.02 18.4901 11.18 18.3301 11.38 18.3301C11.58 18.3301 11.74 18.4901 11.74 18.6901V20.4001C11.74 20.6001 11.58 20.7601 11.38 20.7601ZM11.38 18.5201C11.29 18.5201 11.22 18.5901 11.22 18.6801V20.3901C11.22 20.4801 11.29 20.5501 11.38 20.5501C11.47 20.5501 11.54 20.4801 11.54 20.3901V18.6801C11.54 18.5901 11.47 18.5201 11.38 18.5201Z" fill="white"/>
<path d="M20.4002 11.6401H18.6902C18.5502 11.6401 18.4302 11.5201 18.4302 11.3801C18.4302 11.2401 18.5502 11.1201 18.6902 11.1201H20.4002C20.5402 11.1201 20.6602 11.2401 20.6602 11.3801C20.6602 11.5201 20.5402 11.6401 20.4002 11.6401Z" fill="white"/>
<path d="M20.4001 11.74H18.6901C18.4901 11.74 18.3301 11.58 18.3301 11.38C18.3301 11.18 18.4901 11.02 18.6901 11.02H20.4001C20.6001 11.02 20.7601 11.18 20.7601 11.38C20.7601 11.58 20.6001 11.74 20.4001 11.74ZM18.6901 11.21C18.6001 11.21 18.5301 11.28 18.5301 11.37C18.5301 11.46 18.6001 11.53 18.6901 11.53H20.4001C20.4901 11.53 20.5601 11.46 20.5601 11.37C20.5601 11.28 20.4901 11.21 20.4001 11.21H18.6901Z" fill="white"/>
<path d="M4.07008 11.6401H2.36009C2.22009 11.6401 2.1001 11.5201 2.1001 11.3801C2.1001 11.2401 2.22009 11.1201 2.36009 11.1201H4.07008C4.21008 11.1201 4.33009 11.2401 4.33009 11.3801C4.33009 11.5201 4.21008 11.6401 4.07008 11.6401Z" fill="white"/>
<path d="M4.06999 11.74H2.36C2.16 11.74 2 11.58 2 11.38C2 11.18 2.16 11.02 2.36 11.02H4.06999C4.26999 11.02 4.42999 11.18 4.42999 11.38C4.42999 11.58 4.26999 11.74 4.06999 11.74ZM2.35001 11.21C2.26001 11.21 2.19 11.28 2.19 11.37C2.19 11.46 2.26001 11.53 2.35001 11.53H4.06C4.15 11.53 4.22 11.46 4.22 11.37C4.22 11.28 4.15 11.21 4.06 11.21H2.35001Z" fill="white"/>
</svg>
