<svg width="22" height="22" viewBox="0 0 22 22" fill="none" xmlns="http://www.w3.org/2000/svg">
<path d="M17.4201 5.15009H15.5201C15.4801 2.90009 13.6501 1.09009 11.4001 1.09009C9.15014 1.09009 7.31015 2.91009 7.28015 5.15009H5.38012C5.24012 5.15009 5.12012 5.2701 5.12012 5.4101V19.8201C5.12012 19.9601 5.24012 20.0801 5.38012 20.0801H17.4401C17.5801 20.0801 17.7001 19.9601 17.7001 19.8201V5.4101C17.7001 5.2701 17.5801 5.15009 17.4401 5.15009H17.4201ZM11.3901 1.61005C13.3601 1.61005 14.9501 3.19009 14.9901 5.15009H7.79016C7.83016 3.19009 9.43013 1.61005 11.3901 1.61005ZM17.1601 19.5701H5.63012V5.68005H7.27014V8.24005C7.27014 8.38005 7.39015 8.50006 7.53015 8.50006C7.67015 8.50006 7.79016 8.38005 7.79016 8.24005V5.68005H15.0001V8.24005C15.0001 8.38005 15.1201 8.50006 15.2601 8.50006C15.4001 8.50006 15.5201 8.38005 15.5201 8.24005V5.68005H17.1601V19.5701Z" fill="white"/>
<path d="M17.42 20.19H5.35999C5.15999 20.19 5 20.03 5 19.83V5.41998C5 5.21998 5.15999 5.06 5.35999 5.06H7.16998C7.25998 2.81 9.13001 1 11.39 1C13.65 1 15.52 2.81 15.61 5.06H17.42C17.62 5.06 17.78 5.21998 17.78 5.41998V19.83C17.78 20.03 17.62 20.19 17.42 20.19ZM5.35999 5.25C5.26999 5.25 5.20001 5.32003 5.20001 5.41003V19.82C5.20001 19.91 5.26999 19.98 5.35999 19.98H17.42C17.51 19.98 17.58 19.91 17.58 19.82V5.41003C17.58 5.32003 17.51 5.25 17.42 5.25H15.52C15.47 5.25 15.42 5.21002 15.42 5.15002C15.39 2.96002 13.58 1.17999 11.39 1.17999C9.20001 1.17999 7.39999 2.96002 7.35999 5.15002C7.35999 5.20002 7.32001 5.25 7.26001 5.25H5.35999ZM17.16 19.66H5.63C5.58 19.66 5.53003 19.62 5.53003 19.56V5.66998C5.53003 5.61998 5.57 5.57001 5.63 5.57001H7.27002C7.32002 5.57001 7.37 5.60998 7.37 5.66998V8.22998C7.37 8.31998 7.44003 8.39001 7.53003 8.39001C7.62003 8.39001 7.69 8.31998 7.69 8.22998V5.66998C7.69 5.61998 7.73004 5.57001 7.79004 5.57001H15C15.05 5.57001 15.1 5.60998 15.1 5.66998V8.22998C15.1 8.31998 15.17 8.39001 15.26 8.39001C15.35 8.39001 15.42 8.31998 15.42 8.22998V5.66998C15.42 5.61998 15.46 5.57001 15.52 5.57001H17.16C17.21 5.57001 17.26 5.60998 17.26 5.66998V19.56C17.26 19.61 17.22 19.66 17.16 19.66ZM5.72003 19.47H17.05V5.78003H15.61V8.23999C15.61 8.43999 15.45 8.60004 15.25 8.60004C15.05 8.60004 14.89 8.43999 14.89 8.23999V5.78003H7.88V8.23999C7.88 8.43999 7.72002 8.60004 7.52002 8.60004C7.32002 8.60004 7.16003 8.43999 7.16003 8.23999V5.78003H5.72003V19.47ZM14.99 5.25H7.79004C7.79004 5.25 7.74003 5.24003 7.72003 5.22003C7.70003 5.20003 7.69 5.18002 7.69 5.15002C7.73 3.15002 9.39001 1.52002 11.39 1.52002C13.39 1.52002 15.05 3.15002 15.09 5.15002C15.09 5.18002 15.09 5.20003 15.06 5.22003C15.04 5.24003 15.02 5.25 14.99 5.25ZM7.89001 5.04999H14.89C14.8 3.19999 13.25 1.71002 11.39 1.71002C9.53001 1.71002 7.98001 3.19999 7.89001 5.04999Z" fill="white"/>
<path d="M14.8601 10.3101C14.7501 10.2401 14.6101 10.2701 14.5401 10.3701L10.7001 16.1901L8.82012 14.3301C8.73012 14.2401 8.59012 14.2401 8.50012 14.3301C8.41012 14.4201 8.41012 14.5601 8.50012 14.6501L10.5701 16.7101C10.5701 16.7101 10.6701 16.7801 10.7301 16.7801H10.7501C10.8201 16.7801 10.8801 16.7401 10.9201 16.6801L14.9101 10.6301C14.9801 10.5201 14.9501 10.3801 14.8401 10.3101H14.8601Z" fill="white"/>
<path d="M10.7501 16.88C10.6601 16.88 10.5801 16.85 10.5201 16.79L8.45007 14.73C8.39007 14.67 8.3501 14.59 8.3501 14.5C8.3501 14.41 8.38006 14.33 8.44006 14.27C8.50006 14.21 8.58004 14.17 8.67004 14.17C8.76004 14.17 8.84008 14.2 8.90008 14.26L10.6901 16.0301L14.4601 10.31C14.5101 10.24 14.5801 10.19 14.6701 10.17C14.7601 10.15 14.8401 10.1701 14.9201 10.2201C15.0701 10.3201 15.1101 10.52 15.0101 10.67L11.0201 16.7201C10.9701 16.8001 10.8801 16.85 10.7801 16.87H10.7501V16.88ZM8.67004 14.37C8.67004 14.37 8.60008 14.3801 8.58008 14.4101C8.53008 14.4601 8.53008 14.5401 8.58008 14.5901L10.6501 16.6501C10.6501 16.6501 10.7101 16.69 10.7401 16.69C10.7901 16.69 10.8301 16.66 10.8501 16.63L14.8401 10.58C14.8801 10.52 14.8601 10.4401 14.8001 10.4001C14.8001 10.4001 14.7401 10.37 14.7001 10.38C14.6701 10.38 14.6401 10.41 14.6201 10.44L10.7801 16.26C10.7801 16.26 10.7401 16.3 10.7101 16.3C10.6801 16.3 10.6501 16.3 10.6301 16.27L8.75006 14.4101C8.75006 14.4101 8.69009 14.37 8.66009 14.37H8.67004Z" fill="white"/>
</svg>
