<svg width="22" height="22" viewBox="0 0 22 22" fill="none" xmlns="http://www.w3.org/2000/svg">
<path d="M10.7501 20.4099C5.4301 20.4099 1.1001 16.0799 1.1001 10.7599C1.1001 5.43986 5.4301 1.10986 10.7501 1.10986C16.0701 1.10986 20.4001 5.43986 20.4001 10.7599C20.4001 16.0799 16.0701 20.4099 10.7501 20.4099ZM10.7501 1.61987C5.7201 1.61987 1.62009 5.71988 1.62009 10.7499C1.62009 15.7799 5.7201 19.8799 10.7501 19.8799C15.7801 19.8799 19.8801 15.7799 19.8801 10.7499C19.8801 5.71988 15.7801 1.61987 10.7501 1.61987Z" fill="white"/>
<path d="M10.75 20.5C5.37 20.5 1 16.13 1 10.75C1 5.37 5.37 1 10.75 1C16.13 1 20.5 5.37 20.5 10.75C20.5 16.13 16.13 20.5 10.75 20.5ZM10.75 1.19998C5.48 1.19998 1.18999 5.49 1.18999 10.75C1.18999 16.01 5.48 20.3 10.75 20.3C16.02 20.3 20.3 16.01 20.3 10.75C20.3 5.49 16.01 1.19998 10.75 1.19998ZM10.75 19.98C5.66 19.98 1.52 15.84 1.52 10.75C1.52 5.66 5.66 1.51999 10.75 1.51999C15.84 1.51999 19.98 5.66 19.98 10.75C19.98 15.84 15.84 19.98 10.75 19.98ZM10.75 1.72C5.77 1.72 1.71999 5.77 1.71999 10.75C1.71999 15.73 5.77 19.78 10.75 19.78C15.73 19.78 19.78 15.73 19.78 10.75C19.78 5.77 15.73 1.72 10.75 1.72Z" fill="white"/>
<path d="M8.00023 15.1498C8.00023 15.1498 7.91023 15.1398 7.87023 15.1198C7.79023 15.0698 7.74023 14.9898 7.74023 14.8898V6.6098C7.74023 6.5198 7.79023 6.42979 7.87023 6.37979C7.95023 6.32979 8.05023 6.32979 8.13023 6.37979L15.2102 10.5198C15.2902 10.5698 15.3402 10.6498 15.3402 10.7498C15.3402 10.8498 15.2902 10.9298 15.2102 10.9798L8.13023 15.1198C8.13023 15.1198 8.04023 15.1598 8.00023 15.1598V15.1498ZM8.26023 7.06979V14.4298L14.5602 10.7498L8.26023 7.06979Z" fill="white"/>
<path d="M8.00015 15.2499C7.94015 15.2499 7.87014 15.2299 7.82014 15.1999C7.71014 15.1399 7.64014 15.0199 7.64014 14.8899V6.60988C7.64014 6.47988 7.71014 6.35988 7.82014 6.29988C7.93014 6.23988 8.07015 6.23988 8.18015 6.29988L15.2601 10.4399C15.3701 10.4999 15.4401 10.6199 15.4401 10.7499C15.4401 10.8799 15.3701 10.9999 15.2601 11.0599L8.18015 15.1999C8.12015 15.2299 8.06015 15.2499 8.00015 15.2499ZM8.00015 6.44988C8.00015 6.44988 7.94014 6.4499 7.92014 6.4699C7.87014 6.4999 7.84014 6.54988 7.84014 6.60988V14.8899C7.84014 14.9499 7.87014 14.9999 7.92014 15.0299C7.97014 15.0599 8.03014 15.0599 8.08014 15.0299L15.1601 10.8899C15.1601 10.8899 15.2401 10.8099 15.2401 10.7499C15.2401 10.6899 15.2101 10.6399 15.1601 10.6099L8.08014 6.4699C8.08014 6.4699 8.03015 6.44988 8.00015 6.44988ZM8.26014 14.5299C8.26014 14.5299 8.23014 14.5299 8.21014 14.5199C8.18014 14.4999 8.16014 14.4699 8.16014 14.4299V7.05989C8.16014 7.05989 8.18014 6.9899 8.21014 6.9699C8.24014 6.9499 8.28014 6.9499 8.31014 6.9699L14.6101 10.6499C14.6101 10.6499 14.6601 10.6999 14.6601 10.7299C14.6601 10.7599 14.6401 10.7999 14.6101 10.8099L8.31014 14.4899C8.31014 14.4899 8.28014 14.4999 8.26014 14.4999V14.5299ZM8.36015 7.23989V14.2599L14.3601 10.7499L8.36015 7.23989Z" fill="white"/>
</svg>
