<svg width="22" height="22" viewBox="0 0 22 22" fill="none" xmlns="http://www.w3.org/2000/svg">
<path d="M5.95007 2.1001H1.36011C1.22011 2.1001 1.1001 2.22011 1.1001 2.36011V6.86011C1.1001 7.00011 1.22011 7.12012 1.36011 7.12012C1.50011 7.12012 1.62012 7.00011 1.62012 6.86011V2.62012H5.94018C6.08018 2.62012 6.20007 2.50011 6.20007 2.36011C6.20007 2.22011 6.08018 2.1001 5.94018 2.1001H5.95007Z" fill="white"/>
<path d="M1.35999 7.21997C1.15999 7.21997 1 7.05999 1 6.85999V2.35999C1 2.15999 1.15999 2 1.35999 2H5.94995C6.14995 2 6.31006 2.15999 6.31006 2.35999C6.31006 2.55999 6.14995 2.71997 5.94995 2.71997H1.71997V6.85999C1.71997 7.05999 1.55999 7.21997 1.35999 7.21997ZM1.35999 2.19995C1.26999 2.19995 1.19995 2.26999 1.19995 2.35999V6.85999C1.19995 6.94999 1.26999 7.01996 1.35999 7.01996C1.44999 7.01996 1.52002 6.94999 1.52002 6.85999V2.62C1.52002 2.57 1.56 2.51996 1.62 2.51996H5.94006C6.03006 2.51996 6.09998 2.44999 6.09998 2.35999C6.09998 2.26999 6.03006 2.19995 5.94006 2.19995H1.34998H1.35999Z" fill="white"/>
<path d="M20.28 2.13989H15.78C15.64 2.13989 15.52 2.2599 15.52 2.3999C15.52 2.5399 15.64 2.65991 15.78 2.65991H20.02V6.97992C20.02 7.11992 20.14 7.23993 20.28 7.23993C20.42 7.23993 20.54 7.11992 20.54 6.97992V2.38989C20.54 2.24989 20.42 2.12988 20.28 2.12988V2.13989Z" fill="white"/>
<path d="M20.2799 7.35004C20.0799 7.35004 19.9199 7.19005 19.9199 6.99005V2.76001H15.7799C15.5799 2.76001 15.4199 2.60002 15.4199 2.40002C15.4199 2.20002 15.5799 2.04004 15.7799 2.04004H20.2799C20.4799 2.04004 20.6399 2.20002 20.6399 2.40002V6.99005C20.6399 7.19005 20.4799 7.35004 20.2799 7.35004ZM15.7799 2.24005C15.6899 2.24005 15.6199 2.31002 15.6199 2.40002C15.6199 2.49002 15.6899 2.56006 15.7799 2.56006H20.0199C20.0699 2.56006 20.1199 2.60003 20.1199 2.66003V6.98004C20.1199 7.07004 20.1899 7.14001 20.2799 7.14001C20.3699 7.14001 20.44 7.07004 20.44 6.98004V2.39001C20.44 2.30001 20.3699 2.23004 20.2799 2.23004H15.7799V2.24005Z" fill="white"/>
<path d="M20.2798 16.55C20.1398 16.55 20.0198 16.6702 20.0198 16.8102V21.05H15.6998C15.5598 21.05 15.4399 21.1702 15.4399 21.3102C15.4399 21.4502 15.5598 21.57 15.6998 21.57H20.2898C20.4298 21.57 20.5498 21.4502 20.5498 21.3102V16.8102C20.5498 16.6702 20.4298 16.55 20.2898 16.55H20.2798Z" fill="white"/>
<path d="M20.2801 21.68H15.6902C15.4902 21.68 15.3301 21.5199 15.3301 21.3199C15.3301 21.1199 15.4902 20.96 15.6902 20.96H19.9201V16.8199C19.9201 16.6199 20.0801 16.46 20.2801 16.46C20.4801 16.46 20.6401 16.6199 20.6401 16.8199V21.3199C20.6401 21.5199 20.4801 21.68 20.2801 21.68ZM15.6902 21.15C15.6002 21.15 15.5301 21.22 15.5301 21.31C15.5301 21.4 15.6002 21.47 15.6902 21.47H20.2801C20.3701 21.47 20.4402 21.4 20.4402 21.31V16.81C20.4402 16.72 20.3701 16.65 20.2801 16.65C20.1901 16.65 20.1201 16.72 20.1201 16.81V21.05C20.1201 21.1 20.0801 21.15 20.0201 21.15H15.7001H15.6902Z" fill="white"/>
<path d="M5.86011 21.0099H1.62012V16.6899C1.62012 16.5499 1.50011 16.4299 1.36011 16.4299C1.22011 16.4299 1.1001 16.5499 1.1001 16.6899V21.2799C1.1001 21.4199 1.22011 21.5399 1.36011 21.5399H5.86011C6.00011 21.5399 6.12012 21.4199 6.12012 21.2799C6.12012 21.1399 6.00011 21.0199 5.86011 21.0199V21.0099Z" fill="white"/>
<path d="M5.85999 21.6298H1.35999C1.15999 21.6298 1 21.4698 1 21.2698V16.6799C1 16.4799 1.15999 16.3198 1.35999 16.3198C1.55999 16.3198 1.71997 16.4799 1.71997 16.6799V20.9099H5.85999C6.05999 20.9099 6.21997 21.0698 6.21997 21.2698C6.21997 21.4698 6.05999 21.6298 5.85999 21.6298ZM1.35999 16.5198C1.26999 16.5198 1.19995 16.5899 1.19995 16.6799V21.2698C1.19995 21.3598 1.26999 21.4299 1.35999 21.4299H5.85999C5.94999 21.4299 6.02002 21.3598 6.02002 21.2698C6.02002 21.1798 5.94999 21.1099 5.85999 21.1099H1.62C1.57 21.1099 1.52002 21.0698 1.52002 21.0098V16.6898C1.52002 16.5998 1.44999 16.5298 1.35999 16.5298V16.5198Z" fill="white"/>
<path d="M11.4258 11.9769C9.52172 11.9769 7.97461 10.4298 7.97461 8.52569C7.97461 6.62157 9.52172 5.07446 11.4258 5.07446C13.3299 5.07446 14.877 6.62157 14.877 8.52569C14.877 10.4298 13.3299 11.9769 11.4258 11.9769ZM11.4258 5.46868C9.73742 5.46868 8.36884 6.84471 8.36884 8.52569C8.36884 10.2067 9.74486 11.5827 11.4258 11.5827C13.1068 11.5827 14.4828 10.2067 14.4828 8.52569C14.4828 6.84471 13.1068 5.46868 11.4258 5.46868Z" fill="white"/>
<path d="M11.4255 12.0512C9.48419 12.0512 7.8999 10.4669 7.8999 8.52561C7.8999 6.5843 9.48419 5 11.4255 5C13.3668 5 14.9511 6.57686 14.9511 8.52561C14.9511 10.4744 13.3743 12.0512 11.4255 12.0512ZM11.4255 5.14877C9.56601 5.14877 8.04867 6.66611 8.04867 8.52561C8.04867 10.3851 9.56601 11.9025 11.4255 11.9025C13.285 11.9025 14.8024 10.3851 14.8024 8.52561C14.8024 6.66611 13.285 5.14877 11.4255 5.14877ZM11.4255 11.657C9.69989 11.657 8.29409 10.2512 8.29409 8.52561C8.29409 6.8 9.69989 5.39422 11.4255 5.39422C13.1511 5.39422 14.5569 6.8 14.5569 8.52561C14.5569 10.2512 13.1511 11.657 11.4255 11.657ZM11.4255 5.54298C9.78171 5.54298 8.43542 6.88181 8.43542 8.53305C8.43542 10.1843 9.77427 11.5231 11.4255 11.5231C13.0768 11.5231 14.4156 10.1843 14.4156 8.53305C14.4156 6.88181 13.0768 5.54298 11.4255 5.54298Z" fill="white"/>
<path d="M15.7394 19.1397H7.26757C7.16344 19.1397 7.07422 19.0504 7.07422 18.9463V16.0231C7.07422 13.5835 9.06014 11.5901 11.5072 11.5901C13.9543 11.5901 15.9403 13.576 15.9403 16.0231V18.9463C15.9403 19.0504 15.851 19.1397 15.7469 19.1397H15.7394ZM7.46841 18.7454H15.546V16.0157C15.546 13.7843 13.7312 11.9769 11.5072 11.9769C9.28328 11.9769 7.46841 13.7917 7.46841 16.0157V18.7454Z" fill="white"/>
<path d="M15.7396 19.2141H7.26776C7.119 19.2141 7 19.0951 7 18.9463V16.0232C7 13.5389 9.02313 11.5232 11.5 11.5232C13.9768 11.5232 16 13.5463 16 16.0232V18.9463C16 19.0951 15.881 19.2141 15.7322 19.2141H15.7396ZM11.5074 11.6571C9.10495 11.6571 7.14877 13.6133 7.14877 16.0157V18.9389C7.14877 19.0058 7.20081 19.0579 7.26776 19.0579H15.7396C15.8066 19.0579 15.8587 19.0058 15.8587 18.9389V16.0157C15.8587 13.6133 13.9024 11.6571 11.5 11.6571H11.5074ZM15.5462 18.8199H7.4686C7.43141 18.8199 7.39424 18.7901 7.39424 18.7455V16.0157C7.39424 13.7472 9.23883 11.9025 11.5074 11.9025C13.776 11.9025 15.6207 13.7472 15.6207 16.0157V18.7455C15.6207 18.7827 15.5909 18.8199 15.5462 18.8199ZM7.54296 18.6785H15.4793V16.0232C15.4793 13.8364 13.7016 12.0587 11.5149 12.0587C9.3281 12.0587 7.5504 13.8364 7.5504 16.0232V18.6785H7.54296Z" fill="white"/>
</svg>
