<svg width="22" height="22" viewBox="0 0 22 22" fill="none" xmlns="http://www.w3.org/2000/svg">
<path d="M10.9501 10.3801C8.39007 10.3801 6.31006 8.3001 6.31006 5.7401C6.31006 3.1801 8.39007 1.1001 10.9501 1.1001C13.5101 1.1001 15.5901 3.1801 15.5901 5.7401C15.5901 8.3001 13.5101 10.3801 10.9501 10.3801ZM10.9501 1.6301C8.68007 1.6301 6.84009 3.4801 6.84009 5.7401C6.84009 8.0001 8.69007 9.8501 10.9501 9.8501C13.2101 9.8501 15.0601 8.0001 15.0601 5.7401C15.0601 3.4801 13.2101 1.6301 10.9501 1.6301Z" fill="white"/>
<path d="M10.9499 10.48C8.33995 10.48 6.20996 8.35001 6.20996 5.74001C6.20996 3.13001 8.33995 1 10.9499 1C13.5599 1 15.6899 3.12001 15.6899 5.74001C15.6899 8.36001 13.5699 10.48 10.9499 10.48ZM10.9499 1.20001C8.44995 1.20001 6.40997 3.24001 6.40997 5.74001C6.40997 8.24001 8.44995 10.28 10.9499 10.28C13.4499 10.28 15.4899 8.24001 15.4899 5.74001C15.4899 3.24001 13.4499 1.20001 10.9499 1.20001ZM10.9499 9.95001C8.62995 9.95001 6.73993 8.06001 6.73993 5.74001C6.73993 3.42001 8.62995 1.53001 10.9499 1.53001C13.2699 1.53001 15.1599 3.42001 15.1599 5.74001C15.1599 8.06001 13.2699 9.95001 10.9499 9.95001ZM10.9499 1.73001C8.73995 1.73001 6.92993 3.53 6.92993 5.75C6.92993 7.97 8.72995 9.77 10.9499 9.77C13.1699 9.77 14.9699 7.97 14.9699 5.75C14.9699 3.53 13.1699 1.73001 10.9499 1.73001Z" fill="white"/>
<path d="M16.7501 20.0101H5.36005C5.22005 20.0101 5.1001 19.8901 5.1001 19.7501V15.8201C5.1001 12.5401 7.77006 9.86011 11.0601 9.86011C14.3501 9.86011 17.0201 12.5301 17.0201 15.8201V19.7501C17.0201 19.8901 16.9001 20.0101 16.7601 20.0101H16.7501ZM5.63006 19.4801H16.4901V15.8101C16.4901 12.8101 14.0501 10.3801 11.0601 10.3801C8.07006 10.3801 5.63006 12.8201 5.63006 15.8101V19.4801Z" fill="white"/>
<path d="M16.75 20.11H5.35999C5.15999 20.11 5 19.95 5 19.75V15.82C5 12.48 7.71999 9.77002 11.05 9.77002C14.38 9.77002 17.1 12.49 17.1 15.82V19.75C17.1 19.95 16.94 20.11 16.74 20.11H16.75ZM11.06 9.95003C7.83 9.95003 5.20001 12.58 5.20001 15.81V19.74C5.20001 19.83 5.26999 19.9 5.35999 19.9H16.75C16.84 19.9 16.91 19.83 16.91 19.74V15.81C16.91 12.58 14.28 9.95003 11.05 9.95003H11.06ZM16.49 19.58H5.63C5.58 19.58 5.53003 19.54 5.53003 19.48V15.81C5.53003 12.76 8.01 10.28 11.06 10.28C14.11 10.28 16.59 12.76 16.59 15.81V19.48C16.59 19.53 16.55 19.58 16.49 19.58ZM5.72998 19.39H16.4V15.82C16.4 12.88 14.01 10.49 11.07 10.49C8.13001 10.49 5.73999 12.88 5.73999 15.82V19.39H5.72998Z" fill="white"/>
</svg>
