<svg width="22" height="22" viewBox="0 0 22 22" fill="none" xmlns="http://www.w3.org/2000/svg">
<path d="M17.1701 5.68988H9.68011C9.39011 5.68988 9.15014 5.92991 9.15014 6.21991V12.7599H4.63012V1.62988H12.1301V4.43988C12.1301 4.57988 12.2501 4.69989 12.3901 4.69989C12.5301 4.69989 12.6501 4.57988 12.6501 4.43988V1.36987C12.6501 1.22987 12.5301 1.10986 12.3901 1.10986H4.36011C4.22011 1.10986 4.1001 1.22987 4.1001 1.36987V15.4799C4.1001 15.6199 4.22011 15.7399 4.36011 15.7399H9.03009H9.14013V19.7999C9.14013 20.0899 9.3801 20.3299 9.6701 20.3299H17.1601C17.4501 20.3299 17.6901 20.0899 17.6901 19.7999V6.21991C17.6901 5.92991 17.4501 5.68988 17.1601 5.68988H17.1701ZM17.1801 6.2099V17.3399H9.68011V6.2099H17.1801ZM4.63012 15.2199V13.2899H9.15014V13.9899H7.81012C7.67012 13.9899 7.55011 14.1099 7.55011 14.2499C7.55011 14.3899 7.67012 14.5099 7.81012 14.5099H9.15014V15.2299H4.63012V15.2199ZM9.68011 19.7999V17.8699H17.1801V19.7999H9.68011Z" fill="white"/>
<path d="M17.17 20.42H9.67999C9.32999 20.42 9.04999 20.14 9.04999 19.79V15.83C9.04999 15.83 9.03997 15.83 9.02997 15.83H4.35999C4.15999 15.83 4 15.67 4 15.47V1.35999C4 1.15999 4.15999 1 4.35999 1H12.39C12.59 1 12.75 1.15999 12.75 1.35999V4.42999C12.75 4.62999 12.59 4.79004 12.39 4.79004C12.19 4.79004 12.03 4.62999 12.03 4.42999V1.72003H4.72998V12.66H9.04999V6.22003C9.04999 5.87003 9.32999 5.59003 9.67999 5.59003H17.17C17.52 5.59003 17.8 5.87003 17.8 6.22003V19.8C17.8 20.15 17.52 20.43 17.17 20.43V20.42ZM9.15002 15.64C9.15002 15.64 9.19997 15.64 9.21997 15.67C9.23997 15.69 9.25 15.71 9.25 15.74V19.8C9.25 20.04 9.43999 20.23 9.67999 20.23H17.17C17.41 20.23 17.6 20.04 17.6 19.8V6.22003C17.6 5.98003 17.41 5.79004 17.17 5.79004H9.67999C9.43999 5.79004 9.25 5.98003 9.25 6.22003V12.76C9.25 12.81 9.21002 12.86 9.15002 12.86H4.63C4.58 12.86 4.52997 12.82 4.52997 12.76V1.63C4.52997 1.58 4.57 1.53003 4.63 1.53003H12.13C12.18 1.53003 12.23 1.57 12.23 1.63V4.44C12.23 4.53 12.3 4.60004 12.39 4.60004C12.48 4.60004 12.55 4.53 12.55 4.44V1.37C12.55 1.28 12.48 1.21002 12.39 1.21002H4.35999C4.26999 1.21002 4.20001 1.28 4.20001 1.37V15.48C4.20001 15.57 4.26999 15.64 4.35999 15.64H9.02997H9.14001H9.15002ZM17.18 19.9H9.67999C9.62999 19.9 9.58002 19.86 9.58002 19.8V17.87C9.58002 17.82 9.61999 17.77 9.67999 17.77H17.18C17.23 17.77 17.28 17.81 17.28 17.87V19.8C17.28 19.85 17.24 19.9 17.18 19.9ZM9.77997 19.7H17.08V17.96H9.77997V19.7ZM17.18 17.44H9.67999C9.62999 17.44 9.58002 17.4 9.58002 17.34V6.21002C9.58002 6.16002 9.61999 6.10999 9.67999 6.10999H17.18C17.23 6.10999 17.28 6.15002 17.28 6.21002V17.34C17.28 17.39 17.24 17.44 17.18 17.44ZM9.77997 17.25H17.08V6.31H9.77997V17.25ZM9.15002 15.32H4.63C4.58 15.32 4.52997 15.27 4.52997 15.21V13.28C4.52997 13.23 4.57 13.18 4.63 13.18H9.15002C9.20002 13.18 9.25 13.22 9.25 13.28V13.98C9.25 14.03 9.21002 14.08 9.15002 14.08H7.81C7.72 14.08 7.65002 14.15 7.65002 14.24C7.65002 14.33 7.72 14.4 7.81 14.4H9.15002C9.20002 14.4 9.25 14.44 9.25 14.5V15.22C9.25 15.22 9.23997 15.27 9.21997 15.29C9.19997 15.31 9.18002 15.32 9.15002 15.32ZM4.72998 15.12H9.04999V14.61H7.81C7.61 14.61 7.45001 14.45 7.45001 14.25C7.45001 14.05 7.61 13.89 7.81 13.89H9.04999V13.39H4.72998V15.13V15.12Z" fill="white"/>
<path d="M14.0001 18.5698H12.8601C12.7201 18.5698 12.6001 18.6898 12.6001 18.8298C12.6001 18.9698 12.7201 19.0898 12.8601 19.0898H14.0001C14.1401 19.0898 14.2601 18.9698 14.2601 18.8298C14.2601 18.6898 14.1401 18.5698 14.0001 18.5698Z" fill="white"/>
<path d="M14 19.1899H12.86C12.66 19.1899 12.5 19.03 12.5 18.83C12.5 18.63 12.66 18.47 12.86 18.47H14C14.2 18.47 14.36 18.63 14.36 18.83C14.36 19.03 14.2 19.1899 14 19.1899ZM12.86 18.6699C12.77 18.6699 12.7 18.74 12.7 18.83C12.7 18.92 12.77 18.9899 12.86 18.9899H14C14.09 18.9899 14.16 18.92 14.16 18.83C14.16 18.74 14.09 18.6699 14 18.6699H12.86Z" fill="white"/>
</svg>
