<svg width="22" height="22" viewBox="0 0 22 22" fill="none" xmlns="http://www.w3.org/2000/svg">
<path d="M3.63 13.1501C2.24 13.1501 1.09998 12.0201 1.09998 10.6201C1.09998 9.22009 2.23 8.09009 3.63 8.09009C5.03 8.09009 6.16003 9.22009 6.16003 10.6201C6.16003 12.0201 5.03 13.1501 3.63 13.1501ZM3.63 8.62009C2.53 8.62009 1.63 9.52009 1.63 10.6201C1.63 11.7201 2.53 12.6201 3.63 12.6201C4.73 12.6201 5.63 11.7201 5.63 10.6201C5.63 9.52009 4.73 8.62009 3.63 8.62009Z" fill="#231F20"/>
<path d="M3.63 13.25C2.18 13.25 1 12.07 1 10.62C1 9.16998 2.18 7.98999 3.63 7.98999C5.08 7.98999 6.26001 9.16998 6.26001 10.62C6.26001 12.07 5.08 13.25 3.63 13.25ZM3.63 8.18999C2.29 8.18999 1.20001 9.27998 1.20001 10.62C1.20001 11.96 2.29 13.05 3.63 13.05C4.97001 13.05 6.06 11.96 6.06 10.62C6.06 9.27998 4.97001 8.18999 3.63 8.18999ZM3.63 12.73C2.47 12.73 1.53003 11.79 1.53003 10.63C1.53003 9.46999 2.47 8.52998 3.63 8.52998C4.79 8.52998 5.72998 9.46999 5.72998 10.63C5.72998 11.79 4.79 12.73 3.63 12.73ZM3.63 8.71999C2.58 8.71999 1.72003 9.56999 1.72003 10.63C1.72003 11.69 2.57 12.54 3.63 12.54C4.69 12.54 5.53998 11.69 5.53998 10.63C5.53998 9.56999 4.68 8.71999 3.63 8.71999Z" fill="#231F20"/>
<path d="M17.59 6.1601C16.2 6.1601 15.06 5.0301 15.06 3.6301C15.06 2.2301 16.19 1.1001 17.59 1.1001C18.99 1.1001 20.12 2.2301 20.12 3.6301C20.12 5.0301 18.99 6.1601 17.59 6.1601ZM17.59 1.6301C16.49 1.6301 15.59 2.5301 15.59 3.6301C15.59 4.7301 16.49 5.6301 17.59 5.6301C18.69 5.6301 19.59 4.7301 19.59 3.6301C19.59 2.5301 18.69 1.6301 17.59 1.6301Z" fill="#231F20"/>
<path d="M17.59 6.26001C16.14 6.26001 14.96 5.08 14.96 3.63C14.96 2.18 16.14 1 17.59 1C19.04 1 20.22 2.18 20.22 3.63C20.22 5.08 19.04 6.26001 17.59 6.26001ZM17.59 1.2C16.25 1.2 15.16 2.29 15.16 3.63C15.16 4.97001 16.25 6.06 17.59 6.06C18.93 6.06 20.02 4.97001 20.02 3.63C20.02 2.29 18.93 1.2 17.59 1.2ZM17.59 5.74001C16.43 5.74001 15.49 4.8 15.49 3.64C15.49 2.48 16.43 1.54001 17.59 1.54001C18.75 1.54001 19.69 2.48 19.69 3.64C19.69 4.8 18.75 5.74001 17.59 5.74001ZM17.59 1.73C16.54 1.73 15.68 2.59 15.68 3.64C15.68 4.69 16.53 5.55 17.59 5.55C18.65 5.55 19.5 4.7 19.5 3.64C19.5 2.58 18.64 1.73 17.59 1.73Z" fill="#231F20"/>
<path d="M17.59 19.9702C16.2 19.9702 15.06 18.8402 15.06 17.4402C15.06 16.0402 16.19 14.9102 17.59 14.9102C18.99 14.9102 20.12 16.0402 20.12 17.4402C20.12 18.8402 18.99 19.9702 17.59 19.9702ZM17.59 15.4302C16.49 15.4302 15.59 16.3302 15.59 17.4302C15.59 18.5302 16.49 19.4302 17.59 19.4302C18.69 19.4302 19.59 18.5302 19.59 17.4302C19.59 16.3302 18.69 15.4302 17.59 15.4302Z" fill="#231F20"/>
<path d="M17.59 20.06C16.14 20.06 14.96 18.8801 14.96 17.4301C14.96 15.9801 16.14 14.8 17.59 14.8C19.04 14.8 20.22 15.9801 20.22 17.4301C20.22 18.8801 19.04 20.06 17.59 20.06ZM17.59 15.0101C16.25 15.0101 15.16 16.1 15.16 17.44C15.16 18.78 16.25 19.87 17.59 19.87C18.93 19.87 20.02 18.78 20.02 17.44C20.02 16.1 18.93 15.0101 17.59 15.0101ZM17.59 19.5401C16.43 19.5401 15.49 18.6 15.49 17.44C15.49 16.28 16.43 15.34 17.59 15.34C18.75 15.34 19.69 16.28 19.69 17.44C19.69 18.6 18.75 19.5401 17.59 19.5401ZM17.59 15.53C16.54 15.53 15.68 16.38 15.68 17.44C15.68 18.5 16.53 19.3501 17.59 19.3501C18.65 19.3501 19.5 18.49 19.5 17.44C19.5 16.39 18.64 15.53 17.59 15.53Z" fill="#231F20"/>
<path d="M5.65001 9.86994C5.55001 9.86994 5.45997 9.81994 5.41997 9.72994C5.35997 9.59994 5.40996 9.43995 5.53996 9.37995L15.46 4.41994C15.59 4.34994 15.75 4.40995 15.81 4.53995C15.87 4.66995 15.82 4.82995 15.69 4.88995L5.77 9.84995C5.77 9.84995 5.69001 9.87995 5.65001 9.87995V9.86994Z" fill="#231F20"/>
<path d="M5.65001 9.96993C5.51001 9.96993 5.39 9.88993 5.33 9.76993C5.24 9.58993 5.30997 9.37993 5.48997 9.28993L15.41 4.32993C15.5 4.28993 15.59 4.27992 15.68 4.30992C15.77 4.33992 15.85 4.39993 15.89 4.48993C15.98 4.66993 15.91 4.87993 15.73 4.96993L5.80998 9.92993C5.75998 9.95993 5.71001 9.96993 5.65001 9.96993ZM15.57 4.47992C15.57 4.47992 15.52 4.47992 15.5 4.49992L5.58 9.45993C5.58 9.45993 5.50998 9.50993 5.49998 9.54993C5.48998 9.58993 5.48998 9.63992 5.49998 9.66992C5.53998 9.74992 5.64001 9.77993 5.72001 9.73993L15.64 4.77992C15.64 4.77992 15.71 4.72993 15.72 4.68993C15.73 4.64993 15.73 4.59993 15.72 4.56993C15.7 4.52993 15.67 4.49993 15.62 4.48993C15.6 4.48993 15.59 4.48993 15.57 4.48993V4.47992Z" fill="#231F20"/>
<path d="M15.56 16.71C15.56 16.71 15.48 16.71 15.45 16.68L5.64 11.89C5.51 11.83 5.46 11.67 5.52 11.54C5.58 11.41 5.73998 11.36 5.86998 11.42L15.68 16.21C15.81 16.27 15.86 16.43 15.8 16.56C15.75 16.65 15.66 16.71 15.56 16.71Z" fill="#231F20"/>
<path d="M15.56 16.8099C15.5 16.8099 15.45 16.7999 15.4 16.7699L5.59001 11.9799C5.50001 11.9399 5.44002 11.8599 5.41002 11.7699C5.38002 11.6799 5.37998 11.5799 5.42998 11.4899C5.51998 11.3099 5.73002 11.2399 5.91002 11.3199L15.73 16.1099C15.82 16.1499 15.88 16.2299 15.91 16.3199C15.94 16.4099 15.94 16.5099 15.89 16.5999C15.83 16.7199 15.7 16.7999 15.57 16.7999L15.56 16.8099ZM5.74998 11.4899C5.68998 11.4899 5.62996 11.5199 5.59996 11.5799C5.57996 11.6199 5.57996 11.6599 5.59996 11.7099C5.60996 11.7499 5.63998 11.7799 5.67998 11.7999L15.49 16.5899C15.57 16.6299 15.67 16.5899 15.71 16.5099C15.73 16.4699 15.73 16.4299 15.71 16.3799C15.69 16.3299 15.67 16.3099 15.63 16.2899L5.81999 11.4999C5.81999 11.4999 5.76998 11.4799 5.74998 11.4799V11.4899Z" fill="#231F20"/>
</svg>
