<svg width="22" height="22" viewBox="0 0 22 22" fill="none" xmlns="http://www.w3.org/2000/svg">
<path d="M20.71 10.2251C20.61 10.1251 20.44 10.1251 20.34 10.2251L17.91 12.6551L11.3199 6.03508L15.83 1.52507C15.93 1.42507 15.93 1.25508 15.83 1.15508C15.73 1.05508 15.56 1.05508 15.46 1.15508L10.95 5.66509L8.83997 3.54509C8.73997 3.44509 8.56997 3.44509 8.46997 3.54509C8.36997 3.64509 8.36997 3.81509 8.46997 3.91509L10.58 6.03508L3.67004 12.9451C3.57004 13.0451 3.57002 13.1951 3.65002 13.2951C3.74002 13.4051 5.77001 15.9451 3.64001 19.8551H1.35999C1.21999 19.8551 1.09998 19.9751 1.09998 20.1151C1.09998 20.2551 1.21999 20.3751 1.35999 20.3751H3.80005C3.80005 20.3751 3.87003 20.3751 3.91003 20.3551C3.95003 20.3351 7.93 18.4351 10.75 20.2651C10.85 20.3351 10.99 20.3151 11.08 20.2351L17.91 13.4051L20.04 15.5451C20.09 15.5951 20.16 15.6251 20.23 15.6251C20.3 15.6251 20.36 15.5951 20.41 15.5451C20.51 15.4451 20.51 15.2751 20.41 15.1751L18.28 13.0351L20.71 10.6051C20.81 10.5051 20.81 10.3351 20.71 10.2351V10.2251ZM10.85 19.7151C8.77998 18.4951 6.29999 18.9651 4.85999 19.4251L10.35 13.9751C10.54 14.0951 10.76 14.1651 10.99 14.1651C11.3 14.1651 11.58 14.0451 11.8 13.8251C12.02 13.6051 12.14 13.3251 12.14 13.0151C12.14 12.7051 12.02 12.4251 11.8 12.2051C11.58 11.9851 11.3 11.8651 10.99 11.8651C10.68 11.8651 10.4001 11.9851 10.1801 12.2051C9.96005 12.4251 9.83997 12.7051 9.83997 13.0151C9.83997 13.2151 9.9 13.4151 10 13.5851L4.65002 18.8951C5.25002 17.2551 5.17997 15.9051 4.96997 14.9851C4.75997 14.0851 4.39995 13.4551 4.19995 13.1551L10.95 6.40508L17.54 13.0251L10.86 19.7051L10.85 19.7151ZM10.37 13.0151C10.37 12.8451 10.43 12.6951 10.55 12.5751C10.67 12.4551 10.82 12.3951 10.99 12.3951C11.16 12.3951 11.3101 12.4551 11.4301 12.5751C11.5501 12.6951 11.61 12.8451 11.61 13.0151C11.61 13.1851 11.5501 13.3351 11.4301 13.4551C11.2501 13.6351 10.97 13.6751 10.74 13.5851L10.92 13.4051C11.02 13.3051 11.02 13.1351 10.92 13.0351C10.82 12.9351 10.65 12.9351 10.55 13.0351L10.39 13.1951C10.37 13.1351 10.36 13.0851 10.36 13.0251L10.37 13.0151Z" fill="#231F20"/>
<path d="M1.35999 20.485C1.15999 20.485 1 20.325 1 20.125C1 19.925 1.15999 19.765 1.35999 19.765H3.57996C5.62996 15.945 3.65996 13.475 3.57996 13.365C3.45996 13.225 3.46998 13.015 3.59998 12.885L10.4401 6.045L8.40002 3.99501C8.33002 3.92501 8.29005 3.83501 8.30005 3.74501C8.30005 3.64501 8.34003 3.55501 8.41003 3.49501C8.55003 3.35501 8.78004 3.35501 8.92004 3.49501L10.96 5.545L15.4 1.105C15.54 0.965 15.77 0.965 15.91 1.105C15.98 1.175 16.02 1.265 16.02 1.355C16.02 1.445 15.98 1.54501 15.91 1.61501L11.46 6.06502L17.91 12.545L20.27 10.185C20.41 10.045 20.64 10.045 20.78 10.185C20.85 10.255 20.89 10.345 20.89 10.435C20.89 10.525 20.85 10.625 20.78 10.695L18.42 13.055L20.48 15.125C20.62 15.265 20.62 15.495 20.48 15.635C20.34 15.775 20.11 15.775 19.97 15.635L17.91 13.565L11.15 20.325C11.03 20.445 10.84 20.465 10.7 20.375C7.91995 18.575 3.98995 20.455 3.94995 20.475C3.94995 20.475 3.94005 20.475 3.93005 20.475C3.88005 20.495 3.84004 20.505 3.79004 20.505H1.34998L1.35999 20.485ZM1.35999 19.955C1.26999 19.955 1.19995 20.025 1.19995 20.115C1.19995 20.205 1.26999 20.275 1.35999 20.275H3.80005C3.80005 20.275 3.84 20.275 3.87 20.255C3.87 20.255 3.88001 20.255 3.89001 20.255C4.09001 20.165 8.00995 18.355 10.8199 20.175C10.8799 20.215 10.97 20.205 11.02 20.155L17.85 13.325C17.85 13.325 17.89 13.295 17.92 13.295C17.92 13.295 17.97 13.305 17.99 13.325L20.12 15.465C20.18 15.525 20.29 15.525 20.35 15.465C20.41 15.405 20.41 15.295 20.35 15.235L18.22 13.095C18.22 13.095 18.18 12.995 18.22 12.955L20.65 10.525C20.65 10.525 20.7 10.455 20.7 10.405C20.7 10.355 20.68 10.325 20.65 10.285C20.59 10.225 20.48 10.225 20.42 10.285L17.99 12.715C17.99 12.715 17.95 12.745 17.92 12.745C17.92 12.745 17.87 12.735 17.85 12.715L11.26 6.09499C11.26 6.09499 11.22 5.99498 11.26 5.95498L15.77 1.44503C15.83 1.38503 15.83 1.27499 15.77 1.21499C15.71 1.15499 15.6 1.15499 15.54 1.21499L11.03 5.725C11.03 5.725 10.99 5.75502 10.96 5.75502C10.96 5.75502 10.91 5.745 10.89 5.725L8.78003 3.605C8.72003 3.545 8.61005 3.545 8.55005 3.605C8.52005 3.635 8.5 3.675 8.5 3.725C8.5 3.765 8.52005 3.80499 8.55005 3.84499L10.66 5.96499C10.66 5.96499 10.7 6.065 10.66 6.105L3.75 13.015C3.69 13.075 3.68999 13.165 3.73999 13.235C3.82999 13.345 5.89999 15.935 3.73999 19.905C3.71999 19.935 3.69002 19.955 3.65002 19.955H1.37H1.35999ZM10.85 19.815C10.85 19.815 10.82 19.815 10.8 19.805C8.73005 18.585 6.21001 19.105 4.89001 19.525C4.85001 19.535 4.80003 19.525 4.78003 19.485C4.76003 19.445 4.76004 19.395 4.79004 19.365L10.28 13.915C10.28 13.915 10.36 13.875 10.4 13.905C10.57 14.015 10.77 14.085 10.98 14.085C11.26 14.085 11.52 13.975 11.72 13.775C11.92 13.575 12.03 13.315 12.03 13.035C12.03 12.755 11.92 12.495 11.72 12.295C11.52 12.095 11.26 11.985 10.98 11.985C10.7 11.985 10.44 12.095 10.24 12.295C10.04 12.495 9.93005 12.755 9.93005 13.035C9.93005 13.215 9.97995 13.385 10.0699 13.555C10.0899 13.595 10.09 13.645 10.05 13.675L4.69995 18.985C4.69995 18.985 4.61996 19.025 4.57996 18.995C4.53996 18.975 4.52004 18.925 4.54004 18.875C5.15004 17.225 5.04998 15.865 4.84998 15.025C4.63998 14.135 4.28997 13.515 4.08997 13.225C4.05997 13.185 4.06998 13.135 4.09998 13.105L10.85 6.355C10.85 6.355 10.89 6.32503 10.92 6.32503C10.92 6.32503 10.97 6.335 10.99 6.355L17.58 12.975C17.58 12.975 17.62 13.075 17.58 13.115L10.9 19.795C10.9 19.795 10.86 19.825 10.83 19.825L10.85 19.815ZM7.80005 18.845C8.80005 18.845 9.85997 19.035 10.84 19.595L17.4 13.035L10.95 6.55501L4.32996 13.175C4.53996 13.495 4.86995 14.115 5.06995 14.975C5.24995 15.775 5.36001 17.015 4.89001 18.535L9.89001 13.565C9.80001 13.395 9.76001 13.205 9.76001 13.015C9.76001 12.685 9.89 12.365 10.12 12.135C10.36 11.905 10.67 11.775 11 11.775C11.33 11.775 11.64 11.905 11.88 12.135C12.12 12.375 12.24 12.685 12.24 13.015C12.24 13.345 12.11 13.665 11.88 13.895C11.64 14.135 11.33 14.255 11 14.255C10.78 14.255 10.57 14.195 10.38 14.085L5.21997 19.205C5.90997 19.015 6.83005 18.825 7.80005 18.825V18.845ZM10.99 13.735C10.89 13.735 10.8 13.715 10.71 13.675C10.68 13.665 10.66 13.635 10.65 13.605C10.65 13.575 10.6501 13.535 10.6801 13.515L10.86 13.335C10.92 13.275 10.92 13.165 10.86 13.105C10.8 13.045 10.69 13.045 10.63 13.105L10.47 13.265C10.47 13.265 10.41 13.295 10.38 13.295C10.35 13.295 10.3201 13.265 10.3101 13.225C10.2901 13.155 10.28 13.085 10.28 13.025C10.28 12.835 10.35 12.655 10.49 12.515C10.76 12.245 11.24 12.245 11.51 12.515C11.65 12.655 11.72 12.835 11.72 13.025C11.72 13.215 11.64 13.395 11.51 13.535C11.38 13.665 11.19 13.735 11 13.735H10.99ZM10.9401 13.535C11.1001 13.555 11.26 13.495 11.36 13.395C11.46 13.295 11.51 13.165 11.51 13.025C11.51 12.885 11.46 12.755 11.36 12.655C11.16 12.455 10.82 12.455 10.62 12.655C10.53 12.745 10.48 12.865 10.47 12.995L10.49 12.975C10.63 12.835 10.86 12.835 11 12.975C11.14 13.115 11.14 13.345 11 13.485L10.9401 13.545V13.535Z" fill="#231F20"/>
</svg>
