<svg width="22" height="22" viewBox="0 0 22 22" fill="none" xmlns="http://www.w3.org/2000/svg">
<path d="M4.92916 20.4201C4.87916 20.4201 4.81914 20.4001 4.77914 20.3701C4.68914 20.3001 4.64916 20.1801 4.67916 20.0801L6.82913 13.4601L1.19912 9.37012C1.10912 9.30012 1.06915 9.18011 1.09915 9.08011C1.13915 8.97011 1.23915 8.90012 1.34915 8.90012H8.30917L10.4591 2.28012C10.4991 2.17012 10.5991 2.1001 10.7091 2.1001C10.8191 2.1001 10.9191 2.17012 10.9591 2.28012L13.1092 8.90012H20.0691C20.1791 8.90012 20.2791 8.97011 20.3191 9.08011C20.3591 9.19011 20.3191 9.31012 20.2191 9.37012L14.5891 13.4601L16.7392 20.0801C16.7792 20.1901 16.7391 20.3101 16.6391 20.3701C16.5491 20.4401 16.4191 20.4401 16.3291 20.3701L10.6991 16.2801L5.06912 20.3701C5.06912 20.3701 4.96915 20.4201 4.91915 20.4201H4.92916ZM2.15914 9.43011L7.28915 13.1601C7.37915 13.2301 7.41913 13.3401 7.38912 13.4501L5.42916 19.4801L10.5592 15.7501C10.6492 15.6801 10.7792 15.6801 10.8692 15.7501L15.9992 19.4801L14.0391 13.4501C14.0091 13.3401 14.0391 13.2201 14.1391 13.1601L19.2691 9.43011H12.9292C12.8192 9.43011 12.7192 9.36012 12.6792 9.25012L10.7191 3.22012L8.75912 9.25012C8.71912 9.36012 8.61912 9.43011 8.50912 9.43011H2.16915H2.15914Z" fill="#231F20"/>
<path d="M4.92911 20.52C4.84911 20.52 4.77909 20.5 4.71909 20.45C4.58909 20.36 4.53908 20.2 4.58908 20.05L6.71909 13.5L1.14908 9.44998C1.01908 9.35998 0.969074 9.19999 1.01907 9.04999C1.06907 8.89999 1.2091 8.79999 1.3591 8.79999H8.23911L10.3691 2.25C10.4191 2.1 10.5591 2 10.7091 2C10.8591 2 10.9991 2.1 11.0491 2.25L13.1791 8.79999H20.0591C20.2191 8.79999 20.3491 8.89999 20.3991 9.04999C20.4491 9.19999 20.3991 9.35998 20.2691 9.44998L14.6991 13.5L16.8291 20.05C16.8791 20.2 16.8291 20.36 16.6991 20.45C16.5691 20.54 16.3991 20.54 16.2791 20.45L10.7091 16.4L5.13907 20.45C5.07907 20.5 4.99911 20.52 4.92911 20.52ZM1.3591 9C1.2891 9 1.22907 9.04999 1.19907 9.10999C1.17907 9.17999 1.19906 9.24998 1.25906 9.28998L6.88907 13.38C6.88907 13.38 6.93911 13.45 6.92911 13.49L4.77908 20.11C4.75908 20.18 4.77908 20.25 4.83908 20.29C4.89908 20.33 4.97908 20.33 5.02908 20.29L10.6591 16.2C10.6591 16.2 10.7391 16.18 10.7791 16.2L16.4091 20.29C16.4691 20.33 16.5391 20.33 16.5991 20.29C16.6591 20.25 16.6791 20.17 16.6591 20.11L14.5091 13.49C14.5091 13.49 14.5091 13.4 14.5491 13.38L20.1791 9.28998C20.2391 9.24998 20.2591 9.16999 20.2391 9.10999C20.2191 9.03999 20.1591 9 20.0791 9H13.1191C13.1191 9 13.0391 8.96999 13.0291 8.92999L10.8791 2.31C10.8391 2.17 10.6091 2.17 10.5691 2.31L8.4191 8.92999C8.4191 8.92999 8.36907 9 8.32907 9H1.36911H1.3591ZM15.9891 19.57C15.9891 19.57 15.9491 19.57 15.9291 19.55L10.7991 15.82C10.7391 15.78 10.6691 15.78 10.6091 15.82L5.4791 19.55C5.4791 19.55 5.3991 19.57 5.3591 19.55C5.3291 19.52 5.30906 19.48 5.31906 19.44L7.27908 13.41C7.29908 13.34 7.27909 13.27 7.21909 13.23L2.08908 9.5C2.08908 9.5 2.0391 9.42998 2.0491 9.38998C2.0591 9.34998 2.09907 9.31998 2.13907 9.31998H8.4791C8.5491 9.31998 8.60907 9.26999 8.63907 9.20999L10.5991 3.17999C10.6291 3.09999 10.7591 3.09999 10.7891 3.17999L12.7491 9.20999C12.7691 9.27999 12.8291 9.31998 12.9091 9.31998H19.2491C19.2491 9.31998 19.3291 9.34998 19.3391 9.38998C19.3491 9.42998 19.3391 9.47 19.2991 9.5L14.1691 13.23C14.1091 13.27 14.0891 13.35 14.1091 13.41L16.0691 19.44C16.0691 19.44 16.0691 19.52 16.0291 19.55C16.0091 19.56 15.9891 19.57 15.9691 19.57H15.9891ZM2.46909 9.53L7.34909 13.08C7.47909 13.17 7.5291 13.33 7.4791 13.48L5.6091 19.22L10.4891 15.67C10.6191 15.58 10.7891 15.58 10.9091 15.67L15.7891 19.22L13.9191 13.48C13.8691 13.33 13.9191 13.17 14.0491 13.08L18.9291 9.53H12.8891C12.7291 9.53 12.5991 9.43 12.5491 9.28L10.6791 3.53998L8.80911 9.28C8.75911 9.43 8.61909 9.53 8.46909 9.53H2.42911H2.46909Z" fill="#231F20"/>
</svg>
