<svg width="22" height="22" viewBox="0 0 22 22" fill="none" xmlns="http://www.w3.org/2000/svg">
<path d="M20.16 19.8401H11.02L10.91 19.9901C10.86 20.0601 10.78 20.1001 10.7 20.1001C10.61 20.1001 10.53 20.0601 10.49 19.9901L10.39 19.8401H1.35999C1.21999 19.8401 1.09998 19.9601 1.09998 20.1001C1.09998 20.2401 1.21999 20.36 1.35999 20.36H20.16C20.3 20.36 20.42 20.2401 20.42 20.1001C20.42 19.9601 20.3 19.8401 20.16 19.8401Z" fill="#231F20"/>
<path d="M20.16 20.46H1.35999C1.15999 20.46 1 20.3 1 20.1C1 19.9 1.15999 19.74 1.35999 19.74H10.39C10.39 19.74 10.45 19.76 10.47 19.78L10.57 19.93C10.63 20.02 10.78 20.02 10.84 19.93L10.95 19.78C10.95 19.78 11 19.74 11.03 19.74H20.17C20.37 19.74 20.53 19.9 20.53 20.1C20.53 20.3 20.37 20.46 20.17 20.46H20.16ZM1.35999 19.93C1.26999 19.93 1.20001 20 1.20001 20.09C1.20001 20.18 1.26999 20.25 1.35999 20.25H20.16C20.25 20.25 20.32 20.18 20.32 20.09C20.32 20 20.25 19.93 20.16 19.93H11.08L11 20.04C10.93 20.14 10.82 20.19 10.71 20.19C10.59 20.19 10.48 20.13 10.41 20.03L10.34 19.92H1.35999V19.93Z" fill="#231F20"/>
<path d="M5.95001 12.5901H6.21002V1.36005C6.21002 1.22005 6.09001 1.1001 5.95001 1.1001C5.81001 1.1001 5.69 1.22005 5.69 1.36005V12.8501C5.69 12.7101 5.81001 12.5901 5.95001 12.5901Z" fill="#231F20"/>
<path d="M5.67999 12.95C5.62999 12.95 5.58002 12.91 5.58002 12.85V1.35999C5.58002 1.15999 5.74 1 5.94 1C6.14 1 6.29999 1.15999 6.29999 1.35999V12.59C6.29999 12.64 6.26001 12.69 6.20001 12.69H5.94C5.85 12.69 5.77997 12.76 5.77997 12.85C5.77997 12.9 5.73999 12.95 5.67999 12.95ZM5.95001 1.20001C5.86001 1.20001 5.78998 1.26999 5.78998 1.35999V12.53C5.78998 12.53 5.89001 12.49 5.95001 12.49H6.10999V1.35999C6.10999 1.26999 6.04001 1.20001 5.95001 1.20001Z" fill="#231F20"/>
<path d="M15.77 13.11C15.77 13.11 15.82 13.0101 15.82 12.9601V12.8501C15.82 12.9901 15.7 13.11 15.56 13.11H15.13L11.45 18.3201H11.57C11.71 18.3201 11.83 18.4401 11.83 18.5801C11.83 18.7201 11.71 18.8401 11.57 18.8401H11.08L10.7 19.3701L10.33 18.8401H9.83997C9.69997 18.8401 9.58002 18.7201 9.58002 18.5801C9.58002 18.4401 9.69997 18.3201 9.83997 18.3201H9.96002L6.34998 13.11H5.92999C5.78999 13.11 5.66998 12.9901 5.66998 12.8501V12.9601C5.66998 13.0101 5.68997 13.07 5.71997 13.11L10.38 19.8401H11.02L15.76 13.1201L15.77 13.11Z" fill="#231F20"/>
<path d="M11.03 19.93H10.39C10.39 19.93 10.33 19.91 10.31 19.89L5.64996 13.16C5.60996 13.1 5.58997 13.03 5.58997 12.95V12.84C5.58997 12.79 5.63 12.74 5.69 12.74C5.75 12.74 5.78998 12.78 5.78998 12.84C5.78998 12.93 5.86001 13 5.95001 13H6.37C6.37 13 6.43001 13.02 6.45001 13.04L10.06 18.25C10.06 18.25 10.08 18.32 10.06 18.35C10.04 18.38 10.01 18.4 9.96997 18.4H9.84998C9.75998 18.4 9.69 18.47 9.69 18.56C9.69 18.65 9.75998 18.72 9.84998 18.72H10.34C10.34 18.72 10.4 18.74 10.42 18.76L10.71 19.18L11 18.76C11 18.76 11.05 18.72 11.08 18.72H11.57C11.66 18.72 11.73 18.65 11.73 18.56C11.73 18.47 11.66 18.4 11.57 18.4H11.45C11.45 18.4 11.38 18.38 11.36 18.35C11.34 18.32 11.35 18.28 11.36 18.25L15.04 13.04C15.04 13.04 15.09 13 15.12 13H15.55C15.64 13 15.71 12.93 15.71 12.84C15.71 12.79 15.75 12.74 15.81 12.74C15.87 12.74 15.91 12.78 15.91 12.84V12.95C15.91 13.02 15.89 13.1 15.84 13.16L11.1 19.88C11.1 19.88 11.05 19.92 11.02 19.92L11.03 19.93ZM10.44 19.74H10.98L11.54 18.95H11.14L10.79 19.44C10.79 19.44 10.74 19.48 10.71 19.48C10.71 19.48 10.65 19.46 10.63 19.44L10.29 18.95H9.89001L10.44 19.74ZM11.64 18.23C11.76 18.25 11.85 18.33 11.9 18.43L15.58 13.21C15.58 13.21 15.56 13.21 15.55 13.21H15.18L11.64 18.23ZM5.91998 13.21L9.52997 18.43C9.57997 18.33 9.67998 18.25 9.78998 18.23L6.31 13.21H5.94C5.94 13.21 5.91997 13.21 5.90997 13.21H5.91998Z" fill="#231F20"/>
<path d="M15.82 12.8501V1.36005C15.82 1.22005 15.7 1.1001 15.56 1.1001C15.42 1.1001 15.3 1.22005 15.3 1.36005V12.5901H15.56C15.7 12.5901 15.82 12.7101 15.82 12.8501Z" fill="#231F20"/>
<path d="M15.82 12.95C15.77 12.95 15.72 12.91 15.72 12.85C15.72 12.76 15.65 12.69 15.56 12.69H15.3C15.25 12.69 15.2 12.65 15.2 12.59V1.35999C15.2 1.15999 15.36 1 15.56 1C15.76 1 15.92 1.15999 15.92 1.35999V12.85C15.92 12.9 15.88 12.95 15.82 12.95ZM15.39 12.49H15.55C15.61 12.49 15.66 12.5 15.71 12.53V1.35999C15.71 1.26999 15.64 1.20001 15.55 1.20001C15.46 1.20001 15.39 1.26999 15.39 1.35999V12.49Z" fill="#231F20"/>
<path d="M10.71 20.1001C10.8 20.1001 10.88 20.0601 10.92 19.9901L11.03 19.8401H10.39L10.49 19.9901C10.54 20.0601 10.62 20.1001 10.7 20.1001H10.71Z" fill="#231F20"/>
<path d="M10.71 20.2C10.59 20.2 10.48 20.14 10.42 20.04L10.32 19.89C10.32 19.89 10.3 19.82 10.32 19.79C10.34 19.76 10.37 19.74 10.41 19.74H11.05C11.05 19.74 11.12 19.76 11.14 19.79C11.16 19.82 11.15 19.86 11.14 19.89L11.0299 20.04C10.9599 20.14 10.85 20.19 10.74 20.19L10.71 20.2ZM10.71 20C10.76 20 10.8099 19.98 10.8399 19.93H10.58C10.58 19.93 10.66 20 10.71 20Z" fill="#231F20"/>
<path d="M6.37 13.11H15.13L15.29 12.8801V12.5901H6.21002V12.8801L6.37 13.11Z" fill="#231F20"/>
<path d="M15.13 13.21H6.37C6.37 13.21 6.30998 13.19 6.28998 13.17L6.13 12.94C6.13 12.94 6.10999 12.9 6.10999 12.88V12.59C6.10999 12.54 6.15002 12.49 6.21002 12.49H15.3C15.35 12.49 15.4 12.53 15.4 12.59V12.88C15.4 12.88 15.4 12.92 15.38 12.94L15.22 13.17C15.22 13.17 15.17 13.21 15.14 13.21H15.13ZM6.41998 13.01H15.08L15.2 12.85V12.69H6.31V12.86L6.41998 13.02V13.01Z" fill="#231F20"/>
<path d="M5.95001 13.11H6.37L6.21002 12.8801V12.5901H5.95001C5.81001 12.5901 5.69 12.7101 5.69 12.8501C5.69 12.9901 5.81001 13.11 5.95001 13.11Z" fill="#231F20"/>
<path d="M6.37 13.21H5.95001C5.75001 13.21 5.58997 13.05 5.58997 12.85C5.58997 12.65 5.75001 12.49 5.95001 12.49H6.21002C6.26002 12.49 6.31 12.53 6.31 12.59V12.85L6.45001 13.05C6.45001 13.05 6.47001 13.12 6.45001 13.15C6.43001 13.18 6.39999 13.2 6.35999 13.2L6.37 13.21ZM5.95001 12.68C5.86001 12.68 5.78998 12.75 5.78998 12.84C5.78998 12.93 5.86001 13 5.95001 13H6.17999L6.13 12.92C6.13 12.92 6.10999 12.88 6.10999 12.86V12.66H5.95001V12.68Z" fill="#231F20"/>
<path d="M15.13 13.11H15.56C15.7 13.11 15.82 12.9901 15.82 12.8501C15.82 12.7101 15.7 12.5901 15.56 12.5901H15.3V12.8801L15.14 13.11H15.13Z" fill="#231F20"/>
<path d="M15.56 13.21H15.13C15.13 13.21 15.06 13.19 15.04 13.16C15.02 13.13 15.03 13.09 15.04 13.06L15.19 12.85V12.59C15.19 12.54 15.23 12.49 15.29 12.49H15.55C15.75 12.49 15.91 12.65 15.91 12.85C15.91 13.05 15.75 13.21 15.55 13.21H15.56ZM15.32 13.01H15.56C15.65 13.01 15.72 12.94 15.72 12.85C15.72 12.76 15.65 12.69 15.56 12.69H15.4V12.88C15.4 12.88 15.4 12.92 15.38 12.94L15.33 13.02L15.32 13.01Z" fill="#231F20"/>
<path d="M10.34 18.8501H11.08L11.45 18.3201H9.97998L10.34 18.8501Z" fill="#231F20"/>
<path d="M11.08 18.95H10.3399C10.3399 18.95 10.28 18.93 10.26 18.91L9.89994 18.39C9.89994 18.39 9.87994 18.32 9.89994 18.29C9.91994 18.26 9.94997 18.24 9.98997 18.24H11.4699C11.4699 18.24 11.54 18.26 11.56 18.29C11.58 18.32 11.57 18.36 11.56 18.39L11.19 18.91C11.19 18.91 11.14 18.95 11.11 18.95H11.08ZM10.39 18.75H11.0299L11.26 18.42H10.16L10.39 18.75Z" fill="#231F20"/>
<path d="M9.84998 18.3198C9.70998 18.3198 9.58997 18.4398 9.58997 18.5798C9.58997 18.7198 9.70998 18.8398 9.84998 18.8398H10.34L9.97998 18.3198H9.85999H9.84998Z" fill="#231F20"/>
<path d="M10.34 18.95H9.84998C9.64998 18.95 9.48999 18.79 9.48999 18.59C9.48999 18.39 9.64998 18.23 9.84998 18.23H9.96997C9.96997 18.23 10.03 18.25 10.05 18.27L10.41 18.79C10.41 18.79 10.43 18.86 10.41 18.89C10.39 18.92 10.36 18.9399 10.32 18.9399L10.34 18.95ZM9.84998 18.4199C9.75998 18.4199 9.69 18.49 9.69 18.58C9.69 18.67 9.75998 18.7399 9.84998 18.7399H10.15L9.91998 18.41H9.84998V18.4199Z" fill="#231F20"/>
<path d="M11.58 18.8501C11.72 18.8501 11.84 18.7301 11.84 18.5901C11.84 18.4501 11.72 18.3301 11.58 18.3301H11.46L11.09 18.8501H11.58Z" fill="#231F20"/>
<path d="M11.58 18.95H11.09C11.09 18.95 11.02 18.93 11 18.9C10.98 18.87 10.99 18.83 11 18.8L11.37 18.28C11.37 18.28 11.42 18.24 11.45 18.24H11.57C11.77 18.24 11.93 18.4 11.93 18.6C11.93 18.8 11.77 18.96 11.57 18.96L11.58 18.95ZM11.27 18.75H11.57C11.66 18.75 11.73 18.68 11.73 18.59C11.73 18.5 11.66 18.43 11.57 18.43H11.5L11.27 18.76V18.75Z" fill="#231F20"/>
<path d="M8.34998 10.71C8.48998 10.71 8.60999 10.59 8.60999 10.45V3.37C8.60999 3.23 8.48998 3.10999 8.34998 3.10999C8.20998 3.10999 8.08997 3.23 8.08997 3.37V10.45C8.08997 10.59 8.20998 10.71 8.34998 10.71Z" fill="#231F20"/>
<path d="M8.34998 10.81C8.14998 10.81 7.98999 10.65 7.98999 10.45V3.37C7.98999 3.17 8.14998 3.01001 8.34998 3.01001C8.54998 3.01001 8.71002 3.17 8.71002 3.37V10.45C8.71002 10.65 8.54998 10.81 8.34998 10.81ZM8.34998 3.21002C8.25998 3.21002 8.19 3.28 8.19 3.37V10.45C8.19 10.54 8.25998 10.61 8.34998 10.61C8.43998 10.61 8.51001 10.54 8.51001 10.45V3.37C8.51001 3.28 8.43998 3.21002 8.34998 3.21002Z" fill="#231F20"/>
<path d="M13.24 10.71C13.38 10.71 13.5 10.59 13.5 10.45V3.37C13.5 3.23 13.38 3.10999 13.24 3.10999C13.1 3.10999 12.98 3.23 12.98 3.37V10.45C12.98 10.59 13.1 10.71 13.24 10.71Z" fill="#231F20"/>
<path d="M13.24 10.81C13.04 10.81 12.88 10.65 12.88 10.45V3.37C12.88 3.17 13.04 3.01001 13.24 3.01001C13.44 3.01001 13.6 3.17 13.6 3.37V10.45C13.6 10.65 13.44 10.81 13.24 10.81ZM13.24 3.21002C13.15 3.21002 13.08 3.28 13.08 3.37V10.45C13.08 10.54 13.15 10.61 13.24 10.61C13.33 10.61 13.4 10.54 13.4 10.45V3.37C13.4 3.28 13.33 3.21002 13.24 3.21002Z" fill="#231F20"/>
<path d="M10.75 9.70007C10.89 9.70007 11.01 9.58006 11.01 9.44006V2.1001C11.01 1.9601 10.89 1.84009 10.75 1.84009C10.61 1.84009 10.49 1.9601 10.49 2.1001V9.44006C10.49 9.58006 10.61 9.70007 10.75 9.70007Z" fill="#231F20"/>
<path d="M10.75 9.79999C10.55 9.79999 10.39 9.64 10.39 9.44V2.10004C10.39 1.90004 10.55 1.73999 10.75 1.73999C10.95 1.73999 11.11 1.90004 11.11 2.10004V9.44C11.11 9.64 10.95 9.79999 10.75 9.79999ZM10.75 1.94C10.66 1.94 10.59 2.01004 10.59 2.10004V9.44C10.59 9.53 10.66 9.60004 10.75 9.60004C10.84 9.60004 10.91 9.53 10.91 9.44V2.10004C10.91 2.01004 10.84 1.94 10.75 1.94Z" fill="#231F20"/>
</svg>
