<svg width="22" height="22" viewBox="0 0 22 22" fill="none" xmlns="http://www.w3.org/2000/svg">
<path d="M20.35 6.94006H7.51996L6.57996 2.30005C6.55996 2.18005 6.44995 2.09009 6.31995 2.09009H1.33997C1.19997 2.09009 1.07996 2.2101 1.07996 2.3501C1.07996 2.4901 1.19997 2.61005 1.33997 2.61005H6.10999L8.41998 14.0401V18.9901C8.41998 19.1301 8.53999 19.2501 8.67999 19.2501H15.62C15.76 19.2501 15.8799 19.1301 15.8799 18.9901C15.8799 18.8501 15.76 18.7301 15.62 18.7301H8.93994V14.2701H16.09C16.18 14.2701 16.26 14.2201 16.31 14.1501L20.56 7.34009C20.61 7.26009 20.61 7.16007 20.56 7.07007C20.51 6.98007 20.43 6.93005 20.33 6.93005L20.35 6.94006ZM15.7599 9.1001H12.22V7.46008H15.7599V9.1001ZM15.7599 11.7301H12.22V9.63007H15.7599V11.7301ZM11.7 7.47009V9.11005H7.95996L7.62994 7.47009H11.7ZM11.7 9.63007V11.7301H8.62994C8.62994 11.7301 8.54 11.7501 8.5 11.7701L8.06995 9.63007H11.7ZM8.89996 13.7601L8.58997 12.2501C8.58997 12.2501 8.60994 12.2501 8.62994 12.2501H11.7V13.7101C11.7 13.7101 11.7 13.7401 11.71 13.7601H8.89996ZM12.22 13.7101V12.2501H15.7599V13.7601H12.21C12.21 13.7601 12.22 13.7301 12.22 13.7101ZM16.29 13.2201V12.2501H16.9L16.29 13.2201ZM17.22 11.7301H16.29V9.63007H18.53L17.22 11.7301ZM18.85 9.11005C18.85 9.11005 18.83 9.11005 18.81 9.11005H16.28V7.47009H19.87L18.84 9.12006L18.85 9.11005Z" fill="#231F20"/>
<path d="M15.6299 19.36H8.68994C8.48994 19.36 8.32996 19.2 8.32996 19V14.05L6.03998 2.72003H1.35999C1.15999 2.72003 1 2.55999 1 2.35999C1 2.15999 1.15999 2 1.35999 2H6.33997C6.50997 2 6.65994 2.12004 6.68994 2.29004L7.60999 6.85004H20.36C20.49 6.85004 20.61 6.92004 20.68 7.04004C20.74 7.15004 20.74 7.29003 20.68 7.41003L16.43 14.22C16.36 14.33 16.25 14.39 16.12 14.39H9.06995V18.65H15.65C15.85 18.65 16.0099 18.81 16.0099 19.01C16.0099 19.21 15.85 19.37 15.65 19.37L15.6299 19.36ZM1.34998 2.19C1.25998 2.19 1.18994 2.26004 1.18994 2.35004C1.18994 2.44004 1.25998 2.51001 1.34998 2.51001H6.12C6.12 2.51001 6.20997 2.54003 6.21997 2.59003L8.52997 14.02V18.99C8.52997 19.08 8.60995 19.15 8.69995 19.15H15.64C15.73 19.15 15.8 19.08 15.8 18.99C15.8 18.9 15.73 18.83 15.64 18.83H8.95996C8.90996 18.83 8.85999 18.79 8.85999 18.73V14.27C8.85999 14.22 8.89996 14.17 8.95996 14.17H16.11C16.17 14.17 16.22 14.14 16.25 14.09L20.5 7.28003C20.53 7.23003 20.53 7.16999 20.5 7.10999C20.47 7.05999 20.42 7.03003 20.36 7.03003H7.52997C7.52997 7.03003 7.43999 7.00001 7.42999 6.95001L6.48999 2.31C6.46999 2.23 6.40996 2.17999 6.32996 2.17999H1.34998V2.19ZM15.7599 13.85H12.21C12.21 13.85 12.1499 13.84 12.1299 13.81C12.1099 13.78 12.1 13.76 12.11 13.73L12.21 13.71H12.12V13.7V12.24C12.12 12.19 12.16 12.14 12.22 12.14H15.7599C15.8099 12.14 15.86 12.18 15.86 12.24V13.75C15.86 13.8 15.8199 13.85 15.7599 13.85ZM12.3199 13.66H15.66V12.35H12.3199V13.66ZM11.71 13.85H8.89996C8.89996 13.85 8.80999 13.82 8.79999 13.77L8.48999 12.26C8.48999 12.26 8.48995 12.2 8.50995 12.17C8.52995 12.15 8.55998 12.13 8.59998 12.14C8.59998 12.14 8.61994 12.14 8.62994 12.14H11.6899C11.7399 12.14 11.79 12.18 11.79 12.24V13.7V13.73C11.79 13.76 11.79 13.79 11.77 13.81C11.75 13.83 11.7199 13.85 11.6899 13.85H11.71ZM8.97998 13.66H11.6V12.35H8.70996L8.97998 13.66ZM16.29 13.32C16.29 13.32 16.2699 13.32 16.2599 13.32C16.2199 13.31 16.1899 13.27 16.1899 13.23V12.26C16.1899 12.21 16.23 12.16 16.29 12.16H16.9C16.9 12.16 16.97 12.18 16.99 12.21C17.01 12.24 17.01 12.28 16.99 12.31L16.3799 13.28C16.3799 13.28 16.33 13.33 16.3 13.33L16.29 13.32ZM16.39 12.35V12.88L16.72 12.35H16.39ZM8.5 11.86C8.5 11.86 8.46996 11.86 8.45996 11.86C8.42996 11.85 8.40996 11.82 8.39996 11.79L7.96997 9.65002C7.96997 9.65002 7.96999 9.59001 7.98999 9.57001C8.00999 9.55001 8.03995 9.53003 8.06995 9.53003H11.7C11.75 9.53003 11.8 9.57 11.8 9.63V11.73C11.8 11.78 11.76 11.83 11.7 11.83H8.62994C8.62994 11.83 8.57999 11.83 8.54999 11.86C8.52999 11.86 8.52 11.87 8.5 11.87V11.86ZM8.18994 9.73004L8.57996 11.64C8.57996 11.64 8.61995 11.64 8.63995 11.64H11.61V9.73999H8.18994V9.73004ZM17.22 11.82H16.29C16.24 11.82 16.1899 11.78 16.1899 11.72V9.62C16.1899 9.56999 16.23 9.52002 16.29 9.52002H18.53C18.53 9.52002 18.6 9.54001 18.62 9.57001C18.64 9.60001 18.64 9.63998 18.62 9.66998L17.31 11.77C17.31 11.77 17.26 11.82 17.23 11.82H17.22ZM16.39 11.63H17.17L18.36 9.73004H16.39V11.63ZM15.7599 11.82H12.22C12.17 11.82 12.12 11.78 12.12 11.72V9.62C12.12 9.56999 12.16 9.52002 12.22 9.52002H15.7599C15.8099 9.52002 15.86 9.56 15.86 9.62V11.72C15.86 11.77 15.8199 11.82 15.7599 11.82ZM12.3199 11.63H15.66V9.73004H12.3199V11.63ZM18.85 9.21002C18.85 9.21002 18.85 9.21002 18.84 9.21002C18.84 9.21002 18.82 9.21002 18.81 9.21002H16.29C16.24 9.21002 16.1899 9.16999 16.1899 9.10999V7.47003C16.1899 7.42003 16.23 7.37 16.29 7.37H19.8799C19.8799 7.37 19.95 7.38998 19.97 7.41998C19.99 7.44998 19.99 7.49002 19.97 7.52002L18.9399 9.16003C18.9399 9.16003 18.89 9.21002 18.86 9.21002H18.85ZM16.39 9.01001H18.81L19.71 7.57001H16.39V9.01001ZM15.7599 9.20001H12.22C12.17 9.20001 12.12 9.16004 12.12 9.10004V7.46002C12.12 7.41002 12.16 7.35999 12.22 7.35999H15.7599C15.8099 7.35999 15.86 7.40002 15.86 7.46002V9.10004C15.86 9.15004 15.8199 9.20001 15.7599 9.20001ZM12.3199 9.01001H15.66V7.57001H12.3199V9.01001ZM11.7 9.20001H7.95996C7.95996 9.20001 7.86999 9.17 7.85999 9.12L7.52997 7.48004C7.52997 7.48004 7.52999 7.42002 7.54999 7.40002C7.56999 7.38002 7.59994 7.35999 7.62994 7.35999H11.7C11.75 7.35999 11.8 7.40002 11.8 7.46002V9.10004C11.8 9.15004 11.76 9.20001 11.7 9.20001ZM8.03998 9.01001H11.6V7.57001H7.75L8.03998 9.01001Z" fill="#231F20"/>
</svg>
