<svg width="22" height="22" viewBox="0 0 22 22" fill="none" xmlns="http://www.w3.org/2000/svg">
<path d="M19.97 16.4001H1.35999C1.21999 16.4001 1.09998 16.2801 1.09998 16.1401V2.36009C1.09998 2.22009 1.21999 2.1001 1.35999 2.1001H19.97C20.11 2.1001 20.23 2.22009 20.23 2.36009V16.1401C20.23 16.2801 20.11 16.4001 19.97 16.4001ZM1.62 15.8801H19.7V2.6201H1.62V15.8801Z" fill="#231F20"/>
<path d="M19.97 16.5H1.35999C1.15999 16.5 1 16.34 1 16.14V2.36C1 2.16 1.15999 2 1.35999 2H19.97C20.17 2 20.33 2.16 20.33 2.36V16.14C20.33 16.34 20.17 16.5 19.97 16.5ZM1.35999 2.19C1.26999 2.19 1.20001 2.26001 1.20001 2.35001V16.13C1.20001 16.22 1.26999 16.29 1.35999 16.29H19.97C20.06 16.29 20.13 16.22 20.13 16.13V2.35001C20.13 2.26001 20.06 2.19 19.97 2.19H1.35999ZM19.71 15.98H1.63C1.58 15.98 1.53003 15.94 1.53003 15.88V2.62001C1.53003 2.57001 1.57 2.52 1.63 2.52H19.71C19.76 2.52 19.81 2.56001 19.81 2.62001V15.88C19.81 15.93 19.77 15.98 19.71 15.98ZM1.71997 15.78H19.61V2.72H1.71997V15.78Z" fill="#231F20"/>
<path d="M8.27002 19.4001C8.13002 19.4001 8.01001 19.2801 8.01001 19.1401V16.1501C8.01001 16.0101 8.13002 15.8901 8.27002 15.8901C8.41002 15.8901 8.53003 16.0101 8.53003 16.1501V19.1401C8.53003 19.2801 8.41002 19.4001 8.27002 19.4001Z" fill="#231F20"/>
<path d="M8.27002 19.49C8.07002 19.49 7.90997 19.33 7.90997 19.13V16.14C7.90997 15.94 8.07002 15.78 8.27002 15.78C8.47002 15.78 8.63 15.94 8.63 16.14V19.13C8.63 19.33 8.47002 19.49 8.27002 19.49ZM8.27002 15.98C8.18002 15.98 8.10999 16.05 8.10999 16.14V19.13C8.10999 19.22 8.18002 19.29 8.27002 19.29C8.36002 19.29 8.42999 19.22 8.42999 19.13V16.14C8.42999 16.05 8.36002 15.98 8.27002 15.98Z" fill="#231F20"/>
<path d="M13.07 19.4001C12.93 19.4001 12.81 19.2801 12.81 19.1401V16.1501C12.81 16.0101 12.93 15.8901 13.07 15.8901C13.21 15.8901 13.33 16.0101 13.33 16.1501V19.1401C13.33 19.2801 13.21 19.4001 13.07 19.4001Z" fill="#231F20"/>
<path d="M13.07 19.49C12.87 19.49 12.71 19.33 12.71 19.13V16.14C12.71 15.94 12.87 15.78 13.07 15.78C13.27 15.78 13.43 15.94 13.43 16.14V19.13C13.43 19.33 13.27 19.49 13.07 19.49ZM13.07 15.98C12.98 15.98 12.91 16.05 12.91 16.14V19.13C12.91 19.22 12.98 19.29 13.07 19.29C13.16 19.29 13.23 19.22 13.23 19.13V16.14C13.23 16.05 13.16 15.98 13.07 15.98Z" fill="#231F20"/>
<path d="M19.69 14H1.35999C1.21999 14 1.09998 13.88 1.09998 13.74C1.09998 13.6 1.21999 13.48 1.35999 13.48H19.69C19.83 13.48 19.95 13.6 19.95 13.74C19.95 13.88 19.83 14 19.69 14Z" fill="#231F20"/>
<path d="M19.69 14.0999H1.35999C1.15999 14.0999 1 13.9399 1 13.7399C1 13.5399 1.15999 13.3799 1.35999 13.3799H19.69C19.89 13.3799 20.05 13.5399 20.05 13.7399C20.05 13.9399 19.89 14.0999 19.69 14.0999ZM1.35999 13.5799C1.26999 13.5799 1.20001 13.6499 1.20001 13.7399C1.20001 13.8299 1.26999 13.8999 1.35999 13.8999H19.69C19.78 13.8999 19.85 13.8299 19.85 13.7399C19.85 13.6499 19.78 13.5799 19.69 13.5799H1.35999Z" fill="#231F20"/>
<path d="M15.34 19.6401H5.95001C5.81001 19.6401 5.69 19.5201 5.69 19.3801C5.69 19.2401 5.81001 19.1201 5.95001 19.1201H15.34C15.48 19.1201 15.6 19.2401 15.6 19.3801C15.6 19.5201 15.48 19.6401 15.34 19.6401Z" fill="#231F20"/>
<path d="M15.34 19.73H5.95001C5.75001 19.73 5.59003 19.57 5.59003 19.37C5.59003 19.17 5.75001 19.01 5.95001 19.01H15.34C15.54 19.01 15.7 19.17 15.7 19.37C15.7 19.57 15.54 19.73 15.34 19.73ZM5.95001 19.21C5.86001 19.21 5.78998 19.28 5.78998 19.37C5.78998 19.46 5.86001 19.53 5.95001 19.53H15.34C15.43 19.53 15.5 19.46 15.5 19.37C15.5 19.28 15.43 19.21 15.34 19.21H5.95001Z" fill="#231F20"/>
</svg>
