<svg width="22" height="22" viewBox="0 0 22 22" fill="none" xmlns="http://www.w3.org/2000/svg">
<path d="M12.49 20.8799H10.49C10.1 20.8799 9.78998 20.5599 9.78998 20.1799V19.3299C9.78998 18.9199 9.52995 18.5599 9.13995 18.4299C8.83995 18.3299 8.54 18.1999 8.25 18.0599C7.89 17.8799 7.47 17.9499 7.19 18.2299L6.57001 18.8499C6.30001 19.1199 5.83996 19.1199 5.57996 18.8499L4.15997 17.4399C3.88997 17.1699 3.88997 16.7199 4.15997 16.4499L4.78998 15.8199C5.06998 15.5399 5.13996 15.1199 4.95996 14.7599C4.81996 14.4699 4.68997 14.1699 4.58997 13.8699C4.45997 13.4799 4.09995 13.2199 3.69995 13.2199H2.82001C2.43001 13.2199 2.12 12.8999 2.12 12.5199V10.5199C2.12 10.1299 2.44001 9.81995 2.82001 9.81995H3.70996C4.10996 9.81995 4.46998 9.55993 4.59998 9.17993C4.69998 8.87993 4.82997 8.58993 4.96997 8.29993C5.14997 7.93993 5.07999 7.51993 4.79999 7.23993L4.14996 6.5899C4.01996 6.4599 3.94 6.2799 3.94 6.0899C3.94 5.8999 4.00996 5.7299 4.14996 5.5899L5.57001 4.17993C5.83001 3.90993 6.3 3.90993 6.56 4.17993L7.20996 4.8299C7.48996 5.10989 7.90996 5.17994 8.26996 4.99994C8.54996 4.85994 8.84996 4.73989 9.14996 4.63989C9.52996 4.50989 9.78998 4.15995 9.78998 3.75995V2.8399C9.78998 2.4499 10.11 2.13989 10.49 2.13989H12.49C12.88 2.13989 13.19 2.4599 13.19 2.8399V3.75995C13.19 4.15995 13.45 4.50989 13.83 4.63989C14.13 4.73989 14.42 4.85994 14.71 4.99994C15.07 5.17994 15.49 5.10989 15.77 4.8299L16.42 4.17993C16.69 3.90993 17.14 3.90993 17.41 4.17993L18.82 5.59991C18.95 5.72991 19.03 5.90991 19.03 6.09991C19.03 6.28991 18.96 6.45991 18.82 6.59991L18.17 7.24994C17.89 7.52994 17.82 7.95994 18 8.30994C18.14 8.58994 18.27 8.88994 18.37 9.18994C18.5 9.56994 18.86 9.8299 19.26 9.8299H20.15C20.54 9.8299 20.85 10.1499 20.85 10.5299V12.5299C20.85 12.9199 20.53 13.2299 20.15 13.2299H19.27C18.87 13.2299 18.51 13.4899 18.38 13.8799C18.28 14.1799 18.15 14.4799 18.01 14.7699C17.83 15.1299 17.9 15.5499 18.18 15.8299L18.81 16.4599C19.08 16.7299 19.08 17.1799 18.81 17.4499L17.4 18.8599C17.13 19.1299 16.68 19.1299 16.41 18.8599L15.79 18.2399C15.51 17.9599 15.08 17.8899 14.73 18.0699C14.44 18.2099 14.14 18.3399 13.84 18.4399C13.45 18.5699 13.19 18.9399 13.19 19.3399V20.1899C13.19 20.5799 12.87 20.89 12.49 20.89V20.8799ZM7.82996 17.4299C8.04996 17.4299 8.26998 17.4799 8.47998 17.5799C8.74998 17.7099 9.03 17.8299 9.31 17.9299C9.91 18.1399 10.32 18.6999 10.32 19.3299V20.1799C10.32 20.2799 10.4 20.3599 10.5 20.3599H12.5C12.6 20.3599 12.68 20.2799 12.68 20.1799V19.3299C12.68 18.6999 13.08 18.1399 13.69 17.9299C13.97 17.8299 14.25 17.7199 14.52 17.5799C15.08 17.2999 15.75 17.4099 16.19 17.8499L16.81 18.4699C16.88 18.5399 16.99 18.5399 17.06 18.4699L18.47 17.0599C18.47 17.0599 18.52 16.9799 18.52 16.9299C18.52 16.8799 18.5 16.8399 18.47 16.7999L17.84 16.1699C17.4 15.7299 17.3 15.0699 17.57 14.5099C17.7 14.2399 17.82 13.9599 17.91 13.6799C18.11 13.0799 18.67 12.6799 19.3 12.6799H20.18C20.28 12.6799 20.36 12.5999 20.36 12.4999V10.4999C20.36 10.3999 20.28 10.3199 20.18 10.3199H19.29C18.67 10.3199 18.11 9.91995 17.9 9.31995C17.8 9.03995 17.69 8.76995 17.56 8.50995C17.28 7.94995 17.39 7.2799 17.83 6.8399L18.48 6.18994C18.48 6.18994 18.53 6.10994 18.53 6.05994C18.53 6.00994 18.51 5.96993 18.48 5.92993L17.07 4.50995C17 4.43995 16.89 4.43995 16.82 4.50995L16.17 5.15991C15.73 5.59991 15.07 5.69993 14.51 5.42993C14.25 5.29993 13.97 5.1899 13.69 5.0899C13.1 4.8899 12.7 4.3399 12.7 3.7099V2.78992C12.7 2.68992 12.62 2.60992 12.52 2.60992H10.52C10.42 2.60992 10.34 2.68992 10.34 2.78992V3.7099C10.34 4.3299 9.93998 4.8899 9.34998 5.0899C9.06998 5.1799 8.79997 5.29993 8.52997 5.42993C7.96997 5.70993 7.29999 5.59991 6.87 5.15991L6.21997 4.50995C6.14997 4.43995 6.02997 4.43995 5.96997 4.50995L4.54999 5.92993C4.54999 5.92993 4.5 6.00994 4.5 6.05994C4.5 6.10994 4.51999 6.14994 4.54999 6.18994L5.19995 6.8399C5.63995 7.2799 5.74997 7.94995 5.46997 8.50995C5.33997 8.76995 5.22 9.04995 5.13 9.31995C4.93 9.91995 4.36999 10.3199 3.73999 10.3199H2.84998C2.74998 10.3199 2.66998 10.3999 2.66998 10.4999V12.4999C2.66998 12.5999 2.74998 12.6799 2.84998 12.6799H3.72998C4.35998 12.6799 4.92 13.0799 5.12 13.6799C5.22 13.9599 5.32996 14.2399 5.45996 14.5099C5.73996 15.0699 5.63 15.7299 5.19 16.1699L4.56 16.7999C4.56 16.7999 4.51001 16.8799 4.51001 16.9299C4.51001 16.9799 4.53 17.0199 4.56 17.0599L5.97998 18.4699C6.04998 18.5399 6.16998 18.5399 6.22998 18.4699L6.84998 17.8499C7.12998 17.5699 7.49 17.4299 7.87 17.4299H7.82996Z" fill="#231F20"/>
<path d="M12.49 20.98H10.49C10.05 20.98 9.69 20.6199 9.69 20.1799V19.33C9.69 18.97 9.45999 18.64 9.10999 18.52C8.79999 18.41 8.49995 18.29 8.19995 18.14C7.87995 17.98 7.5 18.04 7.25 18.29L6.63 18.91C6.49001 19.05 6.28 19.14 6.06 19.14C5.84 19.14 5.63999 19.06 5.48999 18.91L4.07001 17.5C3.76001 17.19 3.76001 16.68 4.07001 16.37L4.69995 15.74C4.94995 15.49 5.00998 15.11 4.84998 14.79C4.70998 14.5 4.57998 14.19 4.47998 13.88C4.35998 13.53 4.03999 13.3 3.67999 13.3H2.79999C2.35999 13.3 2 12.94 2 12.5V10.5C2 10.06 2.35999 9.69995 2.79999 9.69995H3.69C4.05 9.69995 4.36999 9.47 4.48999 9.12C4.58999 8.81999 4.71999 8.51998 4.85999 8.22998C5.01999 7.90998 4.95996 7.52997 4.70996 7.27997L4.06 6.63C3.91 6.48 3.82996 6.28 3.82996 6.06C3.82996 5.84 3.91 5.63999 4.06 5.48999L5.47998 4.07001C5.61998 3.93001 5.82999 3.83997 6.04999 3.83997C6.26999 3.83997 6.47 3.92001 6.62 4.07001L7.26996 4.72998C7.51996 4.97998 7.89997 5.04 8.21997 4.88C8.50997 4.74 8.80999 4.61001 9.10999 4.51001C9.44999 4.39001 9.67999 4.07997 9.67999 3.71997V2.79999C9.67999 2.35999 10.04 2 10.48 2H12.48C12.92 2 13.28 2.35999 13.28 2.79999V3.71997C13.28 4.07997 13.51 4.39001 13.85 4.51001C14.15 4.61001 14.45 4.74 14.74 4.88C15.06 5.04 15.44 4.97998 15.69 4.72998L16.34 4.07996C16.65 3.76996 17.16 3.76996 17.47 4.07996L18.89 5.5C19.04 5.65 19.12 5.85001 19.12 6.07001C19.12 6.29001 19.04 6.48995 18.89 6.63995L18.24 7.28998C17.99 7.53998 17.93 7.91999 18.09 8.23999C18.23 8.52999 18.36 8.83 18.46 9.13C18.58 9.47001 18.9 9.70996 19.26 9.70996H20.15C20.59 9.70996 20.95 10.07 20.95 10.51V12.51C20.95 12.95 20.59 13.31 20.15 13.31H19.27C18.91 13.31 18.59 13.54 18.47 13.89C18.37 14.2 18.24 14.5 18.1 14.8C17.94 15.12 18 15.5 18.25 15.75L18.88 16.38C19.19 16.69 19.19 17.2 18.88 17.51L17.47 18.9299C17.16 19.2399 16.65 19.2399 16.34 18.9299L15.72 18.3099C15.47 18.0599 15.09 18 14.77 18.16C14.48 18.31 14.17 18.43 13.86 18.54C13.51 18.66 13.28 18.99 13.28 19.35V20.2C13.28 20.64 12.92 21 12.48 21L12.49 20.98ZM7.82996 17.85C7.98996 17.85 8.13998 17.89 8.28998 17.96C8.56998 18.1 8.86998 18.23 9.16998 18.33C9.59998 18.48 9.88995 18.88 9.88995 19.33V20.1799C9.88995 20.5099 10.16 20.78 10.49 20.78H12.49C12.82 20.78 13.09 20.5099 13.09 20.1799V19.33C13.09 18.88 13.38 18.48 13.81 18.33C14.11 18.23 14.41 18.1 14.69 17.96C15.09 17.76 15.56 17.84 15.87 18.15L16.49 18.77C16.73 19.01 17.11 19.01 17.35 18.77L18.76 17.35C19 17.11 19 16.73 18.76 16.5L18.13 15.87C17.82 15.56 17.75 15.09 17.94 14.7C18.08 14.42 18.2 14.12 18.3 13.82C18.44 13.39 18.84 13.11 19.29 13.11H20.17C20.5 13.11 20.77 12.84 20.77 12.51V10.51C20.77 10.18 20.5 9.90997 20.17 9.90997H19.28C18.84 9.90997 18.44 9.62995 18.3 9.19995C18.2 8.90995 18.08 8.60996 17.94 8.32996C17.74 7.92996 17.82 7.45996 18.13 7.14996L18.78 6.5C18.89 6.39 18.96 6.23001 18.96 6.07001C18.96 5.91001 18.9 5.75995 18.78 5.63995L17.37 4.21997C17.13 3.97997 16.75 3.97997 16.52 4.21997L15.87 4.87C15.56 5.18 15.09 5.25 14.7 5.06C14.42 4.92 14.13 4.79995 13.83 4.69995C13.41 4.55995 13.13 4.16998 13.13 3.72998V2.81C13.13 2.48 12.86 2.20996 12.53 2.20996H10.53C10.2 2.20996 9.92999 2.48 9.92999 2.81V3.72998C9.92999 4.16998 9.64998 4.55995 9.22998 4.69995C8.93998 4.79995 8.63999 4.92 8.35999 5.06C7.96999 5.26 7.49 5.18 7.19 4.87L6.53998 4.21997C6.42998 4.10997 6.27999 4.04999 6.10999 4.04999C5.94999 4.04999 5.78999 4.10997 5.67999 4.21997L4.26996 5.63995C4.15996 5.74995 4.08997 5.91001 4.08997 6.07001C4.08997 6.23001 4.14996 6.38 4.26996 6.5L4.91998 7.14996C5.22998 7.45996 5.29999 7.92996 5.10999 8.32996C4.96999 8.60996 4.85 8.89995 4.75 9.19995C4.6 9.61995 4.20996 9.90997 3.76996 9.90997H2.88C2.55 9.90997 2.27997 10.18 2.27997 10.51V12.51C2.27997 12.84 2.55 13.11 2.88 13.11H3.76001C4.21001 13.11 4.6 13.4 4.75 13.82C4.85 14.12 4.96999 14.42 5.10999 14.7C5.29999 15.09 5.22998 15.56 4.91998 15.87L4.28998 16.5C4.04998 16.74 4.04998 17.12 4.28998 17.35L5.69995 18.77C5.80995 18.88 5.96 18.9399 6.13 18.9399C6.29 18.9399 6.45 18.88 6.56 18.77L7.17999 18.15C7.36999 17.96 7.62996 17.85 7.89996 17.85H7.82996ZM12.49 20.46H10.49C10.34 20.46 10.21 20.3399 10.21 20.1799V19.33C10.21 18.74 9.82996 18.22 9.26996 18.02C8.97996 17.92 8.69999 17.7999 8.42999 17.6699C8.23999 17.5799 8.03001 17.53 7.82001 17.53C7.46001 17.53 7.13 17.6699 6.87 17.9199L6.25 18.54C6.2 18.59 6.12999 18.62 6.04999 18.62C5.97999 18.62 5.89998 18.59 5.84998 18.54L4.42999 17.12C4.37999 17.07 4.34998 16.9999 4.34998 16.9199C4.34998 16.8399 4.37999 16.78 4.42999 16.72L5.06 16.09C5.47 15.68 5.57 15.06 5.31 14.54C5.18 14.27 5.05996 13.99 4.95996 13.7C4.76996 13.14 4.24997 12.76 3.65997 12.76H2.77997C2.62997 12.76 2.5 12.64 2.5 12.48V10.48C2.5 10.33 2.61997 10.2 2.77997 10.2H3.66998C4.24998 10.2 4.76996 9.82996 4.95996 9.26996C5.05996 8.98996 5.17 8.71 5.31 8.44C5.57 7.92 5.47 7.28995 5.06 6.88995L4.40997 6.23999C4.35997 6.18999 4.32996 6.11998 4.32996 6.03998C4.32996 5.95998 4.35997 5.89997 4.40997 5.83997L5.82996 4.41998C5.92996 4.31998 6.11997 4.31998 6.21997 4.41998L6.88 5.07996C7.29 5.48996 7.90999 5.58996 8.42999 5.32996C8.69999 5.19996 8.98001 5.07999 9.26001 4.98999C9.81001 4.79999 10.18 4.28996 10.18 3.70996V2.78998C10.18 2.63998 10.3 2.51001 10.46 2.51001H12.46C12.61 2.51001 12.74 2.62998 12.74 2.78998V3.70996C12.74 4.28996 13.11 4.80999 13.67 4.98999C13.95 5.08999 14.23 5.19996 14.5 5.32996C15.02 5.58996 15.64 5.48996 16.05 5.07996L16.7 4.42999C16.75 4.37999 16.82 4.34998 16.9 4.34998C16.97 4.34998 17.04 4.37999 17.1 4.42999L18.51 5.84998C18.56 5.89998 18.59 5.96999 18.59 6.04999C18.59 6.12999 18.56 6.19 18.51 6.25L17.86 6.89996C17.45 7.30996 17.35 7.92995 17.61 8.44995C17.74 8.71995 17.86 8.99997 17.96 9.27997C18.15 9.83997 18.67 10.21 19.25 10.21H20.14C20.29 10.21 20.42 10.33 20.42 10.49V12.49C20.42 12.64 20.3 12.77 20.14 12.77H19.26C18.67 12.77 18.15 13.15 17.96 13.71C17.86 14 17.75 14.28 17.61 14.55C17.35 15.07 17.45 15.69 17.86 16.1L18.49 16.73C18.54 16.78 18.57 16.8499 18.57 16.9299C18.57 17.0099 18.54 17.07 18.49 17.13L17.08 18.54C16.97 18.65 16.8 18.65 16.69 18.54L16.07 17.9199C15.66 17.5099 15.04 17.4099 14.52 17.6699C14.25 17.8099 13.97 17.92 13.68 18.02C13.12 18.21 12.74 18.74 12.74 19.33V20.1799C12.74 20.3299 12.62 20.46 12.46 20.46H12.49ZM7.82996 17.33C8.06996 17.33 8.30996 17.39 8.51996 17.49C8.77996 17.62 9.05997 17.74 9.33997 17.83C9.97997 18.05 10.41 18.6499 10.41 19.3199V20.1699C10.41 20.1699 10.45 20.25 10.49 20.25H12.49C12.49 20.25 12.57 20.2099 12.57 20.1699V19.3199C12.57 18.6499 13 18.05 13.64 17.83C13.92 17.73 14.19 17.62 14.46 17.49C15.06 17.19 15.77 17.31 16.24 17.78L16.86 18.4C16.86 18.4 16.94 18.43 16.97 18.4L18.38 16.99C18.38 16.99 18.4 16.9599 18.4 16.9299C18.4 16.8999 18.4 16.89 18.38 16.87L17.75 16.24C17.28 15.77 17.17 15.06 17.46 14.47C17.59 14.21 17.7 13.93 17.8 13.65C18.02 13.01 18.61 12.58 19.28 12.58H20.16C20.16 12.58 20.24 12.54 20.24 12.5V10.5C20.24 10.5 20.2 10.42 20.16 10.42H19.27C18.6 10.42 18.01 9.98999 17.79 9.35999C17.7 9.08999 17.58 8.82 17.45 8.56C17.15 7.96 17.27 7.24997 17.74 6.77997L18.39 6.13C18.39 6.13 18.41 6.09001 18.41 6.07001C18.41 6.05001 18.41 6.03001 18.39 6.01001L16.97 4.58997C16.97 4.58997 16.93 4.57001 16.91 4.57001C16.91 4.57001 16.87 4.56997 16.85 4.58997L16.2 5.23999C15.73 5.70999 15.02 5.81997 14.42 5.52997C14.16 5.39997 13.89 5.28995 13.62 5.19995C12.99 4.98995 12.56 4.38998 12.56 3.72998V2.81C12.56 2.81 12.52 2.72998 12.48 2.72998H10.48C10.48 2.72998 10.4 2.77 10.4 2.81V3.72998C10.4 4.38998 9.96997 4.98995 9.33997 5.19995C9.06997 5.28995 8.79998 5.39997 8.53998 5.52997C7.93998 5.81997 7.23001 5.70999 6.76001 5.23999L6.10999 4.57996C6.10999 4.57996 6.02 4.54996 6 4.57996L4.58997 6C4.58997 6 4.57001 6.04 4.57001 6.06C4.57001 6.08 4.56997 6.1 4.58997 6.12L5.23999 6.76996C5.70999 7.23996 5.81997 7.94999 5.52997 8.54999C5.39997 8.80999 5.29 9.07998 5.19 9.34998C4.97 9.97998 4.37996 10.41 3.70996 10.41H2.82001C2.82001 10.41 2.73999 10.45 2.73999 10.49V12.49C2.73999 12.49 2.78001 12.57 2.82001 12.57H3.69995C4.36995 12.57 4.96999 13 5.17999 13.64C5.26999 13.92 5.38996 14.19 5.51996 14.46C5.80996 15.05 5.69998 15.77 5.22998 16.23L4.59998 16.86C4.59998 16.86 4.57996 16.8999 4.57996 16.9199C4.57996 16.9399 4.57998 16.96 4.59998 16.98L6.01001 18.4C6.01001 18.4 6.04001 18.4199 6.07001 18.4199C6.07001 18.4199 6.11 18.42 6.13 18.4L6.75 17.78C7.04 17.49 7.42997 17.33 7.83997 17.33H7.82996Z" fill="#231F20"/>
<path d="M11.49 16.74C8.59999 16.74 6.25 14.39 6.25 11.5C6.25 8.61 8.59999 6.26001 11.49 6.26001C14.38 6.26001 16.73 8.61 16.73 11.5C16.73 14.39 14.38 16.74 11.49 16.74ZM11.49 6.78998C8.88999 6.78998 6.77997 8.9 6.77997 11.5C6.77997 14.1 8.88999 16.21 11.49 16.21C14.09 16.21 16.2 14.1 16.2 11.5C16.2 8.9 14.09 6.78998 11.49 6.78998Z" fill="#231F20"/>
<path d="M11.49 16.8399C8.54999 16.8399 6.14996 14.4499 6.14996 11.4999C6.14996 8.54994 8.53999 6.15991 11.49 6.15991C14.44 6.15991 16.83 8.54994 16.83 11.4999C16.83 14.4499 14.44 16.8399 11.49 16.8399ZM11.49 6.35992C8.65999 6.35992 6.34998 8.66994 6.34998 11.4999C6.34998 14.3299 8.65999 16.64 11.49 16.64C14.32 16.64 16.63 14.3299 16.63 11.4999C16.63 8.66994 14.32 6.35992 11.49 6.35992ZM11.49 16.3099C8.83999 16.3099 6.67999 14.1499 6.67999 11.4999C6.67999 8.84994 8.83999 6.68994 11.49 6.68994C14.14 6.68994 16.3 8.84994 16.3 11.4999C16.3 14.1499 14.14 16.3099 11.49 16.3099ZM11.49 6.88989C8.94999 6.88989 6.88 8.95994 6.88 11.4999C6.88 14.0399 8.94999 16.1099 11.49 16.1099C14.03 16.1099 16.1 14.0399 16.1 11.4999C16.1 8.95994 14.03 6.88989 11.49 6.88989Z" fill="#231F20"/>
</svg>
