<svg width="22" height="22" viewBox="0 0 22 22" fill="none" xmlns="http://www.w3.org/2000/svg">
<path d="M10.75 20.4001C5.43 20.4001 1.10004 16.0701 1.10004 10.7501C1.10004 5.43012 5.43 1.1001 10.75 1.1001C16.07 1.1001 20.4 5.43012 20.4 10.7501C20.4 16.0701 16.07 20.4001 10.75 20.4001ZM10.75 1.62012C5.72 1.62012 1.62 5.72012 1.62 10.7501C1.62 15.7801 5.72 19.8801 10.75 19.8801C15.78 19.8801 19.88 15.7801 19.88 10.7501C19.88 5.72012 15.78 1.62012 10.75 1.62012Z" fill="#231F20"/>
<path d="M10.75 20.5C5.37 20.5 1 16.13 1 10.75C1 5.37 5.37 1 10.75 1C16.13 1 20.5 5.37 20.5 10.75C20.5 16.13 16.13 20.5 10.75 20.5ZM10.75 1.19C5.48 1.19 1.19 5.47999 1.19 10.74C1.19 16 5.48 20.29 10.75 20.29C16.02 20.29 20.3 16 20.3 10.74C20.3 5.47999 16.01 1.19 10.75 1.19ZM10.75 19.98C5.66 19.98 1.52002 15.84 1.52002 10.75C1.52002 5.66 5.66 1.51999 10.75 1.51999C15.84 1.51999 19.98 5.66 19.98 10.75C19.98 15.84 15.84 19.98 10.75 19.98ZM10.75 1.72C5.77 1.72 1.72003 5.77 1.72003 10.75C1.72003 15.73 5.77 19.78 10.75 19.78C15.73 19.78 19.78 15.73 19.78 10.75C19.78 5.77 15.73 1.72 10.75 1.72Z" fill="#231F20"/>
<path d="M10.7201 20.3099C10.5901 20.3099 10.4801 20.2199 10.4601 20.0899C10.4401 19.9499 10.53 19.8099 10.67 19.7899C14.39 19.1499 17.19 15.2699 17.19 10.7499C17.19 6.22991 14.5501 2.51989 10.9101 1.75989C10.7701 1.72989 10.6801 1.58989 10.7101 1.44989C10.7401 1.30989 10.88 1.21991 11.02 1.24991C14.9 2.06991 17.7201 6.05991 17.7201 10.7499C17.7201 15.4399 14.73 19.6199 10.77 20.2999C10.75 20.2999 10.7401 20.2999 10.7301 20.2999L10.7201 20.3099Z" fill="#231F20"/>
<path d="M10.72 20.4C10.54 20.4 10.39 20.27 10.36 20.1C10.34 20.01 10.36 19.91 10.42 19.83C10.48 19.75 10.56 19.7 10.65 19.68C14.32 19.05 17.09 15.21 17.09 10.74C17.09 6.26997 14.48 2.59997 10.89 1.83997C10.7 1.79997 10.57 1.60998 10.61 1.40998C10.63 1.31998 10.69 1.22997 10.77 1.17997C10.85 1.12997 10.95 1.10998 11.04 1.12998C14.97 1.95998 17.82 5.98996 17.82 10.73C17.82 15.47 14.8 19.69 10.78 20.38C10.76 20.38 10.74 20.38 10.72 20.38V20.4ZM10.96 1.33997C10.96 1.33997 10.9 1.33997 10.87 1.36997C10.83 1.38997 10.81 1.42998 10.8 1.46998C10.78 1.55998 10.84 1.64998 10.93 1.65998C14.62 2.42998 17.29 6.25998 17.29 10.75C17.29 15.24 14.45 19.24 10.69 19.88C10.65 19.88 10.61 19.91 10.58 19.95C10.55 19.99 10.54 20.03 10.55 20.07C10.57 20.16 10.65 20.22 10.74 20.2C14.66 19.53 17.61 15.46 17.61 10.74C17.61 6.01997 14.83 2.13996 10.99 1.32996C10.98 1.32996 10.97 1.32996 10.96 1.32996V1.33997Z" fill="#231F20"/>
<path d="M10.75 20.3099C10.75 20.3099 10.72 20.3099 10.71 20.3099C6.76002 19.6299 3.79004 15.5199 3.79004 10.7599C3.79004 5.99992 6.59002 2.06992 10.46 1.25992C10.6 1.22992 10.74 1.31993 10.77 1.45993C10.8 1.59993 10.71 1.73993 10.57 1.76993C6.95001 2.53993 4.32001 6.31992 4.32001 10.7599C4.32001 15.1999 7.11 19.1599 10.81 19.7999C10.95 19.8199 11.05 19.9599 11.02 20.0999C11 20.2299 10.89 20.3199 10.76 20.3199L10.75 20.3099Z" fill="#231F20"/>
<path d="M10.75 20.4C10.75 20.4 10.71 20.4 10.69 20.4C6.7 19.71 3.69 15.56 3.69 10.75C3.69 5.94 6.53 1.98 10.44 1.15C10.63 1.11 10.83 1.23 10.87 1.43C10.91 1.62 10.79 1.81999 10.59 1.85999C7.01003 2.61999 4.41003 6.35998 4.41003 10.76C4.41003 15.16 7.16001 19.07 10.82 19.7C11.02 19.73 11.15 19.92 11.11 20.12C11.08 20.29 10.93 20.42 10.76 20.42L10.75 20.4ZM10.51 1.34C10.51 1.34 10.49 1.34 10.47 1.34C6.65003 2.15 3.88 6.1 3.88 10.75C3.88 15.4 6.82003 19.54 10.72 20.21C10.83 20.23 10.89 20.16 10.91 20.08C10.91 20.04 10.91 19.99 10.88 19.96C10.85 19.92 10.82 19.9 10.77 19.89C7.02002 19.25 4.20001 15.32 4.20001 10.76C4.20001 6.19998 6.86003 2.44999 10.53 1.66999C10.57 1.66999 10.61 1.63998 10.63 1.59998C10.65 1.55998 10.66 1.51998 10.65 1.47998C10.63 1.39998 10.57 1.34998 10.49 1.34998L10.51 1.34Z" fill="#231F20"/>
<path d="M10.75 7.25C8.17 7.25 5.74998 6.24998 3.91998 4.41998L4.29004 4.04999C6.01004 5.76999 8.31 6.72 10.75 6.72C13.19 6.72 15.54 5.74998 17.27 3.97998L17.64 4.34998C15.81 6.21998 13.36 7.23999 10.75 7.23999V7.25Z" fill="#231F20"/>
<path d="M10.75 7.34989C8.14997 7.34989 5.70001 6.3399 3.85001 4.4899C3.81001 4.4499 3.81001 4.38989 3.85001 4.34989L4.22 3.97989C4.22 3.97989 4.31996 3.93989 4.35996 3.97989C6.06996 5.68989 8.32997 6.62991 10.75 6.62991C13.17 6.62991 15.48 5.66989 17.2 3.91989C17.24 3.87989 17.3 3.87989 17.34 3.91989L17.71 4.28989C17.71 4.28989 17.74 4.3299 17.74 4.3599C17.74 4.3899 17.73 4.4099 17.71 4.4299C15.86 6.3099 13.39 7.34989 10.75 7.34989ZM4.05997 4.41989C5.85997 6.17989 8.22997 7.1499 10.75 7.1499C13.27 7.1499 15.7 6.15989 17.5 4.3599L17.27 4.12991C15.53 5.86991 13.22 6.8299 10.75 6.8299C8.27997 6.8299 6.02996 5.89989 4.29996 4.19989L4.06998 4.4299L4.05997 4.41989Z" fill="#231F20"/>
<path d="M4.23004 17.51L3.85999 17.14C5.68999 15.27 8.14 14.24 10.75 14.24C13.36 14.24 15.75 15.24 17.58 17.07L17.21 17.44C15.49 15.72 13.19 14.77 10.75 14.77C8.31 14.77 5.96004 15.74 4.23004 17.51Z" fill="#231F20"/>
<path d="M4.23006 17.6099C4.23006 17.6099 4.18005 17.5999 4.16005 17.5799L3.79006 17.2099C3.79006 17.2099 3.75006 17.1099 3.79006 17.0699C5.64006 15.1799 8.11002 14.1499 10.75 14.1499C13.39 14.1499 15.8 15.1599 17.65 17.0099C17.69 17.0499 17.69 17.1099 17.65 17.1499L17.28 17.5199C17.28 17.5199 17.18 17.5599 17.14 17.5199C15.43 15.8099 13.17 14.8699 10.75 14.8699C8.33002 14.8699 6.01 15.8299 4.3 17.5799C4.28 17.5999 4.26006 17.6099 4.23006 17.6099ZM4.00002 17.1399L4.23006 17.3699C5.97006 15.6299 8.28002 14.6699 10.75 14.6699C13.22 14.6699 15.47 15.5999 17.2 17.2999L17.43 17.0699C15.63 15.3099 13.26 14.3399 10.74 14.3399C8.22001 14.3399 5.79001 15.3299 3.99001 17.1399H4.00002Z" fill="#231F20"/>
<path d="M20.14 10.49H1.35999V11.01H20.14V10.49Z" fill="#231F20"/>
<path d="M20.14 11.1099H1.35999C1.30999 11.1099 1.26001 11.0699 1.26001 11.0099V10.4899C1.26001 10.4399 1.29999 10.3899 1.35999 10.3899H20.14C20.19 10.3899 20.24 10.4299 20.24 10.4899V11.0099C20.24 11.0599 20.2 11.1099 20.14 11.1099ZM1.46002 10.9099H20.05V10.5799H1.46002V10.9099Z" fill="#231F20"/>
<path d="M10.75 20.4001C10.61 20.4001 10.49 20.2801 10.49 20.1401V1.36011C10.49 1.22011 10.61 1.1001 10.75 1.1001C10.89 1.1001 11.01 1.22011 11.01 1.36011V20.1401C11.01 20.2801 10.89 20.4001 10.75 20.4001Z" fill="#231F20"/>
<path d="M10.75 20.5C10.55 20.5 10.39 20.34 10.39 20.14V1.35999C10.39 1.15999 10.55 1 10.75 1C10.95 1 11.11 1.15999 11.11 1.35999V20.14C11.11 20.34 10.95 20.5 10.75 20.5ZM10.75 1.19C10.66 1.19 10.59 1.25998 10.59 1.34998V20.13C10.59 20.22 10.66 20.29 10.75 20.29C10.84 20.29 10.91 20.22 10.91 20.13V1.34998C10.91 1.25998 10.84 1.19 10.75 1.19Z" fill="#231F20"/>
</svg>
