<svg width="22" height="22" viewBox="0 0 22 22" fill="none" xmlns="http://www.w3.org/2000/svg">
<path d="M20.07 1.09009H1.35999C1.21999 1.09009 1.09998 1.2101 1.09998 1.3501V19.8201C1.09998 19.9601 1.21999 20.0801 1.35999 20.0801H20.07C20.21 20.0801 20.33 19.9601 20.33 19.8201V1.3501C20.33 1.2101 20.21 1.09009 20.07 1.09009ZM19.8 1.62012V4.9201H1.62V1.62012H19.8ZM1.62 19.5701V5.44006H19.8V19.5701H1.62Z" fill="#231F20"/>
<path d="M20.07 20.19H1.35999C1.15999 20.19 1 20.03 1 19.83V1.36005C1 1.16005 1.15999 1 1.35999 1H20.07C20.27 1 20.43 1.16005 20.43 1.36005V19.83C20.43 20.03 20.27 20.19 20.07 20.19ZM1.35999 1.19C1.26999 1.19 1.19995 1.26004 1.19995 1.35004V19.82C1.19995 19.91 1.26999 19.98 1.35999 19.98H20.07C20.16 19.98 20.23 19.91 20.23 19.82V1.35004C20.23 1.26004 20.16 1.19 20.07 1.19H1.35999ZM19.8 19.67H1.62C1.57 19.67 1.51996 19.63 1.51996 19.57V5.44C1.51996 5.39 1.56 5.34003 1.62 5.34003H19.8C19.85 5.34003 19.9 5.38 19.9 5.44V19.57C19.9 19.62 19.86 19.67 19.8 19.67ZM1.71997 19.47H19.71V5.54004H1.71997V19.47ZM19.8 5.01001H1.62C1.57 5.01001 1.51996 4.97003 1.51996 4.91003V1.61005C1.51996 1.56005 1.56 1.51001 1.62 1.51001H19.8C19.85 1.51001 19.9 1.55005 19.9 1.61005V4.91003C19.9 4.96003 19.86 5.01001 19.8 5.01001ZM1.71997 4.82001H19.71V1.72003H1.71997V4.82001Z" fill="#231F20"/>
<path d="M3.19 4.15015C3.67 4.15015 4.04999 3.76016 4.04999 3.29016C4.04999 2.82016 3.66 2.43018 3.19 2.43018C2.72 2.43018 2.32996 2.82016 2.32996 3.29016C2.32996 3.76016 2.72 4.15015 3.19 4.15015ZM3.19 2.95013C3.38 2.95013 3.52997 3.10016 3.52997 3.29016C3.52997 3.48016 3.38 3.63013 3.19 3.63013C3 3.63013 2.84998 3.48016 2.84998 3.29016C2.84998 3.10016 3 2.95013 3.19 2.95013Z" fill="#231F20"/>
<path d="M3.19 4.25006C2.66 4.25006 2.22998 3.8201 2.22998 3.2901C2.22998 2.7601 2.66 2.33008 3.19 2.33008C3.72 2.33008 4.14996 2.7601 4.14996 3.2901C4.14996 3.8201 3.72 4.25006 3.19 4.25006ZM3.19 2.53009C2.77 2.53009 2.42999 2.8701 2.42999 3.2901C2.42999 3.7101 2.77 4.05011 3.19 4.05011C3.61 4.05011 3.94995 3.7101 3.94995 3.2901C3.94995 2.8701 3.61 2.53009 3.19 2.53009ZM3.19 3.7301C2.95 3.7301 2.75 3.5301 2.75 3.2901C2.75 3.0501 2.95 2.8501 3.19 2.8501C3.43 2.8501 3.63 3.0501 3.63 3.2901C3.63 3.5301 3.43 3.7301 3.19 3.7301ZM3.19 3.05011C3.06 3.05011 2.94995 3.1601 2.94995 3.2901C2.94995 3.4201 3.06 3.53009 3.19 3.53009C3.32 3.53009 3.42999 3.4201 3.42999 3.2901C3.42999 3.1601 3.32 3.05011 3.19 3.05011Z" fill="#231F20"/>
<path d="M5.37 4.15015C5.85 4.15015 6.22998 3.76016 6.22998 3.29016C6.22998 2.82016 5.84 2.43018 5.37 2.43018C4.9 2.43018 4.51001 2.82016 4.51001 3.29016C4.51001 3.76016 4.9 4.15015 5.37 4.15015ZM5.37 2.95013C5.56 2.95013 5.70996 3.10016 5.70996 3.29016C5.70996 3.48016 5.56 3.63013 5.37 3.63013C5.18 3.63013 5.02997 3.48016 5.02997 3.29016C5.02997 3.10016 5.18 2.95013 5.37 2.95013Z" fill="#231F20"/>
<path d="M5.37 4.25006C4.84 4.25006 4.40997 3.8201 4.40997 3.2901C4.40997 2.7601 4.84 2.33008 5.37 2.33008C5.9 2.33008 6.32996 2.7601 6.32996 3.2901C6.32996 3.8201 5.9 4.25006 5.37 4.25006ZM5.37 2.53009C4.95 2.53009 4.60999 2.8701 4.60999 3.2901C4.60999 3.7101 4.95 4.05011 5.37 4.05011C5.79 4.05011 6.13 3.7101 6.13 3.2901C6.13 2.8701 5.79 2.53009 5.37 2.53009ZM5.37 3.7301C5.13 3.7301 4.92999 3.5301 4.92999 3.2901C4.92999 3.0501 5.13 2.8501 5.37 2.8501C5.61 2.8501 5.81 3.0501 5.81 3.2901C5.81 3.5301 5.61 3.7301 5.37 3.7301ZM5.37 3.05011C5.24 3.05011 5.13 3.1601 5.13 3.2901C5.13 3.4201 5.24 3.53009 5.37 3.53009C5.5 3.53009 5.60999 3.4201 5.60999 3.2901C5.60999 3.1601 5.5 3.05011 5.37 3.05011Z" fill="#231F20"/>
<path d="M7.54999 4.15015C8.02999 4.15015 8.40997 3.76016 8.40997 3.29016C8.40997 2.82016 8.01999 2.43018 7.54999 2.43018C7.07999 2.43018 6.69 2.82016 6.69 3.29016C6.69 3.76016 7.07999 4.15015 7.54999 4.15015ZM7.54999 2.95013C7.73999 2.95013 7.88995 3.10016 7.88995 3.29016C7.88995 3.48016 7.73999 3.63013 7.54999 3.63013C7.35999 3.63013 7.20996 3.48016 7.20996 3.29016C7.20996 3.10016 7.35999 2.95013 7.54999 2.95013Z" fill="#231F20"/>
<path d="M7.54999 4.25006C7.01999 4.25006 6.58997 3.8201 6.58997 3.2901C6.58997 2.7601 7.01999 2.33008 7.54999 2.33008C8.07999 2.33008 8.51001 2.7601 8.51001 3.2901C8.51001 3.8201 8.07999 4.25006 7.54999 4.25006ZM7.54999 2.53009C7.12999 2.53009 6.78998 2.8701 6.78998 3.2901C6.78998 3.7101 7.12999 4.05011 7.54999 4.05011C7.96999 4.05011 8.31 3.7101 8.31 3.2901C8.31 2.8701 7.96999 2.53009 7.54999 2.53009ZM7.54999 3.7301C7.30999 3.7301 7.10999 3.5301 7.10999 3.2901C7.10999 3.0501 7.30999 2.8501 7.54999 2.8501C7.78999 2.8501 7.98999 3.0501 7.98999 3.2901C7.98999 3.5301 7.78999 3.7301 7.54999 3.7301ZM7.54999 3.05011C7.41999 3.05011 7.31 3.1601 7.31 3.2901C7.31 3.4201 7.41999 3.53009 7.54999 3.53009C7.67999 3.53009 7.78998 3.4201 7.78998 3.2901C7.78998 3.1601 7.67999 3.05011 7.54999 3.05011Z" fill="#231F20"/>
<path d="M7.76003 9.26995C7.64003 9.18995 7.47998 9.21997 7.39998 9.34997L5.73 11.8899C5.67 11.9799 5.67 12.09 5.73 12.18L7.39998 14.72C7.44998 14.8 7.53001 14.84 7.62001 14.84C7.67001 14.84 7.72003 14.83 7.76003 14.8C7.88003 14.72 7.90998 14.5599 7.83998 14.4399L6.26998 12.04L7.83998 9.63995C7.91998 9.51995 7.89003 9.35996 7.76003 9.27996V9.26995Z" fill="#231F20"/>
<path d="M7.62 14.94C7.5 14.94 7.38001 14.88 7.32001 14.78L5.64997 12.24C5.56997 12.12 5.56997 11.97 5.64997 11.85L7.32001 9.31003C7.37001 9.23003 7.44999 9.17 7.54999 9.15C7.63999 9.13 7.74001 9.14999 7.82001 9.19999C7.90001 9.24999 7.95998 9.33003 7.97998 9.43003C7.99998 9.53003 7.98 9.61999 7.93 9.69999L6.38996 12.05L7.93 14.4C7.98 14.48 7.99998 14.58 7.97998 14.67C7.95998 14.76 7.90001 14.84 7.82001 14.9C7.76001 14.94 7.69 14.96 7.62 14.96V14.94ZM7.62 9.32999C7.62 9.32999 7.59997 9.32999 7.58997 9.32999C7.54997 9.32999 7.50999 9.36 7.48999 9.4L5.82001 11.94C5.78001 11.99 5.78001 12.06 5.82001 12.12L7.48999 14.66C7.53999 14.73 7.63997 14.76 7.71997 14.71C7.75997 14.69 7.77998 14.65 7.78998 14.61C7.78998 14.57 7.78996 14.52 7.76996 14.49L6.19995 12.09C6.19995 12.09 6.17995 12.01 6.19995 11.98L7.76996 9.57999C7.76996 9.57999 7.79998 9.5 7.78998 9.46C7.78998 9.42 7.75997 9.38002 7.71997 9.36002C7.71997 9.36002 7.66001 9.32999 7.63001 9.32999H7.62Z" fill="#231F20"/>
<path d="M14.07 9.3499C13.99 9.2299 13.83 9.18989 13.71 9.26989C13.59 9.34989 13.56 9.50987 13.63 9.62987L15.2 12.0299L13.63 14.4299C13.55 14.5499 13.58 14.7099 13.71 14.7899C13.75 14.8199 13.8 14.8299 13.85 14.8299C13.94 14.8299 14.02 14.7899 14.07 14.7099L15.74 12.1699C15.8 12.0799 15.8 11.9699 15.74 11.8799L14.07 9.33989V9.3499Z" fill="#231F20"/>
<path d="M13.85 14.94C13.78 14.94 13.7099 14.92 13.6499 14.88C13.5699 14.83 13.51 14.75 13.49 14.65C13.47 14.56 13.49 14.46 13.54 14.38L15.0799 12.03L13.54 9.68002C13.49 9.60002 13.47 9.5 13.49 9.41C13.51 9.32 13.5699 9.23002 13.6499 9.18002C13.7299 9.13002 13.83 9.10997 13.92 9.12997C14.01 9.14997 14.0999 9.2 14.1499 9.29L15.82 11.83C15.9 11.95 15.9 12.1 15.82 12.22L14.1499 14.76C14.0799 14.86 13.97 14.92 13.85 14.92V14.94ZM13.85 9.32998C13.85 9.32998 13.79 9.33001 13.76 9.36001C13.72 9.38001 13.7 9.41999 13.69 9.45999C13.69 9.49999 13.6899 9.54998 13.7099 9.57998L15.2799 11.98C15.2799 11.98 15.2999 12.06 15.2799 12.09L13.7099 14.49C13.7099 14.49 13.68 14.57 13.69 14.61C13.69 14.65 13.72 14.69 13.76 14.71C13.83 14.76 13.94 14.74 13.99 14.66L15.6599 12.12C15.6999 12.07 15.6999 12 15.6599 11.94L13.99 9.39999C13.99 9.39999 13.9299 9.33998 13.8899 9.32998C13.8799 9.32998 13.87 9.32998 13.86 9.32998H13.85Z" fill="#231F20"/>
<path d="M12.48 7.12987C12.34 7.07987 12.1899 7.14991 12.1399 7.28991L8.82995 16.2799C8.77995 16.4199 8.84998 16.5699 8.98998 16.6199C9.01998 16.6299 9.04995 16.6399 9.07995 16.6399C9.18995 16.6399 9.28995 16.5699 9.32995 16.4699L12.6399 7.47991C12.6899 7.33991 12.62 7.18988 12.48 7.13988V7.12987Z" fill="#231F20"/>
<path d="M9.07998 16.73C9.07998 16.73 8.99998 16.73 8.95998 16.71C8.76998 16.64 8.68002 16.43 8.75002 16.25L12.06 7.25997C12.13 7.06997 12.34 6.98001 12.52 7.05001C12.71 7.12001 12.8 7.32997 12.73 7.50997L9.42001 16.5C9.37001 16.64 9.22998 16.74 9.07998 16.74V16.73ZM12.39 7.21999C12.32 7.21999 12.26 7.25998 12.24 7.32998L8.93002 16.32C8.90002 16.4 8.93999 16.5 9.02999 16.53C9.10999 16.56 9.21001 16.52 9.24001 16.43L12.55 7.43996C12.58 7.35996 12.54 7.26 12.45 7.23C12.43 7.23 12.41 7.23 12.39 7.23V7.21999Z" fill="#231F20"/>
</svg>
