<svg width="19" height="19" viewBox="0 0 19 19" fill="none" xmlns="http://www.w3.org/2000/svg">
<path d="M9.38 16.95C5.20001 16.95 1.81 13.5499 1.81 9.37994C1.81 5.20994 5.21 1.80994 9.38 1.80994C13.55 1.80994 16.95 5.20994 16.95 9.37994C16.95 13.5499 13.55 16.95 9.38 16.95ZM9.38 2.32996C5.49 2.32996 2.33 5.48994 2.33 9.37994C2.33 13.2699 5.49 16.4299 9.38 16.4299C13.27 16.4299 16.43 13.2699 16.43 9.37994C16.43 5.48994 13.27 2.32996 9.38 2.32996Z" fill="#231F20"/>
<path d="M9.38002 17.05C5.15002 17.05 1.71002 13.61 1.71002 9.37997C1.71002 5.14997 5.15002 1.70996 9.38002 1.70996C13.61 1.70996 17.05 5.14997 17.05 9.37997C17.05 13.61 13.61 17.05 9.38002 17.05ZM9.38002 1.89996C5.26002 1.89996 1.91002 5.24996 1.91002 9.36996C1.91002 13.49 5.26002 16.84 9.38002 16.84C13.5 16.84 16.85 13.49 16.85 9.36996C16.85 5.24996 13.5 1.89996 9.38002 1.89996ZM9.38002 16.52C5.44002 16.52 2.23001 13.31 2.23001 9.36996C2.23001 5.42996 5.44002 2.21997 9.38002 2.21997C13.32 2.21997 16.53 5.42996 16.53 9.36996C16.53 13.31 13.32 16.52 9.38002 16.52ZM9.38002 2.42996C5.55002 2.42996 2.43001 5.54997 2.43001 9.37997C2.43001 13.21 5.55002 16.33 9.38002 16.33C13.21 16.33 16.33 13.21 16.33 9.37997C16.33 5.54997 13.21 2.42996 9.38002 2.42996Z" fill="#231F20"/>
<path d="M9.38 14.5801C6.51 14.5801 4.17999 12.2501 4.17999 9.38007C4.17999 6.51007 6.51 4.18005 9.38 4.18005C12.25 4.18005 14.58 6.51007 14.58 9.38007C14.58 12.2501 12.25 14.5801 9.38 14.5801ZM9.38 4.70007C6.8 4.70007 4.7 6.80007 4.7 9.38007C4.7 11.9601 6.8 14.0601 9.38 14.0601C11.96 14.0601 14.06 11.9601 14.06 9.38007C14.06 6.80007 11.96 4.70007 9.38 4.70007Z" fill="#231F20"/>
<path d="M9.38002 14.6701C6.46002 14.6701 4.08002 12.2901 4.08002 9.37006C4.08002 6.45006 6.46002 4.07007 9.38002 4.07007C12.3 4.07007 14.68 6.45006 14.68 9.37006C14.68 12.2901 12.3 14.6701 9.38002 14.6701ZM9.38002 4.27005C6.57002 4.27005 4.28001 6.56006 4.28001 9.37006C4.28001 12.1801 6.57002 14.4701 9.38002 14.4701C12.19 14.4701 14.48 12.1801 14.48 9.37006C14.48 6.56006 12.19 4.27005 9.38002 4.27005ZM9.38002 14.1501C6.75002 14.1501 4.61002 12.0101 4.61002 9.38007C4.61002 6.75007 6.75002 4.61008 9.38002 4.61008C12.01 4.61008 14.15 6.75007 14.15 9.38007C14.15 12.0101 12.01 14.1501 9.38002 14.1501ZM9.38002 4.80008C6.86002 4.80008 4.80002 6.85007 4.80002 9.38007C4.80002 11.9101 6.85002 13.9601 9.38002 13.9601C11.91 13.9601 13.96 11.9101 13.96 9.38007C13.96 6.85007 11.91 4.80008 9.38002 4.80008Z" fill="#231F20"/>
<path d="M9.38 2.32999C9.24 2.32999 9.12 2.20998 9.12 2.06998V0.359985C9.12 0.219985 9.24 0.0999756 9.38 0.0999756C9.52 0.0999756 9.64 0.219985 9.64 0.359985V2.06998C9.64 2.20998 9.52 2.32999 9.38 2.32999Z" fill="#231F20"/>
<path d="M9.38002 2.42999C9.18002 2.42999 9.02002 2.27001 9.02002 2.07001V0.360016C9.02002 0.160016 9.18002 0 9.38002 0C9.58002 0 9.74002 0.160016 9.74002 0.360016V2.07001C9.74002 2.27001 9.58002 2.42999 9.38002 2.42999ZM9.38002 0.190002C9.29002 0.190002 9.22002 0.260006 9.22002 0.350006V2.06C9.22002 2.15 9.29002 2.22 9.38002 2.22C9.47002 2.22 9.54001 2.15 9.54001 2.06V0.350006C9.54001 0.260006 9.47002 0.190002 9.38002 0.190002Z" fill="#231F20"/>
<path d="M9.38 18.6601C9.24 18.6601 9.12 18.5401 9.12 18.4001V16.6901C9.12 16.5501 9.24 16.4301 9.38 16.4301C9.52 16.4301 9.64 16.5501 9.64 16.6901V18.4001C9.64 18.5401 9.52 18.6601 9.38 18.6601Z" fill="#231F20"/>
<path d="M9.38002 18.7601C9.18002 18.7601 9.02002 18.6001 9.02002 18.4001V16.6901C9.02002 16.4901 9.18002 16.3301 9.38002 16.3301C9.58002 16.3301 9.74002 16.4901 9.74002 16.6901V18.4001C9.74002 18.6001 9.58002 18.7601 9.38002 18.7601ZM9.38002 16.5201C9.29002 16.5201 9.22002 16.5901 9.22002 16.6801V18.3901C9.22002 18.4801 9.29002 18.5501 9.38002 18.5501C9.47002 18.5501 9.54001 18.4801 9.54001 18.3901V16.6801C9.54001 16.5901 9.47002 16.5201 9.38002 16.5201Z" fill="#231F20"/>
<path d="M18.4 9.64001H16.69C16.55 9.64001 16.43 9.52 16.43 9.38C16.43 9.24 16.55 9.12 16.69 9.12H18.4C18.54 9.12 18.66 9.24 18.66 9.38C18.66 9.52 18.54 9.64001 18.4 9.64001Z" fill="#231F20"/>
<path d="M18.4 9.74002H16.69C16.49 9.74002 16.33 9.58004 16.33 9.38004C16.33 9.18004 16.49 9.02002 16.69 9.02002H18.4C18.6 9.02002 18.76 9.18004 18.76 9.38004C18.76 9.58004 18.6 9.74002 18.4 9.74002ZM16.69 9.21002C16.6 9.21002 16.53 9.28003 16.53 9.37003C16.53 9.46003 16.6 9.53003 16.69 9.53003H18.4C18.49 9.53003 18.56 9.46003 18.56 9.37003C18.56 9.28003 18.49 9.21002 18.4 9.21002H16.69Z" fill="#231F20"/>
<path d="M2.06996 9.64001H0.35997C0.21997 9.64001 0.0999756 9.52 0.0999756 9.38C0.0999756 9.24 0.21997 9.12 0.35997 9.12H2.06996C2.20996 9.12 2.32997 9.24 2.32997 9.38C2.32997 9.52 2.20996 9.64001 2.06996 9.64001Z" fill="#231F20"/>
<path d="M2.06999 9.74002H0.360001C0.160001 9.74002 0 9.58004 0 9.38004C0 9.18004 0.160001 9.02002 0.360001 9.02002H2.06999C2.26999 9.02002 2.42999 9.18004 2.42999 9.38004C2.42999 9.58004 2.26999 9.74002 2.06999 9.74002ZM0.350006 9.21002C0.260006 9.21002 0.190002 9.28003 0.190002 9.37003C0.190002 9.46003 0.260006 9.53003 0.350006 9.53003H2.06C2.15 9.53003 2.22 9.46003 2.22 9.37003C2.22 9.28003 2.15 9.21002 2.06 9.21002H0.350006Z" fill="#231F20"/>
</svg>
