<svg width="20" height="18" viewBox="0 0 20 18" fill="none" xmlns="http://www.w3.org/2000/svg">
<path d="M9.66005 10.4499C11.06 10.5399 12.24 9.49991 12.4 8.15991H12.93V7.97992C12.93 7.23992 12.7001 6.50991 12.2301 5.93991C11.6301 5.20991 10.76 4.79993 9.83003 4.79993H9.57002V5.27991C8.21002 5.41991 7.16006 6.60993 7.24006 8.01993C7.31006 9.30993 8.38006 10.3799 9.67006 10.4599L9.66005 10.4499ZM10.08 5.32993C10.67 5.38993 11.22 5.64992 11.64 6.06992C12.07 6.48992 12.32 7.03991 12.38 7.62991H10.08V5.32993ZM9.56001 5.79993V7.65991C9.56001 7.92991 9.78001 8.15991 10.06 8.15991H11.87C11.72 9.19991 10.79 9.9899 9.70002 9.9299C8.66002 9.8699 7.80001 9.00991 7.75001 7.96991C7.69001 6.86991 8.50001 5.93991 9.56001 5.80991V5.79993Z" fill="#231F20"/>
<path d="M9.82001 10.55C9.76001 10.55 9.71003 10.55 9.65003 10.55C8.31003 10.47 7.20001 9.35996 7.13001 8.01996C7.05001 6.59996 8.07003 5.37994 9.46003 5.18994V4.79996C9.46003 4.74996 9.5 4.69995 9.56 4.69995H9.82001C10.78 4.69995 11.6801 5.12993 12.3001 5.86993C12.7701 6.43993 13.02 7.17995 13.02 7.97995V8.15994C13.02 8.20994 12.98 8.25995 12.92 8.25995H12.48C12.28 9.57995 11.14 10.55 9.81 10.55H9.82001ZM9.66004 10.3499C10.99 10.4299 12.1401 9.45993 12.3001 8.14993C12.3001 8.09993 12.35 8.05994 12.4 8.05994H12.83V7.96994C12.83 7.21994 12.59 6.51996 12.15 5.98996C11.57 5.28996 10.72 4.88995 9.82001 4.88995H9.66004V5.26996C9.66004 5.31996 9.62001 5.35993 9.57001 5.36993C8.23001 5.49993 7.25002 6.65994 7.33002 7.99994C7.40002 9.23994 8.43005 10.2699 9.67005 10.3499H9.66004ZM9.82001 10.02C9.82001 10.02 9.74001 10.02 9.69001 10.02C8.60001 9.95996 7.70003 9.05994 7.65003 7.96994C7.59003 6.83994 8.42004 5.84995 9.54004 5.69995C9.57004 5.69995 9.6 5.69994 9.62 5.71994C9.64 5.73994 9.65003 5.76995 9.65003 5.78995V7.64993C9.65003 7.86993 9.83005 8.04996 10.0501 8.04996H11.8601C11.8601 8.04996 11.92 8.05996 11.93 8.07996C11.95 8.09996 11.96 8.12994 11.95 8.15994C11.79 9.23994 10.88 10.0099 9.81 10.0099L9.82001 10.02ZM9.46003 5.90994C8.50003 6.08994 7.80004 6.96995 7.85004 7.94995C7.90004 8.93995 8.72003 9.75995 9.71003 9.81995C10.71 9.87995 11.56 9.20994 11.76 8.24994H10.06C9.73 8.24994 9.47004 7.97994 9.47004 7.65994V5.90994H9.46003ZM12.39 7.72995H10.09C10.04 7.72995 9.99006 7.68994 9.99006 7.62994V5.32996C9.99006 5.32996 10 5.27995 10.02 5.25995C10.04 5.23995 10.07 5.22996 10.1 5.23996C10.72 5.29996 11.28 5.56995 11.72 6.00995C12.16 6.44995 12.4301 7.00994 12.4901 7.62994C12.4901 7.65994 12.49 7.68996 12.47 7.70996C12.45 7.72996 12.42 7.73996 12.4 7.73996L12.39 7.72995ZM10.18 7.52994H12.28C12.2 6.99994 11.96 6.51995 11.58 6.13995C11.2 5.75995 10.72 5.51994 10.19 5.43994V7.53995L10.18 7.52994Z" fill="#231F20"/>
<path d="M0.360046 0.620056H9.58002V2.53006H2.73004C2.59004 2.53006 2.47003 2.65007 2.47003 2.79007V12.2001C2.47003 12.3401 2.59004 12.4601 2.73004 12.4601H9.19L4.82001 16.6001C4.72001 16.7001 4.71001 16.8701 4.82001 16.9701C4.92001 17.0801 5.09 17.0801 5.19 16.9701L9.60004 12.7901V16.7801C9.60004 16.9201 9.72005 17.0401 9.86005 17.0401C10 17.0401 10.12 16.9201 10.12 16.7801V12.8001L14.43 16.9701C14.48 17.0201 14.55 17.0401 14.61 17.0401C14.67 17.0401 14.75 17.0101 14.8 16.9601C14.9 16.8601 14.9 16.6901 14.8 16.5901L10.52 12.4401H16.9C17.04 12.4401 17.16 12.3201 17.16 12.1801V2.77008C17.16 2.63008 17.04 2.51007 16.9 2.51007H10.13V0.600067H19.35C19.49 0.600067 19.61 0.480057 19.61 0.340057C19.61 0.200057 19.49 0.0800781 19.35 0.0800781H0.390015C0.250015 0.0800781 0.130005 0.200057 0.130005 0.340057C0.130005 0.480057 0.250015 0.600067 0.390015 0.600067L0.360046 0.620056ZM16.61 3.05008V11.9401H2.99005V3.05008H16.61Z" fill="#231F20"/>
<path d="M4.99005 17.16C4.89005 17.16 4.80005 17.12 4.74005 17.05C4.67005 16.98 4.64001 16.89 4.64001 16.79C4.64001 16.69 4.68 16.6 4.75 16.54L8.94 12.56H2.73004C2.53004 12.56 2.37 12.4 2.37 12.2V2.79001C2.37 2.59001 2.53004 2.42999 2.73004 2.42999H9.48004V0.720001H0.360046C0.160046 0.720001 0 0.560016 0 0.360016C0 0.160016 0.160046 0 0.360046 0H19.32C19.52 0 19.68 0.160016 19.68 0.360016C19.68 0.560016 19.52 0.720001 19.32 0.720001H10.2V2.42999H16.87C17.07 2.42999 17.23 2.59001 17.23 2.79001V12.2C17.23 12.4 17.07 12.56 16.87 12.56H10.73L14.84 16.54C14.91 16.61 14.95 16.7 14.95 16.79C14.95 16.89 14.92 16.98 14.85 17.05C14.72 17.19 14.48 17.19 14.34 17.05L10.2 13.04V16.79C10.2 16.99 10.04 17.15 9.84003 17.15C9.64003 17.15 9.48004 16.99 9.48004 16.79V13.03L5.24005 17.05C5.17005 17.11 5.09005 17.15 4.99005 17.15V17.16ZM2.73004 2.63C2.64004 2.63 2.57001 2.70001 2.57001 2.79001V12.2C2.57001 12.29 2.64004 12.36 2.73004 12.36H9.19C9.19 12.36 9.27003 12.38 9.28003 12.42C9.29003 12.46 9.28001 12.5 9.26001 12.53L4.89001 16.67C4.89001 16.67 4.84003 16.74 4.84003 16.78C4.84003 16.82 4.85001 16.87 4.89001 16.9C4.92001 16.93 4.96 16.95 5 16.95C5.04 16.95 5.08 16.94 5.12 16.91L9.53003 12.73C9.53003 12.73 9.60001 12.7 9.64001 12.71C9.68001 12.73 9.70001 12.76 9.70001 12.8V16.79C9.70001 16.88 9.77005 16.95 9.86005 16.95C9.95005 16.95 10.02 16.88 10.02 16.79V12.81C10.02 12.81 10.04 12.74 10.08 12.72C10.12 12.7 10.16 12.72 10.19 12.74L14.5 16.91C14.56 16.97 14.67 16.97 14.73 16.91C14.79 16.85 14.79 16.74 14.73 16.68L10.45 12.53C10.45 12.53 10.41 12.46 10.43 12.42C10.45 12.38 10.48 12.36 10.52 12.36H16.9C16.99 12.36 17.06 12.29 17.06 12.2V2.79001C17.06 2.70001 16.99 2.63 16.9 2.63H10.13C10.08 2.63 10.03 2.59 10.03 2.53V0.619995C10.03 0.569995 10.07 0.52002 10.13 0.52002H19.35C19.44 0.52002 19.51 0.450016 19.51 0.360016C19.51 0.270016 19.44 0.200012 19.35 0.200012H0.390015C0.300015 0.200012 0.230042 0.270016 0.230042 0.360016C0.230042 0.450016 0.300015 0.52002 0.390015 0.52002H9.61005C9.66005 0.52002 9.71002 0.559995 9.71002 0.619995V2.53C9.71002 2.58 9.67005 2.63 9.61005 2.63H2.76001H2.73004ZM16.61 12.04H2.99005C2.94005 12.04 2.89001 12 2.89001 11.94V3.05002C2.89001 3.00002 2.93005 2.95001 2.99005 2.95001H16.61C16.66 2.95001 16.71 2.99002 16.71 3.05002V11.94C16.71 11.99 16.67 12.04 16.61 12.04ZM3.09003 11.84H16.51V3.14999H3.09003V11.84Z" fill="#231F20"/>
</svg>
