<svg width="13" height="20" viewBox="0 0 13 20" fill="none" xmlns="http://www.w3.org/2000/svg">
<path d="M12.42 4.15009H10.52C10.48 1.90009 8.65002 0.0900879 6.40002 0.0900879C4.15002 0.0900879 2.31003 1.91009 2.28003 4.15009H0.380005C0.240005 4.15009 0.119995 4.2701 0.119995 4.4101V18.8201C0.119995 18.9601 0.240005 19.0801 0.380005 19.0801H12.44C12.58 19.0801 12.7 18.9601 12.7 18.8201V4.4101C12.7 4.2701 12.58 4.15009 12.44 4.15009H12.42ZM6.39001 0.610046C8.36001 0.610046 9.94999 2.19009 9.98999 4.15009H2.79004C2.83004 2.19009 4.43001 0.610046 6.39001 0.610046ZM12.16 18.5701H0.630005V4.68005H2.27002V7.24005C2.27002 7.38005 2.39003 7.50006 2.53003 7.50006C2.67003 7.50006 2.79004 7.38005 2.79004 7.24005V4.68005H10V7.24005C10 7.38005 10.12 7.50006 10.26 7.50006C10.4 7.50006 10.52 7.38005 10.52 7.24005V4.68005H12.16V18.5701Z" fill="#231F20"/>
<path d="M12.42 19.19H0.359985C0.159985 19.19 0 19.03 0 18.83V4.41998C0 4.21998 0.159985 4.06 0.359985 4.06H2.16998C2.25998 1.81 4.13001 0 6.39001 0C8.65001 0 10.52 1.81 10.61 4.06H12.42C12.62 4.06 12.78 4.21998 12.78 4.41998V18.83C12.78 19.03 12.62 19.19 12.42 19.19ZM0.359985 4.25C0.269985 4.25 0.200012 4.32003 0.200012 4.41003V18.82C0.200012 18.91 0.269985 18.98 0.359985 18.98H12.42C12.51 18.98 12.58 18.91 12.58 18.82V4.41003C12.58 4.32003 12.51 4.25 12.42 4.25H10.52C10.47 4.25 10.42 4.21002 10.42 4.15002C10.39 1.96002 8.58002 0.179993 6.39001 0.179993C4.20001 0.179993 2.39999 1.96002 2.35999 4.15002C2.35999 4.20002 2.32001 4.25 2.26001 4.25H0.359985ZM12.16 18.66H0.630005C0.580005 18.66 0.530029 18.62 0.530029 18.56V4.66998C0.530029 4.61998 0.570005 4.57001 0.630005 4.57001H2.27002C2.32002 4.57001 2.37 4.60998 2.37 4.66998V7.22998C2.37 7.31998 2.44003 7.39001 2.53003 7.39001C2.62003 7.39001 2.69 7.31998 2.69 7.22998V4.66998C2.69 4.61998 2.73004 4.57001 2.79004 4.57001H10C10.05 4.57001 10.1 4.60998 10.1 4.66998V7.22998C10.1 7.31998 10.17 7.39001 10.26 7.39001C10.35 7.39001 10.42 7.31998 10.42 7.22998V4.66998C10.42 4.61998 10.46 4.57001 10.52 4.57001H12.16C12.21 4.57001 12.26 4.60998 12.26 4.66998V18.56C12.26 18.61 12.22 18.66 12.16 18.66ZM0.720032 18.47H12.05V4.78003H10.61V7.23999C10.61 7.43999 10.45 7.60004 10.25 7.60004C10.05 7.60004 9.89001 7.43999 9.89001 7.23999V4.78003H2.88V7.23999C2.88 7.43999 2.72002 7.60004 2.52002 7.60004C2.32002 7.60004 2.16003 7.43999 2.16003 7.23999V4.78003H0.720032V18.47ZM9.98999 4.25H2.79004C2.79004 4.25 2.74003 4.24003 2.72003 4.22003C2.70003 4.20003 2.69 4.18002 2.69 4.15002C2.73 2.15002 4.39001 0.52002 6.39001 0.52002C8.39001 0.52002 10.05 2.15002 10.09 4.15002C10.09 4.18002 10.09 4.20003 10.06 4.22003C10.04 4.24003 10.02 4.25 9.98999 4.25ZM2.89001 4.04999H9.89001C9.80001 2.19999 8.25001 0.710022 6.39001 0.710022C4.53001 0.710022 2.98001 2.19999 2.89001 4.04999Z" fill="#231F20"/>
<path d="M9.86004 9.30951C9.75004 9.23951 9.6101 9.26951 9.5401 9.36951L5.70007 15.1895L3.82006 13.3295C3.73006 13.2395 3.59006 13.2395 3.50006 13.3295C3.41006 13.4195 3.41006 13.5595 3.50006 13.6495L5.57006 15.7095C5.57006 15.7095 5.67004 15.7795 5.73004 15.7795H5.75006C5.82006 15.7795 5.88004 15.7395 5.92004 15.6795L9.91009 9.62952C9.98009 9.51952 9.95008 9.37951 9.84008 9.30951H9.86004Z" fill="#231F20"/>
<path d="M5.75 15.88C5.66 15.88 5.58002 15.85 5.52002 15.79L3.45001 13.73C3.39001 13.67 3.35004 13.59 3.35004 13.5C3.35004 13.41 3.38 13.33 3.44 13.27C3.5 13.21 3.57998 13.17 3.66998 13.17C3.75998 13.17 3.84002 13.2 3.90002 13.26L5.69 15.0301L9.46002 9.31002C9.51002 9.24002 9.57998 9.19001 9.66998 9.17001C9.75998 9.15001 9.83998 9.17006 9.91998 9.22006C10.07 9.32006 10.11 9.52001 10.01 9.67001L6.02002 15.7201C5.97002 15.8001 5.88003 15.85 5.78003 15.87H5.75V15.88ZM3.66998 13.37C3.66998 13.37 3.60002 13.3801 3.58002 13.4101C3.53002 13.4601 3.53002 13.5401 3.58002 13.5901L5.65002 15.6501C5.65002 15.6501 5.70999 15.69 5.73999 15.69C5.78999 15.69 5.83004 15.66 5.85004 15.63L9.84003 9.58004C9.88003 9.52004 9.85999 9.44005 9.79999 9.40005C9.79999 9.40005 9.74001 9.37003 9.70001 9.38003C9.67001 9.38003 9.64 9.41003 9.62 9.44003L5.78003 15.26C5.78003 15.26 5.74002 15.3 5.71002 15.3C5.68002 15.3 5.65 15.3 5.63 15.27L3.75 13.4101C3.75 13.4101 3.69003 13.37 3.66003 13.37H3.66998Z" fill="#231F20"/>
</svg>
