<svg width="20" height="18" viewBox="0 0 20 18" fill="none" xmlns="http://www.w3.org/2000/svg">
<path d="M0.359985 0.0999756C0.339985 0.0999756 0.319988 0.0999854 0.299988 0.109985C0.289988 0.109985 0.27001 0.109985 0.26001 0.109985C0.25001 0.109985 0.240042 0.130005 0.230042 0.130005C0.210042 0.140005 0.189993 0.149983 0.179993 0.169983C0.179993 0.169983 0.170034 0.190012 0.160034 0.200012C0.150034 0.220012 0.140005 0.23 0.130005 0.25C0.130005 0.27 0.129995 0.289998 0.119995 0.309998C0.119995 0.319998 0.119995 0.329976 0.119995 0.349976V14.03C0.119995 14.17 0.240005 14.29 0.380005 14.29H10.56C10.7 14.29 10.82 14.17 10.82 14.03C10.82 13.89 10.7 13.77 10.56 13.77H0.640015V0.950012L9.54999 9.19C9.59999 9.24 9.66004 9.26001 9.73004 9.26001C9.80004 9.26001 9.86003 9.24 9.91003 9.19L18.82 0.950012V13.77H17.97C17.83 13.77 17.71 13.89 17.71 14.03C17.71 14.17 17.83 14.29 17.97 14.29H19.08C19.22 14.29 19.34 14.17 19.34 14.03V0.349976C19.34 0.349976 19.34 0.329998 19.34 0.309998C19.34 0.289998 19.34 0.27 19.33 0.25C19.33 0.23 19.31 0.220012 19.3 0.200012C19.3 0.190012 19.29 0.179983 19.28 0.169983C19.27 0.159983 19.25 0.150005 19.23 0.130005C19.22 0.130005 19.21 0.109985 19.2 0.109985C19.19 0.109985 19.17 0.109985 19.16 0.109985C19.14 0.109985 19.12 0.0999756 19.1 0.0999756H0.390015H0.359985ZM9.71002 8.64001L1.03003 0.619995H18.4L9.72003 8.64001H9.71002Z" fill="#231F20"/>
<path d="M19.07 14.39H17.96C17.76 14.39 17.6 14.23 17.6 14.03C17.6 13.83 17.76 13.67 17.96 13.67H18.71V1.17999L9.96002 9.26001C9.83002 9.38001 9.60003 9.38001 9.47003 9.26001L0.720032 1.17999V13.67H10.54C10.74 13.67 10.9 13.83 10.9 14.03C10.9 14.23 10.74 14.39 10.54 14.39H0.359985C0.159985 14.39 0 14.23 0 14.03V0.349976C0 0.349976 0 0.309988 0 0.299988C0 0.269988 1.95317e-05 0.239971 0.0200195 0.219971C0.0300195 0.189971 0.0399976 0.169973 0.0599976 0.159973C0.0699976 0.139973 0.0800269 0.129985 0.0900269 0.109985C0.0900269 0.109985 0.0999854 0.0999756 0.109985 0.0999756C0.129985 0.0799756 0.140034 0.0700073 0.160034 0.0700073C0.160034 0.0700073 0.210032 0.0399683 0.220032 0.0299683C0.240032 0.0299683 0.26002 0.0200195 0.27002 0.0200195C0.30002 0.0200195 0.329985 0 0.359985 0H19.07C19.07 0 19.08 0 19.09 0C19.12 0 19.14 9.76585e-06 19.16 0.0100098C19.16 0.0100098 19.22 0.0199683 19.22 0.0299683C19.24 0.0299683 19.25 0.0499976 19.26 0.0599976C19.29 0.0799976 19.31 0.0899854 19.33 0.109985C19.35 0.129985 19.36 0.149973 19.36 0.159973C19.38 0.189973 19.39 0.20998 19.4 0.22998C19.41 0.25998 19.41 0.279988 19.42 0.299988C19.42 0.299988 19.42 0.349985 19.42 0.359985V14.04C19.42 14.24 19.26 14.4 19.06 14.4L19.07 14.39ZM17.96 13.87C17.87 13.87 17.8 13.94 17.8 14.03C17.8 14.12 17.87 14.19 17.96 14.19H19.07C19.16 14.19 19.23 14.12 19.23 14.03V0.349976C19.23 0.349976 19.23 0.340017 19.23 0.330017C19.23 0.310017 19.23 0.299978 19.23 0.289978C19.23 0.289978 19.23 0.28002 19.22 0.27002L19.2 0.23999C19.2 0.23999 19.19 0.23998 19.18 0.22998L19.15 0.210022C19.15 0.210022 19.13 0.210022 19.12 0.210022C19.07 0.200022 19.07 0.210012 19.06 0.200012H0.380005C0.380005 0.200012 0.370027 0.200022 0.340027 0.210022L0.280029 0.22998L0.25 0.25L0.23999 0.27002C0.22999 0.29002 0.220032 0.299988 0.220032 0.299988V0.339966C0.220032 0.339966 0.220032 0.359995 0.220032 0.369995V14.04C0.220032 14.13 0.290005 14.2 0.380005 14.2H10.56C10.65 14.2 10.72 14.13 10.72 14.04C10.72 13.95 10.65 13.88 10.56 13.88H0.640015C0.590015 13.88 0.540039 13.84 0.540039 13.78V0.960022C0.540039 0.960022 0.560037 0.889995 0.600037 0.869995C0.640037 0.849995 0.680022 0.870015 0.710022 0.890015L9.62 9.13C9.68 9.19001 9.78003 9.19001 9.84003 9.13L18.75 0.890015C18.75 0.890015 18.82 0.859995 18.86 0.869995C18.9 0.889995 18.92 0.920022 18.92 0.960022V13.78C18.92 13.83 18.88 13.88 18.82 13.88H17.97L17.96 13.87ZM9.71002 8.73999C9.71002 8.73999 9.66002 8.74002 9.64001 8.71002L0.960022 0.690002C0.960022 0.690002 0.920002 0.620017 0.940002 0.580017C0.950002 0.540017 0.990029 0.52002 1.03003 0.52002H18.4C18.4 0.52002 18.48 0.540017 18.49 0.580017C18.5 0.620017 18.49 0.660002 18.47 0.690002L9.79004 8.71002C9.79004 8.71002 9.75003 8.73999 9.72003 8.73999H9.71002ZM1.28003 0.719971L9.71002 8.51001L18.14 0.719971H1.27002H1.28003Z" fill="#231F20"/>
<path d="M14.21 17.4698C12.25 17.4698 10.66 15.8799 10.66 13.9199C10.66 11.9599 12.25 10.3699 14.21 10.3699C16.17 10.3699 17.76 11.9599 17.76 13.9199C17.76 15.8799 16.17 17.4698 14.21 17.4698ZM14.21 10.5699C12.36 10.5699 10.86 12.0699 10.86 13.9199C10.86 15.7699 12.36 17.2699 14.21 17.2699C16.06 17.2699 17.56 15.7699 17.56 13.9199C17.56 12.0699 16.06 10.5699 14.21 10.5699Z" fill="#231F20"/>
<path d="M14.21 17.5697C12.2 17.5697 10.57 15.9297 10.57 13.9197C10.57 11.9097 12.2 10.2797 14.21 10.2797C16.22 10.2797 17.85 11.9097 17.85 13.9197C17.85 15.9297 16.21 17.5697 14.21 17.5697ZM14.21 10.6697C12.41 10.6697 10.95 12.1297 10.95 13.9297C10.95 15.7297 12.41 17.1897 14.21 17.1897C16.01 17.1897 17.47 15.7297 17.47 13.9297C17.47 12.1297 16.01 10.6697 14.21 10.6697Z" fill="#231F20"/>
<path d="M14.21 17.5699C12.2 17.5699 10.56 15.9399 10.56 13.9299C10.56 11.9199 12.2 10.2799 14.21 10.2799C16.22 10.2799 17.85 11.9199 17.85 13.9299C17.85 15.9399 16.21 17.5699 14.21 17.5699ZM14.21 10.6699C12.41 10.6699 10.95 12.1299 10.95 13.9299C10.95 15.7299 12.41 17.1899 14.21 17.1899C16.01 17.1899 17.47 15.7299 17.47 13.9299C17.47 12.1299 16.01 10.6699 14.21 10.6699Z" fill="#231F20"/>
<path d="M14.21 17.6699C12.15 17.6699 10.47 15.9899 10.47 13.9299C10.47 11.8699 12.15 10.1899 14.21 10.1899C16.27 10.1899 17.95 11.8699 17.95 13.9299C17.95 15.9899 16.27 17.6699 14.21 17.6699ZM14.21 10.3799C12.25 10.3799 10.66 11.9699 10.66 13.9299C10.66 15.8899 12.25 17.4799 14.21 17.4799C16.17 17.4799 17.76 15.8899 17.76 13.9299C17.76 11.9699 16.17 10.3799 14.21 10.3799ZM14.21 17.2799C12.36 17.2799 10.86 15.7799 10.86 13.9299C10.86 12.0799 12.36 10.58 14.21 10.58C16.06 10.58 17.56 12.0799 17.56 13.9299C17.56 15.7799 16.06 17.2799 14.21 17.2799ZM14.21 10.7599C12.47 10.7599 11.05 12.1799 11.05 13.9199C11.05 15.6599 12.47 17.08 14.21 17.08C15.95 17.08 17.37 15.6599 17.37 13.9199C17.37 12.1799 15.95 10.7599 14.21 10.7599Z" fill="#231F20"/>
<path d="M14.2099 16.0702C14.1599 16.0702 14.1099 16.0302 14.1099 15.9702V11.9102C14.1099 11.8602 14.1499 11.8102 14.2099 11.8102C14.2699 11.8102 14.3099 11.8502 14.3099 11.9102V15.9702C14.3099 16.0202 14.2699 16.0702 14.2099 16.0702Z" fill="#231F20"/>
<path d="M14.21 16.1699C14.1 16.1699 14.02 16.0799 14.02 15.9799V11.9199C14.02 11.8099 14.11 11.7299 14.21 11.7299C14.31 11.7299 14.4 11.8199 14.4 11.9199V15.9799C14.4 16.0899 14.31 16.1699 14.21 16.1699Z" fill="#231F20"/>
<path d="M14.21 16.1699C14.1 16.1699 14.02 16.0799 14.02 15.9799V11.9199C14.02 11.8099 14.11 11.7299 14.21 11.7299C14.31 11.7299 14.4 11.8199 14.4 11.9199V15.9799C14.4 16.0899 14.31 16.1699 14.21 16.1699Z" fill="#231F20"/>
<path d="M14.21 16.2699C14.05 16.2699 13.92 16.1399 13.92 15.9799V11.9199C13.92 11.7599 14.05 11.6299 14.21 11.6299C14.37 11.6299 14.5 11.7599 14.5 11.9199V15.9799C14.5 16.1399 14.37 16.2699 14.21 16.2699ZM14.21 11.8199C14.16 11.8199 14.11 11.8599 14.11 11.9199V15.9799C14.11 16.0299 14.15 16.0799 14.21 16.0799C14.27 16.0799 14.31 16.0399 14.31 15.9799V11.9199C14.31 11.8699 14.27 11.8199 14.21 11.8199Z" fill="#231F20"/>
<path d="M16.24 14.04H12.18C12.13 14.04 12.08 14 12.08 13.94C12.08 13.88 12.12 13.84 12.18 13.84H16.24C16.29 13.84 16.34 13.88 16.34 13.94C16.34 14 16.3 14.04 16.24 14.04Z" fill="#231F20"/>
<path d="M16.24 14.14H12.18C12.07 14.14 11.99 14.05 11.99 13.95C11.99 13.85 12.08 13.76 12.18 13.76H16.24C16.35 13.76 16.43 13.85 16.43 13.95C16.43 14.05 16.34 14.14 16.24 14.14Z" fill="#231F20"/>
<path d="M16.24 14.14H12.18C12.07 14.14 11.99 14.05 11.99 13.95C11.99 13.85 12.08 13.76 12.18 13.76H16.24C16.35 13.76 16.43 13.85 16.43 13.95C16.43 14.05 16.34 14.14 16.24 14.14Z" fill="#231F20"/>
<path d="M16.24 14.2399H12.18C12.02 14.2399 11.89 14.11 11.89 13.95C11.89 13.79 12.02 13.6599 12.18 13.6599H16.24C16.4 13.6599 16.53 13.79 16.53 13.95C16.53 14.11 16.4 14.2399 16.24 14.2399ZM12.18 13.8499C12.13 13.8499 12.08 13.89 12.08 13.95C12.08 14.01 12.12 14.0499 12.18 14.0499H16.24C16.29 14.0499 16.34 14.01 16.34 13.95C16.34 13.89 16.3 13.8499 16.24 13.8499H12.18Z" fill="#231F20"/>
</svg>
