<svg width="19" height="20" viewBox="0 0 19 20" fill="none" xmlns="http://www.w3.org/2000/svg">
<path d="M4.71051 19.0692H0.410492C0.270492 19.0692 0.150513 18.9492 0.150513 18.8092V9.3092C0.150513 9.1692 0.270492 9.04919 0.410492 9.04919H4.71051C4.85051 9.04919 4.97052 9.1692 4.97052 9.3092V18.8092C4.97052 18.9492 4.85051 19.0692 4.71051 19.0692ZM0.670502 18.5492H4.4505V9.56921H0.670502V18.5492Z" fill="#231F20"/>
<path d="M4.71042 19.17H0.4104C0.2104 19.17 0.050415 19.0099 0.050415 18.8099V9.30994C0.050415 9.10994 0.2104 8.94995 0.4104 8.94995H4.71042C4.91042 8.94995 5.0704 9.10994 5.0704 9.30994V18.8099C5.0704 19.0099 4.91042 19.17 4.71042 19.17ZM0.4104 9.13992C0.3204 9.13992 0.250427 9.20993 0.250427 9.29993V18.7999C0.250427 18.8899 0.3204 18.9599 0.4104 18.9599H4.71042C4.80042 18.9599 4.87042 18.8899 4.87042 18.7999V9.29993C4.87042 9.20993 4.80042 9.13992 4.71042 9.13992H0.4104ZM4.45041 18.6399H0.67041C0.62041 18.6399 0.570404 18.5999 0.570404 18.5399V9.55994C0.570404 9.50994 0.61041 9.45993 0.67041 9.45993H4.45041C4.50041 9.45993 4.55042 9.49994 4.55042 9.55994V18.5399C4.55042 18.5899 4.51041 18.6399 4.45041 18.6399ZM0.770416 18.45H4.3504V9.66995H0.770416V18.45Z" fill="#231F20"/>
<path d="M11.7604 19.07H7.46045C7.32045 19.07 7.20044 18.95 7.20044 18.81V4.84998C7.20044 4.70998 7.32045 4.58997 7.46045 4.58997H11.7604C11.9004 4.58997 12.0204 4.70998 12.0204 4.84998V18.81C12.0204 18.95 11.9004 19.07 11.7604 19.07ZM7.72046 18.55H11.5005V5.10995H7.72046V18.55Z" fill="#231F20"/>
<path d="M11.7604 19.17H7.46042C7.26042 19.17 7.1004 19.01 7.1004 18.81V4.85001C7.1004 4.65001 7.26042 4.48999 7.46042 4.48999H11.7604C11.9604 4.48999 12.1204 4.65001 12.1204 4.85001V18.81C12.1204 19.01 11.9604 19.17 11.7604 19.17ZM7.46042 4.67999C7.37042 4.67999 7.30042 4.75 7.30042 4.84V18.8C7.30042 18.89 7.37042 18.96 7.46042 18.96H11.7604C11.8504 18.96 11.9204 18.89 11.9204 18.8V4.84C11.9204 4.75 11.8504 4.67999 11.7604 4.67999H7.46042ZM11.4904 18.64H7.71042C7.66042 18.64 7.61041 18.6 7.61041 18.54V5.10001C7.61041 5.05001 7.65042 5 7.71042 5H11.4904C11.5404 5 11.5904 5.04001 11.5904 5.10001V18.54C11.5904 18.59 11.5504 18.64 11.4904 18.64ZM7.8204 18.45H11.4004V5.20999H7.8204V18.45Z" fill="#231F20"/>
<path d="M18.6404 19.07H14.3405C14.2005 19.07 14.0804 18.95 14.0804 18.81V0.359955C14.0804 0.219955 14.2005 0.0999756 14.3405 0.0999756H18.6404C18.7804 0.0999756 18.9005 0.219955 18.9005 0.359955V18.81C18.9005 18.95 18.7804 19.07 18.6404 19.07ZM14.6004 18.55H18.3804V0.619965H14.6004V18.55Z" fill="#231F20"/>
<path d="M18.6404 19.17H14.3404C14.1404 19.17 13.9804 19.01 13.9804 18.81V0.359985C13.9804 0.159985 14.1404 0 14.3404 0H18.6404C18.8404 0 19.0004 0.159985 19.0004 0.359985V18.81C19.0004 19.01 18.8404 19.17 18.6404 19.17ZM14.3404 0.190002C14.2504 0.190002 14.1804 0.260006 14.1804 0.350006V18.8C14.1804 18.89 14.2504 18.96 14.3404 18.96H18.6404C18.7304 18.96 18.8004 18.89 18.8004 18.8V0.350006C18.8004 0.260006 18.7304 0.190002 18.6404 0.190002H14.3404ZM18.3704 18.64H14.5904C14.5404 18.64 14.4904 18.6 14.4904 18.54V0.609985C14.4904 0.559985 14.5304 0.51001 14.5904 0.51001H18.3704C18.4204 0.51001 18.4704 0.549985 18.4704 0.609985V18.54C18.4704 18.59 18.4304 18.64 18.3704 18.64ZM14.7004 18.45H18.2804V0.720001H14.7004V18.45Z" fill="#231F20"/>
<path d="M6.97043 0.489349C6.97043 0.629349 7.09041 0.749359 7.23041 0.749359H8.78042L0.200407 7.09937C0.0804066 7.18937 0.0604188 7.34936 0.150419 7.46936C0.240419 7.58936 0.400414 7.60935 0.520414 7.51935L9.28042 1.02936V2.77936C9.28042 2.91936 9.4004 3.03937 9.5404 3.03937C9.6804 3.03937 9.80041 2.91936 9.80041 2.77936V0.489349C9.80041 0.349349 9.6804 0.22937 9.5404 0.22937H7.23041C7.09041 0.22937 6.97043 0.349349 6.97043 0.489349Z" fill="#231F20"/>
<path d="M0.360406 7.66928C0.250406 7.66928 0.140397 7.61926 0.0703974 7.51926C-0.0496026 7.35926 -0.00959526 7.12926 0.140405 7.01926L8.4804 0.849274H7.2304C7.0304 0.849274 6.87042 0.689258 6.87042 0.489258C6.87042 0.289258 7.0304 0.129272 7.2304 0.129272H9.5404C9.7404 0.129272 9.90041 0.289258 9.90041 0.489258V2.77927C9.90041 2.97927 9.7404 3.13925 9.5404 3.13925C9.3404 3.13925 9.18041 2.97927 9.18041 2.77927V1.22928L0.580407 7.59927C0.520407 7.64927 0.440416 7.66928 0.370416 7.66928H0.360406ZM7.2304 0.329254C7.1404 0.329254 7.0704 0.399258 7.0704 0.489258C7.0704 0.579258 7.1404 0.649261 7.2304 0.649261H8.78042C8.78042 0.649261 8.86042 0.679269 8.87042 0.719269C8.88042 0.759269 8.87042 0.799254 8.84042 0.829254L0.2604 7.17926C0.1904 7.22926 0.170401 7.33927 0.230401 7.40927C0.280401 7.47927 0.390412 7.49927 0.460412 7.43927L9.22042 0.94928C9.22042 0.94928 9.2904 0.91928 9.3204 0.94928C9.3504 0.96928 9.37042 0.999276 9.37042 1.03928V2.78928C9.37042 2.87928 9.44042 2.94928 9.53042 2.94928C9.62042 2.94928 9.69042 2.87928 9.69042 2.78928V0.499268C9.69042 0.409268 9.62042 0.339264 9.53042 0.339264H7.22042L7.2304 0.329254Z" fill="#231F20"/>
</svg>
