<svg width="17" height="20" viewBox="0 0 17 20" fill="none" xmlns="http://www.w3.org/2000/svg">
<path d="M7.41992 14.74C3.37992 14.74 0.0899658 11.45 0.0899658 7.41003C0.0899658 3.37003 3.37992 0.0799561 7.41992 0.0799561C11.4599 0.0799561 14.75 3.37003 14.75 7.41003C14.75 11.45 11.4599 14.74 7.41992 14.74ZM7.41992 0.609985C3.66992 0.609985 0.619995 3.66003 0.619995 7.41003C0.619995 11.16 3.66992 14.21 7.41992 14.21C11.1699 14.21 14.22 11.16 14.22 7.41003C14.22 3.66003 11.1699 0.609985 7.41992 0.609985Z" fill="#231F20"/>
<path d="M7.41992 14.84C3.32992 14.84 0 11.51 0 7.42004C0 3.33004 3.32992 0 7.41992 0C11.5099 0 14.84 3.33004 14.84 7.42004C14.84 11.51 11.5099 14.84 7.41992 14.84ZM7.41992 0.180054C3.42992 0.180054 0.189941 3.42003 0.189941 7.41003C0.189941 11.4 3.42992 14.64 7.41992 14.64C11.4099 14.64 14.6499 11.4 14.6499 7.41003C14.6499 3.42003 11.4099 0.180054 7.41992 0.180054ZM7.41992 14.3101C3.60992 14.3101 0.519897 11.21 0.519897 7.41003C0.519897 3.61003 3.61992 0.51001 7.41992 0.51001C11.2199 0.51001 14.3199 3.61003 14.3199 7.41003C14.3199 11.21 11.2199 14.3101 7.41992 14.3101ZM7.41992 0.709961C3.71992 0.709961 0.719971 3.72003 0.719971 7.41003C0.719971 11.1 3.72992 14.11 7.41992 14.11C11.1099 14.11 14.12 11.1 14.12 7.41003C14.12 3.72003 11.1099 0.709961 7.41992 0.709961Z" fill="#231F20"/>
<path d="M16.6399 19.3899C16.5699 19.3899 16.4899 19.3599 16.4399 19.2999L11.35 13.3099C11.26 13.1999 11.2699 13.0299 11.3799 12.9399C11.4899 12.8499 11.66 12.8598 11.75 12.9698L16.84 18.9598C16.93 19.0698 16.9199 19.2398 16.8099 19.3298C16.7599 19.3698 16.6999 19.3899 16.6399 19.3899Z" fill="#231F20"/>
<path d="M16.6399 19.4899C16.5299 19.4899 16.43 19.4399 16.37 19.3599L11.2799 13.3699C11.1499 13.2199 11.17 12.9899 11.32 12.8599C11.47 12.7299 11.7 12.7499 11.83 12.8999L16.9199 18.8899C17.0499 19.0399 17.0299 19.2699 16.8799 19.3999C16.8099 19.4599 16.7299 19.4899 16.6499 19.4899H16.6399ZM11.5499 12.9799C11.5499 12.9799 11.4699 12.9899 11.4399 13.0199C11.3699 13.0799 11.3599 13.1799 11.4199 13.2499L16.5099 19.2399C16.5699 19.3099 16.67 19.3199 16.74 19.2599C16.81 19.1999 16.8199 19.0999 16.7599 19.0299L11.6699 13.0399C11.6699 13.0399 11.5899 12.9799 11.5399 12.9799H11.5499Z" fill="#231F20"/>
</svg>
