<svg width="14" height="14" viewBox="0 0 14 14" fill="none" xmlns="http://www.w3.org/2000/svg">
<path d="M8.23003 12.4081C8.12003 12.4081 8.03002 12.3381 7.99002 12.2381L6.14003 7.47813L1.38002 5.49815C1.28002 5.45815 1.22003 5.3581 1.22003 5.2581C1.22003 5.1481 1.28002 5.05811 1.38002 5.01811L13.33 0.118145C13.43 0.0781452 13.54 0.0981427 13.62 0.178143C13.69 0.258143 13.72 0.368121 13.67 0.468121L8.46002 12.2582C8.42002 12.3582 8.32003 12.4181 8.22003 12.4181L8.23003 12.4081ZM2.16003 5.2581L6.43002 7.03813C6.50002 7.06813 6.55002 7.11809 6.57002 7.18809L8.23003 11.4681L12.92 0.848126L2.16003 5.2581Z" fill="#231F20"/>
<path d="M8.23001 12.5082C8.08001 12.5082 7.95001 12.4182 7.90001 12.2782L6.07001 7.55822L1.35001 5.58818C1.21001 5.52818 1.13 5.39817 1.13 5.25817C1.13 5.10817 1.22001 4.97821 1.35001 4.92821L13.3 0.0281867C13.44 -0.0318133 13.59 0.00820374 13.7 0.108204C13.8 0.218204 13.83 0.368167 13.77 0.508167L8.56001 12.2981C8.50001 12.4281 8.37001 12.5082 8.23001 12.5082ZM13.43 0.19817C13.43 0.19817 13.39 0.198179 13.37 0.208179L1.42001 5.1082C1.36001 5.1382 1.32001 5.18817 1.32001 5.25817C1.32001 5.32817 1.36001 5.38819 1.42001 5.40819L6.18001 7.38817C6.18001 7.38817 6.22001 7.41817 6.23001 7.44817L8.08002 12.2082C8.10002 12.2682 8.16001 12.3082 8.23001 12.3082C8.29001 12.3082 8.35 12.2682 8.38 12.2082L13.59 0.418201C13.62 0.358201 13.6 0.288209 13.56 0.238209C13.53 0.208209 13.49 0.18816 13.44 0.18816L13.43 0.19817ZM8.24001 11.5682C8.24001 11.5682 8.17001 11.5382 8.15001 11.5082L6.49001 7.2282C6.49001 7.2282 6.44001 7.15817 6.40001 7.13817L2.13 5.3582C2.13 5.3582 2.07001 5.30818 2.07001 5.26818C2.07001 5.22818 2.09 5.18821 2.13 5.17821L12.89 0.768177C12.89 0.768177 12.97 0.768196 13 0.788196C13.03 0.818196 13.04 0.858182 13.02 0.898182L8.33002 11.5182C8.33002 11.5182 8.28001 11.5782 8.24001 11.5782V11.5682ZM2.42001 5.25817L6.47002 6.94817C6.56002 6.98817 6.63001 7.05818 6.67001 7.14818L8.24001 11.2082L12.73 1.02819L2.41002 5.25817H2.42001Z" fill="#231F20"/>
<path d="M0.359973 13.3787C0.289973 13.3787 0.219971 13.3486 0.169971 13.2986C0.0699707 13.1986 0.0699707 13.0286 0.169971 12.9286L6.14997 7.09868C6.24997 6.99868 6.41996 6.99868 6.51996 7.09868C6.61996 7.19868 6.61996 7.36868 6.51996 7.46868L0.539966 13.2986C0.489966 13.3486 0.419973 13.3687 0.359973 13.3687V13.3787Z" fill="#231F20"/>
<path d="M0.360001 13.4786C0.260001 13.4786 0.169991 13.4386 0.0999908 13.3686C0.0299908 13.2986 0 13.2086 0 13.1086C0 13.0086 0.0400006 12.9186 0.110001 12.8586L6.09 7.02858C6.23 6.88858 6.45999 6.88858 6.59999 7.02858C6.73999 7.16858 6.73999 7.39859 6.59999 7.53859L0.619995 13.3686C0.549995 13.4386 0.459995 13.4686 0.369995 13.4686L0.360001 13.4786ZM6.34 7.11861C6.34 7.11861 6.26 7.1386 6.23 7.1686L0.25 12.9986C0.25 12.9986 0.199997 13.0686 0.199997 13.1086C0.199997 13.1486 0.22 13.1986 0.25 13.2286C0.31 13.2886 0.419996 13.2886 0.479996 13.2286L6.45999 7.39858C6.51999 7.33858 6.52999 7.2286 6.45999 7.1686C6.42999 7.1386 6.39 7.11861 6.34 7.11861Z" fill="#231F20"/>
</svg>
