<svg width="20" height="19" viewBox="0 0 20 19" fill="none" xmlns="http://www.w3.org/2000/svg">
<path d="M4.44 18.9C4.44 18.9 4.37002 18.9 4.33002 18.88C4.23002 18.84 4.17004 18.74 4.17004 18.64V15.1H0.359985C0.219985 15.1 0.100037 14.98 0.100037 14.84V2.16C0.100037 2.02 0.219985 1.90002 0.359985 1.90002H16.8C16.94 1.90002 17.06 2.02 17.06 2.16V14.84C17.06 14.98 16.94 15.1 16.8 15.1H8.67999L4.60999 18.83C4.60999 18.83 4.49999 18.9 4.42999 18.9H4.44ZM0.619995 14.58H4.42999C4.56999 14.58 4.69 14.7 4.69 14.84V18.04L8.40002 14.64C8.40002 14.64 8.51002 14.57 8.58002 14.57H16.54V2.42001H0.619995V14.57V14.58Z" fill="#231F20"/>
<path d="M4.44 19C4.39 19 4.33999 18.99 4.29999 18.97C4.16999 18.91 4.08002 18.78 4.08002 18.64V15.2H0.359985C0.159985 15.2 0 15.0401 0 14.8401V2.16003C0 1.96003 0.159985 1.80005 0.359985 1.80005H16.8C17 1.80005 17.16 1.96003 17.16 2.16003V14.8401C17.16 15.0401 17 15.2 16.8 15.2H8.72003L4.67999 18.9001C4.60999 18.9601 4.53 18.9901 4.44 18.9901V19ZM0.359985 2.00003C0.269985 2.00003 0.200012 2.07003 0.200012 2.16003V14.8401C0.200012 14.9301 0.269985 15 0.359985 15H4.17004C4.22004 15 4.27002 15.04 4.27002 15.1V18.64C4.27002 18.7 4.31 18.76 4.37 18.79C4.43 18.82 4.49999 18.8 4.54999 18.76L8.62 15.03C8.62 15.03 8.66 15 8.69 15H16.81C16.9 15 16.97 14.9301 16.97 14.8401V2.16003C16.97 2.07003 16.9 2.00003 16.81 2.00003H0.369995H0.359985ZM4.70001 18.14C4.70001 18.14 4.67003 18.14 4.66003 18.14C4.62003 18.12 4.60004 18.09 4.60004 18.05V14.85C4.60004 14.76 4.53 14.69 4.44 14.69H0.630005C0.580005 14.69 0.530029 14.6501 0.530029 14.5901V2.44003C0.530029 2.39003 0.570005 2.34006 0.630005 2.34006H16.55C16.6 2.34006 16.65 2.38003 16.65 2.44003V14.5901C16.65 14.6401 16.61 14.69 16.55 14.69H8.59003C8.59003 14.69 8.51004 14.71 8.48004 14.73L4.77002 18.13C4.77002 18.13 4.73001 18.16 4.70001 18.16V18.14ZM0.720032 14.48H4.44C4.64 14.48 4.79999 14.6401 4.79999 14.8401V17.82L8.34003 14.57C8.41003 14.51 8.49002 14.48 8.58002 14.48H16.44V2.52005H0.720032V14.48Z" fill="#231F20"/>
<path d="M19.11 13.75H16.8C16.66 13.75 16.54 13.63 16.54 13.49C16.54 13.35 16.66 13.23 16.8 13.23H18.84V0.639984H2.92004V2.16998C2.92004 2.30998 2.80003 2.42999 2.66003 2.42999C2.52003 2.42999 2.40002 2.30998 2.40002 2.16998V0.379974C2.40002 0.239974 2.52003 0.119995 2.66003 0.119995H19.1C19.24 0.119995 19.36 0.239974 19.36 0.379974V13.5C19.36 13.64 19.24 13.76 19.1 13.76L19.11 13.75Z" fill="#231F20"/>
<path d="M19.11 13.84H16.8C16.6 13.84 16.44 13.68 16.44 13.48C16.44 13.28 16.6 13.12 16.8 13.12H18.75V0.720001H3.03003V2.15002C3.03003 2.35002 2.87004 2.51001 2.67004 2.51001C2.47004 2.51001 2.31 2.35002 2.31 2.15002V0.360016C2.31 0.160016 2.47004 0 2.67004 0H19.11C19.31 0 19.47 0.160016 19.47 0.360016V13.48C19.47 13.68 19.31 13.84 19.11 13.84ZM16.8 13.32C16.71 13.32 16.64 13.39 16.64 13.48C16.64 13.57 16.71 13.64 16.8 13.64H19.11C19.2 13.64 19.27 13.57 19.27 13.48V0.360016C19.27 0.270016 19.2 0.200012 19.11 0.200012H2.67004C2.58004 0.200012 2.51001 0.270016 2.51001 0.360016V2.15002C2.51001 2.24002 2.58004 2.31 2.67004 2.31C2.76004 2.31 2.83002 2.24002 2.83002 2.15002V0.620026C2.83002 0.570026 2.86999 0.52002 2.92999 0.52002H18.85C18.9 0.52002 18.95 0.560026 18.95 0.620026V13.21C18.95 13.26 18.91 13.31 18.85 13.31H16.81L16.8 13.32Z" fill="#231F20"/>
<path d="M15.0401 17.55C14.9801 17.55 14.91 17.5299 14.86 17.4799L12.19 15.0299C12.08 14.9299 12.0801 14.7699 12.1701 14.6599C12.2701 14.5499 12.4301 14.55 12.5401 14.64L14.77 16.68V14.83C14.77 14.69 14.8901 14.5699 15.0301 14.5699C15.1701 14.5699 15.2901 14.69 15.2901 14.83V17.2799C15.2901 17.3799 15.23 17.48 15.13 17.52C15.1 17.53 15.06 17.5399 15.02 17.5399L15.0401 17.55Z" fill="#231F20"/>
<path d="M15.04 17.64C14.95 17.64 14.86 17.61 14.8 17.55L12.13 15.1C11.98 14.97 11.97 14.74 12.11 14.59C12.24 14.44 12.47 14.43 12.62 14.57L14.69 16.46V14.83C14.69 14.63 14.85 14.47 15.05 14.47C15.25 14.47 15.41 14.63 15.41 14.83V17.28C15.41 17.42 15.33 17.55 15.19 17.61C15.14 17.63 15.1 17.64 15.04 17.64ZM12.37 14.67C12.37 14.67 12.28 14.69 12.25 14.72C12.22 14.75 12.21 14.79 12.21 14.84C12.21 14.88 12.23 14.92 12.26 14.95L14.93 17.4C14.93 17.4 15.05 17.46 15.11 17.43C15.17 17.4 15.21 17.35 15.21 17.28V14.83C15.21 14.74 15.14 14.67 15.05 14.67C14.96 14.67 14.89 14.74 14.89 14.83V16.68C14.89 16.68 14.87 16.75 14.83 16.77C14.79 16.79 14.75 16.77 14.72 16.75L12.49 14.71C12.49 14.71 12.42 14.67 12.38 14.67H12.37Z" fill="#231F20"/>
<path d="M14.38 5.96994H2.67004C2.53004 5.96994 2.41003 5.84996 2.41003 5.70996C2.41003 5.56996 2.53004 5.44995 2.67004 5.44995H14.38C14.52 5.44995 14.64 5.56996 14.64 5.70996C14.64 5.84996 14.52 5.96994 14.38 5.96994Z" fill="#231F20"/>
<path d="M14.38 6.06998H2.67004C2.47004 6.06998 2.31 5.90999 2.31 5.70999C2.31 5.50999 2.47004 5.34998 2.67004 5.34998H14.38C14.58 5.34998 14.74 5.50999 14.74 5.70999C14.74 5.90999 14.58 6.06998 14.38 6.06998ZM2.67004 5.54999C2.58004 5.54999 2.51001 5.61999 2.51001 5.70999C2.51001 5.79999 2.58004 5.87 2.67004 5.87H14.38C14.47 5.87 14.54 5.79999 14.54 5.70999C14.54 5.61999 14.47 5.54999 14.38 5.54999H2.67004Z" fill="#231F20"/>
<path d="M14.38 8.31992H2.67004C2.53004 8.31992 2.41003 8.19991 2.41003 8.05991C2.41003 7.91991 2.53004 7.79993 2.67004 7.79993H14.38C14.52 7.79993 14.64 7.91991 14.64 8.05991C14.64 8.19991 14.52 8.31992 14.38 8.31992Z" fill="#231F20"/>
<path d="M14.38 8.40994H2.67004C2.47004 8.40994 2.31 8.24996 2.31 8.04996C2.31 7.84996 2.47004 7.68994 2.67004 7.68994H14.38C14.58 7.68994 14.74 7.84996 14.74 8.04996C14.74 8.24996 14.58 8.40994 14.38 8.40994ZM2.67004 7.88995C2.58004 7.88995 2.51001 7.95996 2.51001 8.04996C2.51001 8.13996 2.58004 8.20996 2.67004 8.20996H14.38C14.47 8.20996 14.54 8.13996 14.54 8.04996C14.54 7.95996 14.47 7.88995 14.38 7.88995H2.67004Z" fill="#231F20"/>
<path d="M7.35004 10.66H2.67004C2.53004 10.66 2.41003 10.54 2.41003 10.4C2.41003 10.26 2.53004 10.14 2.67004 10.14H7.35004C7.49004 10.14 7.60999 10.26 7.60999 10.4C7.60999 10.54 7.49004 10.66 7.35004 10.66Z" fill="#231F20"/>
<path d="M7.35004 10.76H2.67004C2.47004 10.76 2.31 10.6001 2.31 10.4001C2.31 10.2001 2.47004 10.04 2.67004 10.04H7.35004C7.55004 10.04 7.71002 10.2001 7.71002 10.4001C7.71002 10.6001 7.55004 10.76 7.35004 10.76ZM2.67004 10.23C2.58004 10.23 2.51001 10.3 2.51001 10.39C2.51001 10.48 2.58004 10.55 2.67004 10.55H7.35004C7.44004 10.55 7.51001 10.48 7.51001 10.39C7.51001 10.3 7.44004 10.23 7.35004 10.23H2.67004Z" fill="#231F20"/>
</svg>
