<svg width="22" height="22" viewBox="0 0 22 22" fill="none" xmlns="http://www.w3.org/2000/svg">
<path d="M17.42 5.15009H15.52C15.48 2.90009 13.65 1.09009 11.4 1.09009C9.15002 1.09009 7.31003 2.91009 7.28003 5.15009H5.38C5.24 5.15009 5.12 5.2701 5.12 5.4101V19.8201C5.12 19.9601 5.24 20.0801 5.38 20.0801H17.44C17.58 20.0801 17.7 19.9601 17.7 19.8201V5.4101C17.7 5.2701 17.58 5.15009 17.44 5.15009H17.42ZM11.39 1.61005C13.36 1.61005 14.95 3.19009 14.99 5.15009H7.79004C7.83004 3.19009 9.43001 1.61005 11.39 1.61005ZM17.16 19.5701H5.63V5.68005H7.27002V8.24005C7.27002 8.38005 7.39003 8.50006 7.53003 8.50006C7.67003 8.50006 7.79004 8.38005 7.79004 8.24005V5.68005H15V8.24005C15 8.38005 15.12 8.50006 15.26 8.50006C15.4 8.50006 15.52 8.38005 15.52 8.24005V5.68005H17.16V19.5701Z" fill="#231F20"/>
<path d="M17.42 20.19H5.35999C5.15999 20.19 5 20.03 5 19.83V5.41998C5 5.21998 5.15999 5.06 5.35999 5.06H7.16998C7.25998 2.81 9.13001 1 11.39 1C13.65 1 15.52 2.81 15.61 5.06H17.42C17.62 5.06 17.78 5.21998 17.78 5.41998V19.83C17.78 20.03 17.62 20.19 17.42 20.19ZM5.35999 5.25C5.26999 5.25 5.20001 5.32003 5.20001 5.41003V19.82C5.20001 19.91 5.26999 19.98 5.35999 19.98H17.42C17.51 19.98 17.58 19.91 17.58 19.82V5.41003C17.58 5.32003 17.51 5.25 17.42 5.25H15.52C15.47 5.25 15.42 5.21002 15.42 5.15002C15.39 2.96002 13.58 1.17999 11.39 1.17999C9.20001 1.17999 7.39999 2.96002 7.35999 5.15002C7.35999 5.20002 7.32001 5.25 7.26001 5.25H5.35999ZM17.16 19.66H5.63C5.58 19.66 5.53003 19.62 5.53003 19.56V5.66998C5.53003 5.61998 5.57 5.57001 5.63 5.57001H7.27002C7.32002 5.57001 7.37 5.60998 7.37 5.66998V8.22998C7.37 8.31998 7.44003 8.39001 7.53003 8.39001C7.62003 8.39001 7.69 8.31998 7.69 8.22998V5.66998C7.69 5.61998 7.73004 5.57001 7.79004 5.57001H15C15.05 5.57001 15.1 5.60998 15.1 5.66998V8.22998C15.1 8.31998 15.17 8.39001 15.26 8.39001C15.35 8.39001 15.42 8.31998 15.42 8.22998V5.66998C15.42 5.61998 15.46 5.57001 15.52 5.57001H17.16C17.21 5.57001 17.26 5.60998 17.26 5.66998V19.56C17.26 19.61 17.22 19.66 17.16 19.66ZM5.72003 19.47H17.05V5.78003H15.61V8.23999C15.61 8.43999 15.45 8.60004 15.25 8.60004C15.05 8.60004 14.89 8.43999 14.89 8.23999V5.78003H7.88V8.23999C7.88 8.43999 7.72002 8.60004 7.52002 8.60004C7.32002 8.60004 7.16003 8.43999 7.16003 8.23999V5.78003H5.72003V19.47ZM14.99 5.25H7.79004C7.79004 5.25 7.74003 5.24003 7.72003 5.22003C7.70003 5.20003 7.69 5.18002 7.69 5.15002C7.73 3.15002 9.39001 1.52002 11.39 1.52002C13.39 1.52002 15.05 3.15002 15.09 5.15002C15.09 5.18002 15.09 5.20003 15.06 5.22003C15.04 5.24003 15.02 5.25 14.99 5.25ZM7.89001 5.04999H14.89C14.8 3.19999 13.25 1.71002 11.39 1.71002C9.53001 1.71002 7.98001 3.19999 7.89001 5.04999Z" fill="#231F20"/>
<path d="M14.86 10.31C14.75 10.24 14.61 10.27 14.54 10.37L10.7 16.19L8.82 14.33C8.73 14.24 8.59 14.24 8.5 14.33C8.41 14.42 8.41 14.56 8.5 14.65L10.57 16.71C10.57 16.71 10.67 16.78 10.73 16.78H10.75C10.82 16.78 10.88 16.74 10.92 16.68L14.91 10.63C14.98 10.52 14.95 10.38 14.84 10.31H14.86Z" fill="#231F20"/>
<path d="M10.75 16.88C10.66 16.88 10.58 16.85 10.52 16.79L8.45001 14.73C8.39001 14.67 8.35004 14.59 8.35004 14.5C8.35004 14.41 8.38 14.33 8.44 14.27C8.5 14.21 8.57998 14.17 8.66998 14.17C8.75998 14.17 8.84002 14.2 8.90002 14.26L10.69 16.0301L14.46 10.31C14.51 10.24 14.58 10.19 14.67 10.17C14.76 10.15 14.84 10.1701 14.92 10.2201C15.07 10.3201 15.11 10.52 15.01 10.67L11.02 16.7201C10.97 16.8001 10.88 16.85 10.78 16.87H10.75V16.88ZM8.66998 14.37C8.66998 14.37 8.60002 14.3801 8.58002 14.4101C8.53002 14.4601 8.53002 14.5401 8.58002 14.5901L10.65 16.6501C10.65 16.6501 10.71 16.69 10.74 16.69C10.79 16.69 10.83 16.66 10.85 16.63L14.84 10.58C14.88 10.52 14.86 10.4401 14.8 10.4001C14.8 10.4001 14.74 10.37 14.7 10.38C14.67 10.38 14.64 10.41 14.62 10.44L10.78 16.26C10.78 16.26 10.74 16.3 10.71 16.3C10.68 16.3 10.65 16.3 10.63 16.27L8.75 14.4101C8.75 14.4101 8.69003 14.37 8.66003 14.37H8.66998Z" fill="#231F20"/>
</svg>
