<svg width="22" height="22" viewBox="0 0 22 22" fill="none" xmlns="http://www.w3.org/2000/svg">
<path d="M1.35999 3.09998C1.33999 3.09998 1.31999 3.09999 1.29999 3.10999C1.28999 3.10999 1.27001 3.10999 1.26001 3.10999C1.25001 3.10999 1.24004 3.13 1.23004 3.13C1.21004 3.14 1.18999 3.14998 1.17999 3.16998C1.17999 3.16998 1.17003 3.19001 1.16003 3.20001C1.15003 3.22001 1.14 3.23 1.13 3.25C1.13 3.27 1.13 3.29 1.12 3.31C1.12 3.32 1.12 3.32998 1.12 3.34998V17.03C1.12 17.17 1.24 17.29 1.38 17.29H11.56C11.7 17.29 11.82 17.17 11.82 17.03C11.82 16.89 11.7 16.77 11.56 16.77H1.64001V3.95001L10.55 12.19C10.6 12.24 10.66 12.26 10.73 12.26C10.8 12.26 10.86 12.24 10.91 12.19L19.82 3.95001V16.77H18.97C18.83 16.77 18.71 16.89 18.71 17.03C18.71 17.17 18.83 17.29 18.97 17.29H20.08C20.22 17.29 20.34 17.17 20.34 17.03V3.34998C20.34 3.34998 20.34 3.33 20.34 3.31C20.34 3.29 20.34 3.27 20.33 3.25C20.33 3.23 20.31 3.22001 20.3 3.20001C20.3 3.19001 20.29 3.17998 20.28 3.16998C20.27 3.15998 20.25 3.15 20.23 3.13C20.22 3.13 20.21 3.10999 20.2 3.10999C20.19 3.10999 20.17 3.10999 20.16 3.10999C20.14 3.10999 20.12 3.09998 20.1 3.09998H1.39001H1.35999ZM10.71 11.64L2.03003 3.62H19.4L10.72 11.64H10.71Z" fill="#231F20"/>
<path d="M20.07 17.39H18.96C18.76 17.39 18.6 17.23 18.6 17.03C18.6 16.83 18.76 16.67 18.96 16.67H19.71V4.17999L10.96 12.26C10.83 12.38 10.6 12.38 10.47 12.26L1.72003 4.17999V16.67H11.54C11.74 16.67 11.9 16.83 11.9 17.03C11.9 17.23 11.74 17.39 11.54 17.39H1.35999C1.15999 17.39 1 17.23 1 17.03V3.34998C1 3.34998 1 3.30999 1 3.29999C1 3.26999 1.00002 3.23997 1.02002 3.21997C1.03002 3.18997 1.04 3.16997 1.06 3.15997C1.07 3.13997 1.08003 3.12999 1.09003 3.10999C1.09003 3.10999 1.09999 3.09998 1.10999 3.09998C1.12999 3.07998 1.14003 3.07001 1.16003 3.07001C1.16003 3.07001 1.21003 3.03997 1.22003 3.02997C1.24003 3.02997 1.26002 3.02002 1.27002 3.02002C1.30002 3.02002 1.32999 3 1.35999 3H20.07C20.07 3 20.08 3 20.09 3C20.12 3 20.14 3.00001 20.16 3.01001C20.16 3.01001 20.22 3.01997 20.22 3.02997C20.24 3.02997 20.25 3.05 20.26 3.06C20.29 3.08 20.31 3.08999 20.33 3.10999C20.35 3.12999 20.36 3.14997 20.36 3.15997C20.38 3.18997 20.39 3.20998 20.4 3.22998C20.41 3.25998 20.41 3.27999 20.42 3.29999C20.42 3.29999 20.42 3.34999 20.42 3.35999V17.04C20.42 17.24 20.26 17.4 20.06 17.4L20.07 17.39ZM18.96 16.87C18.87 16.87 18.8 16.94 18.8 17.03C18.8 17.12 18.87 17.19 18.96 17.19H20.07C20.16 17.19 20.23 17.12 20.23 17.03V3.34998C20.23 3.34998 20.23 3.34002 20.23 3.33002C20.23 3.31002 20.23 3.29998 20.23 3.28998C20.23 3.28998 20.23 3.28002 20.22 3.27002L20.2 3.23999C20.2 3.23999 20.19 3.23998 20.18 3.22998L20.15 3.21002C20.15 3.21002 20.13 3.21002 20.12 3.21002C20.07 3.20002 20.07 3.21001 20.06 3.20001H1.38C1.38 3.20001 1.37003 3.20002 1.34003 3.21002L1.28003 3.22998L1.25 3.25L1.23999 3.27002C1.22999 3.29002 1.22003 3.29999 1.22003 3.29999V3.33997C1.22003 3.33997 1.22003 3.36 1.22003 3.37V17.04C1.22003 17.13 1.29 17.2 1.38 17.2H11.56C11.65 17.2 11.72 17.13 11.72 17.04C11.72 16.95 11.65 16.88 11.56 16.88H1.64001C1.59001 16.88 1.54004 16.84 1.54004 16.78V3.96002C1.54004 3.96002 1.56004 3.89 1.60004 3.87C1.64004 3.85 1.68002 3.87001 1.71002 3.89001L10.62 12.13C10.68 12.19 10.78 12.19 10.84 12.13L19.75 3.89001C19.75 3.89001 19.82 3.86 19.86 3.87C19.9 3.89 19.92 3.92002 19.92 3.96002V16.78C19.92 16.83 19.88 16.88 19.82 16.88H18.97L18.96 16.87ZM10.71 11.74C10.71 11.74 10.66 11.74 10.64 11.71L1.96002 3.69C1.96002 3.69 1.92 3.62002 1.94 3.58002C1.95 3.54002 1.99003 3.52002 2.03003 3.52002H19.4C19.4 3.52002 19.48 3.54002 19.49 3.58002C19.5 3.62002 19.49 3.66 19.47 3.69L10.79 11.71C10.79 11.71 10.75 11.74 10.72 11.74H10.71ZM2.28003 3.71997L10.71 11.51L19.14 3.71997H2.27002H2.28003Z" fill="#231F20"/>
<path d="M15.21 20.4698C13.25 20.4698 11.66 18.8799 11.66 16.9199C11.66 14.9599 13.25 13.3699 15.21 13.3699C17.17 13.3699 18.76 14.9599 18.76 16.9199C18.76 18.8799 17.17 20.4698 15.21 20.4698ZM15.21 13.5699C13.36 13.5699 11.86 15.0699 11.86 16.9199C11.86 18.7699 13.36 20.2699 15.21 20.2699C17.06 20.2699 18.56 18.7699 18.56 16.9199C18.56 15.0699 17.06 13.5699 15.21 13.5699Z" fill="#231F20"/>
<path d="M15.21 20.5699C13.2 20.5699 11.57 18.9299 11.57 16.9199C11.57 14.9099 13.2 13.2799 15.21 13.2799C17.22 13.2799 18.85 14.9099 18.85 16.9199C18.85 18.9299 17.21 20.5699 15.21 20.5699ZM15.21 13.6699C13.41 13.6699 11.95 15.1299 11.95 16.9299C11.95 18.7299 13.41 20.1899 15.21 20.1899C17.01 20.1899 18.47 18.7299 18.47 16.9299C18.47 15.1299 17.01 13.6699 15.21 13.6699Z" fill="#231F20"/>
<path d="M15.21 20.5699C13.2 20.5699 11.56 18.9399 11.56 16.9299C11.56 14.9199 13.2 13.2799 15.21 13.2799C17.22 13.2799 18.85 14.9199 18.85 16.9299C18.85 18.9399 17.21 20.5699 15.21 20.5699ZM15.21 13.6699C13.41 13.6699 11.95 15.1299 11.95 16.9299C11.95 18.7299 13.41 20.1899 15.21 20.1899C17.01 20.1899 18.47 18.7299 18.47 16.9299C18.47 15.1299 17.01 13.6699 15.21 13.6699Z" fill="#231F20"/>
<path d="M15.21 20.6699C13.15 20.6699 11.47 18.9899 11.47 16.9299C11.47 14.8699 13.15 13.1899 15.21 13.1899C17.27 13.1899 18.95 14.8699 18.95 16.9299C18.95 18.9899 17.27 20.6699 15.21 20.6699ZM15.21 13.3799C13.25 13.3799 11.66 14.9699 11.66 16.9299C11.66 18.8899 13.25 20.4799 15.21 20.4799C17.17 20.4799 18.76 18.8899 18.76 16.9299C18.76 14.9699 17.17 13.3799 15.21 13.3799ZM15.21 20.2799C13.36 20.2799 11.86 18.7799 11.86 16.9299C11.86 15.0799 13.36 13.58 15.21 13.58C17.06 13.58 18.56 15.0799 18.56 16.9299C18.56 18.7799 17.06 20.2799 15.21 20.2799ZM15.21 13.7599C13.47 13.7599 12.05 15.1799 12.05 16.9199C12.05 18.6599 13.47 20.08 15.21 20.08C16.95 20.08 18.37 18.6599 18.37 16.9199C18.37 15.1799 16.95 13.7599 15.21 13.7599Z" fill="#231F20"/>
<path d="M15.21 19.0698C15.16 19.0698 15.11 19.0298 15.11 18.9698V14.9098C15.11 14.8598 15.15 14.8098 15.21 14.8098C15.27 14.8098 15.31 14.8498 15.31 14.9098V18.9698C15.31 19.0198 15.27 19.0698 15.21 19.0698Z" fill="#231F20"/>
<path d="M15.21 19.1699C15.1 19.1699 15.02 19.0799 15.02 18.9799V14.9199C15.02 14.8099 15.11 14.7299 15.21 14.7299C15.31 14.7299 15.4 14.8199 15.4 14.9199V18.9799C15.4 19.0899 15.31 19.1699 15.21 19.1699Z" fill="#231F20"/>
<path d="M15.21 19.1699C15.1 19.1699 15.02 19.0799 15.02 18.9799V14.9199C15.02 14.8099 15.11 14.7299 15.21 14.7299C15.31 14.7299 15.4 14.8199 15.4 14.9199V18.9799C15.4 19.0899 15.31 19.1699 15.21 19.1699Z" fill="#231F20"/>
<path d="M15.21 19.2699C15.05 19.2699 14.92 19.1399 14.92 18.9799V14.9199C14.92 14.7599 15.05 14.6299 15.21 14.6299C15.37 14.6299 15.5 14.7599 15.5 14.9199V18.9799C15.5 19.1399 15.37 19.2699 15.21 19.2699ZM15.21 14.8199C15.16 14.8199 15.11 14.8599 15.11 14.9199V18.9799C15.11 19.0299 15.15 19.0799 15.21 19.0799C15.27 19.0799 15.31 19.0399 15.31 18.9799V14.9199C15.31 14.8699 15.27 14.8199 15.21 14.8199Z" fill="#231F20"/>
<path d="M17.24 17.04H13.18C13.13 17.04 13.08 17 13.08 16.94C13.08 16.88 13.12 16.84 13.18 16.84H17.24C17.29 16.84 17.34 16.88 17.34 16.94C17.34 17 17.3 17.04 17.24 17.04Z" fill="#231F20"/>
<path d="M17.24 17.14H13.18C13.07 17.14 12.99 17.05 12.99 16.95C12.99 16.85 13.08 16.76 13.18 16.76H17.24C17.35 16.76 17.43 16.85 17.43 16.95C17.43 17.05 17.34 17.14 17.24 17.14Z" fill="#231F20"/>
<path d="M17.24 17.14H13.18C13.07 17.14 12.99 17.05 12.99 16.95C12.99 16.85 13.08 16.76 13.18 16.76H17.24C17.35 16.76 17.43 16.85 17.43 16.95C17.43 17.05 17.34 17.14 17.24 17.14Z" fill="#231F20"/>
<path d="M17.24 17.2399H13.18C13.02 17.2399 12.89 17.11 12.89 16.95C12.89 16.79 13.02 16.6599 13.18 16.6599H17.24C17.4 16.6599 17.53 16.79 17.53 16.95C17.53 17.11 17.4 17.2399 17.24 17.2399ZM13.18 16.8499C13.13 16.8499 13.08 16.89 13.08 16.95C13.08 17.01 13.12 17.0499 13.18 17.0499H17.24C17.29 17.0499 17.34 17.01 17.34 16.95C17.34 16.89 17.3 16.8499 17.24 16.8499H13.18Z" fill="#231F20"/>
</svg>
