<svg width="22" height="22" viewBox="0 0 22 22" fill="none" xmlns="http://www.w3.org/2000/svg">
<path d="M11.38 18.95C7.20001 18.95 3.81 15.5499 3.81 11.3799C3.81 7.20994 7.21 3.80994 11.38 3.80994C15.55 3.80994 18.95 7.20994 18.95 11.3799C18.95 15.5499 15.55 18.95 11.38 18.95ZM11.38 4.32996C7.49 4.32996 4.33 7.48994 4.33 11.3799C4.33 15.2699 7.49 18.4299 11.38 18.4299C15.27 18.4299 18.43 15.2699 18.43 11.3799C18.43 7.48994 15.27 4.32996 11.38 4.32996Z" fill="#231F20"/>
<path d="M11.38 19.05C7.15002 19.05 3.71002 15.61 3.71002 11.38C3.71002 7.14997 7.15002 3.70996 11.38 3.70996C15.61 3.70996 19.05 7.14997 19.05 11.38C19.05 15.61 15.61 19.05 11.38 19.05ZM11.38 3.89996C7.26002 3.89996 3.91002 7.24996 3.91002 11.37C3.91002 15.49 7.26002 18.84 11.38 18.84C15.5 18.84 18.85 15.49 18.85 11.37C18.85 7.24996 15.5 3.89996 11.38 3.89996ZM11.38 18.52C7.44002 18.52 4.23001 15.31 4.23001 11.37C4.23001 7.42996 7.44002 4.21997 11.38 4.21997C15.32 4.21997 18.53 7.42996 18.53 11.37C18.53 15.31 15.32 18.52 11.38 18.52ZM11.38 4.42996C7.55002 4.42996 4.43001 7.54997 4.43001 11.38C4.43001 15.21 7.55002 18.33 11.38 18.33C15.21 18.33 18.33 15.21 18.33 11.38C18.33 7.54997 15.21 4.42996 11.38 4.42996Z" fill="#231F20"/>
<path d="M11.38 16.5801C8.51 16.5801 6.17999 14.2501 6.17999 11.3801C6.17999 8.51007 8.51 6.18005 11.38 6.18005C14.25 6.18005 16.58 8.51007 16.58 11.3801C16.58 14.2501 14.25 16.5801 11.38 16.5801ZM11.38 6.70007C8.8 6.70007 6.7 8.80007 6.7 11.3801C6.7 13.9601 8.8 16.0601 11.38 16.0601C13.96 16.0601 16.06 13.9601 16.06 11.3801C16.06 8.80007 13.96 6.70007 11.38 6.70007Z" fill="#231F20"/>
<path d="M11.38 16.6701C8.46002 16.6701 6.08002 14.2901 6.08002 11.3701C6.08002 8.45006 8.46002 6.07007 11.38 6.07007C14.3 6.07007 16.68 8.45006 16.68 11.3701C16.68 14.2901 14.3 16.6701 11.38 16.6701ZM11.38 6.27005C8.57002 6.27005 6.28001 8.56006 6.28001 11.3701C6.28001 14.1801 8.57002 16.4701 11.38 16.4701C14.19 16.4701 16.48 14.1801 16.48 11.3701C16.48 8.56006 14.19 6.27005 11.38 6.27005ZM11.38 16.1501C8.75002 16.1501 6.61002 14.0101 6.61002 11.3801C6.61002 8.75007 8.75002 6.61008 11.38 6.61008C14.01 6.61008 16.15 8.75007 16.15 11.3801C16.15 14.0101 14.01 16.1501 11.38 16.1501ZM11.38 6.80008C8.86002 6.80008 6.80002 8.85007 6.80002 11.3801C6.80002 13.9101 8.85002 15.9601 11.38 15.9601C13.91 15.9601 15.96 13.9101 15.96 11.3801C15.96 8.85007 13.91 6.80008 11.38 6.80008Z" fill="#231F20"/>
<path d="M11.38 4.32999C11.24 4.32999 11.12 4.20998 11.12 4.06998V2.35999C11.12 2.21999 11.24 2.09998 11.38 2.09998C11.52 2.09998 11.64 2.21999 11.64 2.35999V4.06998C11.64 4.20998 11.52 4.32999 11.38 4.32999Z" fill="#231F20"/>
<path d="M11.38 4.42999C11.18 4.42999 11.02 4.27001 11.02 4.07001V2.36002C11.02 2.16002 11.18 2 11.38 2C11.58 2 11.74 2.16002 11.74 2.36002V4.07001C11.74 4.27001 11.58 4.42999 11.38 4.42999ZM11.38 2.19C11.29 2.19 11.22 2.26001 11.22 2.35001V4.06C11.22 4.15 11.29 4.22 11.38 4.22C11.47 4.22 11.54 4.15 11.54 4.06V2.35001C11.54 2.26001 11.47 2.19 11.38 2.19Z" fill="#231F20"/>
<path d="M11.38 20.6601C11.24 20.6601 11.12 20.5401 11.12 20.4001V18.6901C11.12 18.5501 11.24 18.4301 11.38 18.4301C11.52 18.4301 11.64 18.5501 11.64 18.6901V20.4001C11.64 20.5401 11.52 20.6601 11.38 20.6601Z" fill="#231F20"/>
<path d="M11.38 20.7601C11.18 20.7601 11.02 20.6001 11.02 20.4001V18.6901C11.02 18.4901 11.18 18.3301 11.38 18.3301C11.58 18.3301 11.74 18.4901 11.74 18.6901V20.4001C11.74 20.6001 11.58 20.7601 11.38 20.7601ZM11.38 18.5201C11.29 18.5201 11.22 18.5901 11.22 18.6801V20.3901C11.22 20.4801 11.29 20.5501 11.38 20.5501C11.47 20.5501 11.54 20.4801 11.54 20.3901V18.6801C11.54 18.5901 11.47 18.5201 11.38 18.5201Z" fill="#231F20"/>
<path d="M20.4 11.64H18.69C18.55 11.64 18.43 11.52 18.43 11.38C18.43 11.24 18.55 11.12 18.69 11.12H20.4C20.54 11.12 20.66 11.24 20.66 11.38C20.66 11.52 20.54 11.64 20.4 11.64Z" fill="#231F20"/>
<path d="M20.4 11.74H18.69C18.49 11.74 18.33 11.58 18.33 11.38C18.33 11.18 18.49 11.02 18.69 11.02H20.4C20.6 11.02 20.76 11.18 20.76 11.38C20.76 11.58 20.6 11.74 20.4 11.74ZM18.69 11.21C18.6 11.21 18.53 11.28 18.53 11.37C18.53 11.46 18.6 11.53 18.69 11.53H20.4C20.49 11.53 20.56 11.46 20.56 11.37C20.56 11.28 20.49 11.21 20.4 11.21H18.69Z" fill="#231F20"/>
<path d="M4.06996 11.64H2.35997C2.21997 11.64 2.09998 11.52 2.09998 11.38C2.09998 11.24 2.21997 11.12 2.35997 11.12H4.06996C4.20996 11.12 4.32997 11.24 4.32997 11.38C4.32997 11.52 4.20996 11.64 4.06996 11.64Z" fill="#231F20"/>
<path d="M4.06999 11.74H2.36C2.16 11.74 2 11.58 2 11.38C2 11.18 2.16 11.02 2.36 11.02H4.06999C4.26999 11.02 4.42999 11.18 4.42999 11.38C4.42999 11.58 4.26999 11.74 4.06999 11.74ZM2.35001 11.21C2.26001 11.21 2.19 11.28 2.19 11.37C2.19 11.46 2.26001 11.53 2.35001 11.53H4.06C4.15 11.53 4.22 11.46 4.22 11.37C4.22 11.28 4.15 11.21 4.06 11.21H2.35001Z" fill="#231F20"/>
</svg>
