<svg width="22" height="22" viewBox="0 0 22 22" fill="none" xmlns="http://www.w3.org/2000/svg">
<path d="M9.41992 15.74C5.37992 15.74 2.08997 12.45 2.08997 8.41003C2.08997 4.37003 5.37992 1.07996 9.41992 1.07996C13.4599 1.07996 16.75 4.37003 16.75 8.41003C16.75 12.45 13.4599 15.74 9.41992 15.74ZM9.41992 1.60999C5.66992 1.60999 2.62 4.66003 2.62 8.41003C2.62 12.16 5.66992 15.21 9.41992 15.21C13.1699 15.21 16.22 12.16 16.22 8.41003C16.22 4.66003 13.1699 1.60999 9.41992 1.60999Z" fill="#231F20"/>
<path d="M9.41992 15.84C5.32992 15.84 2 12.51 2 8.42004C2 4.33004 5.32992 1 9.41992 1C13.5099 1 16.84 4.33004 16.84 8.42004C16.84 12.51 13.5099 15.84 9.41992 15.84ZM9.41992 1.18005C5.42992 1.18005 2.18994 4.42003 2.18994 8.41003C2.18994 12.4 5.42992 15.64 9.41992 15.64C13.4099 15.64 16.6499 12.4 16.6499 8.41003C16.6499 4.42003 13.4099 1.18005 9.41992 1.18005ZM9.41992 15.3101C5.60992 15.3101 2.5199 12.21 2.5199 8.41003C2.5199 4.61003 5.61992 1.51001 9.41992 1.51001C13.2199 1.51001 16.3199 4.61003 16.3199 8.41003C16.3199 12.21 13.2199 15.3101 9.41992 15.3101ZM9.41992 1.70996C5.71992 1.70996 2.71997 4.72003 2.71997 8.41003C2.71997 12.1 5.72992 15.11 9.41992 15.11C13.1099 15.11 16.12 12.1 16.12 8.41003C16.12 4.72003 13.1099 1.70996 9.41992 1.70996Z" fill="#231F20"/>
<path d="M18.6399 20.39C18.5699 20.39 18.4899 20.36 18.4399 20.3L13.35 14.3101C13.26 14.2001 13.2699 14.0301 13.3799 13.9401C13.4899 13.8501 13.66 13.86 13.75 13.97L18.84 19.96C18.93 20.07 18.9199 20.24 18.8099 20.33C18.7599 20.37 18.6999 20.39 18.6399 20.39Z" fill="#231F20"/>
<path d="M18.6399 20.49C18.5299 20.49 18.43 20.44 18.37 20.36L13.2799 14.37C13.1499 14.22 13.17 13.99 13.32 13.86C13.47 13.73 13.7 13.75 13.83 13.9L18.9199 19.89C19.0499 20.04 19.0299 20.27 18.8799 20.4C18.8099 20.46 18.7299 20.49 18.6499 20.49H18.6399ZM13.5499 13.98C13.5499 13.98 13.4699 13.99 13.4399 14.02C13.3699 14.08 13.3599 14.18 13.4199 14.25L18.5099 20.24C18.5699 20.31 18.67 20.32 18.74 20.26C18.81 20.2 18.8199 20.1 18.7599 20.03L13.6699 14.04C13.6699 14.04 13.5899 13.98 13.5399 13.98H13.5499Z" fill="#231F20"/>
</svg>
