<svg width="22" height="22" viewBox="0 0 22 22" fill="none" xmlns="http://www.w3.org/2000/svg">
<path d="M5.71039 20.0699H1.41037C1.27037 20.0699 1.15039 19.9499 1.15039 19.8099V10.3099C1.15039 10.1699 1.27037 10.0499 1.41037 10.0499H5.71039C5.85039 10.0499 5.9704 10.1699 5.9704 10.3099V19.8099C5.9704 19.9499 5.85039 20.0699 5.71039 20.0699ZM1.67038 19.5499H5.45038V10.5699H1.67038V19.5499Z" fill="#231F20"/>
<path d="M5.71042 20.17H1.4104C1.2104 20.17 1.05042 20.0099 1.05042 19.8099V10.3099C1.05042 10.1099 1.2104 9.94995 1.4104 9.94995H5.71042C5.91042 9.94995 6.0704 10.1099 6.0704 10.3099V19.8099C6.0704 20.0099 5.91042 20.17 5.71042 20.17ZM1.4104 10.1399C1.3204 10.1399 1.25043 10.2099 1.25043 10.2999V19.7999C1.25043 19.8899 1.3204 19.9599 1.4104 19.9599H5.71042C5.80042 19.9599 5.87042 19.8899 5.87042 19.7999V10.2999C5.87042 10.2099 5.80042 10.1399 5.71042 10.1399H1.4104ZM5.45041 19.6399H1.67041C1.62041 19.6399 1.5704 19.5999 1.5704 19.5399V10.5599C1.5704 10.5099 1.61041 10.4599 1.67041 10.4599H5.45041C5.50041 10.4599 5.55042 10.4999 5.55042 10.5599V19.5399C5.55042 19.5899 5.51041 19.6399 5.45041 19.6399ZM1.77042 19.45H5.3504V10.67H1.77042V19.45Z" fill="#231F20"/>
<path d="M12.7604 20.07H8.46045C8.32045 20.07 8.20044 19.95 8.20044 19.81V5.84998C8.20044 5.70998 8.32045 5.58997 8.46045 5.58997H12.7604C12.9004 5.58997 13.0204 5.70998 13.0204 5.84998V19.81C13.0204 19.95 12.9004 20.07 12.7604 20.07ZM8.72046 19.55H12.5005V6.10995H8.72046V19.55Z" fill="#231F20"/>
<path d="M12.7604 20.17H8.46042C8.26042 20.17 8.1004 20.01 8.1004 19.81V5.85001C8.1004 5.65001 8.26042 5.48999 8.46042 5.48999H12.7604C12.9604 5.48999 13.1204 5.65001 13.1204 5.85001V19.81C13.1204 20.01 12.9604 20.17 12.7604 20.17ZM8.46042 5.67999C8.37042 5.67999 8.30042 5.75 8.30042 5.84V19.8C8.30042 19.89 8.37042 19.96 8.46042 19.96H12.7604C12.8504 19.96 12.9204 19.89 12.9204 19.8V5.84C12.9204 5.75 12.8504 5.67999 12.7604 5.67999H8.46042ZM12.4904 19.64H8.71042C8.66042 19.64 8.61041 19.6 8.61041 19.54V6.10001C8.61041 6.05001 8.65042 6 8.71042 6H12.4904C12.5404 6 12.5904 6.04001 12.5904 6.10001V19.54C12.5904 19.59 12.5504 19.64 12.4904 19.64ZM8.8204 19.45H12.4004V6.20999H8.8204V19.45Z" fill="#231F20"/>
<path d="M19.6404 20.07H15.3405C15.2005 20.07 15.0804 19.95 15.0804 19.81V1.35995C15.0804 1.21995 15.2005 1.09998 15.3405 1.09998H19.6404C19.7804 1.09998 19.9005 1.21995 19.9005 1.35995V19.81C19.9005 19.95 19.7804 20.07 19.6404 20.07ZM15.6004 19.55H19.3804V1.61996H15.6004V19.55Z" fill="#231F20"/>
<path d="M19.6404 20.17H15.3404C15.1404 20.17 14.9804 20.01 14.9804 19.81V1.35999C14.9804 1.15999 15.1404 1 15.3404 1H19.6404C19.8404 1 20.0004 1.15999 20.0004 1.35999V19.81C20.0004 20.01 19.8404 20.17 19.6404 20.17ZM15.3404 1.19C15.2504 1.19 15.1804 1.26001 15.1804 1.35001V19.8C15.1804 19.89 15.2504 19.96 15.3404 19.96H19.6404C19.7304 19.96 19.8004 19.89 19.8004 19.8V1.35001C19.8004 1.26001 19.7304 1.19 19.6404 1.19H15.3404ZM19.3704 19.64H15.5904C15.5404 19.64 15.4904 19.6 15.4904 19.54V1.60999C15.4904 1.55999 15.5304 1.51001 15.5904 1.51001H19.3704C19.4204 1.51001 19.4704 1.54999 19.4704 1.60999V19.54C19.4704 19.59 19.4304 19.64 19.3704 19.64ZM15.7004 19.45H19.2804V1.72H15.7004V19.45Z" fill="#231F20"/>
<path d="M7.97043 1.48996C7.97043 1.62996 8.09041 1.74997 8.23041 1.74997H9.78042L1.20041 8.09998C1.08041 8.18998 1.06042 8.34997 1.15042 8.46997C1.24042 8.58997 1.40041 8.60996 1.52041 8.51996L10.2804 2.02997V3.77997C10.2804 3.91997 10.4004 4.03998 10.5404 4.03998C10.6804 4.03998 10.8004 3.91997 10.8004 3.77997V1.48996C10.8004 1.34996 10.6804 1.22998 10.5404 1.22998H8.23041C8.09041 1.22998 7.97043 1.34996 7.97043 1.48996Z" fill="#231F20"/>
<path d="M1.36041 8.67001C1.25041 8.67001 1.1404 8.61999 1.0704 8.51999C0.950397 8.35999 0.990405 8.12999 1.1404 8.01999L9.4804 1.85001H8.2304C8.0304 1.85001 7.87042 1.68999 7.87042 1.48999C7.87042 1.28999 8.0304 1.13 8.2304 1.13H10.5404C10.7404 1.13 10.9004 1.28999 10.9004 1.48999V3.78C10.9004 3.98 10.7404 4.13998 10.5404 4.13998C10.3404 4.13998 10.1804 3.98 10.1804 3.78V2.23001L1.58041 8.60001C1.52041 8.65001 1.44042 8.67001 1.37042 8.67001H1.36041ZM8.2304 1.32999C8.1404 1.32999 8.0704 1.39999 8.0704 1.48999C8.0704 1.57999 8.1404 1.64999 8.2304 1.64999H9.78042C9.78042 1.64999 9.86042 1.68 9.87042 1.72C9.88042 1.76 9.87042 1.79999 9.84042 1.82999L1.2604 8.17999C1.1904 8.22999 1.1704 8.34 1.2304 8.41C1.2804 8.48 1.39041 8.5 1.46041 8.44L10.2204 1.95001C10.2204 1.95001 10.2904 1.92001 10.3204 1.95001C10.3504 1.97001 10.3704 2.00001 10.3704 2.04001V3.79001C10.3704 3.88001 10.4404 3.95001 10.5304 3.95001C10.6204 3.95001 10.6904 3.88001 10.6904 3.79001V1.5C10.6904 1.41 10.6204 1.34 10.5304 1.34H8.22042L8.2304 1.32999Z" fill="#231F20"/>
</svg>
