<svg width="22" height="22" viewBox="0 0 22 22" fill="none" xmlns="http://www.w3.org/2000/svg">
<path d="M5.44 20.9C5.44 20.9 5.37002 20.9 5.33002 20.88C5.23002 20.84 5.17004 20.74 5.17004 20.64V17.1H1.35999C1.21999 17.1 1.10004 16.98 1.10004 16.84V4.16C1.10004 4.02 1.21999 3.90002 1.35999 3.90002H17.8C17.94 3.90002 18.06 4.02 18.06 4.16V16.84C18.06 16.98 17.94 17.1 17.8 17.1H9.67999L5.60999 20.83C5.60999 20.83 5.49999 20.9 5.42999 20.9H5.44ZM1.62 16.58H5.42999C5.56999 16.58 5.69 16.7 5.69 16.84V20.04L9.40002 16.64C9.40002 16.64 9.51002 16.57 9.58002 16.57H17.54V4.42001H1.62V16.57V16.58Z" fill="#231F20"/>
<path d="M5.44 21C5.39 21 5.33999 20.99 5.29999 20.97C5.16999 20.91 5.08002 20.78 5.08002 20.64V17.2H1.35999C1.15999 17.2 1 17.0401 1 16.8401V4.16003C1 3.96003 1.15999 3.80005 1.35999 3.80005H17.8C18 3.80005 18.16 3.96003 18.16 4.16003V16.8401C18.16 17.0401 18 17.2 17.8 17.2H9.72003L5.67999 20.9001C5.60999 20.9601 5.53 20.9901 5.44 20.9901V21ZM1.35999 4.00003C1.26999 4.00003 1.20001 4.07003 1.20001 4.16003V16.8401C1.20001 16.9301 1.26999 17 1.35999 17H5.17004C5.22004 17 5.27002 17.04 5.27002 17.1V20.64C5.27002 20.7 5.31 20.76 5.37 20.79C5.43 20.82 5.49999 20.8 5.54999 20.76L9.62 17.03C9.62 17.03 9.66 17 9.69 17H17.81C17.9 17 17.97 16.9301 17.97 16.8401V4.16003C17.97 4.07003 17.9 4.00003 17.81 4.00003H1.37H1.35999ZM5.70001 20.14C5.70001 20.14 5.67003 20.14 5.66003 20.14C5.62003 20.12 5.60004 20.09 5.60004 20.05V16.85C5.60004 16.76 5.53 16.69 5.44 16.69H1.63C1.58 16.69 1.53003 16.6501 1.53003 16.5901V4.44003C1.53003 4.39003 1.57 4.34006 1.63 4.34006H17.55C17.6 4.34006 17.65 4.38003 17.65 4.44003V16.5901C17.65 16.6401 17.61 16.69 17.55 16.69H9.59003C9.59003 16.69 9.51004 16.71 9.48004 16.73L5.77002 20.13C5.77002 20.13 5.73001 20.16 5.70001 20.16V20.14ZM1.72003 16.48H5.44C5.64 16.48 5.79999 16.6401 5.79999 16.8401V19.82L9.34003 16.57C9.41003 16.51 9.49002 16.48 9.58002 16.48H17.44V4.52005H1.72003V16.48Z" fill="#231F20"/>
<path d="M20.11 15.75H17.8C17.66 15.75 17.54 15.63 17.54 15.49C17.54 15.35 17.66 15.23 17.8 15.23H19.84V2.63998H3.92004V4.16998C3.92004 4.30998 3.80003 4.42999 3.66003 4.42999C3.52003 4.42999 3.40002 4.30998 3.40002 4.16998V2.37997C3.40002 2.23997 3.52003 2.12 3.66003 2.12H20.1C20.24 2.12 20.36 2.23997 20.36 2.37997V15.5C20.36 15.64 20.24 15.76 20.1 15.76L20.11 15.75Z" fill="#231F20"/>
<path d="M20.11 15.84H17.8C17.6 15.84 17.44 15.68 17.44 15.48C17.44 15.28 17.6 15.12 17.8 15.12H19.75V2.72H4.03003V4.15002C4.03003 4.35002 3.87004 4.51001 3.67004 4.51001C3.47004 4.51001 3.31 4.35002 3.31 4.15002V2.36002C3.31 2.16002 3.47004 2 3.67004 2H20.11C20.31 2 20.47 2.16002 20.47 2.36002V15.48C20.47 15.68 20.31 15.84 20.11 15.84ZM17.8 15.32C17.71 15.32 17.64 15.39 17.64 15.48C17.64 15.57 17.71 15.64 17.8 15.64H20.11C20.2 15.64 20.27 15.57 20.27 15.48V2.36002C20.27 2.27002 20.2 2.20001 20.11 2.20001H3.67004C3.58004 2.20001 3.51001 2.27002 3.51001 2.36002V4.15002C3.51001 4.24002 3.58004 4.31 3.67004 4.31C3.76004 4.31 3.83002 4.24002 3.83002 4.15002V2.62003C3.83002 2.57003 3.86999 2.52002 3.92999 2.52002H19.85C19.9 2.52002 19.95 2.56003 19.95 2.62003V15.21C19.95 15.26 19.91 15.31 19.85 15.31H17.81L17.8 15.32Z" fill="#231F20"/>
<path d="M16.0401 19.55C15.9801 19.55 15.91 19.5299 15.86 19.4799L13.19 17.0299C13.08 16.9299 13.0801 16.7699 13.1701 16.6599C13.2701 16.5499 13.4301 16.55 13.5401 16.64L15.77 18.68V16.83C15.77 16.69 15.8901 16.5699 16.0301 16.5699C16.1701 16.5699 16.2901 16.69 16.2901 16.83V19.2799C16.2901 19.3799 16.23 19.48 16.13 19.52C16.1 19.53 16.06 19.5399 16.02 19.5399L16.0401 19.55Z" fill="#231F20"/>
<path d="M16.04 19.64C15.95 19.64 15.86 19.61 15.8 19.55L13.13 17.1C12.98 16.97 12.97 16.74 13.11 16.59C13.24 16.44 13.47 16.43 13.62 16.57L15.69 18.46V16.83C15.69 16.63 15.85 16.47 16.05 16.47C16.25 16.47 16.41 16.63 16.41 16.83V19.28C16.41 19.42 16.33 19.55 16.19 19.61C16.14 19.63 16.1 19.64 16.04 19.64ZM13.37 16.67C13.37 16.67 13.28 16.69 13.25 16.72C13.22 16.75 13.21 16.79 13.21 16.84C13.21 16.88 13.23 16.92 13.26 16.95L15.93 19.4C15.93 19.4 16.05 19.46 16.11 19.43C16.17 19.4 16.21 19.35 16.21 19.28V16.83C16.21 16.74 16.14 16.67 16.05 16.67C15.96 16.67 15.89 16.74 15.89 16.83V18.68C15.89 18.68 15.87 18.75 15.83 18.77C15.79 18.79 15.75 18.77 15.72 18.75L13.49 16.71C13.49 16.71 13.42 16.67 13.38 16.67H13.37Z" fill="#231F20"/>
<path d="M15.38 7.96994H3.67004C3.53004 7.96994 3.41003 7.84996 3.41003 7.70996C3.41003 7.56996 3.53004 7.44995 3.67004 7.44995H15.38C15.52 7.44995 15.64 7.56996 15.64 7.70996C15.64 7.84996 15.52 7.96994 15.38 7.96994Z" fill="#231F20"/>
<path d="M15.38 8.06998H3.67004C3.47004 8.06998 3.31 7.90999 3.31 7.70999C3.31 7.50999 3.47004 7.34998 3.67004 7.34998H15.38C15.58 7.34998 15.74 7.50999 15.74 7.70999C15.74 7.90999 15.58 8.06998 15.38 8.06998ZM3.67004 7.54999C3.58004 7.54999 3.51001 7.61999 3.51001 7.70999C3.51001 7.79999 3.58004 7.87 3.67004 7.87H15.38C15.47 7.87 15.54 7.79999 15.54 7.70999C15.54 7.61999 15.47 7.54999 15.38 7.54999H3.67004Z" fill="#231F20"/>
<path d="M15.38 10.3199H3.67004C3.53004 10.3199 3.41003 10.1999 3.41003 10.0599C3.41003 9.91991 3.53004 9.79993 3.67004 9.79993H15.38C15.52 9.79993 15.64 9.91991 15.64 10.0599C15.64 10.1999 15.52 10.3199 15.38 10.3199Z" fill="#231F20"/>
<path d="M15.38 10.4099H3.67004C3.47004 10.4099 3.31 10.25 3.31 10.05C3.31 9.84996 3.47004 9.68994 3.67004 9.68994H15.38C15.58 9.68994 15.74 9.84996 15.74 10.05C15.74 10.25 15.58 10.4099 15.38 10.4099ZM3.67004 9.88995C3.58004 9.88995 3.51001 9.95996 3.51001 10.05C3.51001 10.14 3.58004 10.21 3.67004 10.21H15.38C15.47 10.21 15.54 10.14 15.54 10.05C15.54 9.95996 15.47 9.88995 15.38 9.88995H3.67004Z" fill="#231F20"/>
<path d="M8.35004 12.66H3.67004C3.53004 12.66 3.41003 12.54 3.41003 12.4C3.41003 12.26 3.53004 12.14 3.67004 12.14H8.35004C8.49004 12.14 8.60999 12.26 8.60999 12.4C8.60999 12.54 8.49004 12.66 8.35004 12.66Z" fill="#231F20"/>
<path d="M8.35004 12.76H3.67004C3.47004 12.76 3.31 12.6001 3.31 12.4001C3.31 12.2001 3.47004 12.04 3.67004 12.04H8.35004C8.55004 12.04 8.71002 12.2001 8.71002 12.4001C8.71002 12.6001 8.55004 12.76 8.35004 12.76ZM3.67004 12.23C3.58004 12.23 3.51001 12.3 3.51001 12.39C3.51001 12.48 3.58004 12.55 3.67004 12.55H8.35004C8.44004 12.55 8.51001 12.48 8.51001 12.39C8.51001 12.3 8.44004 12.23 8.35004 12.23H3.67004Z" fill="#231F20"/>
</svg>
