<svg width="22" height="22" viewBox="0 0 22 22" fill="none" xmlns="http://www.w3.org/2000/svg">
<path d="M12.23 16.4081C12.12 16.4081 12.03 16.3381 11.99 16.2381L10.14 11.4781L5.38002 9.49815C5.28002 9.45815 5.22003 9.3581 5.22003 9.2581C5.22003 9.1481 5.28002 9.05811 5.38002 9.01811L17.33 4.11815C17.43 4.07815 17.54 4.09814 17.62 4.17814C17.69 4.25814 17.72 4.36812 17.67 4.46812L12.46 16.2582C12.42 16.3582 12.32 16.4181 12.22 16.4181L12.23 16.4081ZM6.16003 9.2581L10.43 11.0381C10.5 11.0681 10.55 11.1181 10.57 11.1881L12.23 15.4681L16.92 4.84813L6.16003 9.2581Z" fill="#231F20"/>
<path d="M12.23 16.5082C12.08 16.5082 11.95 16.4182 11.9 16.2782L10.07 11.5582L5.35001 9.58818C5.21001 9.52818 5.13 9.39817 5.13 9.25817C5.13 9.10817 5.22001 8.97821 5.35001 8.92821L17.3 4.02819C17.44 3.96819 17.59 4.0082 17.7 4.1082C17.8 4.2182 17.83 4.36817 17.77 4.50817L12.56 16.2981C12.5 16.4281 12.37 16.5082 12.23 16.5082ZM17.43 4.19817C17.43 4.19817 17.39 4.19818 17.37 4.20818L5.42001 9.1082C5.36001 9.1382 5.32001 9.18817 5.32001 9.25817C5.32001 9.32817 5.36001 9.38819 5.42001 9.40819L10.18 11.3882C10.18 11.3882 10.22 11.4182 10.23 11.4482L12.08 16.2082C12.1 16.2682 12.16 16.3082 12.23 16.3082C12.29 16.3082 12.35 16.2682 12.38 16.2082L17.59 4.4182C17.62 4.3582 17.6 4.28821 17.56 4.23821C17.53 4.20821 17.49 4.18816 17.44 4.18816L17.43 4.19817ZM12.24 15.5682C12.24 15.5682 12.17 15.5382 12.15 15.5082L10.49 11.2282C10.49 11.2282 10.44 11.1582 10.4 11.1382L6.13 9.3582C6.13 9.3582 6.07001 9.30818 6.07001 9.26818C6.07001 9.22818 6.09 9.18821 6.13 9.17821L16.89 4.76818C16.89 4.76818 16.97 4.7682 17 4.7882C17.03 4.8182 17.04 4.85818 17.02 4.89818L12.33 15.5182C12.33 15.5182 12.28 15.5782 12.24 15.5782V15.5682ZM6.42001 9.25817L10.47 10.9482C10.56 10.9882 10.63 11.0582 10.67 11.1482L12.24 15.2082L16.73 5.02819L6.41002 9.25817H6.42001Z" fill="#231F20"/>
<path d="M4.35997 17.3782C4.28997 17.3782 4.21997 17.3481 4.16997 17.2981C4.06997 17.1981 4.06997 17.0281 4.16997 16.9281L10.15 11.0982C10.25 10.9982 10.42 10.9982 10.52 11.0982C10.62 11.1982 10.62 11.3682 10.52 11.4682L4.53997 17.2981C4.48997 17.3481 4.41997 17.3682 4.35997 17.3682V17.3782Z" fill="#231F20"/>
<path d="M4.36 17.4782C4.26 17.4782 4.16999 17.4382 4.09999 17.3682C4.02999 17.2982 4 17.2082 4 17.1082C4 17.0082 4.04 16.9182 4.11 16.8582L10.09 11.0282C10.23 10.8882 10.46 10.8882 10.6 11.0282C10.74 11.1682 10.74 11.3982 10.6 11.5382L4.62 17.3682C4.55 17.4382 4.46 17.4682 4.37 17.4682L4.36 17.4782ZM10.34 11.1182C10.34 11.1182 10.26 11.1382 10.23 11.1682L4.25 16.9982C4.25 16.9982 4.2 17.0682 4.2 17.1082C4.2 17.1482 4.22 17.1982 4.25 17.2282C4.31 17.2882 4.42 17.2882 4.48 17.2282L10.46 11.3982C10.52 11.3382 10.53 11.2282 10.46 11.1682C10.43 11.1382 10.39 11.1182 10.34 11.1182Z" fill="#231F20"/>
</svg>
