<svg width="22" height="22" viewBox="0 0 22 22" fill="none" xmlns="http://www.w3.org/2000/svg">
<path d="M10.66 13.4499C12.06 13.5399 13.24 12.4999 13.4 11.1599H13.93V10.9799C13.93 10.2399 13.7001 9.50991 13.2301 8.93991C12.6301 8.20991 11.76 7.79993 10.83 7.79993H10.57V8.27991C9.21002 8.41991 8.16006 9.60993 8.24006 11.0199C8.31006 12.3099 9.38006 13.3799 10.6701 13.4599L10.66 13.4499ZM11.08 8.32993C11.67 8.38993 12.22 8.64992 12.64 9.06992C13.07 9.48992 13.32 10.0399 13.38 10.6299H11.08V8.32993ZM10.56 8.79993V10.6599C10.56 10.9299 10.78 11.1599 11.06 11.1599H12.87C12.72 12.1999 11.79 12.9899 10.7 12.9299C9.66002 12.8699 8.80001 12.0099 8.75001 10.9699C8.69001 9.86991 9.50001 8.93991 10.56 8.80991V8.79993Z" fill="#231F20"/>
<path d="M10.82 13.55C10.76 13.55 10.71 13.55 10.65 13.55C9.31003 13.47 8.20001 12.36 8.13001 11.02C8.05001 9.59996 9.07003 8.37994 10.46 8.18994V7.79996C10.46 7.74996 10.5 7.69995 10.56 7.69995H10.82C11.78 7.69995 12.6801 8.12993 13.3001 8.86993C13.7701 9.43993 14.02 10.1799 14.02 10.9799V11.1599C14.02 11.2099 13.98 11.2599 13.92 11.2599H13.48C13.28 12.5799 12.14 13.55 10.81 13.55H10.82ZM10.66 13.3499C11.99 13.4299 13.1401 12.4599 13.3001 11.1499C13.3001 11.0999 13.35 11.0599 13.4 11.0599H13.83V10.9699C13.83 10.2199 13.59 9.51996 13.15 8.98996C12.57 8.28996 11.72 7.88995 10.82 7.88995H10.66V8.26996C10.66 8.31996 10.62 8.35993 10.57 8.36993C9.23001 8.49993 8.25002 9.65994 8.33002 10.9999C8.40002 12.2399 9.43005 13.2699 10.67 13.3499H10.66ZM10.82 13.02C10.82 13.02 10.74 13.02 10.69 13.02C9.60001 12.96 8.70003 12.0599 8.65003 10.9699C8.59003 9.83994 9.42004 8.84995 10.54 8.69995C10.57 8.69995 10.6 8.69994 10.62 8.71994C10.64 8.73994 10.65 8.76995 10.65 8.78995V10.6499C10.65 10.8699 10.8301 11.05 11.0501 11.05H12.8601C12.8601 11.05 12.92 11.06 12.93 11.08C12.95 11.1 12.96 11.1299 12.95 11.1599C12.79 12.2399 11.88 13.0099 10.81 13.0099L10.82 13.02ZM10.46 8.90994C9.50003 9.08994 8.80004 9.96995 8.85004 10.95C8.90004 11.94 9.72003 12.7599 10.71 12.8199C11.71 12.8799 12.56 12.2099 12.76 11.2499H11.06C10.73 11.2499 10.47 10.9799 10.47 10.6599V8.90994H10.46ZM13.39 10.7299H11.09C11.04 10.7299 10.9901 10.6899 10.9901 10.6299V8.32996C10.9901 8.32996 11 8.27995 11.02 8.25995C11.04 8.23995 11.07 8.22996 11.1 8.23996C11.72 8.29996 12.28 8.56995 12.72 9.00995C13.16 9.44995 13.4301 10.0099 13.4901 10.6299C13.4901 10.6599 13.49 10.69 13.47 10.71C13.45 10.73 13.42 10.74 13.4 10.74L13.39 10.7299ZM11.18 10.5299H13.28C13.2 9.99994 12.96 9.51995 12.58 9.13995C12.2 8.75995 11.72 8.51994 11.19 8.43994V10.5399L11.18 10.5299Z" fill="#231F20"/>
<path d="M1.36005 3.62006H10.58V5.53006H3.73004C3.59004 5.53006 3.47003 5.65007 3.47003 5.79007V15.2001C3.47003 15.3401 3.59004 15.4601 3.73004 15.4601H10.19L5.82001 19.6001C5.72001 19.7001 5.71001 19.8701 5.82001 19.9701C5.92001 20.0801 6.09 20.0801 6.19 19.9701L10.6 15.7901V19.7801C10.6 19.9201 10.72 20.0401 10.86 20.0401C11 20.0401 11.12 19.9201 11.12 19.7801V15.8001L15.43 19.9701C15.48 20.0201 15.55 20.0401 15.61 20.0401C15.67 20.0401 15.75 20.0101 15.8 19.9601C15.9 19.8601 15.9 19.6901 15.8 19.5901L11.52 15.4401H17.9C18.04 15.4401 18.16 15.3201 18.16 15.1801V5.77008C18.16 5.63008 18.04 5.51007 17.9 5.51007H11.13V3.60007H20.35C20.49 3.60007 20.61 3.48006 20.61 3.34006C20.61 3.20006 20.49 3.08008 20.35 3.08008H1.39001C1.25001 3.08008 1.13 3.20006 1.13 3.34006C1.13 3.48006 1.25001 3.60007 1.39001 3.60007L1.36005 3.62006ZM17.61 6.05008V14.9401H3.99005V6.05008H17.61Z" fill="#231F20"/>
<path d="M5.99005 20.16C5.89005 20.16 5.80005 20.12 5.74005 20.05C5.67005 19.98 5.64001 19.89 5.64001 19.79C5.64001 19.69 5.68 19.6 5.75 19.54L9.94 15.56H3.73004C3.53004 15.56 3.37 15.4 3.37 15.2V5.79001C3.37 5.59001 3.53004 5.42999 3.73004 5.42999H10.48V3.72H1.36005C1.16005 3.72 1 3.56002 1 3.36002C1 3.16002 1.16005 3 1.36005 3H20.32C20.52 3 20.68 3.16002 20.68 3.36002C20.68 3.56002 20.52 3.72 20.32 3.72H11.2V5.42999H17.87C18.07 5.42999 18.23 5.59001 18.23 5.79001V15.2C18.23 15.4 18.07 15.56 17.87 15.56H11.73L15.84 19.54C15.91 19.61 15.95 19.7 15.95 19.79C15.95 19.89 15.92 19.98 15.85 20.05C15.72 20.19 15.48 20.19 15.34 20.05L11.2 16.04V19.79C11.2 19.99 11.04 20.15 10.84 20.15C10.64 20.15 10.48 19.99 10.48 19.79V16.03L6.24005 20.05C6.17005 20.11 6.09005 20.15 5.99005 20.15V20.16ZM3.73004 5.63C3.64004 5.63 3.57001 5.70001 3.57001 5.79001V15.2C3.57001 15.29 3.64004 15.36 3.73004 15.36H10.19C10.19 15.36 10.27 15.38 10.28 15.42C10.29 15.46 10.28 15.5 10.26 15.53L5.89001 19.67C5.89001 19.67 5.84003 19.74 5.84003 19.78C5.84003 19.82 5.85001 19.87 5.89001 19.9C5.92001 19.93 5.96 19.95 6 19.95C6.04 19.95 6.08 19.94 6.12 19.91L10.53 15.73C10.53 15.73 10.6 15.7 10.64 15.71C10.68 15.73 10.7 15.76 10.7 15.8V19.79C10.7 19.88 10.77 19.95 10.86 19.95C10.95 19.95 11.02 19.88 11.02 19.79V15.81C11.02 15.81 11.04 15.74 11.08 15.72C11.12 15.7 11.16 15.72 11.19 15.74L15.5 19.91C15.56 19.97 15.67 19.97 15.73 19.91C15.79 19.85 15.79 19.74 15.73 19.68L11.45 15.53C11.45 15.53 11.41 15.46 11.43 15.42C11.45 15.38 11.48 15.36 11.52 15.36H17.9C17.99 15.36 18.06 15.29 18.06 15.2V5.79001C18.06 5.70001 17.99 5.63 17.9 5.63H11.13C11.08 5.63 11.03 5.59 11.03 5.53V3.62C11.03 3.57 11.07 3.52002 11.13 3.52002H20.35C20.44 3.52002 20.51 3.45002 20.51 3.36002C20.51 3.27002 20.44 3.20001 20.35 3.20001H1.39001C1.30001 3.20001 1.23004 3.27002 1.23004 3.36002C1.23004 3.45002 1.30001 3.52002 1.39001 3.52002H10.61C10.66 3.52002 10.71 3.56 10.71 3.62V5.53C10.71 5.58 10.67 5.63 10.61 5.63H3.76001H3.73004ZM17.61 15.04H3.99005C3.94005 15.04 3.89001 15 3.89001 14.94V6.05002C3.89001 6.00002 3.93005 5.95001 3.99005 5.95001H17.61C17.66 5.95001 17.71 5.99002 17.71 6.05002V14.94C17.71 14.99 17.67 15.04 17.61 15.04ZM4.09003 14.84H17.51V6.14999H4.09003V14.84Z" fill="#231F20"/>
</svg>
