<svg width="22" height="22" viewBox="0 0 22 22" fill="none" xmlns="http://www.w3.org/2000/svg">
<path d="M20.01 1.16583C19.92 1.08583 19.79 1.0658 19.69 1.1358L1.21001 12.9258C1.13001 12.9758 1.08001 13.0658 1.09001 13.1658C1.09001 13.2658 1.15002 13.3458 1.24002 13.3858L6.00002 15.5758L8.19002 20.4658C8.23002 20.5558 8.32002 20.6158 8.41002 20.6158C8.41002 20.6158 8.42001 20.6158 8.43001 20.6158C8.52001 20.6158 8.61001 20.5658 8.65001 20.4858L20.05 1.48584C20.11 1.38584 20.1 1.24583 20.01 1.16583ZM8.46001 19.7958L6.51001 15.4359L10.58 11.1058C10.68 10.9958 10.67 10.8358 10.57 10.7358C10.46 10.6358 10.3 10.6458 10.2 10.7458L6.14002 15.0659L1.90001 13.1158L19.03 2.17584L8.46001 19.7858V19.7958Z" fill="#231F20"/>
<path d="M8.42999 20.7159C8.26999 20.7159 8.15999 20.6259 8.09999 20.5059L5.92999 15.6459L1.20999 13.4759C1.08999 13.4159 1.01 13.3059 1 13.1759C1 13.0459 1.05 12.9159 1.17 12.8459L19.65 1.05594C19.79 0.965936 19.97 0.985924 20.09 1.10592C20.21 1.22592 20.23 1.40593 20.15 1.54593L8.75 20.5459C8.69 20.6559 8.57 20.7159 8.44 20.7159H8.42999ZM19.83 1.19595C19.83 1.19595 19.77 1.19592 19.74 1.22592L1.25999 13.0159C1.20999 13.0459 1.17999 13.1059 1.17999 13.1659C1.17999 13.2259 1.22 13.2759 1.27 13.3059L6.03 15.4959C6.03 15.4959 6.07 15.5259 6.08 15.5459L8.27 20.4359C8.29 20.4959 8.35 20.5259 8.41 20.5359C8.48 20.5359 8.53 20.5059 8.56 20.4559L19.96 1.4559C20 1.3859 19.99 1.30595 19.93 1.25595C19.93 1.25595 19.86 1.2059 19.82 1.2059L19.83 1.19595ZM8.45999 19.8959C8.41999 19.8959 8.39001 19.8759 8.38 19.8359L6.42999 15.4759C6.42999 15.4759 6.43 15.3959 6.45 15.3659L10.52 11.0359C10.58 10.9659 10.58 10.8659 10.52 10.8059C10.45 10.7459 10.35 10.7459 10.29 10.8059L6.23 15.1259C6.23 15.1259 6.16 15.1659 6.12 15.1459L1.88 13.196C1.88 13.196 1.82999 13.1459 1.81999 13.1159C1.81999 13.0759 1.83 13.0459 1.87 13.0259L19 2.0859C19 2.0859 19.09 2.06591 19.12 2.09591C19.15 2.12591 19.16 2.17591 19.14 2.21591L8.56999 19.8259C8.56999 19.8259 8.52001 19.8759 8.49001 19.8759L8.45999 19.8959ZM6.62 15.4559L8.47 19.5859L18.73 2.49594L2.09999 13.1059L6.11 14.946L10.13 10.6759C10.27 10.5359 10.49 10.5259 10.64 10.6559C10.78 10.7959 10.79 11.0159 10.66 11.1659L6.63 15.446L6.62 15.4559Z" fill="#231F20"/>
</svg>
