<svg width="22" height="22" viewBox="0 0 22 22" fill="none" xmlns="http://www.w3.org/2000/svg">
<path d="M10.75 20.4099C5.42998 20.4099 1.09998 16.0799 1.09998 10.7599C1.09998 5.43986 5.42998 1.10986 10.75 1.10986C16.07 1.10986 20.4 5.43986 20.4 10.7599C20.4 16.0799 16.07 20.4099 10.75 20.4099ZM10.75 1.61987C5.71998 1.61987 1.61997 5.71988 1.61997 10.7499C1.61997 15.7799 5.71998 19.8799 10.75 19.8799C15.78 19.8799 19.88 15.7799 19.88 10.7499C19.88 5.71988 15.78 1.61987 10.75 1.61987Z" fill="#231F20"/>
<path d="M10.75 20.5C5.37 20.5 1 16.13 1 10.75C1 5.37 5.37 1 10.75 1C16.13 1 20.5 5.37 20.5 10.75C20.5 16.13 16.13 20.5 10.75 20.5ZM10.75 1.19998C5.48 1.19998 1.18999 5.49 1.18999 10.75C1.18999 16.01 5.48 20.3 10.75 20.3C16.02 20.3 20.3 16.01 20.3 10.75C20.3 5.49 16.01 1.19998 10.75 1.19998ZM10.75 19.98C5.66 19.98 1.52 15.84 1.52 10.75C1.52 5.66 5.66 1.51999 10.75 1.51999C15.84 1.51999 19.98 5.66 19.98 10.75C19.98 15.84 15.84 19.98 10.75 19.98ZM10.75 1.72C5.77 1.72 1.71999 5.77 1.71999 10.75C1.71999 15.73 5.77 19.78 10.75 19.78C15.73 19.78 19.78 15.73 19.78 10.75C19.78 5.77 15.73 1.72 10.75 1.72Z" fill="#231F20"/>
<path d="M7.99999 15.1498C7.99999 15.1498 7.90999 15.1398 7.86999 15.1198C7.78999 15.0698 7.73999 14.9898 7.73999 14.8898V6.6098C7.73999 6.5198 7.78999 6.42979 7.86999 6.37979C7.94999 6.32979 8.04999 6.32979 8.12999 6.37979L15.21 10.5198C15.29 10.5698 15.34 10.6498 15.34 10.7498C15.34 10.8498 15.29 10.9298 15.21 10.9798L8.12999 15.1198C8.12999 15.1198 8.03999 15.1598 7.99999 15.1598V15.1498ZM8.25999 7.06979V14.4298L14.56 10.7498L8.25999 7.06979Z" fill="#231F20"/>
<path d="M8.00002 15.2499C7.94002 15.2499 7.87001 15.2299 7.82001 15.1999C7.71001 15.1399 7.64001 15.0199 7.64001 14.8899V6.60988C7.64001 6.47988 7.71001 6.35988 7.82001 6.29988C7.93001 6.23988 8.07002 6.23988 8.18002 6.29988L15.26 10.4399C15.37 10.4999 15.44 10.6199 15.44 10.7499C15.44 10.8799 15.37 10.9999 15.26 11.0599L8.18002 15.1999C8.12002 15.2299 8.06002 15.2499 8.00002 15.2499ZM8.00002 6.44988C8.00002 6.44988 7.94001 6.4499 7.92001 6.4699C7.87001 6.4999 7.84001 6.54988 7.84001 6.60988V14.8899C7.84001 14.9499 7.87001 14.9999 7.92001 15.0299C7.97001 15.0599 8.03001 15.0599 8.08001 15.0299L15.16 10.8899C15.16 10.8899 15.24 10.8099 15.24 10.7499C15.24 10.6899 15.21 10.6399 15.16 10.6099L8.08001 6.4699C8.08001 6.4699 8.03002 6.44988 8.00002 6.44988ZM8.26001 14.5299C8.26001 14.5299 8.23001 14.5299 8.21001 14.5199C8.18001 14.4999 8.16001 14.4699 8.16001 14.4299V7.05989C8.16001 7.05989 8.18001 6.9899 8.21001 6.9699C8.24001 6.9499 8.28001 6.9499 8.31001 6.9699L14.61 10.6499C14.61 10.6499 14.66 10.6999 14.66 10.7299C14.66 10.7599 14.64 10.7999 14.61 10.8099L8.31001 14.4899C8.31001 14.4899 8.28001 14.4999 8.26001 14.4999V14.5299ZM8.36002 7.23989V14.2599L14.36 10.7499L8.36002 7.23989Z" fill="#231F20"/>
</svg>
