<svg width="22" height="22" viewBox="0 0 22 22" fill="none" xmlns="http://www.w3.org/2000/svg">
<path d="M5.94995 2.1001H1.35999C1.21999 2.1001 1.09998 2.22011 1.09998 2.36011V6.86011C1.09998 7.00011 1.21999 7.12012 1.35999 7.12012C1.49999 7.12012 1.62 7.00011 1.62 6.86011V2.62012H5.94006C6.08006 2.62012 6.19995 2.50011 6.19995 2.36011C6.19995 2.22011 6.08006 2.1001 5.94006 2.1001H5.94995Z" fill="#231F20"/>
<path d="M1.35999 7.21997C1.15999 7.21997 1 7.05999 1 6.85999V2.35999C1 2.15999 1.15999 2 1.35999 2H5.94995C6.14995 2 6.31006 2.15999 6.31006 2.35999C6.31006 2.55999 6.14995 2.71997 5.94995 2.71997H1.71997V6.85999C1.71997 7.05999 1.55999 7.21997 1.35999 7.21997ZM1.35999 2.19995C1.26999 2.19995 1.19995 2.26999 1.19995 2.35999V6.85999C1.19995 6.94999 1.26999 7.01996 1.35999 7.01996C1.44999 7.01996 1.52002 6.94999 1.52002 6.85999V2.62C1.52002 2.57 1.56 2.51996 1.62 2.51996H5.94006C6.03006 2.51996 6.09998 2.44999 6.09998 2.35999C6.09998 2.26999 6.03006 2.19995 5.94006 2.19995H1.34998H1.35999Z" fill="#231F20"/>
<path d="M20.28 2.13989H15.78C15.64 2.13989 15.52 2.2599 15.52 2.3999C15.52 2.5399 15.64 2.65991 15.78 2.65991H20.02V6.97992C20.02 7.11992 20.14 7.23993 20.28 7.23993C20.42 7.23993 20.54 7.11992 20.54 6.97992V2.38989C20.54 2.24989 20.42 2.12988 20.28 2.12988V2.13989Z" fill="#231F20"/>
<path d="M20.28 7.35004C20.08 7.35004 19.92 7.19005 19.92 6.99005V2.76001H15.78C15.58 2.76001 15.42 2.60002 15.42 2.40002C15.42 2.20002 15.58 2.04004 15.78 2.04004H20.28C20.48 2.04004 20.64 2.20002 20.64 2.40002V6.99005C20.64 7.19005 20.48 7.35004 20.28 7.35004ZM15.78 2.24005C15.69 2.24005 15.62 2.31002 15.62 2.40002C15.62 2.49002 15.69 2.56006 15.78 2.56006H20.02C20.07 2.56006 20.12 2.60003 20.12 2.66003V6.98004C20.12 7.07004 20.19 7.14001 20.28 7.14001C20.37 7.14001 20.4401 7.07004 20.4401 6.98004V2.39001C20.4401 2.30001 20.37 2.23004 20.28 2.23004H15.78V2.24005Z" fill="#231F20"/>
<path d="M20.28 16.55C20.14 16.55 20.02 16.6701 20.02 16.8101V21.05H15.7C15.56 21.05 15.4401 21.1701 15.4401 21.3101C15.4401 21.4501 15.56 21.57 15.7 21.57H20.29C20.43 21.57 20.55 21.4501 20.55 21.3101V16.8101C20.55 16.6701 20.43 16.55 20.29 16.55H20.28Z" fill="#231F20"/>
<path d="M20.28 21.68H15.6901C15.4901 21.68 15.33 21.5199 15.33 21.3199C15.33 21.1199 15.4901 20.96 15.6901 20.96H19.92V16.8199C19.92 16.6199 20.08 16.46 20.28 16.46C20.48 16.46 20.64 16.6199 20.64 16.8199V21.3199C20.64 21.5199 20.48 21.68 20.28 21.68ZM15.6901 21.15C15.6001 21.15 15.53 21.22 15.53 21.31C15.53 21.4 15.6001 21.47 15.6901 21.47H20.28C20.37 21.47 20.4401 21.4 20.4401 21.31V16.81C20.4401 16.72 20.37 16.65 20.28 16.65C20.19 16.65 20.12 16.72 20.12 16.81V21.05C20.12 21.1 20.08 21.15 20.02 21.15H15.7H15.6901Z" fill="#231F20"/>
<path d="M5.85999 21.0099H1.62V16.6899C1.62 16.5499 1.49999 16.4299 1.35999 16.4299C1.21999 16.4299 1.09998 16.5499 1.09998 16.6899V21.2799C1.09998 21.4199 1.21999 21.5399 1.35999 21.5399H5.85999C5.99999 21.5399 6.12 21.4199 6.12 21.2799C6.12 21.1399 5.99999 21.0199 5.85999 21.0199V21.0099Z" fill="#231F20"/>
<path d="M5.85999 21.6298H1.35999C1.15999 21.6298 1 21.4698 1 21.2698V16.6799C1 16.4799 1.15999 16.3198 1.35999 16.3198C1.55999 16.3198 1.71997 16.4799 1.71997 16.6799V20.9099H5.85999C6.05999 20.9099 6.21997 21.0698 6.21997 21.2698C6.21997 21.4698 6.05999 21.6298 5.85999 21.6298ZM1.35999 16.5198C1.26999 16.5198 1.19995 16.5899 1.19995 16.6799V21.2698C1.19995 21.3598 1.26999 21.4299 1.35999 21.4299H5.85999C5.94999 21.4299 6.02002 21.3598 6.02002 21.2698C6.02002 21.1798 5.94999 21.1099 5.85999 21.1099H1.62C1.57 21.1099 1.52002 21.0698 1.52002 21.0098V16.6898C1.52002 16.5998 1.44999 16.5298 1.35999 16.5298V16.5198Z" fill="#231F20"/>
<path d="M11.4256 11.9769C9.52148 11.9769 7.97437 10.4298 7.97437 8.52569C7.97437 6.62157 9.52148 5.07446 11.4256 5.07446C13.3297 5.07446 14.8768 6.62157 14.8768 8.52569C14.8768 10.4298 13.3297 11.9769 11.4256 11.9769ZM11.4256 5.46868C9.73718 5.46868 8.3686 6.84471 8.3686 8.52569C8.3686 10.2067 9.74462 11.5827 11.4256 11.5827C13.1066 11.5827 14.4826 10.2067 14.4826 8.52569C14.4826 6.84471 13.1066 5.46868 11.4256 5.46868Z" fill="#231F20"/>
<path d="M11.4256 12.0512C9.48431 12.0512 7.90002 10.4669 7.90002 8.52561C7.90002 6.5843 9.48431 5 11.4256 5C13.3669 5 14.9512 6.57686 14.9512 8.52561C14.9512 10.4744 13.3744 12.0512 11.4256 12.0512ZM11.4256 5.14877C9.56613 5.14877 8.04879 6.66611 8.04879 8.52561C8.04879 10.3851 9.56613 11.9025 11.4256 11.9025C13.2851 11.9025 14.8025 10.3851 14.8025 8.52561C14.8025 6.66611 13.2851 5.14877 11.4256 5.14877ZM11.4256 11.657C9.70001 11.657 8.29421 10.2512 8.29421 8.52561C8.29421 6.8 9.70001 5.39422 11.4256 5.39422C13.1512 5.39422 14.557 6.8 14.557 8.52561C14.557 10.2512 13.1512 11.657 11.4256 11.657ZM11.4256 5.54298C9.78183 5.54298 8.43554 6.88181 8.43554 8.53305C8.43554 10.1843 9.77439 11.5231 11.4256 11.5231C13.0769 11.5231 14.4157 10.1843 14.4157 8.53305C14.4157 6.88181 13.0769 5.54298 11.4256 5.54298Z" fill="#231F20"/>
<path d="M15.7396 19.1397H7.26775C7.16362 19.1397 7.0744 19.0504 7.0744 18.9463V16.0231C7.0744 13.5835 9.06032 11.5901 11.5074 11.5901C13.9545 11.5901 15.9405 13.576 15.9405 16.0231V18.9463C15.9405 19.0504 15.8512 19.1397 15.7471 19.1397H15.7396ZM7.46859 18.7454H15.5462V16.0157C15.5462 13.7843 13.7314 11.9769 11.5074 11.9769C9.28346 11.9769 7.46859 13.7917 7.46859 16.0157V18.7454Z" fill="#231F20"/>
<path d="M15.7396 19.2141H7.26776C7.119 19.2141 7 19.0951 7 18.9463V16.0232C7 13.5389 9.02313 11.5232 11.5 11.5232C13.9768 11.5232 16 13.5463 16 16.0232V18.9463C16 19.0951 15.881 19.2141 15.7322 19.2141H15.7396ZM11.5074 11.6571C9.10495 11.6571 7.14877 13.6133 7.14877 16.0157V18.9389C7.14877 19.0058 7.20081 19.0579 7.26776 19.0579H15.7396C15.8066 19.0579 15.8587 19.0058 15.8587 18.9389V16.0157C15.8587 13.6133 13.9024 11.6571 11.5 11.6571H11.5074ZM15.5462 18.8199H7.4686C7.43141 18.8199 7.39424 18.7901 7.39424 18.7455V16.0157C7.39424 13.7472 9.23883 11.9025 11.5074 11.9025C13.776 11.9025 15.6207 13.7472 15.6207 16.0157V18.7455C15.6207 18.7827 15.5909 18.8199 15.5462 18.8199ZM7.54296 18.6785H15.4793V16.0232C15.4793 13.8364 13.7016 12.0587 11.5149 12.0587C9.3281 12.0587 7.5504 13.8364 7.5504 16.0232V18.6785H7.54296Z" fill="#231F20"/>
</svg>
