<svg width="22" height="22" viewBox="0 0 22 22" fill="none" xmlns="http://www.w3.org/2000/svg">
<path d="M10.809 20.0276C10.709 20.0276 10.619 19.9676 10.569 19.8776L5.62896 9.3276C4.81896 7.5576 4.93898 5.4976 5.95898 3.8276C6.94898 2.1876 8.60901 1.19759 10.489 1.09759C10.699 1.08759 10.909 1.08759 11.119 1.09759C13.009 1.19759 14.659 2.1876 15.649 3.8276C16.669 5.4976 16.789 7.5576 15.979 9.3276L11.039 19.8776C10.999 19.9676 10.899 20.0276 10.799 20.0276H10.809ZM10.809 1.61758C10.709 1.61758 10.619 1.61758 10.519 1.61758C8.80898 1.70758 7.30899 2.60758 6.40899 4.08758C5.48899 5.60758 5.369 7.47759 6.109 9.09759L10.809 19.1376L15.509 9.09759C16.249 7.48759 16.129 5.61759 15.209 4.09759C14.309 2.60759 12.809 1.70759 11.099 1.62759C11.009 1.62759 10.909 1.62759 10.809 1.62759V1.61758Z" fill="#231F20"/>
<path d="M10.809 20.1275C10.669 20.1275 10.539 20.0475 10.479 19.9175L5.53902 9.36749C4.71902 7.56748 4.83898 5.47749 5.86898 3.77749C6.87898 2.11749 8.55903 1.0975 10.479 1.0075C10.689 0.9975 10.909 0.9975 11.119 1.0075C13.039 1.1075 14.719 2.11749 15.729 3.77749C16.759 5.47749 16.889 7.56748 16.069 9.36749L11.129 19.9175C11.069 20.0475 10.939 20.1275 10.799 20.1275H10.809ZM10.809 1.1975C10.709 1.1975 10.599 1.1975 10.499 1.1975C8.64898 1.2875 7.02903 2.2675 6.04903 3.8775C5.04903 5.5175 4.92903 7.5375 5.72903 9.2875L10.669 19.8375C10.719 19.9475 10.909 19.9475 10.969 19.8375L15.909 9.2875C16.699 7.5475 16.579 5.5275 15.579 3.8875C14.599 2.2775 12.979 1.30748 11.129 1.20748C11.029 1.20748 10.919 1.20748 10.819 1.20748L10.809 1.1975ZM10.809 19.2475C10.809 19.2475 10.739 19.2275 10.719 19.1875L6.019 9.14748C5.269 7.50748 5.379 5.59751 6.329 4.04751C7.249 2.53751 8.779 1.61749 10.519 1.52749C10.709 1.52749 10.909 1.52749 11.109 1.52749C12.849 1.61749 14.379 2.53751 15.299 4.04751C16.239 5.59751 16.359 7.50748 15.609 9.14748L10.909 19.1975C10.909 19.1975 10.859 19.2575 10.819 19.2575L10.809 19.2475ZM10.809 1.71749C10.709 1.71749 10.619 1.71749 10.529 1.71749C8.84901 1.79749 7.38898 2.68748 6.49898 4.14748C5.58898 5.63748 5.479 7.4775 6.199 9.0675L10.809 18.9175L15.419 9.0675C16.139 7.4875 16.029 5.64749 15.119 4.15749C14.229 2.69749 12.769 1.8175 11.089 1.7275C10.999 1.7275 10.899 1.7275 10.809 1.7275V1.71749Z" fill="#231F20"/>
<path d="M10.809 9.95749C9.07896 9.95749 7.67896 8.55751 7.67896 6.82751C7.67896 5.09751 9.07896 3.69751 10.809 3.69751C12.539 3.69751 13.939 5.09751 13.939 6.82751C13.939 8.55751 12.539 9.95749 10.809 9.95749ZM10.809 4.2175C9.36896 4.2175 8.19897 5.38751 8.19897 6.82751C8.19897 8.26751 9.36896 9.4375 10.809 9.4375C12.249 9.4375 13.419 8.26751 13.419 6.82751C13.419 5.38751 12.249 4.2175 10.809 4.2175Z" fill="#231F20"/>
<path d="M10.809 10.0574C9.02896 10.0574 7.57898 8.60742 7.57898 6.82742C7.57898 5.04742 9.02896 3.59741 10.809 3.59741C12.589 3.59741 14.039 5.04742 14.039 6.82742C14.039 8.60742 12.589 10.0574 10.809 10.0574ZM10.809 3.79742C9.13896 3.79742 7.77899 5.15742 7.77899 6.82742C7.77899 8.49742 9.13896 9.85742 10.809 9.85742C12.479 9.85742 13.839 8.49742 13.839 6.82742C13.839 5.15742 12.479 3.79742 10.809 3.79742ZM10.809 9.5274C9.31896 9.5274 8.10901 8.31742 8.10901 6.82742C8.10901 5.33742 9.31896 4.12741 10.809 4.12741C12.299 4.12741 13.509 5.33742 13.509 6.82742C13.509 8.31742 12.299 9.5274 10.809 9.5274ZM10.809 4.31741C9.42896 4.31741 8.29901 5.44742 8.29901 6.82742C8.29901 8.20742 9.42896 9.3374 10.809 9.3374C12.189 9.3374 13.319 8.20742 13.319 6.82742C13.319 5.44742 12.199 4.31741 10.809 4.31741Z" fill="#231F20"/>
</svg>
