<svg width="22" height="22" viewBox="0 0 22 22" fill="none" xmlns="http://www.w3.org/2000/svg">
<path d="M10.95 10.3801C8.39001 10.3801 6.31 8.3001 6.31 5.7401C6.31 3.1801 8.39001 1.1001 10.95 1.1001C13.51 1.1001 15.59 3.1801 15.59 5.7401C15.59 8.3001 13.51 10.3801 10.95 10.3801ZM10.95 1.6301C8.68001 1.6301 6.84003 3.4801 6.84003 5.7401C6.84003 8.0001 8.69001 9.8501 10.95 9.8501C13.21 9.8501 15.06 8.0001 15.06 5.7401C15.06 3.4801 13.21 1.6301 10.95 1.6301Z" fill="#231F20"/>
<path d="M10.95 10.48C8.34001 10.48 6.21002 8.35001 6.21002 5.74001C6.21002 3.13001 8.34001 1 10.95 1C13.56 1 15.69 3.12001 15.69 5.74001C15.69 8.36001 13.57 10.48 10.95 10.48ZM10.95 1.20001C8.45001 1.20001 6.41003 3.24001 6.41003 5.74001C6.41003 8.24001 8.45001 10.28 10.95 10.28C13.45 10.28 15.49 8.24001 15.49 5.74001C15.49 3.24001 13.45 1.20001 10.95 1.20001ZM10.95 9.95001C8.63001 9.95001 6.73999 8.06001 6.73999 5.74001C6.73999 3.42001 8.63001 1.53001 10.95 1.53001C13.27 1.53001 15.16 3.42001 15.16 5.74001C15.16 8.06001 13.27 9.95001 10.95 9.95001ZM10.95 1.73001C8.74001 1.73001 6.92999 3.53 6.92999 5.75C6.92999 7.97 8.73001 9.77 10.95 9.77C13.17 9.77 14.97 7.97 14.97 5.75C14.97 3.53 13.17 1.73001 10.95 1.73001Z" fill="#231F20"/>
<path d="M16.75 20.0101H5.35999C5.21999 20.0101 5.10004 19.8901 5.10004 19.7501V15.8201C5.10004 12.5401 7.77 9.86011 11.06 9.86011C14.35 9.86011 17.02 12.5301 17.02 15.8201V19.7501C17.02 19.8901 16.9 20.0101 16.76 20.0101H16.75ZM5.63 19.4801H16.49V15.8101C16.49 12.8101 14.05 10.3801 11.06 10.3801C8.07 10.3801 5.63 12.8201 5.63 15.8101V19.4801Z" fill="#231F20"/>
<path d="M16.75 20.11H5.35999C5.15999 20.11 5 19.95 5 19.75V15.82C5 12.48 7.71999 9.77002 11.05 9.77002C14.38 9.77002 17.1 12.49 17.1 15.82V19.75C17.1 19.95 16.94 20.11 16.74 20.11H16.75ZM11.06 9.95003C7.83 9.95003 5.20001 12.58 5.20001 15.81V19.74C5.20001 19.83 5.26999 19.9 5.35999 19.9H16.75C16.84 19.9 16.91 19.83 16.91 19.74V15.81C16.91 12.58 14.28 9.95003 11.05 9.95003H11.06ZM16.49 19.58H5.63C5.58 19.58 5.53003 19.54 5.53003 19.48V15.81C5.53003 12.76 8.01 10.28 11.06 10.28C14.11 10.28 16.59 12.76 16.59 15.81V19.48C16.59 19.53 16.55 19.58 16.49 19.58ZM5.72998 19.39H16.4V15.82C16.4 12.88 14.01 10.49 11.07 10.49C8.13001 10.49 5.73999 12.88 5.73999 15.82V19.39H5.72998Z" fill="#231F20"/>
</svg>
